<svg width="300" height="300" viewBox="0 0 300 300" fill="none" xmlns="http://www.w3.org/2000/svg">
<path opacity="0.8" d="M47.0001 64C59.0889 45.1407 55.7324 25.6258 69.3711 24C83.01 24 100.561 26.6194 108 38C115.439 49.3806 113.45 60.791 115 79C116.55 97.209 123.369 102.364 115 109.192C106.631 116.02 83.6295 129.677 69.3711 134.88C55.1127 140.082 34.0344 126.426 23.4954 109.192C12.9564 91.9585 34.9112 82.8593 47.0001 64Z" fill="#FCEEDE"/>
<path opacity="0.64" d="M200.861 49.9121C220.036 53.3179 219.625 57.3552 234.969 75.5222C263.725 110.786 264.631 139.138 237.242 167.821C209.853 196.504 208.83 169.304 186.189 151.269C163.548 133.234 165.014 118.816 142.407 97.5796C119.8 76.3434 128.92 72.6087 162 56.7415C195.079 40.8742 181.686 46.5063 200.861 49.9121Z" fill="#A5DEDA"/>
<path opacity="0.4" d="M173.473 212.733C161.293 230.249 152.071 229.677 130.06 243.183C124.897 246.351 112.736 245.953 101.027 244.972C89.3173 243.991 78.0783 224.512 71.9891 208.118C65.8999 191.724 64.3936 173.294 73.3151 155.989C82.2366 138.683 99.4185 134.633 119.836 126.717C140.253 118.8 143.294 118.004 159.399 138.007C175.504 158.01 176.091 157.792 185.155 171.416C194.219 185.039 185.653 195.217 173.473 212.733Z" fill="#EA5B47"/>
<mask id="path-4-outside-1" maskUnits="userSpaceOnUse" x="102.663" y="23.0742" width="102" height="262" fill="black">
<rect fill="white" x="102.663" y="23.0742" width="102" height="262"/>
<path d="M160 210.333C158.377 210.955 156.523 211.344 155.132 212.277C149.106 216.166 143.311 220.366 137.285 224.255C135.353 225.499 133.035 226.51 130.717 226.977C126.622 227.677 123.764 224.41 124.691 220.366C125.773 215.699 128.631 212.666 133.113 211.033C138.057 209.244 143.079 207.61 147.87 205.433C151.424 203.799 154.901 201.699 157.991 199.21C161.004 196.721 162.241 193.066 161.854 188.788C158.377 188.788 155.21 188.788 152.119 188.788C152.042 188.399 151.965 187.933 151.887 187.544C153.433 187.155 154.978 186.61 156.523 186.377C162.936 185.599 163.013 185.599 162.472 178.91C162.318 176.577 161.854 174.244 161.545 171.677C157.373 173.155 153.355 173.933 150.11 176.033C148.411 177.121 147.792 180.31 147.329 182.721C146.556 186.377 147.561 189.799 149.26 193.144C151.887 198.355 150.651 201.077 145.166 203.177C144.084 203.566 142.848 203.877 141.766 204.266C134.967 206.366 131.49 204.577 130.486 197.577C128.94 186.921 129.713 176.344 134.117 166.31C135.585 163.044 137.671 160.01 139.834 157.133C143.157 152.699 150.11 152.077 154.592 155.733C156.446 157.21 158.377 158.688 159.845 160.555C161.236 162.344 162.086 164.521 163.322 166.699C169.581 161.099 174.216 154.799 174.139 146.01C174.062 140.877 175.298 139.399 180.243 137.844C181.943 137.299 183.565 136.366 185.188 135.666C185.11 135.277 185.11 134.81 185.033 134.421C182.561 134.033 180.166 133.488 177.693 133.333C172.516 133.099 172.13 132.788 172.13 127.577C172.207 118.244 172.285 108.91 172.362 99.577C172.362 98.0215 171.976 96.3881 171.898 94.8326C171.898 89.9326 172.98 88.7659 177.77 87.9881C179.625 87.677 181.479 87.1326 183.256 86.0437C182.715 85.8881 182.252 85.6548 181.711 85.577C176.302 84.7992 176.302 84.7992 175.993 79.1992C175.762 74.9992 175.375 70.9548 177.848 66.9881C178.698 65.6659 177.539 62.3992 176.38 60.6104C173.598 56.3326 170.353 52.4437 167.108 48.477C166.567 47.777 165.408 47.3881 164.481 47.2326C157.296 45.9104 150.265 46.2992 143.388 49.0992C136.126 52.0548 132.726 58.1215 130.022 64.8104C126.777 72.8992 126.236 81.4548 126.236 89.9326C126.236 105.644 126.7 121.355 127.241 137.066C127.395 141.11 128.322 145.233 129.327 149.121C130.331 153.088 131.876 156.899 132.958 159.933C130.486 166.855 128.09 173.155 125.927 179.61C125 182.41 123.532 183.655 120.75 182.799C119.051 182.255 117.196 181.244 116.037 179.921C112.329 175.799 109.779 171.055 108.466 165.455C104.757 148.655 104.603 131.621 104.139 114.588C103.907 105.488 103.598 96.3881 103.675 87.2103C103.675 72.8992 107.307 59.3659 114.26 46.9215C120.519 35.7992 130.331 28.9548 142.77 26.6992C149.801 25.377 156.987 23.7437 164.018 24.1326C179.47 24.9104 189.36 33.9326 194.691 48.2437C195 49.0215 195.232 49.7215 195.541 50.4992C196.7 53.8437 196.159 55.7881 193.455 57.8881C193.146 58.1215 192.837 58.4326 192.605 58.7437C192.45 58.977 192.373 59.2881 192.064 59.8326C198.168 62.0104 199.095 67.377 199.636 72.8992C200.022 76.3992 199.095 79.4326 196.7 81.9992C195.541 83.2437 195.077 84.7215 196.854 85.4215C202.185 87.4437 202.572 92.2659 202.726 96.6215C203.19 106.966 203.035 117.388 203.113 127.81C203.113 130.533 201.876 132.399 199.327 133.333C198.245 133.721 197.241 134.266 195.773 134.966C196.7 135.744 197.241 136.055 197.627 136.521C198.631 137.766 200.177 139.01 200.408 140.41C201.104 145.077 199.713 149.277 196.545 152.855C196.004 153.477 195.232 154.177 195.154 154.955C193.996 164.366 188.973 171.444 182.097 177.51C177.616 181.399 172.826 184.666 167.263 186.921C166.181 187.388 164.945 188.788 164.79 189.877C163.709 199.988 156.678 204.499 148.488 207.844C143.157 210.021 137.748 211.966 132.34 213.988C129.713 214.999 128.09 216.944 127.472 219.666C127.163 220.833 126.932 222.699 127.55 223.244C128.477 224.099 130.486 224.644 131.567 224.255C134.503 223.088 137.285 221.533 139.912 219.744C143.929 217.021 147.638 213.755 151.733 211.11C153.819 209.71 156.446 208.933 158.841 208.233C161.777 207.455 163.94 209.555 163.245 212.433C162.318 216.477 160.541 219.899 156.369 221.999C151.501 224.41 147.097 227.755 142.307 230.477C138.598 232.655 134.735 234.521 130.949 236.544C128.245 238.021 126.622 240.433 126.004 243.388C125.85 244.321 126.468 245.41 126.7 246.344C127.472 245.877 128.322 245.488 129.018 244.944C130.486 243.699 131.645 241.988 133.267 241.21C138.598 238.877 138.598 238.721 143.311 242.844C146.865 240.899 150.497 238.955 154.051 236.855C154.592 236.544 154.901 235.221 154.746 234.444C153.433 228.221 156.446 226.355 160.618 224.566C161.545 224.177 163.399 224.799 164.327 225.577C164.945 226.121 165.099 227.755 164.79 228.766C164.327 230.321 163.631 232.11 162.472 233.199C159.459 235.999 159.923 239.266 160.927 242.533C163.245 250.31 163.245 258.166 162.009 266.021C161.545 269.055 160.695 272.399 157.373 273.099C154.128 273.799 152.351 270.844 150.883 268.277C149.569 265.944 148.333 263.61 147.02 261.277C137.053 266.099 127.472 270.999 122.759 282.044C121.755 278.466 123.686 276.055 125.309 273.799C129.713 267.81 135.971 264.31 142.539 261.277C146.556 259.41 147.174 257.621 145.166 253.733C144.238 251.866 143.234 251.244 141.225 252.644C136.744 255.833 132.185 258.866 127.55 261.666C126.391 262.366 124.073 262.91 123.3 262.288C122.373 261.588 122.141 259.333 122.373 257.933C122.914 255.521 124.15 253.266 124.923 250.933C125.154 250.233 125 248.988 124.536 248.444C122.682 246.344 122.682 244.321 123.609 241.755C126.159 234.988 132.417 232.888 137.903 229.699C144.161 226.121 150.497 222.544 156.755 218.81C159.923 217.333 160.927 213.833 160 210.333ZM122.45 181.166C124.768 175.177 126.7 169.733 128.94 164.444C130.099 161.721 130.486 159.388 129.327 156.433C126.004 147.877 124.614 138.777 124.305 129.677C123.841 116.844 123.532 104.01 123.455 91.177C123.455 82.8548 123.686 74.4548 126.545 66.5215C128.554 60.9992 130.64 55.2437 135.276 51.3548C143.698 44.1992 153.742 43.0326 164.249 44.7437C165.872 44.977 167.726 45.5215 168.885 46.5326C173.675 51.0437 177.925 56.177 180.011 62.6326C180.629 64.577 181.324 65.7437 183.72 65.277C185.11 65.0437 186.656 65.5881 187.969 66.1326C190.596 67.2992 191.369 70.4881 190.055 73.5992C188.973 76.0881 187.042 76.9437 184.183 75.5437C182.252 74.6103 180.784 72.8215 178.234 70.7992C178.543 74.8437 178.388 78.4215 179.238 81.6103C179.547 82.6992 182.483 83.0103 184.26 83.7103C184.338 83.7103 184.492 83.7103 184.569 83.7881C185.265 84.4103 186.578 85.1103 186.501 85.6548C186.501 86.5103 185.651 87.8326 184.879 88.1437C182.87 88.9992 180.784 89.5437 178.62 90.0103C174.757 90.9437 174.525 91.3326 174.525 95.2215C174.603 106.11 174.603 116.999 174.525 127.888C174.525 130.066 174.989 130.844 177.307 130.921C180.088 130.999 182.947 131.388 185.497 132.321C188.278 133.333 188.433 135.433 186.037 136.988C184.338 138.155 182.329 138.933 180.397 139.633C177.075 140.799 176.148 142.044 176.148 145.621C176.148 147.488 175.916 149.355 175.607 151.221C174.603 157.833 170.276 162.499 165.872 167.01C165.099 167.866 164.018 168.955 164.095 169.888C164.481 174.71 165.177 179.533 165.717 184.433C177.925 181.321 194.073 164.755 192.373 155.11C189.051 155.655 185.188 153.866 184.415 151.455C183.642 149.121 185.651 145.233 188.51 144.61C192.914 143.599 194.536 146.633 195.077 150.755C197.859 148.188 198.09 145.233 198.168 142.355C198.245 140.488 197.627 139.01 195.618 137.999C192.759 136.599 192.837 134.266 195.464 132.477C196.391 131.855 197.627 131.699 198.4 130.999C199.404 129.988 200.717 128.588 200.717 127.344C200.795 117.699 200.563 108.133 200.331 98.4881C200.331 96.6992 199.945 94.9103 199.636 93.1215C199.249 90.6326 198.013 88.9992 195.618 87.9103C192.605 86.5103 192.141 84.0992 194.073 81.377C199.172 74.377 197.55 66.3659 190.21 62.1659C188.278 61.077 187.892 59.7548 189.514 58.1215C190.055 57.577 190.596 56.877 191.291 56.4881C193.532 55.0881 193.764 53.2992 192.682 51.0437C191.06 47.8548 189.669 44.5104 187.815 41.3992C181.788 30.277 171.821 25.7659 159.382 26.4659C156.446 26.6215 153.51 27.3215 150.574 27.7881C142.925 28.9548 135.43 30.1992 128.863 35.2548C123.996 38.9881 119.669 42.877 116.656 48.1659C108.929 61.777 105.839 76.5548 106.302 92.1103C106.689 105.877 107.539 119.566 107.693 133.333C107.848 142.277 108.234 151.144 109.934 159.933C111.247 166.855 113.101 173.466 118.201 178.599C119.282 179.688 120.982 180.31 122.45 181.166ZM149.338 174.01C152.892 172.61 156.06 171.521 159.073 170.199C160.773 169.499 161.159 167.866 160.154 166.466C158.068 163.588 155.828 160.866 153.433 158.221C149.647 154.021 144.316 155.344 141.38 158.921C139.139 161.644 136.898 164.755 135.817 168.099C133.19 176.421 131.799 185.055 132.572 193.921C133.344 202.866 136.28 204.81 144.625 201.31C144.702 201.31 144.779 201.233 144.934 201.233C148.333 199.677 149.183 197.888 147.406 194.621C144.702 189.799 144.161 184.744 145.784 179.533C146.633 176.655 146.015 175.099 143.079 174.088C140.298 173.077 140.375 170.51 140.916 168.177C141.534 165.533 143.852 165.455 146.015 165.844C148.179 166.233 149.492 167.71 149.569 170.044C149.569 171.133 149.415 172.144 149.338 174.01ZM161.777 257.233C160.927 252.488 160.232 247.433 159.15 242.377C158.532 239.266 156.755 238.566 153.896 240.044C151.578 241.21 149.338 242.455 147.174 243.855C146.247 244.477 145.706 245.644 144.934 246.577C146.015 247.355 147.02 248.521 148.256 248.833C153.046 250.155 154.205 253.033 151.578 257.388C151.192 258.088 150.574 258.633 150.265 259.333C150.033 259.877 149.724 260.733 149.956 261.199C151.269 263.921 152.505 266.799 154.205 269.288C156.06 272.088 158.609 271.699 159.614 268.51C160.618 265.088 161.004 261.355 161.777 257.233ZM125.232 260.888C126.313 260.266 127.241 259.877 128.013 259.333C132.572 256.299 137.053 253.188 141.534 250.077C142.23 249.61 142.539 248.599 143.079 247.821C142.152 247.666 141.148 247.277 140.221 247.51C137.362 248.21 134.581 249.455 131.645 249.999C127.009 250.699 123.841 255.521 125.232 260.888ZM192.837 150.521C192.759 148.188 192.373 145.933 189.978 146.244C188.664 146.399 186.887 148.266 186.656 149.51C186.347 151.61 188.278 152.855 190.287 152.933C191.909 153.088 193.146 152.233 192.837 150.521ZM181.247 67.9992C182.174 69.6326 182.87 71.4215 184.029 72.6659C184.647 73.3659 186.578 73.8326 187.119 73.4437C187.969 72.8215 188.51 71.1881 188.355 70.0992C188.124 67.2992 185.574 66.4437 181.247 67.9992ZM130.717 246.499C130.872 246.81 130.949 247.044 131.104 247.355C133.731 246.655 136.435 246.11 139.062 245.255C139.757 245.021 140.221 244.01 140.839 243.31C139.989 242.766 139.062 241.755 138.212 241.755C134.89 241.833 132.263 243.466 130.717 246.499ZM157.605 231.877C157.914 232.11 158.532 232.733 159.227 233.355C160.464 231.799 161.7 230.244 162.781 228.533C162.859 228.455 161.545 226.977 161.004 227.055C158.764 227.288 157.605 228.766 157.605 231.877ZM146.556 173.077C147.329 170.977 147.483 169.188 145.475 168.255C144.934 168.021 143.234 168.644 143.157 169.11C142.693 171.444 144.238 172.455 146.556 173.077ZM147.715 251.01C147.406 251.244 147.097 251.555 146.865 251.788C147.406 253.499 147.947 255.21 148.488 256.921C148.874 256.921 149.183 256.921 149.569 256.921C149.801 255.521 150.419 254.044 150.188 252.721C150.033 252.021 148.565 251.555 147.715 251.01Z"/>
</mask>
<path d="M160 210.333C158.377 210.955 156.523 211.344 155.132 212.277C149.106 216.166 143.311 220.366 137.285 224.255C135.353 225.499 133.035 226.51 130.717 226.977C126.622 227.677 123.764 224.41 124.691 220.366C125.773 215.699 128.631 212.666 133.113 211.033C138.057 209.244 143.079 207.61 147.87 205.433C151.424 203.799 154.901 201.699 157.991 199.21C161.004 196.721 162.241 193.066 161.854 188.788C158.377 188.788 155.21 188.788 152.119 188.788C152.042 188.399 151.965 187.933 151.887 187.544C153.433 187.155 154.978 186.61 156.523 186.377C162.936 185.599 163.013 185.599 162.472 178.91C162.318 176.577 161.854 174.244 161.545 171.677C157.373 173.155 153.355 173.933 150.11 176.033C148.411 177.121 147.792 180.31 147.329 182.721C146.556 186.377 147.561 189.799 149.26 193.144C151.887 198.355 150.651 201.077 145.166 203.177C144.084 203.566 142.848 203.877 141.766 204.266C134.967 206.366 131.49 204.577 130.486 197.577C128.94 186.921 129.713 176.344 134.117 166.31C135.585 163.044 137.671 160.01 139.834 157.133C143.157 152.699 150.11 152.077 154.592 155.733C156.446 157.21 158.377 158.688 159.845 160.555C161.236 162.344 162.086 164.521 163.322 166.699C169.581 161.099 174.216 154.799 174.139 146.01C174.062 140.877 175.298 139.399 180.243 137.844C181.943 137.299 183.565 136.366 185.188 135.666C185.11 135.277 185.11 134.81 185.033 134.421C182.561 134.033 180.166 133.488 177.693 133.333C172.516 133.099 172.13 132.788 172.13 127.577C172.207 118.244 172.285 108.91 172.362 99.577C172.362 98.0215 171.976 96.3881 171.898 94.8326C171.898 89.9326 172.98 88.7659 177.77 87.9881C179.625 87.677 181.479 87.1326 183.256 86.0437C182.715 85.8881 182.252 85.6548 181.711 85.577C176.302 84.7992 176.302 84.7992 175.993 79.1992C175.762 74.9992 175.375 70.9548 177.848 66.9881C178.698 65.6659 177.539 62.3992 176.38 60.6104C173.598 56.3326 170.353 52.4437 167.108 48.477C166.567 47.777 165.408 47.3881 164.481 47.2326C157.296 45.9104 150.265 46.2992 143.388 49.0992C136.126 52.0548 132.726 58.1215 130.022 64.8104C126.777 72.8992 126.236 81.4548 126.236 89.9326C126.236 105.644 126.7 121.355 127.241 137.066C127.395 141.11 128.322 145.233 129.327 149.121C130.331 153.088 131.876 156.899 132.958 159.933C130.486 166.855 128.09 173.155 125.927 179.61C125 182.41 123.532 183.655 120.75 182.799C119.051 182.255 117.196 181.244 116.037 179.921C112.329 175.799 109.779 171.055 108.466 165.455C104.757 148.655 104.603 131.621 104.139 114.588C103.907 105.488 103.598 96.3881 103.675 87.2103C103.675 72.8992 107.307 59.3659 114.26 46.9215C120.519 35.7992 130.331 28.9548 142.77 26.6992C149.801 25.377 156.987 23.7437 164.018 24.1326C179.47 24.9104 189.36 33.9326 194.691 48.2437C195 49.0215 195.232 49.7215 195.541 50.4992C196.7 53.8437 196.159 55.7881 193.455 57.8881C193.146 58.1215 192.837 58.4326 192.605 58.7437C192.45 58.977 192.373 59.2881 192.064 59.8326C198.168 62.0104 199.095 67.377 199.636 72.8992C200.022 76.3992 199.095 79.4326 196.7 81.9992C195.541 83.2437 195.077 84.7215 196.854 85.4215C202.185 87.4437 202.572 92.2659 202.726 96.6215C203.19 106.966 203.035 117.388 203.113 127.81C203.113 130.533 201.876 132.399 199.327 133.333C198.245 133.721 197.241 134.266 195.773 134.966C196.7 135.744 197.241 136.055 197.627 136.521C198.631 137.766 200.177 139.01 200.408 140.41C201.104 145.077 199.713 149.277 196.545 152.855C196.004 153.477 195.232 154.177 195.154 154.955C193.996 164.366 188.973 171.444 182.097 177.51C177.616 181.399 172.826 184.666 167.263 186.921C166.181 187.388 164.945 188.788 164.79 189.877C163.709 199.988 156.678 204.499 148.488 207.844C143.157 210.021 137.748 211.966 132.34 213.988C129.713 214.999 128.09 216.944 127.472 219.666C127.163 220.833 126.932 222.699 127.55 223.244C128.477 224.099 130.486 224.644 131.567 224.255C134.503 223.088 137.285 221.533 139.912 219.744C143.929 217.021 147.638 213.755 151.733 211.11C153.819 209.71 156.446 208.933 158.841 208.233C161.777 207.455 163.94 209.555 163.245 212.433C162.318 216.477 160.541 219.899 156.369 221.999C151.501 224.41 147.097 227.755 142.307 230.477C138.598 232.655 134.735 234.521 130.949 236.544C128.245 238.021 126.622 240.433 126.004 243.388C125.85 244.321 126.468 245.41 126.7 246.344C127.472 245.877 128.322 245.488 129.018 244.944C130.486 243.699 131.645 241.988 133.267 241.21C138.598 238.877 138.598 238.721 143.311 242.844C146.865 240.899 150.497 238.955 154.051 236.855C154.592 236.544 154.901 235.221 154.746 234.444C153.433 228.221 156.446 226.355 160.618 224.566C161.545 224.177 163.399 224.799 164.327 225.577C164.945 226.121 165.099 227.755 164.79 228.766C164.327 230.321 163.631 232.11 162.472 233.199C159.459 235.999 159.923 239.266 160.927 242.533C163.245 250.31 163.245 258.166 162.009 266.021C161.545 269.055 160.695 272.399 157.373 273.099C154.128 273.799 152.351 270.844 150.883 268.277C149.569 265.944 148.333 263.61 147.02 261.277C137.053 266.099 127.472 270.999 122.759 282.044C121.755 278.466 123.686 276.055 125.309 273.799C129.713 267.81 135.971 264.31 142.539 261.277C146.556 259.41 147.174 257.621 145.166 253.733C144.238 251.866 143.234 251.244 141.225 252.644C136.744 255.833 132.185 258.866 127.55 261.666C126.391 262.366 124.073 262.91 123.3 262.288C122.373 261.588 122.141 259.333 122.373 257.933C122.914 255.521 124.15 253.266 124.923 250.933C125.154 250.233 125 248.988 124.536 248.444C122.682 246.344 122.682 244.321 123.609 241.755C126.159 234.988 132.417 232.888 137.903 229.699C144.161 226.121 150.497 222.544 156.755 218.81C159.923 217.333 160.927 213.833 160 210.333ZM122.45 181.166C124.768 175.177 126.7 169.733 128.94 164.444C130.099 161.721 130.486 159.388 129.327 156.433C126.004 147.877 124.614 138.777 124.305 129.677C123.841 116.844 123.532 104.01 123.455 91.177C123.455 82.8548 123.686 74.4548 126.545 66.5215C128.554 60.9992 130.64 55.2437 135.276 51.3548C143.698 44.1992 153.742 43.0326 164.249 44.7437C165.872 44.977 167.726 45.5215 168.885 46.5326C173.675 51.0437 177.925 56.177 180.011 62.6326C180.629 64.577 181.324 65.7437 183.72 65.277C185.11 65.0437 186.656 65.5881 187.969 66.1326C190.596 67.2992 191.369 70.4881 190.055 73.5992C188.973 76.0881 187.042 76.9437 184.183 75.5437C182.252 74.6103 180.784 72.8215 178.234 70.7992C178.543 74.8437 178.388 78.4215 179.238 81.6103C179.547 82.6992 182.483 83.0103 184.26 83.7103C184.338 83.7103 184.492 83.7103 184.569 83.7881C185.265 84.4103 186.578 85.1103 186.501 85.6548C186.501 86.5103 185.651 87.8326 184.879 88.1437C182.87 88.9992 180.784 89.5437 178.62 90.0103C174.757 90.9437 174.525 91.3326 174.525 95.2215C174.603 106.11 174.603 116.999 174.525 127.888C174.525 130.066 174.989 130.844 177.307 130.921C180.088 130.999 182.947 131.388 185.497 132.321C188.278 133.333 188.433 135.433 186.037 136.988C184.338 138.155 182.329 138.933 180.397 139.633C177.075 140.799 176.148 142.044 176.148 145.621C176.148 147.488 175.916 149.355 175.607 151.221C174.603 157.833 170.276 162.499 165.872 167.01C165.099 167.866 164.018 168.955 164.095 169.888C164.481 174.71 165.177 179.533 165.717 184.433C177.925 181.321 194.073 164.755 192.373 155.11C189.051 155.655 185.188 153.866 184.415 151.455C183.642 149.121 185.651 145.233 188.51 144.61C192.914 143.599 194.536 146.633 195.077 150.755C197.859 148.188 198.09 145.233 198.168 142.355C198.245 140.488 197.627 139.01 195.618 137.999C192.759 136.599 192.837 134.266 195.464 132.477C196.391 131.855 197.627 131.699 198.4 130.999C199.404 129.988 200.717 128.588 200.717 127.344C200.795 117.699 200.563 108.133 200.331 98.4881C200.331 96.6992 199.945 94.9103 199.636 93.1215C199.249 90.6326 198.013 88.9992 195.618 87.9103C192.605 86.5103 192.141 84.0992 194.073 81.377C199.172 74.377 197.55 66.3659 190.21 62.1659C188.278 61.077 187.892 59.7548 189.514 58.1215C190.055 57.577 190.596 56.877 191.291 56.4881C193.532 55.0881 193.764 53.2992 192.682 51.0437C191.06 47.8548 189.669 44.5104 187.815 41.3992C181.788 30.277 171.821 25.7659 159.382 26.4659C156.446 26.6215 153.51 27.3215 150.574 27.7881C142.925 28.9548 135.43 30.1992 128.863 35.2548C123.996 38.9881 119.669 42.877 116.656 48.1659C108.929 61.777 105.839 76.5548 106.302 92.1103C106.689 105.877 107.539 119.566 107.693 133.333C107.848 142.277 108.234 151.144 109.934 159.933C111.247 166.855 113.101 173.466 118.201 178.599C119.282 179.688 120.982 180.31 122.45 181.166ZM149.338 174.01C152.892 172.61 156.06 171.521 159.073 170.199C160.773 169.499 161.159 167.866 160.154 166.466C158.068 163.588 155.828 160.866 153.433 158.221C149.647 154.021 144.316 155.344 141.38 158.921C139.139 161.644 136.898 164.755 135.817 168.099C133.19 176.421 131.799 185.055 132.572 193.921C133.344 202.866 136.28 204.81 144.625 201.31C144.702 201.31 144.779 201.233 144.934 201.233C148.333 199.677 149.183 197.888 147.406 194.621C144.702 189.799 144.161 184.744 145.784 179.533C146.633 176.655 146.015 175.099 143.079 174.088C140.298 173.077 140.375 170.51 140.916 168.177C141.534 165.533 143.852 165.455 146.015 165.844C148.179 166.233 149.492 167.71 149.569 170.044C149.569 171.133 149.415 172.144 149.338 174.01ZM161.777 257.233C160.927 252.488 160.232 247.433 159.15 242.377C158.532 239.266 156.755 238.566 153.896 240.044C151.578 241.21 149.338 242.455 147.174 243.855C146.247 244.477 145.706 245.644 144.934 246.577C146.015 247.355 147.02 248.521 148.256 248.833C153.046 250.155 154.205 253.033 151.578 257.388C151.192 258.088 150.574 258.633 150.265 259.333C150.033 259.877 149.724 260.733 149.956 261.199C151.269 263.921 152.505 266.799 154.205 269.288C156.06 272.088 158.609 271.699 159.614 268.51C160.618 265.088 161.004 261.355 161.777 257.233ZM125.232 260.888C126.313 260.266 127.241 259.877 128.013 259.333C132.572 256.299 137.053 253.188 141.534 250.077C142.23 249.61 142.539 248.599 143.079 247.821C142.152 247.666 141.148 247.277 140.221 247.51C137.362 248.21 134.581 249.455 131.645 249.999C127.009 250.699 123.841 255.521 125.232 260.888ZM192.837 150.521C192.759 148.188 192.373 145.933 189.978 146.244C188.664 146.399 186.887 148.266 186.656 149.51C186.347 151.61 188.278 152.855 190.287 152.933C191.909 153.088 193.146 152.233 192.837 150.521ZM181.247 67.9992C182.174 69.6326 182.87 71.4215 184.029 72.6659C184.647 73.3659 186.578 73.8326 187.119 73.4437C187.969 72.8215 188.51 71.1881 188.355 70.0992C188.124 67.2992 185.574 66.4437 181.247 67.9992ZM130.717 246.499C130.872 246.81 130.949 247.044 131.104 247.355C133.731 246.655 136.435 246.11 139.062 245.255C139.757 245.021 140.221 244.01 140.839 243.31C139.989 242.766 139.062 241.755 138.212 241.755C134.89 241.833 132.263 243.466 130.717 246.499ZM157.605 231.877C157.914 232.11 158.532 232.733 159.227 233.355C160.464 231.799 161.7 230.244 162.781 228.533C162.859 228.455 161.545 226.977 161.004 227.055C158.764 227.288 157.605 228.766 157.605 231.877ZM146.556 173.077C147.329 170.977 147.483 169.188 145.475 168.255C144.934 168.021 143.234 168.644 143.157 169.11C142.693 171.444 144.238 172.455 146.556 173.077ZM147.715 251.01C147.406 251.244 147.097 251.555 146.865 251.788C147.406 253.499 147.947 255.21 148.488 256.921C148.874 256.921 149.183 256.921 149.569 256.921C149.801 255.521 150.419 254.044 150.188 252.721C150.033 252.021 148.565 251.555 147.715 251.01Z" fill="#2E3A33"/>
<path d="M160 210.333C158.377 210.955 156.523 211.344 155.132 212.277C149.106 216.166 143.311 220.366 137.285 224.255C135.353 225.499 133.035 226.51 130.717 226.977C126.622 227.677 123.764 224.41 124.691 220.366C125.773 215.699 128.631 212.666 133.113 211.033C138.057 209.244 143.079 207.61 147.87 205.433C151.424 203.799 154.901 201.699 157.991 199.21C161.004 196.721 162.241 193.066 161.854 188.788C158.377 188.788 155.21 188.788 152.119 188.788C152.042 188.399 151.965 187.933 151.887 187.544C153.433 187.155 154.978 186.61 156.523 186.377C162.936 185.599 163.013 185.599 162.472 178.91C162.318 176.577 161.854 174.244 161.545 171.677C157.373 173.155 153.355 173.933 150.11 176.033C148.411 177.121 147.792 180.31 147.329 182.721C146.556 186.377 147.561 189.799 149.26 193.144C151.887 198.355 150.651 201.077 145.166 203.177C144.084 203.566 142.848 203.877 141.766 204.266C134.967 206.366 131.49 204.577 130.486 197.577C128.94 186.921 129.713 176.344 134.117 166.31C135.585 163.044 137.671 160.01 139.834 157.133C143.157 152.699 150.11 152.077 154.592 155.733C156.446 157.21 158.377 158.688 159.845 160.555C161.236 162.344 162.086 164.521 163.322 166.699C169.581 161.099 174.216 154.799 174.139 146.01C174.062 140.877 175.298 139.399 180.243 137.844C181.943 137.299 183.565 136.366 185.188 135.666C185.11 135.277 185.11 134.81 185.033 134.421C182.561 134.033 180.166 133.488 177.693 133.333C172.516 133.099 172.13 132.788 172.13 127.577C172.207 118.244 172.285 108.91 172.362 99.577C172.362 98.0215 171.976 96.3881 171.898 94.8326C171.898 89.9326 172.98 88.7659 177.77 87.9881C179.625 87.677 181.479 87.1326 183.256 86.0437C182.715 85.8881 182.252 85.6548 181.711 85.577C176.302 84.7992 176.302 84.7992 175.993 79.1992C175.762 74.9992 175.375 70.9548 177.848 66.9881C178.698 65.6659 177.539 62.3992 176.38 60.6104C173.598 56.3326 170.353 52.4437 167.108 48.477C166.567 47.777 165.408 47.3881 164.481 47.2326C157.296 45.9104 150.265 46.2992 143.388 49.0992C136.126 52.0548 132.726 58.1215 130.022 64.8104C126.777 72.8992 126.236 81.4548 126.236 89.9326C126.236 105.644 126.7 121.355 127.241 137.066C127.395 141.11 128.322 145.233 129.327 149.121C130.331 153.088 131.876 156.899 132.958 159.933C130.486 166.855 128.09 173.155 125.927 179.61C125 182.41 123.532 183.655 120.75 182.799C119.051 182.255 117.196 181.244 116.037 179.921C112.329 175.799 109.779 171.055 108.466 165.455C104.757 148.655 104.603 131.621 104.139 114.588C103.907 105.488 103.598 96.3881 103.675 87.2103C103.675 72.8992 107.307 59.3659 114.26 46.9215C120.519 35.7992 130.331 28.9548 142.77 26.6992C149.801 25.377 156.987 23.7437 164.018 24.1326C179.47 24.9104 189.36 33.9326 194.691 48.2437C195 49.0215 195.232 49.7215 195.541 50.4992C196.7 53.8437 196.159 55.7881 193.455 57.8881C193.146 58.1215 192.837 58.4326 192.605 58.7437C192.45 58.977 192.373 59.2881 192.064 59.8326C198.168 62.0104 199.095 67.377 199.636 72.8992C200.022 76.3992 199.095 79.4326 196.7 81.9992C195.541 83.2437 195.077 84.7215 196.854 85.4215C202.185 87.4437 202.572 92.2659 202.726 96.6215C203.19 106.966 203.035 117.388 203.113 127.81C203.113 130.533 201.876 132.399 199.327 133.333C198.245 133.721 197.241 134.266 195.773 134.966C196.7 135.744 197.241 136.055 197.627 136.521C198.631 137.766 200.177 139.01 200.408 140.41C201.104 145.077 199.713 149.277 196.545 152.855C196.004 153.477 195.232 154.177 195.154 154.955C193.996 164.366 188.973 171.444 182.097 177.51C177.616 181.399 172.826 184.666 167.263 186.921C166.181 187.388 164.945 188.788 164.79 189.877C163.709 199.988 156.678 204.499 148.488 207.844C143.157 210.021 137.748 211.966 132.34 213.988C129.713 214.999 128.09 216.944 127.472 219.666C127.163 220.833 126.932 222.699 127.55 223.244C128.477 224.099 130.486 224.644 131.567 224.255C134.503 223.088 137.285 221.533 139.912 219.744C143.929 217.021 147.638 213.755 151.733 211.11C153.819 209.71 156.446 208.933 158.841 208.233C161.777 207.455 163.94 209.555 163.245 212.433C162.318 216.477 160.541 219.899 156.369 221.999C151.501 224.41 147.097 227.755 142.307 230.477C138.598 232.655 134.735 234.521 130.949 236.544C128.245 238.021 126.622 240.433 126.004 243.388C125.85 244.321 126.468 245.41 126.7 246.344C127.472 245.877 128.322 245.488 129.018 244.944C130.486 243.699 131.645 241.988 133.267 241.21C138.598 238.877 138.598 238.721 143.311 242.844C146.865 240.899 150.497 238.955 154.051 236.855C154.592 236.544 154.901 235.221 154.746 234.444C153.433 228.221 156.446 226.355 160.618 224.566C161.545 224.177 163.399 224.799 164.327 225.577C164.945 226.121 165.099 227.755 164.79 228.766C164.327 230.321 163.631 232.11 162.472 233.199C159.459 235.999 159.923 239.266 160.927 242.533C163.245 250.31 163.245 258.166 162.009 266.021C161.545 269.055 160.695 272.399 157.373 273.099C154.128 273.799 152.351 270.844 150.883 268.277C149.569 265.944 148.333 263.61 147.02 261.277C137.053 266.099 127.472 270.999 122.759 282.044C121.755 278.466 123.686 276.055 125.309 273.799C129.713 267.81 135.971 264.31 142.539 261.277C146.556 259.41 147.174 257.621 145.166 253.733C144.238 251.866 143.234 251.244 141.225 252.644C136.744 255.833 132.185 258.866 127.55 261.666C126.391 262.366 124.073 262.91 123.3 262.288C122.373 261.588 122.141 259.333 122.373 257.933C122.914 255.521 124.15 253.266 124.923 250.933C125.154 250.233 125 248.988 124.536 248.444C122.682 246.344 122.682 244.321 123.609 241.755C126.159 234.988 132.417 232.888 137.903 229.699C144.161 226.121 150.497 222.544 156.755 218.81C159.923 217.333 160.927 213.833 160 210.333ZM122.45 181.166C124.768 175.177 126.7 169.733 128.94 164.444C130.099 161.721 130.486 159.388 129.327 156.433C126.004 147.877 124.614 138.777 124.305 129.677C123.841 116.844 123.532 104.01 123.455 91.177C123.455 82.8548 123.686 74.4548 126.545 66.5215C128.554 60.9992 130.64 55.2437 135.276 51.3548C143.698 44.1992 153.742 43.0326 164.249 44.7437C165.872 44.977 167.726 45.5215 168.885 46.5326C173.675 51.0437 177.925 56.177 180.011 62.6326C180.629 64.577 181.324 65.7437 183.72 65.277C185.11 65.0437 186.656 65.5881 187.969 66.1326C190.596 67.2992 191.369 70.4881 190.055 73.5992C188.973 76.0881 187.042 76.9437 184.183 75.5437C182.252 74.6103 180.784 72.8215 178.234 70.7992C178.543 74.8437 178.388 78.4215 179.238 81.6103C179.547 82.6992 182.483 83.0103 184.26 83.7103C184.338 83.7103 184.492 83.7103 184.569 83.7881C185.265 84.4103 186.578 85.1103 186.501 85.6548C186.501 86.5103 185.651 87.8326 184.879 88.1437C182.87 88.9992 180.784 89.5437 178.62 90.0103C174.757 90.9437 174.525 91.3326 174.525 95.2215C174.603 106.11 174.603 116.999 174.525 127.888C174.525 130.066 174.989 130.844 177.307 130.921C180.088 130.999 182.947 131.388 185.497 132.321C188.278 133.333 188.433 135.433 186.037 136.988C184.338 138.155 182.329 138.933 180.397 139.633C177.075 140.799 176.148 142.044 176.148 145.621C176.148 147.488 175.916 149.355 175.607 151.221C174.603 157.833 170.276 162.499 165.872 167.01C165.099 167.866 164.018 168.955 164.095 169.888C164.481 174.71 165.177 179.533 165.717 184.433C177.925 181.321 194.073 164.755 192.373 155.11C189.051 155.655 185.188 153.866 184.415 151.455C183.642 149.121 185.651 145.233 188.51 144.61C192.914 143.599 194.536 146.633 195.077 150.755C197.859 148.188 198.09 145.233 198.168 142.355C198.245 140.488 197.627 139.01 195.618 137.999C192.759 136.599 192.837 134.266 195.464 132.477C196.391 131.855 197.627 131.699 198.4 130.999C199.404 129.988 200.717 128.588 200.717 127.344C200.795 117.699 200.563 108.133 200.331 98.4881C200.331 96.6992 199.945 94.9103 199.636 93.1215C199.249 90.6326 198.013 88.9992 195.618 87.9103C192.605 86.5103 192.141 84.0992 194.073 81.377C199.172 74.377 197.55 66.3659 190.21 62.1659C188.278 61.077 187.892 59.7548 189.514 58.1215C190.055 57.577 190.596 56.877 191.291 56.4881C193.532 55.0881 193.764 53.2992 192.682 51.0437C191.06 47.8548 189.669 44.5104 187.815 41.3992C181.788 30.277 171.821 25.7659 159.382 26.4659C156.446 26.6215 153.51 27.3215 150.574 27.7881C142.925 28.9548 135.43 30.1992 128.863 35.2548C123.996 38.9881 119.669 42.877 116.656 48.1659C108.929 61.777 105.839 76.5548 106.302 92.1103C106.689 105.877 107.539 119.566 107.693 133.333C107.848 142.277 108.234 151.144 109.934 159.933C111.247 166.855 113.101 173.466 118.201 178.599C119.282 179.688 120.982 180.31 122.45 181.166ZM149.338 174.01C152.892 172.61 156.06 171.521 159.073 170.199C160.773 169.499 161.159 167.866 160.154 166.466C158.068 163.588 155.828 160.866 153.433 158.221C149.647 154.021 144.316 155.344 141.38 158.921C139.139 161.644 136.898 164.755 135.817 168.099C133.19 176.421 131.799 185.055 132.572 193.921C133.344 202.866 136.28 204.81 144.625 201.31C144.702 201.31 144.779 201.233 144.934 201.233C148.333 199.677 149.183 197.888 147.406 194.621C144.702 189.799 144.161 184.744 145.784 179.533C146.633 176.655 146.015 175.099 143.079 174.088C140.298 173.077 140.375 170.51 140.916 168.177C141.534 165.533 143.852 165.455 146.015 165.844C148.179 166.233 149.492 167.71 149.569 170.044C149.569 171.133 149.415 172.144 149.338 174.01ZM161.777 257.233C160.927 252.488 160.232 247.433 159.15 242.377C158.532 239.266 156.755 238.566 153.896 240.044C151.578 241.21 149.338 242.455 147.174 243.855C146.247 244.477 145.706 245.644 144.934 246.577C146.015 247.355 147.02 248.521 148.256 248.833C153.046 250.155 154.205 253.033 151.578 257.388C151.192 258.088 150.574 258.633 150.265 259.333C150.033 259.877 149.724 260.733 149.956 261.199C151.269 263.921 152.505 266.799 154.205 269.288C156.06 272.088 158.609 271.699 159.614 268.51C160.618 265.088 161.004 261.355 161.777 257.233ZM125.232 260.888C126.313 260.266 127.241 259.877 128.013 259.333C132.572 256.299 137.053 253.188 141.534 250.077C142.23 249.61 142.539 248.599 143.079 247.821C142.152 247.666 141.148 247.277 140.221 247.51C137.362 248.21 134.581 249.455 131.645 249.999C127.009 250.699 123.841 255.521 125.232 260.888ZM192.837 150.521C192.759 148.188 192.373 145.933 189.978 146.244C188.664 146.399 186.887 148.266 186.656 149.51C186.347 151.61 188.278 152.855 190.287 152.933C191.909 153.088 193.146 152.233 192.837 150.521ZM181.247 67.9992C182.174 69.6326 182.87 71.4215 184.029 72.6659C184.647 73.3659 186.578 73.8326 187.119 73.4437C187.969 72.8215 188.51 71.1881 188.355 70.0992C188.124 67.2992 185.574 66.4437 181.247 67.9992ZM130.717 246.499C130.872 246.81 130.949 247.044 131.104 247.355C133.731 246.655 136.435 246.11 139.062 245.255C139.757 245.021 140.221 244.01 140.839 243.31C139.989 242.766 139.062 241.755 138.212 241.755C134.89 241.833 132.263 243.466 130.717 246.499ZM157.605 231.877C157.914 232.11 158.532 232.733 159.227 233.355C160.464 231.799 161.7 230.244 162.781 228.533C162.859 228.455 161.545 226.977 161.004 227.055C158.764 227.288 157.605 228.766 157.605 231.877ZM146.556 173.077C147.329 170.977 147.483 169.188 145.475 168.255C144.934 168.021 143.234 168.644 143.157 169.11C142.693 171.444 144.238 172.455 146.556 173.077ZM147.715 251.01C147.406 251.244 147.097 251.555 146.865 251.788C147.406 253.499 147.947 255.21 148.488 256.921C148.874 256.921 149.183 256.921 149.569 256.921C149.801 255.521 150.419 254.044 150.188 252.721C150.033 252.021 148.565 251.555 147.715 251.01Z" stroke="#2E3A33" stroke-width="1.5" mask="url(#path-4-outside-1)"/>
</svg>
