<svg width="173" height="49" viewBox="0 0 173 49" fill="none" xmlns="http://www.w3.org/2000/svg">
<g clip-path="url(#clip0)">
<path d="M125.276 34.6099V28.9133H119.99V34.6099H116.717V20.9766H119.99V26.1688H125.276V20.9766H128.55V34.6099H125.276Z" fill="#FCFCFC"/>
<path d="M145.831 27.7423C145.845 28.7585 145.657 29.7674 145.278 30.7093C144.927 31.5719 144.402 32.3522 143.737 33.0013C143.064 33.6516 142.266 34.1565 141.393 34.4848C140.449 34.8353 139.45 35.0112 138.443 35.0041C137.437 35.013 136.438 34.8371 135.494 34.4848C134.624 34.1545 133.829 33.6498 133.157 33.0013C132.492 32.3522 131.968 31.5719 131.616 30.7093C131.237 29.7674 131.049 28.7585 131.063 27.7423C131.048 26.726 131.236 25.717 131.616 24.7753C131.968 23.9326 132.493 23.1742 133.157 22.5501C133.834 21.9227 134.628 21.4384 135.494 21.1259C136.44 20.7822 137.438 20.6114 138.443 20.6215C139.448 20.6131 140.447 20.7839 141.393 21.1259C142.262 21.4366 143.059 21.9211 143.737 22.5501C144.401 23.1742 144.926 23.9326 145.278 24.7753C145.658 25.717 145.846 26.726 145.831 27.7423ZM142.329 27.7423C142.333 27.1756 142.236 26.6127 142.041 26.0808C141.865 25.5962 141.597 25.1504 141.252 24.7679C140.909 24.3958 140.492 24.1002 140.029 23.9001C139.529 23.6823 138.988 23.5735 138.443 23.5811C137.903 23.5727 137.368 23.6815 136.873 23.9001C136.41 24.1021 135.994 24.3974 135.649 24.7679C135.3 25.1466 135.031 25.5935 134.86 26.0808C134.668 26.6132 134.573 27.176 134.58 27.7423C134.574 28.3213 134.671 28.8966 134.868 29.4409C135.044 29.9363 135.314 30.3924 135.664 30.7835C136.002 31.1567 136.414 31.4549 136.873 31.6588C137.369 31.8739 137.904 31.9825 138.443 31.9777C138.983 31.9825 139.518 31.8739 140.014 31.6588C140.476 31.4533 140.893 31.1555 141.238 30.7835C141.592 30.3946 141.866 29.9381 142.041 29.4409C142.238 28.8966 142.335 28.3213 142.329 27.7423Z" fill="#FCFCFC"/>
<path d="M159.546 31.7171C159.286 32.3722 158.885 32.9621 158.374 33.4454C157.839 33.9422 157.209 34.3256 156.524 34.5728C155.754 34.8547 154.939 34.9929 154.12 34.9808C153.299 34.9942 152.481 34.8559 151.709 34.5728C151.033 34.3281 150.416 33.9441 149.896 33.4454C149.391 32.9609 148.998 32.371 148.745 31.7171C148.473 31.0075 148.335 30.2526 148.34 29.4919V20.9766H151.599V29.2026C151.596 29.561 151.643 29.9181 151.739 30.2633C151.829 30.5855 151.979 30.8876 152.181 31.1534C152.386 31.4249 152.655 31.6414 152.963 31.7839C153.334 31.9475 153.737 32.0261 154.142 32.0138C154.548 32.0261 154.951 31.9475 155.322 31.7839C155.632 31.6417 155.903 31.4252 156.111 31.1534C156.319 30.8911 156.469 30.5878 156.553 30.2633C156.643 29.917 156.688 29.5604 156.686 29.2026V20.9766H159.93V29.4696C159.952 30.237 159.821 31.001 159.546 31.7171Z" fill="#FCFCFC"/>
<path d="M169.166 23.7878V34.6099H165.893V23.7878H162.066V20.9766H172.993V23.7878H169.166Z" fill="#FCFCFC"/>
<path d="M111.122 21.7647C110.746 21.2966 110.266 20.9232 109.721 20.6743C109.201 20.4209 108.633 20.2843 108.055 20.2738C107.773 20.2726 107.492 20.2975 107.214 20.3479C106.94 20.3888 106.677 20.4847 106.44 20.6298C106.217 20.7676 106.024 20.9492 105.873 21.1639C105.708 21.4141 105.626 21.7097 105.637 22.0094C105.63 22.269 105.693 22.5255 105.821 22.7512C105.961 22.9593 106.145 23.134 106.359 23.263C106.626 23.4252 106.907 23.5618 107.2 23.671L108.298 24.0493C108.881 24.2421 109.493 24.4646 110.127 24.702C110.746 24.9309 111.33 25.2481 111.859 25.644C112.384 26.046 112.823 26.5506 113.149 27.1275C113.51 27.7903 113.685 28.5386 113.658 29.2934C113.684 30.1877 113.497 31.0752 113.113 31.8821C112.763 32.5878 112.259 33.2042 111.638 33.6846C111.004 34.1692 110.283 34.5267 109.515 34.7379C108.714 34.9701 107.885 35.0875 107.052 35.0865C105.828 35.0891 104.614 34.8679 103.469 34.4338C102.38 34.0493 101.396 33.4143 100.594 32.5794L103.322 29.783C103.778 30.3374 104.349 30.7854 104.995 31.0959C105.628 31.4374 106.334 31.6206 107.052 31.6299C107.355 31.6297 107.657 31.5948 107.952 31.5261C108.227 31.4688 108.49 31.3606 108.726 31.2071C108.944 31.0564 109.124 30.8556 109.249 30.6212C109.382 30.3465 109.448 30.0439 109.441 29.7385C109.45 29.4403 109.364 29.147 109.198 28.9003C109.009 28.6491 108.774 28.4374 108.505 28.2772C108.15 28.0681 107.774 27.8965 107.384 27.7654C106.934 27.6097 106.426 27.4391 105.858 27.261C105.305 27.0813 104.763 26.8683 104.236 26.6231C103.72 26.3812 103.243 26.0637 102.82 25.6811C102.4 25.2845 102.061 24.808 101.825 24.2792C101.555 23.6472 101.425 22.964 101.442 22.2765C101.419 21.4129 101.622 20.5584 102.031 19.799C102.411 19.1275 102.935 18.5498 103.565 18.1078C104.217 17.6597 104.944 17.3331 105.71 17.1436C106.5 16.9366 107.313 16.8319 108.129 16.832C109.135 16.8467 110.131 17.0297 111.078 17.3735C112.065 17.7182 112.973 18.2607 113.747 18.9683L111.122 21.7647Z" fill="#FCFCFC"/>
<path d="M43.2039 32.7559H51.2549V34.3284H41.4492V16.9492H43.2039V32.7559Z" fill="#FCFCFC"/>
<path d="M67.2701 27.7491C67.2801 28.7425 67.0946 29.7282 66.7245 30.6493C66.3885 31.4973 65.8872 32.2691 65.25 32.9191C64.5995 33.5652 63.8241 34.0701 62.9719 34.4026C62.0576 34.7591 61.0844 34.9378 60.1039 34.9292C59.1257 34.9385 58.1548 34.7597 57.2433 34.4026C56.3951 34.0664 55.6228 33.5619 54.9725 32.9191C54.3346 32.2697 53.8331 31.4978 53.498 30.6493C53.1304 29.7277 52.9475 28.742 52.9598 27.7491C52.9453 26.7511 53.1283 25.7602 53.498 24.834C53.8316 23.9978 54.3336 23.2401 54.9725 22.6087C55.6235 21.9668 56.3956 21.4624 57.2433 21.1252C58.1553 20.7706 59.1262 20.5944 60.1039 20.606C61.0839 20.595 62.0571 20.7712 62.9719 21.1252C63.8237 21.4586 64.5989 21.9634 65.25 22.6087C65.8883 23.2407 66.3902 23.9982 66.7245 24.834C67.0968 25.7597 67.2822 26.7506 67.2701 27.7491ZM65.2205 27.7491C65.2261 27.0308 65.1037 26.3174 64.8593 25.6425C64.6274 25.0012 64.2772 24.4098 63.8271 23.8994C63.3751 23.3938 62.8225 22.9894 62.2051 22.7126C61.5341 22.416 60.8072 22.2692 60.0744 22.2824C59.3465 22.2707 58.6247 22.4174 57.9584 22.7126C57.3443 22.9877 56.7962 23.3924 56.3512 23.8994C55.9034 24.4102 55.5557 25.0016 55.3264 25.6425C55.0819 26.3174 54.9596 27.0308 54.9651 27.7491C54.9591 28.477 55.0814 29.2003 55.3264 29.8853C55.5566 30.5274 55.907 31.1191 56.3586 31.6284C56.809 32.1237 57.3562 32.5201 57.9658 32.793C58.6309 33.083 59.3497 33.2271 60.0744 33.2158C60.8038 33.2263 61.5273 33.0822 62.1977 32.793C62.8173 32.5263 63.3729 32.1292 63.8271 31.6284C64.2787 31.1191 64.6291 30.5274 64.8593 29.8853C65.1043 29.2003 65.2266 28.477 65.2205 27.7491Z" fill="#FCFCFC"/>
<path d="M70.6385 34.5806H68.5078L74.406 20.9473H76.1312L81.9482 34.5806H79.8028L78.4314 31.2353H71.9951L70.6385 34.5806ZM72.666 29.559H77.7384L75.2096 23.1651L72.666 29.559Z" fill="#FCFCFC"/>
<path d="M94.0099 31.851V20.9473H95.9046V34.5806H93.5749L86.416 23.4544H86.3792V34.5806H84.4844V20.9473H86.9395L94.0099 31.851Z" fill="#FCFCFC"/>
<path d="M17.3768 43.2143C17.8542 43.2144 18.3127 43.0268 18.6543 42.6913C18.996 42.3559 19.1937 41.8994 19.2053 41.4193C19.2034 41.1807 19.1544 40.9448 19.0612 40.7254C18.968 40.506 18.8324 40.3074 18.6623 40.1411C18.4922 39.9748 18.291 39.8441 18.0704 39.7567C17.8497 39.6692 17.6139 39.6267 17.3768 39.6317C16.8058 39.7126 16.2745 39.9721 15.8581 40.3734C15.6797 39.9331 15.5895 39.4618 15.5926 38.9863H14.2582C14.2557 39.8324 14.469 40.6649 14.8775 41.4044L14.8333 41.4489L14.8775 41.4934C14.4753 42.2221 14.2623 43.041 14.2582 43.8745C14.2475 44.7074 14.4615 45.5278 14.8775 46.2481L14.8333 46.2926L14.8775 46.3371C14.4753 47.0657 14.2623 47.8846 14.2582 48.7181V48.9851H15.5926V48.7181C15.5855 48.2399 15.6758 47.7653 15.8581 47.3236C16.2753 47.7237 16.8062 47.983 17.3768 48.0653C17.8542 48.0655 18.3127 47.8778 18.6543 47.5424C18.996 47.207 19.1937 46.7504 19.2053 46.2703C19.2033 46.0314 19.1544 45.7952 19.0613 45.5753C18.9682 45.3555 18.8327 45.1564 18.6627 44.9896C18.4928 44.8227 18.2916 44.6913 18.0709 44.603C17.8502 44.5148 17.6143 44.4714 17.3768 44.4753C16.8004 44.5378 16.2635 44.8 15.8581 45.217C15.6805 44.7765 15.5903 44.3053 15.5926 43.8299C15.591 43.3523 15.6811 42.8788 15.8581 42.4355C16.2497 42.877 16.7916 43.1549 17.3768 43.2143ZM17.3768 40.9297C17.4986 40.9292 17.6161 40.9746 17.7062 41.057C17.7963 41.1394 17.8524 41.2528 17.8634 41.3748C17.8626 41.4371 17.8491 41.4986 17.8238 41.5556C17.7986 41.6125 17.7621 41.6637 17.7166 41.706C17.6711 41.7484 17.6175 41.7809 17.5591 41.8018C17.5007 41.8226 17.4387 41.8313 17.3768 41.8272C17.1046 41.7251 16.8544 41.5715 16.6396 41.3748C16.8604 41.1844 17.1091 41.0293 17.3768 40.9149V40.9297ZM17.3768 45.8178C17.4986 45.8173 17.6161 45.8628 17.7062 45.9451C17.7963 46.0275 17.8524 46.1409 17.8634 46.2629C17.8626 46.3252 17.8491 46.3868 17.8238 46.4437C17.7986 46.5007 17.7621 46.5518 17.7166 46.5942C17.6711 46.6365 17.6175 46.669 17.5591 46.6899C17.5007 46.7107 17.4387 46.7194 17.3768 46.7154C17.2441 46.7154 16.9713 46.4854 16.6396 46.2629C16.8614 46.0777 17.11 45.9277 17.3768 45.8178Z" fill="#FCFCFC"/>
<path d="M3.07535 12.6387H2.80257C2.51451 12.6505 2.23042 12.7107 1.96207 12.8167C1.38468 13.0391 0.888019 13.4326 0.537821 13.9452C0.187624 14.4578 0.000400043 15.0653 0.000934642 15.6873V20.9314C-0.0147158 21.5568 0.166526 22.1712 0.518741 22.6867C0.870957 23.2023 1.37612 23.5926 1.96207 23.802C2.23042 23.908 2.51451 23.9682 2.80257 23.98H3.53984C2.70371 22.2339 2.27741 20.3179 2.29385 18.3798C2.29511 16.403 2.70433 14.4481 3.4956 12.6387H3.07535Z" fill="#FCFCFC"/>
<path d="M28.43 9.1901L28.3784 9.1456C28.001 8.59347 27.5687 8.08149 27.0881 7.61759C26.867 7.39507 26.6458 7.21705 26.4688 7.03903L26.3288 6.89809C24.5532 5.30735 22.4323 4.15664 20.1357 3.53797C18.8978 3.22318 17.6297 3.04412 16.3535 3.00391V4.43548C19.9765 4.47809 23.4383 5.94852 25.9955 8.53094C28.5526 11.1134 30.0011 14.6018 30.0298 18.2469H31.4601C31.4693 17.0793 31.318 15.9161 31.0104 14.7903C30.5302 12.7691 29.6528 10.865 28.43 9.1901Z" fill="#FCFCFC"/>
<path d="M16.3535 0V1.43158C19.181 1.44018 21.9588 2.18098 24.4192 3.58265C24.9288 3.86707 25.4212 4.18163 25.8938 4.52468H25.938C27.8583 5.90223 29.4686 7.67141 30.6639 9.71693C30.9735 10.2584 31.2832 10.7925 31.556 11.3784C32.5136 13.5541 33.0155 15.9048 33.0305 18.2841H34.4534C34.4247 13.4566 32.5108 8.83398 29.1247 5.41342C25.7386 1.99287 21.1517 0.0485784 16.3535 0Z" fill="#FCFCFC"/>
<path d="M16.2204 6.05273C12.9829 6.05666 9.87894 7.35182 7.58896 9.65434C5.29897 11.9569 4.00976 15.0789 4.00391 18.3361C4.00391 23.7583 10.337 37.2952 12.8511 37.6587C13.9561 37.8529 15.0767 37.9423 16.1983 37.9257C17.3174 37.9421 18.4356 37.8527 19.5381 37.6587C22.0743 37.2952 28.3854 23.7583 28.3854 18.3361C28.3796 15.0878 27.0975 11.9736 24.8186 9.6726C22.5397 7.37156 19.449 6.07035 16.2204 6.05273ZM16.2204 9.76149C18.4443 9.76976 20.5799 10.6382 22.1849 12.187H10.2043C11.8126 10.6109 13.9754 9.73896 16.2204 9.76149ZM16.2204 27.022C13.9997 27.0088 11.8681 26.1409 10.2633 24.5965H22.1997C20.584 26.1333 18.4439 26.9882 16.2204 26.9849V27.022ZM23.9249 22.0894H8.44225C8.08353 21.3071 7.83537 20.4782 7.70499 19.6268H24.6622C24.5318 20.4663 24.2835 21.283 23.9249 22.0523V22.0894ZM7.70499 17.1196C7.83638 16.266 8.08449 15.4348 8.44225 14.6496H23.9249C24.2859 15.4336 24.5342 16.2653 24.6622 17.1196H7.70499Z" fill="#FCFCFC"/>
</g>
<defs>
<clipPath id="clip0">
<rect width="173" height="49" fill="white"/>
</clipPath>
</defs>
</svg>
