<svg width="163" height="49" viewBox="0 0 163 49" fill="none" xmlns="http://www.w3.org/2000/svg">
<g clip-path="url(#clip0)">
<path d="M72.1803 14.1001H71.8316C68.3446 14.1001 65.9211 16.1596 65.9211 18.8233C65.9211 21.0442 67.5321 22.3142 70.0741 22.8085L74.0877 23.5808C78.2023 24.3944 80.5665 26.4711 80.5665 30.1714C80.5665 34.5067 77.2016 37.1876 71.8316 37.1876C65.6352 37.1876 62.1621 34.2253 62.1621 29.0798H64.6693C64.6693 32.8145 67.6053 34.8946 71.7932 34.8946H72.1419C75.9776 34.8946 78.0489 32.8351 78.0489 30.3156C78.0489 28.0226 76.546 26.7182 73.3937 26.0832L69.3907 25.2731C65.5968 24.4973 63.4139 22.4893 63.4139 18.8576C63.4139 14.9822 66.6708 11.8105 72.0059 11.8105C77.341 11.8105 80.7792 14.7351 80.9571 19.3897H78.4569C78.2442 16.1322 75.6673 14.1001 72.1803 14.1001Z" fill="#FCFCFC" stroke="white" stroke-width="0.25" stroke-miterlimit="10"/>
<path d="M90.9551 14.4551H81.8262V12.1621H102.591V14.4551H93.4518V36.8355H90.9447L90.9551 14.4551Z" fill="#FCFCFC" stroke="white" stroke-width="0.25" stroke-miterlimit="10"/>
<path d="M108.394 12.1621H111.532L121.735 36.8355H119.088L116.299 30.0321H103.488L100.698 36.8355H98.1211L108.394 12.1621ZM109.897 14.4173L104.419 27.7426H115.375L109.897 14.4173Z" fill="#FCFCFC" stroke="white" stroke-width="0.25" stroke-miterlimit="10"/>
<path d="M133.282 12.1621H136.42L146.623 36.8355H143.973L141.184 30.0321H128.376L125.586 36.8355H123.006L133.282 12.1621ZM134.788 14.4173L129.31 27.7426H140.267L134.788 14.4173Z" fill="#FCFCFC" stroke="white" stroke-width="0.25" stroke-miterlimit="10"/>
<path d="M151.336 14.4551H142.189V12.1621H162.955V14.4551H153.826V36.8355H151.336V14.4551Z" fill="#FCFCFC" stroke="white" stroke-width="0.25" stroke-miterlimit="10"/>
<path d="M24.8844 48.9976C19.9616 48.9976 15.1493 47.5606 11.0561 44.8683C6.96293 42.176 3.77269 38.3494 1.88881 33.8723C0.00492528 29.3952 -0.487985 24.4687 0.472411 19.7158C1.43281 14.963 3.80337 10.5972 7.28433 7.17054C10.7653 3.74391 15.2003 1.41035 20.0285 0.464945C24.8568 -0.480459 29.8614 0.00475694 34.4095 1.85923C38.9576 3.71371 42.8449 6.85416 45.5799 10.8834C48.3148 14.9127 49.7746 19.6499 49.7746 24.4959C49.7672 30.9919 47.1425 37.2198 42.4763 41.8132C37.8101 46.4066 31.4834 48.9903 24.8844 48.9976ZM24.8844 1.02736C20.1676 1.02736 15.5568 2.40425 11.635 4.98391C7.7132 7.56357 4.65659 11.2301 2.85172 15.5199C1.04686 19.8097 0.574798 24.5299 1.49525 29.0838C2.41569 33.6377 4.68731 37.8206 8.02281 41.1035C11.3583 44.3865 15.6079 46.622 20.2341 47.5274C24.8603 48.4329 29.6554 47.9675 34.0129 46.1902C38.3704 44.4128 42.0947 41.4034 44.7146 37.5424C47.3346 33.6815 48.7327 29.1424 48.732 24.4993C48.7246 18.2758 46.2096 12.3093 41.7388 7.90895C37.268 3.50858 31.2066 1.03372 24.8844 1.02736Z" fill="#FCFCFC"/>
<path d="M24.8856 38.2002C23.6553 38.201 22.437 37.9631 21.3001 37.5002C20.1633 37.0373 19.1304 36.3583 18.2602 35.5022L17.8906 35.1417L21.7612 31.3247L22.1308 31.668C22.4932 32.0263 22.9242 32.3103 23.3989 32.5035C23.8735 32.6968 24.3824 32.7955 24.896 32.7939C25.4103 32.7953 25.9197 32.6959 26.3944 32.5014C26.8692 32.3069 27.2999 32.0213 27.6612 31.6611C28.3946 30.9378 28.8064 29.9576 28.8064 28.9356C28.8064 27.9137 28.3946 26.9335 27.6612 26.2102L27.2916 25.8463L31.1622 22.0293L31.5283 22.3931C32.844 23.6846 33.741 25.3312 34.1057 27.1246C34.4704 28.918 34.2864 30.7776 33.5771 32.468C32.8678 34.1585 31.665 35.6038 30.121 36.6211C28.5769 37.6385 26.761 38.182 24.903 38.183L24.8856 38.2002Z" fill="#FCFCFC"/>
<path d="M18.6196 26.9479L18.25 26.5875C16.4859 24.855 15.4932 22.5037 15.4902 20.0508C15.4873 17.5978 16.4744 15.2442 18.2343 13.5077C19.9942 11.7711 22.3828 10.7939 24.8746 10.791C27.3665 10.7881 29.7574 11.7598 31.5215 13.4922L31.8911 13.8561L28.0205 17.6731L27.6718 17.3127C26.9364 16.5906 25.9401 16.185 24.9014 16.185C23.8627 16.185 22.8664 16.5906 22.131 17.3127C21.3983 18.037 20.9869 19.0176 20.9869 20.0399C20.9869 21.0621 21.3983 22.0427 22.131 22.767L22.5006 23.1103L18.6196 26.9479Z" fill="#FCFCFC"/>
</g>
<defs>
<clipPath id="clip0">
<rect width="163" height="49" fill="white"/>
</clipPath>
</defs>
</svg>
