<svg width="142" height="33" viewBox="0 0 142 33" fill="none" xmlns="http://www.w3.org/2000/svg">
<path d="M13.5268 29.8833C15.5544 29.8833 17.2339 29.5014 18.5654 28.7375C19.9271 27.9431 21.0014 26.9194 21.7882 25.6667C22.6053 24.3833 23.1651 22.9319 23.4677 21.3125C23.8006 19.6931 23.967 18.0583 23.967 16.4083V0H27.1445V16.4083C27.1445 18.6083 26.9024 20.7014 26.4182 22.6875C25.934 24.6431 25.1472 26.3694 24.0578 27.8667C22.9987 29.3639 21.6066 30.5556 19.8817 31.4417C18.1568 32.3278 16.0537 32.7708 13.5722 32.7708C11.0303 32.7708 8.88172 32.3125 7.12656 31.3958C5.40166 30.4486 4.00964 29.2111 2.95049 27.6833C1.89134 26.1556 1.1348 24.4139 0.680882 22.4583C0.22696 20.5028 0 18.4861 0 16.4083V0H3.13206V16.4083C3.13206 18.1194 3.29849 19.7847 3.63137 21.4042C3.96424 23.0236 4.52408 24.4597 5.31088 25.7125C6.12793 26.9653 7.20221 27.9736 8.53372 28.7375C9.86522 29.5014 11.5296 29.8833 13.5268 29.8833Z" fill="white"/>
<path d="M41.405 33C39.5591 33 37.7586 32.6944 36.0034 32.0833C34.2482 31.4722 32.7352 30.5861 31.4642 29.425L32.8713 27.3167C34.2028 28.4167 35.5495 29.2417 36.9112 29.7917C38.3033 30.3417 39.7861 30.6167 41.3597 30.6167C43.2661 30.6167 44.7792 30.2347 45.8989 29.4708C47.0488 28.6764 47.6238 27.5611 47.6238 26.125C47.6238 25.4528 47.4725 24.9028 47.1698 24.475C46.8672 24.0167 46.4133 23.6194 45.8081 23.2833C45.2331 22.9472 44.4917 22.6569 43.5839 22.4125C42.7063 22.1375 41.6774 21.8625 40.4972 21.5875C39.1354 21.2514 37.9553 20.9153 36.9566 20.5792C35.958 20.2431 35.1258 19.8611 34.4601 19.4333C33.8246 19.0056 33.3404 18.4861 33.0075 17.875C32.7049 17.2333 32.5536 16.4389 32.5536 15.4917C32.5536 14.3 32.7805 13.2458 33.2345 12.3292C33.7187 11.4125 34.3541 10.6639 35.1409 10.0833C35.958 9.47222 36.8961 9.01389 37.9553 8.70833C39.0447 8.40278 40.1946 8.25 41.405 8.25C43.2207 8.25 44.87 8.55556 46.3528 9.16667C47.8356 9.74722 49.0309 10.5264 49.9388 11.5042L48.4408 13.3375C47.5632 12.4208 46.489 11.7333 45.218 11.275C43.9773 10.8167 42.676 10.5875 41.3143 10.5875C40.4972 10.5875 39.7407 10.6792 39.0447 10.8625C38.3486 11.0153 37.7283 11.275 37.1836 11.6417C36.6691 12.0083 36.2606 12.4819 35.958 13.0625C35.6554 13.6125 35.5041 14.2694 35.5041 15.0333C35.5041 15.675 35.61 16.1944 35.8218 16.5917C36.0336 16.9889 36.3817 17.3403 36.8658 17.6458C37.35 17.9208 37.9553 18.1806 38.6815 18.425C39.4381 18.6389 40.3459 18.8681 41.405 19.1125C42.9181 19.4792 44.2496 19.8458 45.3996 20.2125C46.5495 20.5792 47.5027 21.0069 48.2593 21.4958C49.0461 21.9847 49.6362 22.5806 50.0296 23.2833C50.423 23.9861 50.6196 24.8417 50.6196 25.85C50.6196 28.05 49.7875 29.7917 48.1231 31.075C46.4587 32.3583 44.2194 33 41.405 33Z" fill="white"/>
<path d="M65.8852 33C64.1603 33 62.5716 32.6792 61.1191 32.0375C59.6968 31.3653 58.4561 30.4639 57.3969 29.3333C56.3378 28.1722 55.5056 26.8431 54.9003 25.3458C54.3254 23.8486 54.0379 22.2444 54.0379 20.5333C54.0379 18.8528 54.3254 17.2792 54.9003 15.8125C55.5056 14.3153 56.3226 13.0167 57.3515 11.9167C58.4107 10.7861 59.6665 9.9 61.1191 9.25833C62.5716 8.58611 64.1452 8.25 65.8398 8.25C67.5647 8.25 69.1383 8.58611 70.5606 9.25833C72.0132 9.9 73.2539 10.7861 74.2828 11.9167C75.3117 13.0472 76.1136 14.3458 76.6885 15.8125C77.2635 17.2792 77.551 18.8375 77.551 20.4875C77.551 20.7319 77.551 20.9764 77.551 21.2208C77.551 21.4653 77.5359 21.6333 77.5056 21.725H57.2607C57.3515 23.0083 57.639 24.2 58.1232 25.3C58.6376 26.3694 59.2882 27.3014 60.075 28.0958C60.8618 28.8903 61.7545 29.5167 62.7532 29.975C63.7821 30.4028 64.8715 30.6167 66.0214 30.6167C66.7779 30.6167 67.5345 30.5097 68.291 30.2958C69.0475 30.0819 69.7436 29.7917 70.379 29.425C71.0145 29.0583 71.5895 28.6153 72.1039 28.0958C72.6184 27.5458 73.0118 26.95 73.2841 26.3083L75.9623 27.0417C75.5991 27.9278 75.0847 28.7375 74.4189 29.4708C73.7532 30.1736 72.9815 30.8 72.1039 31.35C71.2264 31.8694 70.258 32.2667 69.1989 32.5417C68.1397 32.8472 67.0352 33 65.8852 33ZM74.6005 19.3417C74.5097 18.0583 74.2071 16.8972 73.6927 15.8583C73.2085 14.7889 72.573 13.8722 71.7862 13.1083C71.0297 12.3444 70.137 11.7486 69.1081 11.3208C68.1094 10.8931 67.0352 10.6792 65.8852 10.6792C64.7353 10.6792 63.6459 10.8931 62.617 11.3208C61.5881 11.7486 60.6803 12.3444 59.8935 13.1083C59.1369 13.8722 58.5166 14.7889 58.0324 15.8583C57.5785 16.9278 57.3061 18.0889 57.2153 19.3417H74.6005Z" fill="white"/>
<path d="M94.1152 11.4125C92.0272 11.4736 90.2115 12.0542 88.6682 13.1542C87.1248 14.2542 86.0354 15.7667 85.3999 17.6917V32.5417H82.3133V8.6625H85.2184V14.3917C86.0959 12.5583 87.2761 11.1222 88.7589 10.0833C90.2418 9.04445 91.8305 8.525 93.5251 8.525C93.7672 8.525 93.9639 8.54028 94.1152 8.57083V11.4125Z" fill="white"/>
<path d="M98.5273 32.7708V0.229167H104.787V32.7708H98.5273Z" fill="white"/>
<path d="M133.416 30.6625C132.237 31.3958 130.967 31.9764 129.606 32.4042C128.245 32.8014 126.794 33 125.251 33C122.893 33 120.745 32.5264 118.81 31.5792C116.905 30.6319 115.257 29.3944 113.866 27.8667C112.505 26.3389 111.446 24.5819 110.69 22.5958C109.934 20.6097 109.556 18.5778 109.556 16.5C109.556 14.3306 109.949 12.2528 110.736 10.2667C111.552 8.28056 112.656 6.52361 114.047 4.99584C115.468 3.46806 117.147 2.26111 119.082 1.375C121.018 0.458334 123.119 0 125.387 0C127.716 0 129.833 0.488889 131.738 1.46667C133.674 2.41389 135.322 3.66667 136.682 5.225C138.043 6.78333 139.102 8.55556 139.858 10.5417C140.614 12.5278 140.992 14.5444 140.992 16.5917C140.992 18.7 140.614 20.7167 139.858 22.6417C139.132 24.5667 138.104 26.2778 136.773 27.775L141.173 32.7708H135.276L133.416 30.6625ZM125.297 27.4083C126.113 27.4083 126.869 27.3167 127.565 27.1333C128.291 26.9194 128.956 26.6444 129.561 26.3083L124.662 20.7167H130.559L132.781 23.2375C133.386 22.2597 133.855 21.1903 134.188 20.0292C134.52 18.8681 134.687 17.6917 134.687 16.5C134.687 15.0944 134.46 13.7347 134.006 12.4208C133.583 11.1069 132.963 9.94583 132.146 8.9375C131.36 7.92917 130.377 7.11945 129.198 6.50833C128.049 5.89722 126.748 5.59167 125.297 5.59167C123.785 5.59167 122.439 5.9125 121.26 6.55417C120.08 7.16528 119.097 7.99028 118.311 9.02917C117.525 10.0681 116.92 11.2444 116.497 12.5583C116.103 13.8417 115.907 15.1556 115.907 16.5C115.907 17.9056 116.119 19.2653 116.542 20.5792C116.965 21.8931 117.57 23.0542 118.356 24.0625C119.173 25.0708 120.156 25.8806 121.305 26.4917C122.484 27.1028 123.815 27.4083 125.297 27.4083Z" fill="white"/>
</svg>
