<svg width="1440" height="3133" viewBox="0 0 1440 3133" fill="none" xmlns="http://www.w3.org/2000/svg" xmlns:xlink="http://www.w3.org/1999/xlink">
<g clip-path="url(#clip0_10610_1631)">
<rect width="1440" height="3133" fill="url(#paint0_radial_10610_1631)"/>
<rect width="1440" height="3133" fill="url(#pattern0_10610_1631)" fill-opacity="0.9"/>
<rect width="1440" height="3133" fill="url(#paint1_radial_10610_1631)" fill-opacity="0.2"/>
<path opacity="0.64" d="M629.881 3055.02C388.015 3043.35 159.465 2894.42 20.0017 2800.66C-122.849 2756.24 -222.672 2599.89 -168.175 2477.8C-113.678 2355.71 -242.389 2224.9 -22.5485 2110.54C197.292 1996.18 204.996 2099.15 351.805 2041.53C498.613 1983.9 573.968 2072.98 747.528 2095.19C921.087 2117.39 815.368 2201.34 1081.88 2256.43C1348.4 2311.52 1433.28 2282.23 1531.88 2455.92C1630.47 2629.61 1625.48 2682.15 1568.23 2799.42C1510.99 2916.69 1418.14 2971.24 1205.11 3075.81C992.069 3180.39 871.747 3066.69 629.881 3055.02Z" fill="#F1EFEC"/>
<path opacity="0.5" d="M1644.48 2786.34C1768.23 2780.38 1843.8 2808.16 1874.55 2836.84C2045.1 2941.36 1561.32 3206.24 1460.7 3174.84C1360.09 3143.43 1221.09 3184.79 1122.67 3224.27C1024.25 3263.74 946.13 3274.36 712.338 3310.16C478.547 3345.96 389.62 3296.67 304.083 3256.58C218.546 3216.5 401.123 2889.66 546.211 2861.98C691.299 2834.29 712.713 2882.94 822.399 2906.55C932.085 2930.15 1023.95 2929.67 1146.31 2914.2C1268.67 2898.74 1274.61 2869.55 1359.5 2835.29C1444.38 2801.03 1520.73 2792.29 1644.48 2786.34Z" fill="#C1E3CB"/>
<g opacity="0.5">
<path d="M1295.22 485.797C1120.58 484.616 1093.19 592.117 817.488 390.88C714.322 363.741 578.207 143.258 617.481 55.6698C656.754 -31.9187 694.261 -30.4536 852.917 -117.409C1011.57 -204.363 940.11 -178.409 1046.07 -223.271C1152.03 -268.132 1153.07 -251.082 1278.39 -240.491C1403.71 -229.901 1329.24 -224.315 1521.69 -193.264C1714.15 -162.212 1782.75 -146.958 1854.04 -27.4765C1925.33 92.0047 1912.63 147.414 1871.37 231.686C1830.11 315.959 1763.1 357.086 1609.35 436.947C1455.6 516.809 1469.85 486.978 1295.22 485.797Z" fill="#FCEEDE"/>
<path d="M1631.41 315.489C1739.05 272.255 1868.22 183.302 1911.18 60.5797C1892.84 -168.868 1767.38 -126.477 1725.16 -124.296C1682.94 -122.114 1640.5 -69.3283 1549.4 -20.1481C1458.3 29.0321 1432.52 5.88311 1375.27 18.6331C1318.03 31.3831 1233.45 -67.7461 1092.06 -69.9616C950.674 -72.1772 897.583 -21.8327 868.498 13.535C839.414 48.9027 796.421 99.4054 798.038 147.195C799.654 194.985 831.375 180.698 924.286 241.86C1017.2 303.022 1035.78 255.548 1114.59 269.293C1193.4 283.038 1200.35 332.052 1302.3 347.862C1404.24 363.672 1523.76 358.724 1631.41 315.489Z" fill="#A5DEDA"/>
<path d="M1383.51 -41.5874C1490.72 -10.167 1495.43 -61.0379 1539.03 -71.7657C1657.32 -110.337 1605.39 49.219 1573.92 114.881C1542.46 180.543 1522.92 192.06 1443.06 206.402C1363.21 220.745 1303.28 175.04 1219.72 117.018C1136.16 58.9968 1163.93 -21.6084 1213.14 -69.2609C1262.35 -116.913 1276.31 -73.0077 1383.51 -41.5874Z" fill="#EA5B47"/>
</g>
<path d="M-1.23988 3292L8.11849 3287.74C8.32699 3287.65 8.49662 3287.48 8.599 3287.28L11.3591 3281.76C11.4637 3281.55 11.6383 3281.38 11.8526 3281.29L18.3115 3278.46C18.4751 3278.39 18.6118 3278.28 18.7163 3278.13C35.1947 3255.29 67.8447 3205.55 67.8447 3187.64C67.8447 3169.67 78.9921 3173.4 84.5658 3177.51L87.787 3179.3C88.2137 3179.54 88.7492 3179.43 89.054 3179.05L91.6429 3175.81C91.8885 3175.51 92.2908 3175.37 92.6715 3175.47C99.1823 3177.15 111.563 3180.55 113.608 3181.92C115.624 3183.26 118.336 3183.38 119.599 3183.26C119.712 3183.24 119.82 3183.21 119.917 3183.15C120.832 3182.6 122.408 3180.85 122.408 3177.51C122.408 3174.12 140.403 3163.08 150.371 3157.43C150.926 3157.11 151.626 3157.39 151.812 3158.01L154.428 3166.61C154.494 3166.83 154.628 3167.01 154.817 3167.14C161.766 3171.79 176.88 3179.18 184.611 3173.33C184.795 3173.19 185.019 3173.11 185.25 3173.11H188.079C188.296 3173.11 188.506 3173.18 188.679 3173.31L191.778 3175.63C191.88 3175.71 191.996 3175.77 192.12 3175.8L198.161 3177.41C198.401 3177.48 198.606 3177.63 198.746 3177.83C200.521 3180.41 204.91 3185 209.974 3185C215.037 3185 220.504 3182.03 222.885 3180.36C223.075 3180.23 223.299 3180.16 223.531 3180.17C226.349 3180.24 232.682 3179.48 238.359 3175.89C238.501 3175.8 238.664 3175.74 238.832 3175.73L262.857 3174.02C263.09 3174 263.307 3173.9 263.477 3173.74C267.299 3170.14 276.139 3163.33 283.019 3162.98C289.892 3162.64 300.12 3164.5 304.696 3165.55C304.909 3165.6 305.128 3165.58 305.327 3165.49L312.941 3162.1L319.425 3159.26C319.767 3159.11 319.995 3158.79 320.036 3158.41C320.305 3155.99 321.358 3151.48 323.942 3148.89C326.758 3146.07 333.916 3143.9 337.142 3143.17L340.532 3142.04C340.883 3141.92 341.141 3141.62 341.202 3141.25L342.305 3134.62C342.376 3134.2 342.705 3133.87 343.128 3133.81C350.388 3132.7 364.041 3132.19 365.744 3138.32C367.358 3145.81 371.729 3161.4 376.305 3163.86C380.837 3166.3 396.962 3164.92 404.682 3163.89C404.834 3163.87 404.981 3163.89 405.126 3163.93C407.852 3164.82 413.315 3166.21 415.028 3165.18C417.228 3163.86 436.589 3160.34 441.869 3162.1C445.889 3163.44 455.804 3161.7 460.926 3160.52C461.368 3160.41 461.82 3160.62 462.044 3161.01C465.963 3167.91 475.354 3180 484.552 3177.95C493.93 3175.87 498.081 3164.18 499.036 3158.37C499.062 3158.21 499.12 3158.07 499.214 3157.94C501.227 3155.23 506.335 3149.92 511.834 3148.89C517.295 3147.87 526.232 3146.76 530.38 3146.29C530.622 3146.26 530.846 3146.15 531.009 3145.97L534.93 3141.65C535.076 3141.49 535.271 3141.38 535.486 3141.34L542.024 3140.12C542.138 3140.09 542.247 3140.05 542.347 3139.99L549.377 3135.86C549.571 3135.74 549.796 3135.7 550.02 3135.72C554.384 3136.27 562.729 3136.18 563.757 3131.72C564.794 3127.22 561.391 3115.28 559.462 3109.57C559.393 3109.37 559.261 3109.19 559.085 3109.07C556.246 3107.05 551.393 3102.44 552.757 3098.69C554.517 3093.85 557.157 3088.12 549.676 3087.68C544.129 3087.36 539.917 3089.02 538.164 3090.09C537.924 3090.23 537.638 3090.29 537.372 3090.2C535.868 3089.7 532.987 3087.99 530.755 3084.16C528.547 3080.37 522.874 3086.44 519.503 3091.02C519.032 3091.66 518.017 3091.56 517.671 3090.84C515.799 3086.98 512.013 3080.67 507.12 3076.68C506.786 3076.41 506.649 3075.96 506.792 3075.55C509.023 3069.2 513.448 3057.66 516.818 3052.09C517.305 3051.28 516.595 3050.09 515.665 3050.22L509.546 3051.13C508.593 3051.27 508.011 3050.12 508.692 3049.44L513.209 3044.92C513.838 3044.29 513.392 3043.21 512.501 3043.21H510.746C510.019 3043.21 509.535 3042.46 509.836 3041.8L510.752 3039.78C511.053 3039.12 510.569 3038.37 509.841 3038.37H492.705C492.111 3038.37 491.648 3037.85 491.711 3037.26L492.837 3026.75C492.882 3026.32 493.193 3025.97 493.61 3025.88L506.271 3023.02C506.456 3022.98 506.625 3022.88 506.758 3022.75L511.201 3018.3C511.327 3018.18 511.485 3018.09 511.658 3018.04L523.132 3015.06C523.227 3015.04 523.317 3015 523.401 3014.95L533.186 3008.99C533.324 3008.91 533.476 3008.86 533.636 3008.84C538.139 3008.49 547.539 3006.19 550.997 2999.62C554.492 2992.97 560.012 2986.06 562.388 2983.38C562.422 2983.34 562.451 2983.3 562.478 2983.26C563.743 2981.19 564.356 2975.31 557.194 2967.54C556.912 2967.23 556.837 2966.78 557.017 2966.41L562.25 2955.53C562.37 2955.28 562.381 2955 562.282 2954.74L558.163 2944.02C558.081 2943.81 558.075 2943.58 558.14 2943.36C558.993 2940.48 559.837 2935.16 557.927 2932.2C557.506 2931.54 557.622 2930.52 558.332 2930.2L560.547 2929.22C560.633 2929.18 560.722 2929.16 560.815 2929.14C564.017 2928.67 570.888 2926.39 574.458 2920.84C574.65 2920.54 574.974 2920.36 575.328 2920.35C580.454 2920.27 589.984 2919.16 591.449 2915.16C591.47 2915.1 591.493 2915.05 591.523 2914.99C593.701 2911.03 598.024 2900.55 598.499 2889.22C598.514 2888.87 598.711 2888.55 599.023 2888.38L608.099 2883.42C608.166 2883.38 608.229 2883.34 608.287 2883.29L616.424 2876C616.515 2875.92 616.618 2875.86 616.733 2875.82C618.722 2875.11 622.969 2874.56 625.361 2877.64C628.442 2881.6 632.402 2886.01 639.002 2884.69C644.159 2883.66 647.497 2874.7 648.607 2870.04C648.658 2869.83 648.773 2869.64 648.948 2869.5C651.677 2867.43 656.902 2866.39 657.924 2877.64C658.51 2882.05 659.772 2891.12 660.124 2892.17C660.562 2893.49 672.33 2887.82 673.311 2877.79C673.321 2877.69 673.341 2877.6 673.377 2877.51C675.881 2871.15 680.353 2857.98 678.605 2855.18C676.887 2852.43 664.688 2852.26 658.376 2852.52C658.087 2852.53 657.81 2852.42 657.606 2852.22C654.315 2848.89 646.494 2842.76 639.002 2842.41C629.322 2841.97 619.201 2841.97 613.481 2838.01C612.468 2837.14 610.2 2835.08 609.125 2833.67C609.095 2833.63 609.07 2833.59 609.046 2833.54C608.007 2831.58 605.908 2826.05 605.56 2819.08C605.227 2812.41 601.196 2808.38 598.898 2806.96C598.66 2806.82 598.48 2806.6 598.413 2806.33C597.505 2802.63 595.88 2793.46 595.88 2782.97C596.173 2775.78 595.616 2759.9 591.039 2753.91C586.483 2747.94 580.094 2735.96 577.433 2730.64C577.409 2730.59 577.39 2730.54 577.374 2730.49L572.58 2715.23C572.565 2715.18 572.554 2715.13 572.547 2715.09C572.111 2712.27 571.693 2706.61 573.438 2705.91C575.154 2705.22 567.527 2695.83 563.202 2690.87C562.997 2690.63 562.696 2690.51 562.384 2690.53C558.108 2690.76 549.947 2690.26 547.916 2686.54C545.859 2682.76 546.974 2677.57 547.847 2675.26C547.892 2675.15 547.916 2675.02 547.916 2674.89V2665.92C547.916 2665.38 547.494 2664.94 546.958 2664.92L527.104 2664.09C526.903 2664.08 526.703 2664.14 526.532 2664.24L509.743 2674.74C509.409 2674.95 509.228 2675.34 509.282 2675.73L510.868 2687.24C510.921 2687.61 510.754 2687.99 510.422 2688.19C508.736 2689.16 505.968 2690.15 504.456 2688.62C504.082 2688.25 503.533 2688.02 503.046 2688.23L493.199 2692.45C492.489 2692.76 491.716 2692.17 491.813 2691.41L494.577 2669.67C494.634 2669.23 494.389 2668.8 493.977 2668.63L477.502 2661.62C477.229 2661.5 476.919 2661.51 476.656 2661.65L456.799 2671.79C456.176 2672.1 455.429 2671.71 455.352 2671.01C454.146 2660.03 452.093 2640.02 452.43 2637.66C452.774 2635.25 446.159 2624.26 442.569 2618.68C442.404 2618.43 442.364 2618.12 442.457 2617.83C444.754 2610.63 447.224 2595.6 439.799 2589.33C439.714 2589.26 439.639 2589.17 439.581 2589.08L416.348 2551.35C405.787 2532.12 382.553 2492.87 374.105 2489.7C365.724 2486.56 349.435 2484.6 342.158 2483.99C342.039 2483.98 341.927 2483.95 341.819 2483.9L313.107 2470.41C312.997 2470.36 312.898 2470.28 312.813 2470.2L299.822 2456.78C299.513 2456.46 299.452 2455.98 299.662 2455.58C302.549 2450.22 306.054 2440.01 299.3 2437.3C292.483 2434.57 286.216 2430.8 283.695 2429.1C283.54 2428.99 283.419 2428.85 283.345 2428.68L274.448 2408.33C274.306 2408 274.346 2407.63 274.542 2407.33C276.909 2403.76 280.429 2395.1 277.739 2385.34C274.938 2375.19 273.356 2361.86 272.906 2356.37C272.901 2356.31 272.902 2356.25 272.909 2356.18L275.518 2333.13C275.531 2333.01 275.565 2332.89 275.622 2332.78C277.605 2329.03 283.12 2320.63 290.059 2315.77C296.751 2311.08 335.768 2285.61 357.25 2271.63C358.115 2271.06 357.651 2269.73 356.623 2269.8L284.493 2274.75C283.928 2274.79 283.58 2275.43 283.102 2275.73C281.339 2276.85 272.757 2273.09 247.585 2251.22C247.452 2251.11 247.292 2251.02 247.119 2250.99C235.197 2248.73 210.54 2246.74 202.713 2255.91C202.334 2256.35 201.666 2256.45 201.214 2256.08L195.701 2251.6C195.309 2251.28 195.212 2250.73 195.465 2250.29C202.293 2238.44 207.342 2205.33 175.652 2161.21C166.442 2145.56 143.944 2113.95 127.414 2112.35C127.303 2112.34 127.2 2112.31 127.098 2112.27C123.058 2110.51 113.982 2108.16 108.767 2112.33C102.203 2117.59 100.861 2132.86 74.0112 2136.49C73.7334 2136.53 73.4768 2136.68 73.3155 2136.91C68.6721 2143.51 59.2639 2157.06 56.844 2161.21C53.7761 2166.47 59.875 2155.58 52.0981 2176.81C52.0388 2176.97 51.9347 2177.12 51.8034 2177.23L25.8325 2199.32C25.6821 2199.45 25.573 2199.62 25.5188 2199.81L14.1611 2239.59L6.30046 2264.5C6.26095 2264.63 6.19716 2264.74 6.11274 2264.84L-3 2275.7" stroke="#C2BFBC" stroke-width="2" stroke-dasharray="4 4"/>
<path d="M362 2269.01C392.435 2268.65 462.276 2275.81 498.568 2307.37C498.7 2307.48 498.851 2307.56 499.023 2307.59C560.094 2319.74 683.147 2351.62 688.823 2382.4C694.455 2412.94 691.25 2442.4 688.887 2453.65C688.844 2453.85 688.739 2454.03 688.582 2454.17L669.954 2470.96C669.573 2471.3 669.513 2471.88 669.815 2472.29L693.817 2505.23C694.024 2505.51 694.07 2505.87 693.939 2506.2C688.806 2519.08 688.458 2552.86 727.011 2589.35C765.945 2626.2 813.99 2655.92 833.372 2666.3C833.517 2666.37 833.659 2666.41 833.823 2666.41C844.087 2666.41 873.015 2666.41 908.875 2666.41C909.005 2666.41 909.129 2666.43 909.248 2666.48C930.95 2675.28 980.188 2687.49 1004.99 2666.41C1029.82 2645.3 1079.74 2665.61 1101.69 2678.46C1101.76 2678.5 1101.82 2678.54 1101.87 2678.59C1131.21 2706.5 1193.28 2760.41 1207.48 2753.37C1221.69 2746.33 1170.18 2635.22 1142.64 2580.54C1141.46 2577.24 1140.87 2569.1 1147.97 2562.93C1155.08 2556.77 1214.28 2600.73 1243 2623.48" stroke="#2E3A33" stroke-opacity="0.4" stroke-width="2" stroke-dasharray="4 4"/>
<path d="M1470 3037C1373.79 2871.46 1181.59 2526.53 1174.18 2457.17C1174.08 2456.29 1175.12 2455.99 1175.79 2456.57L1365.7 2623.82C1376.5 2633.45 1401.22 2648.93 1413.62 2633.82C1424.49 2620.58 1412.33 2596.69 1402.2 2582.52C1401.53 2581.58 1402.82 2580.15 1403.82 2580.73C1417.3 2588.62 1438.57 2597.8 1447.38 2589.45C1447.43 2589.41 1447.46 2589.37 1447.5 2589.32L1468.59 2560.52" stroke="#EA5B47" stroke-opacity="0.4" stroke-width="2" stroke-dasharray="4 4"/>
</g>
<defs>
<radialGradient id="paint0_radial_10610_1631" cx="0" cy="0" r="1" gradientTransform="matrix(1042.91 3975.15 -1333.39 8383.22 190.588 288.666)" gradientUnits="userSpaceOnUse">
<stop stop-color="#FAEFE0"/>
<stop offset="1" stop-color="#CCBBA3"/>
</radialGradient>
<radialGradient id="paint1_radial_10610_1631" cx="0" cy="0" r="1" gradientTransform="matrix(-671.5 3191.74 -1461.15 -7366.72 1391.5 188.469)" gradientUnits="userSpaceOnUse">
<stop stop-color="white" stop-opacity="0"/>
<stop offset="1" stop-color="#2E3A33" stop-opacity="0.4"/>
</radialGradient>
<clipPath id="clip0_10610_1631">
<rect width="1440" height="3133" fill="white"/>
</clipPath>
<pattern id="pattern0_10610_1631" patternUnits="userSpaceOnUse" patternTransform="matrix(9.24 0 0 9.24 0 0)" preserveAspectRatio="none" viewBox="0 0 28 28" width="1" height="1">
<g id="pattern0_10610_1631_inner">
<circle cx="2" cy="2" r="2" fill="white"/>
</g>
</pattern></defs>
</svg>

