<svg width="1159" height="814" viewBox="0 0 1159 814" fill="none" xmlns="http://www.w3.org/2000/svg">
<g opacity="0.5">
<path d="M774.117 485.799C599.482 484.618 572.09 592.119 296.39 390.882C193.224 363.743 57.1088 143.26 96.3825 55.6717C135.656 -31.9168 173.163 -30.4517 331.819 -117.407C490.476 -204.361 419.012 -178.407 524.973 -223.269C630.935 -268.13 631.969 -251.08 757.293 -240.489C882.616 -229.899 808.138 -224.314 1000.59 -193.262C1193.05 -162.21 1261.65 -146.956 1332.94 -27.4745C1404.23 92.0066 1391.53 147.416 1350.27 231.688C1309.01 315.961 1242 357.088 1088.25 436.949C934.504 516.811 948.752 486.98 774.117 485.799Z" fill="#FCEEDE"/>
<path d="M1110.31 315.491C1217.96 272.257 1347.13 183.304 1390.08 60.5816C1371.74 -168.866 1246.28 -126.475 1204.06 -124.294C1161.84 -122.112 1119.4 -69.3264 1028.3 -20.1462C937.2 29.034 911.423 5.88501 854.177 18.635C796.93 31.385 712.347 -67.7442 570.961 -69.9598C429.576 -72.1753 376.485 -21.8309 347.4 13.5368C318.315 48.9045 275.323 99.4072 276.94 147.197C278.556 194.987 310.277 180.7 403.188 241.862C496.1 303.023 514.681 255.55 593.492 269.295C672.303 283.039 679.249 332.054 781.198 347.864C883.147 363.674 1002.67 358.726 1110.31 315.491Z" fill="#A5DEDA"/>
<path d="M862.417 -41.5854C969.619 -10.165 974.328 -61.036 1017.93 -71.7637C1136.22 -110.335 1084.29 49.221 1052.83 114.883C1021.36 180.545 1001.82 192.062 921.965 206.404C842.111 220.747 782.181 175.042 698.624 117.02C615.067 58.9987 642.83 -21.6065 692.041 -69.259C741.252 -116.911 755.214 -73.0058 862.417 -41.5854Z" fill="#EA5B47"/>
</g>
</svg>
