<svg width="1440" height="2497" viewBox="0 0 1440 2497" fill="none" xmlns="http://www.w3.org/2000/svg">
<path opacity="0.64" d="M982.736 4142C775.968 4189.1 478.33 4116.88 294.572 4070.38C144.616 4066.43 -53.0808 3957.61 -98.9748 3841.44C-144.869 3725.26 -347.288 821.094 -252.015 672.51C-156.743 523.927 -74.0816 609.263 3.44324 525.908C80.9681 442.553 208.746 500.198 367.376 478.107C526.005 456.016 501.655 551.97 760.811 535.817C1019.97 519.665 1067.77 474.872 1277.33 598.66C1486.88 722.448 1521.75 768.088 1561.82 880.832C1601.89 993.575 1566.28 3885.39 1469.32 4024.09C1372.37 4162.79 1189.5 4094.9 982.736 4142Z" fill="#F1EFEC"/>
<path opacity="0.5" d="M-92.4422 2561.57C-188.03 2534.49 -238.008 2487.78 -253.707 2452.11C-355.338 2306.59 62.2683 2237.43 150.906 2237.43C320.105 2237.43 334.758 2279.6 420.867 2279.6C643.5 2279.6 568.341 2278.34 755.484 2305.95C942.628 2333.57 997.008 2404.46 1051.27 2465.61C1105.54 2526.75 879.573 2792.03 761.974 2780.14C644.374 2768.25 641.102 2715.88 564.092 2664.15C487.082 2612.41 417.176 2588.52 320.105 2570.93C223.034 2553.33 210.721 2579.77 137.099 2590.14C63.4765 2600.52 3.14584 2588.66 -92.4422 2561.57Z" fill="#C1E3CB"/>
<path d="M-1.23988 2752L8.11849 2747.74C8.32699 2747.65 8.49662 2747.48 8.599 2747.28L11.3591 2741.76C11.4637 2741.55 11.6383 2741.38 11.8526 2741.29L18.3115 2738.46C18.4751 2738.39 18.6118 2738.28 18.7163 2738.13C35.1947 2715.29 67.8447 2665.55 67.8447 2647.64C67.8447 2629.67 78.9921 2633.4 84.5658 2637.51L87.787 2639.3C88.2137 2639.54 88.7492 2639.43 89.054 2639.05L91.6429 2635.81C91.8884 2635.51 92.2908 2635.37 92.6715 2635.47C99.1823 2637.15 111.563 2640.55 113.608 2641.92C115.624 2643.26 118.336 2643.38 119.599 2643.26C119.712 2643.24 119.82 2643.21 119.917 2643.15C120.832 2642.6 122.408 2640.85 122.408 2637.51C122.408 2634.12 140.403 2623.08 150.371 2617.43C150.926 2617.11 151.626 2617.39 151.812 2618.01L154.428 2626.61C154.494 2626.83 154.628 2627.01 154.817 2627.14C161.766 2631.79 176.88 2639.18 184.611 2633.33C184.795 2633.19 185.019 2633.11 185.25 2633.11H188.079C188.296 2633.11 188.506 2633.18 188.679 2633.31L191.778 2635.63C191.88 2635.71 191.996 2635.77 192.12 2635.8L198.161 2637.41C198.401 2637.48 198.606 2637.63 198.746 2637.83C200.521 2640.41 204.91 2645 209.974 2645C215.037 2645 220.504 2642.03 222.885 2640.36C223.075 2640.23 223.299 2640.16 223.531 2640.17C226.349 2640.24 232.682 2639.48 238.359 2635.89C238.501 2635.8 238.664 2635.74 238.832 2635.73L262.857 2634.02C263.09 2634 263.307 2633.9 263.477 2633.74C267.299 2630.14 276.139 2623.33 283.019 2622.98C289.892 2622.64 300.12 2624.5 304.696 2625.55C304.909 2625.6 305.128 2625.58 305.327 2625.49L312.941 2622.1L319.425 2619.26C319.767 2619.11 319.995 2618.79 320.036 2618.41C320.305 2615.99 321.358 2611.48 323.942 2608.89C326.758 2606.07 333.916 2603.9 337.142 2603.17L340.532 2602.04C340.883 2601.92 341.141 2601.62 341.202 2601.25L342.305 2594.62C342.376 2594.2 342.705 2593.87 343.128 2593.81C350.388 2592.7 364.041 2592.19 365.744 2598.32C367.358 2605.81 371.729 2621.4 376.305 2623.86C380.837 2626.3 396.962 2624.92 404.682 2623.89C404.834 2623.87 404.981 2623.89 405.126 2623.93C407.852 2624.82 413.315 2626.21 415.028 2625.18C417.228 2623.86 436.589 2620.34 441.869 2622.1C445.889 2623.44 455.804 2621.7 460.926 2620.52C461.368 2620.41 461.82 2620.62 462.044 2621.01C465.963 2627.91 475.354 2640 484.552 2637.95C493.93 2635.87 498.081 2624.18 499.036 2618.37C499.062 2618.21 499.12 2618.07 499.214 2617.94C501.227 2615.23 506.335 2609.92 511.834 2608.89C517.295 2607.87 526.232 2606.76 530.38 2606.29C530.622 2606.26 530.846 2606.15 531.009 2605.97L534.93 2601.65C535.076 2601.49 535.271 2601.38 535.486 2601.34L542.024 2600.12C542.138 2600.09 542.247 2600.05 542.347 2599.99L549.377 2595.86C549.571 2595.74 549.796 2595.7 550.02 2595.72C554.384 2596.27 562.729 2596.18 563.757 2591.72C564.794 2587.22 561.391 2575.28 559.462 2569.57C559.393 2569.37 559.261 2569.19 559.085 2569.07C556.246 2567.05 551.393 2562.44 552.757 2558.69C554.517 2553.85 557.157 2548.12 549.677 2547.68C544.129 2547.36 539.917 2549.02 538.164 2550.09C537.924 2550.23 537.638 2550.29 537.372 2550.2C535.868 2549.7 532.987 2547.99 530.755 2544.16C528.547 2540.37 522.874 2546.44 519.503 2551.02C519.032 2551.66 518.017 2551.56 517.671 2550.84C515.799 2546.98 512.013 2540.67 507.12 2536.68C506.786 2536.41 506.649 2535.96 506.792 2535.55C509.023 2529.2 513.448 2517.66 516.818 2512.09C517.305 2511.28 516.595 2510.09 515.665 2510.22L509.546 2511.13C508.593 2511.27 508.011 2510.12 508.692 2509.44L513.209 2504.92C513.838 2504.29 513.392 2503.21 512.501 2503.21H510.746C510.019 2503.21 509.535 2502.46 509.836 2501.8L510.752 2499.78C511.053 2499.12 510.569 2498.37 509.841 2498.37H492.705C492.111 2498.37 491.648 2497.85 491.711 2497.26L492.837 2486.75C492.882 2486.32 493.193 2485.97 493.611 2485.88L506.271 2483.02C506.456 2482.98 506.625 2482.88 506.758 2482.75L511.201 2478.3C511.328 2478.18 511.485 2478.09 511.658 2478.04L523.132 2475.06C523.227 2475.04 523.317 2475 523.401 2474.95L533.186 2468.99C533.324 2468.91 533.476 2468.86 533.636 2468.84C538.139 2468.49 547.539 2466.19 550.997 2459.62C554.492 2452.97 560.012 2446.06 562.387 2443.38C562.422 2443.34 562.451 2443.3 562.478 2443.26C563.743 2441.19 564.356 2435.31 557.194 2427.54C556.912 2427.23 556.837 2426.78 557.017 2426.41L562.25 2415.53C562.37 2415.28 562.381 2415 562.282 2414.74L558.163 2404.02C558.081 2403.81 558.075 2403.58 558.14 2403.36C558.993 2400.48 559.837 2395.16 557.927 2392.2C557.506 2391.54 557.622 2390.52 558.332 2390.2L560.547 2389.22C560.633 2389.18 560.722 2389.16 560.815 2389.14C564.017 2388.67 570.888 2386.39 574.458 2380.84C574.65 2380.54 574.974 2380.36 575.328 2380.35C580.454 2380.27 589.984 2379.16 591.449 2375.16C591.47 2375.1 591.493 2375.05 591.523 2374.99C593.701 2371.03 598.024 2360.55 598.499 2349.22C598.514 2348.87 598.711 2348.55 599.023 2348.38L608.099 2343.42C608.166 2343.38 608.229 2343.34 608.287 2343.29L616.424 2336C616.515 2335.92 616.618 2335.86 616.733 2335.82C618.722 2335.11 622.969 2334.56 625.362 2337.64C628.442 2341.6 632.402 2346.01 639.002 2344.69C644.159 2343.66 647.497 2334.7 648.607 2330.04C648.658 2329.83 648.773 2329.64 648.948 2329.5C651.677 2327.43 656.902 2326.39 657.924 2337.64C658.51 2342.05 659.772 2351.12 660.124 2352.17C660.562 2353.49 672.33 2347.82 673.311 2337.79C673.321 2337.69 673.341 2337.6 673.377 2337.51C675.881 2331.15 680.353 2317.98 678.605 2315.18C676.887 2312.43 664.688 2312.26 658.376 2312.52C658.087 2312.53 657.81 2312.42 657.606 2312.22C654.315 2308.89 646.494 2302.76 639.002 2302.41C629.322 2301.97 619.201 2301.97 613.481 2298.01C612.468 2297.14 610.201 2295.08 609.125 2293.67C609.095 2293.63 609.07 2293.59 609.046 2293.54C608.007 2291.58 605.908 2286.05 605.56 2279.08C605.227 2272.41 601.196 2268.38 598.898 2266.96C598.66 2266.82 598.48 2266.6 598.413 2266.33C597.505 2262.63 595.88 2253.46 595.88 2242.97C596.173 2235.78 595.616 2219.9 591.039 2213.91C586.483 2207.94 580.094 2195.96 577.433 2190.64C577.409 2190.59 577.39 2190.54 577.374 2190.49L572.58 2175.23C572.565 2175.18 572.554 2175.13 572.547 2175.09C572.111 2172.27 571.693 2166.61 573.438 2165.91C575.154 2165.22 567.527 2155.83 563.202 2150.87C562.997 2150.63 562.696 2150.51 562.384 2150.53C558.108 2150.76 549.947 2150.26 547.916 2146.54C545.859 2142.76 546.974 2137.57 547.847 2135.26C547.892 2135.15 547.916 2135.02 547.916 2134.89V2125.92C547.916 2125.38 547.494 2124.94 546.958 2124.92L527.104 2124.09C526.903 2124.08 526.703 2124.13 526.532 2124.24L509.743 2134.74C509.409 2134.95 509.228 2135.34 509.282 2135.73L510.868 2147.24C510.921 2147.61 510.754 2147.99 510.422 2148.19C508.736 2149.16 505.968 2150.15 504.456 2148.62C504.082 2148.25 503.533 2148.02 503.046 2148.23L493.199 2152.45C492.489 2152.76 491.716 2152.17 491.813 2151.41L494.577 2129.67C494.634 2129.23 494.389 2128.8 493.977 2128.63L477.502 2121.62C477.229 2121.5 476.919 2121.51 476.656 2121.65L456.799 2131.79C456.176 2132.1 455.429 2131.71 455.352 2131.01C454.146 2120.03 452.093 2100.02 452.43 2097.66C452.774 2095.25 446.159 2084.26 442.569 2078.68C442.404 2078.43 442.364 2078.12 442.457 2077.83C444.754 2070.63 447.223 2055.6 439.799 2049.33C439.714 2049.26 439.639 2049.17 439.581 2049.08L416.348 2011.35C405.787 1992.12 382.553 1952.87 374.105 1949.7C365.724 1946.56 349.435 1944.6 342.158 1943.99C342.039 1943.98 341.927 1943.95 341.819 1943.9L313.107 1930.41C312.997 1930.36 312.898 1930.28 312.813 1930.2L299.822 1916.78C299.513 1916.46 299.452 1915.98 299.662 1915.58C302.549 1910.22 306.054 1900.01 299.3 1897.3C292.483 1894.57 286.216 1890.8 283.695 1889.1C283.54 1888.99 283.419 1888.85 283.345 1888.68L274.448 1868.33C274.306 1868 274.346 1867.63 274.542 1867.33C276.909 1863.76 280.429 1855.1 277.739 1845.34C274.938 1835.19 273.356 1821.86 272.906 1816.37C272.901 1816.31 272.902 1816.25 272.909 1816.18L275.518 1793.13C275.531 1793.01 275.565 1792.89 275.622 1792.78C277.605 1789.03 283.12 1780.63 290.059 1775.77C296.751 1771.08 335.768 1745.61 357.25 1731.63C358.115 1731.06 357.651 1729.73 356.623 1729.8L284.493 1734.75C283.928 1734.79 283.58 1735.43 283.102 1735.73C281.339 1736.85 272.757 1733.09 247.585 1711.22C247.452 1711.11 247.292 1711.02 247.119 1710.99C235.197 1708.73 210.54 1706.74 202.713 1715.91C202.334 1716.35 201.666 1716.45 201.214 1716.08L195.701 1711.6C195.309 1711.28 195.212 1710.73 195.465 1710.29C202.293 1698.44 207.342 1665.33 175.652 1621.21C166.442 1605.56 143.944 1573.95 127.414 1572.35C127.303 1572.34 127.2 1572.31 127.098 1572.27C123.058 1570.51 113.982 1568.16 108.767 1572.33C102.203 1577.59 100.861 1592.86 74.0112 1596.49C73.7334 1596.53 73.4768 1596.68 73.3155 1596.91C68.6721 1603.51 59.2639 1617.06 56.844 1621.21C53.7761 1626.47 59.875 1615.58 52.0981 1636.81C52.0388 1636.97 51.9347 1637.12 51.8034 1637.23L25.8325 1659.32C25.6821 1659.45 25.573 1659.62 25.5188 1659.81L14.1611 1699.59L6.30046 1724.5C6.26095 1724.63 6.19716 1724.74 6.11275 1724.84L-3 1735.7" stroke="#C2BFBC" stroke-width="2" stroke-dasharray="4 4"/>
<path d="M362.01 1729.01C392.445 1728.64 462.285 1735.81 498.577 1767.36C498.71 1767.48 498.861 1767.55 499.033 1767.59C560.104 1779.74 683.156 1811.61 688.832 1842.39C694.464 1872.94 691.26 1902.4 688.897 1913.64C688.854 1913.85 688.748 1914.02 688.592 1914.16L669.963 1930.96C669.583 1931.3 669.523 1931.87 669.825 1932.29L693.826 1965.23C694.034 1965.51 694.08 1965.87 693.949 1966.2C688.816 1979.08 688.468 2012.86 727.021 2049.35C765.955 2086.2 814 2115.91 833.382 2126.29C833.527 2126.37 833.669 2126.4 833.833 2126.4C844.097 2126.4 873.025 2126.4 908.885 2126.4C909.015 2126.4 909.138 2126.43 909.258 2126.48C930.96 2135.28 980.198 2147.48 1005 2126.4C1029.83 2105.3 1079.75 2125.61 1101.7 2138.46C1101.77 2138.5 1101.83 2138.54 1101.88 2138.59C1131.22 2166.5 1193.29 2220.41 1207.49 2213.37C1221.7 2206.32 1170.19 2095.21 1142.65 2040.54C1141.47 2037.24 1140.88 2029.09 1147.98 2022.93C1155.09 2016.76 1214.29 2060.72 1243.01 2083.47" stroke="#2E3A33" stroke-opacity="0.4" stroke-width="2" stroke-dasharray="4 4"/>
<path d="M1470.01 2497C1373.8 2331.46 1181.6 1986.53 1174.19 1917.17C1174.09 1916.29 1175.13 1915.98 1175.79 1916.57L1365.71 2083.82C1376.51 2093.45 1401.23 2108.92 1413.63 2093.82C1424.5 2080.57 1412.34 2056.68 1402.2 2042.51C1401.54 2041.58 1402.83 2040.14 1403.83 2040.72C1417.31 2048.62 1438.58 2057.79 1447.39 2049.45C1447.44 2049.41 1447.47 2049.37 1447.51 2049.32L1468.6 2020.51" stroke="#EA5B47" stroke-opacity="0.4" stroke-width="2" stroke-dasharray="4 4"/>
</svg>
