<svg width="1443" height="304" viewBox="0 0 1443 304" fill="none" xmlns="http://www.w3.org/2000/svg">
<g clip-path="url(#clip0)">
<path d="M1240 221.416C1120.41 204.76 1068.01 190.702 1020.05 101.223C1016.19 94.0106 1012.64 86.5258 1009.41 78.8028C986.633 58.5484 969.726 34.0464 955.86 0.000244141H246.495C243.583 12.9924 239.106 26.1339 232.949 30.5978C229.819 32.8798 226.766 35.3283 223.713 37.6769C264.503 42.4315 305.017 50.5604 345.01 62.0128C648.177 149.277 677.899 99.0233 868.132 210.106C1058.36 321.189 1245.61 298.72 1296.15 301.368C1325.31 302.884 1384.15 304.416 1443 303.9V171.413C1381.06 206.109 1317.15 232.126 1240 221.416Z" fill="#FCEEDE"/>
<path d="M159.485 32.7466C158.715 31.4474 157.946 30.0986 157.176 28.5662C153.013 19.9817 150.648 10.1354 150.313 0.000244141H135.857C134.112 10.8701 131.924 21.6118 129.302 32.1805C139.247 32.1805 149.308 32.3691 159.485 32.7466Z" fill="#FCEEDE"/>
<path d="M1142.98 151.692C1082.69 126.257 1040.57 106.503 1009.42 78.803C1012.64 86.526 1016.19 94.0107 1020.05 101.223C1068.01 190.702 1120.41 204.826 1240 221.416C1317.15 232.127 1381.11 206.109 1443.01 171.446V129.905C1344.48 157.955 1251.41 197.431 1142.98 151.692Z" fill="#A5DEDA"/>
<path d="M0 0.000244141V123.222C8.22736 124.34 17.1949 125.357 27.1142 126.392C85.869 132.548 125.483 106.689 170.744 86.7195C189.335 78.5113 203.4 55.9887 213.192 32.2319C217.515 21.6463 221.123 10.8875 224 0.000244141H0Z" fill="#A5DEDA"/>
<path d="M988.942 0.000620636H955.809C969.675 34.0468 986.595 58.5487 1009.36 78.8032C1040.52 106.503 1082.65 126.258 1142.92 151.692C1251.36 197.431 1344.41 157.955 1442.96 129.872V-0.0498047L988.942 0.000620636Z" fill="#EA5B47"/>
</g>
<defs>
<clipPath id="clip0">
<rect width="1443" height="304" fill="white"/>
</clipPath>
</defs>
</svg>
