<svg width="152" height="35" viewBox="0 0 152 35" fill="none" xmlns="http://www.w3.org/2000/svg">
<path d="M35.7612 18.2647V18.2327C36.4969 18.0727 37.0407 17.7209 37.4565 17.2091C37.8404 16.6973 38.0323 16.0896 38.0323 15.3859C38.0323 14.7781 37.9363 14.2663 37.6804 13.8505C37.4565 13.4347 37.1367 13.1148 36.7528 12.8589C36.369 12.603 35.9212 12.4111 35.4414 12.3151C34.9296 12.2192 34.4178 12.1552 33.906 12.1552H30.0676V25.0138H34.002C35.0255 25.0138 35.8572 24.8539 36.4649 24.566C37.0727 24.2781 37.5525 23.9263 37.8724 23.5424C38.1922 23.1586 38.4161 22.7428 38.5121 22.3589C38.6081 21.9751 38.672 21.6552 38.672 21.4633C38.672 20.5037 38.4161 19.768 37.9043 19.1923C37.3606 18.6485 36.6569 18.3286 35.7612 18.2647ZM31.3471 13.3707H33.842C34.4498 13.3707 34.9616 13.4667 35.3134 13.6266C35.6973 13.7865 35.9532 14.0104 36.1451 14.2663C36.337 14.5222 36.4649 14.7461 36.5289 15.002C36.5609 15.2579 36.5929 15.4178 36.5929 15.5778C36.5929 15.9936 36.5289 16.3455 36.369 16.6333C36.2091 16.9212 36.0171 17.1451 35.7612 17.337C35.5053 17.529 35.2495 17.6569 34.9296 17.7209C34.6097 17.8168 34.2899 17.8488 34.002 17.8488H31.3791V13.3707H31.3471ZM36.9767 22.4869C36.8168 22.8068 36.5609 23.0307 36.273 23.2546C35.9532 23.4465 35.6013 23.6064 35.1855 23.7024C34.7697 23.7983 34.3218 23.8623 33.874 23.8623H31.3791V18.9044H34.066C35.1215 18.9044 35.9212 19.0963 36.4649 19.5121C37.0087 19.928 37.2966 20.5677 37.2966 21.3993C37.2326 21.8472 37.1367 22.199 36.9767 22.4869Z" fill="white"/>
<path d="M46.8606 19.4161C47.3084 18.9363 47.5323 18.3286 47.5323 17.6249C47.5323 16.7292 47.2445 16.0255 46.6367 15.5777C46.0609 15.1299 45.2293 14.906 44.2377 14.906H41.135V24.7899H42.3825V20.3117H43.7899L46.4128 24.7899H47.9162L45.1333 20.2158C45.869 20.1198 46.4448 19.8319 46.8606 19.4161ZM43.9818 19.1602H42.3825V16.0895H43.9818C44.3976 16.0895 44.7495 16.1215 45.0374 16.2175C45.3253 16.2814 45.5492 16.4094 45.7091 16.5373C45.869 16.6653 45.997 16.8252 46.0609 17.0171C46.1249 17.209 46.1569 17.401 46.1569 17.5929C46.1569 17.8168 46.1249 18.0087 46.0609 18.2006C45.997 18.3925 45.869 18.5525 45.7091 18.6804C45.5492 18.8084 45.3253 18.9363 45.0374 19.0003C44.7495 19.1282 44.3976 19.1602 43.9818 19.1602Z" fill="white"/>
<path d="M57.9916 16.1534C57.5438 15.7056 57 15.3217 56.3603 15.0658C55.7206 14.81 55.0489 14.682 54.3132 14.682C53.5775 14.682 52.9058 14.81 52.266 15.0658C51.6263 15.3217 51.0825 15.6736 50.6347 16.1534C50.1869 16.6012 49.8031 17.145 49.5472 17.7847C49.2913 18.4244 49.1633 19.0962 49.1633 19.8638C49.1633 20.5995 49.2913 21.3032 49.5472 21.943C49.8031 22.5827 50.1549 23.1265 50.6347 23.5743C51.0825 24.0221 51.6583 24.4059 52.266 24.6618C52.8738 24.9177 53.5775 25.0457 54.3132 25.0457C55.0489 25.0457 55.7206 24.9177 56.3603 24.6618C57 24.4059 57.5438 24.0541 57.9916 23.5743C58.4394 23.1265 58.8233 22.5507 59.0792 21.943C59.3351 21.3032 59.463 20.5995 59.463 19.8638C59.463 19.1281 59.3351 18.4244 59.0792 17.7847C58.8233 17.145 58.4394 16.6012 57.9916 16.1534ZM57.8637 21.3992C57.6718 21.879 57.4479 22.3268 57.128 22.6787C56.8081 23.0305 56.3923 23.3184 55.9445 23.5423C55.4647 23.7662 54.9529 23.8622 54.3452 23.8622C53.7374 23.8622 53.2256 23.7662 52.7458 23.5423C52.266 23.3184 51.8822 23.0305 51.5623 22.6787C51.2425 22.3268 50.9866 21.879 50.8266 21.3992C50.6347 20.9194 50.5707 20.4076 50.5707 19.8638C50.5707 19.3201 50.6667 18.8083 50.8266 18.3285C50.9866 17.8487 51.2425 17.4329 51.5623 17.049C51.8822 16.6972 52.298 16.4093 52.7458 16.1854C53.2256 15.9615 53.7374 15.8655 54.3452 15.8655C54.9209 15.8655 55.4647 15.9615 55.9445 16.1854C56.3923 16.4093 56.8081 16.6972 57.128 17.049C57.4479 17.4329 57.7038 17.8487 57.8637 18.3285C58.0236 18.8083 58.1196 19.3201 58.1196 19.8638C58.1196 20.4076 58.0556 20.9194 57.8637 21.3992Z" fill="white"/>
<path d="M69.3474 14.9379H67.5242L63.078 19.0322V14.9379H61.8306V24.7897H63.078V19.8958L67.7481 24.7897H69.5713L64.3255 19.416L69.3474 14.9379Z" fill="white"/>
<path d="M72.3857 20.2476H77.0557V19.0961H72.3857V16.0894H77.3756V14.9379H71.1382V24.7897H77.5355V23.6382H72.3857V20.2476Z" fill="white"/>
<path d="M85.3721 19.4161C85.8199 18.9363 86.0438 18.3286 86.0438 17.6249C86.0438 16.7292 85.7239 16.0255 85.1482 15.5777C84.5724 15.1299 83.7408 14.906 82.7492 14.906H79.6465V24.7899H80.894V20.3117H82.3014L84.9243 24.7899H86.4596L83.6768 20.2158C84.3805 20.1198 84.9563 19.8319 85.3721 19.4161ZM82.4933 19.1602H80.894V16.0895H82.4933C82.9091 16.0895 83.261 16.1215 83.5489 16.2175C83.8367 16.2814 84.0606 16.4094 84.2206 16.5373C84.3805 16.6653 84.5084 16.8252 84.5724 17.0171C84.6364 17.209 84.7004 17.401 84.7004 17.5929C84.7004 17.8168 84.6684 18.0087 84.5724 18.2006C84.5084 18.3925 84.3805 18.5525 84.2206 18.6804C84.0606 18.8084 83.8367 18.9363 83.5489 19.0003C83.261 19.1282 82.9091 19.1602 82.4933 19.1602Z" fill="white"/>
<path d="M99.4785 19.3519C99.2226 19.064 98.9347 18.8401 98.5829 18.6802C98.231 18.4883 97.8472 18.3923 97.4314 18.3283V18.2963C98.1031 18.1044 98.6469 17.7526 99.0307 17.2728C99.4465 16.793 99.6384 16.1852 99.6384 15.4495C99.6384 14.7458 99.5105 14.1701 99.2226 13.7542C98.9347 13.3384 98.5829 13.0185 98.1351 12.7627C97.6873 12.5387 97.1755 12.3788 96.6317 12.2829C96.0559 12.1869 95.5122 12.1549 94.9364 12.1549H90.1384V25.0135H95.4162C95.992 25.0135 96.5677 24.9496 97.1435 24.8216C97.7193 24.6937 98.231 24.5017 98.6788 24.2139C99.1267 23.926 99.5105 23.5741 99.7984 23.1263C100.086 22.6785 100.246 22.1027 100.246 21.431C100.246 21.0152 100.182 20.6314 100.054 20.2795C99.9263 19.9277 99.7344 19.6078 99.4785 19.3519ZM92.9852 14.5859H94.9044C95.1283 14.5859 95.3522 14.6179 95.5762 14.6499C95.8001 14.6818 96.024 14.7778 96.1839 14.8738C96.3758 14.9697 96.5038 15.0977 96.6317 15.2896C96.7277 15.4815 96.7916 15.6734 96.7916 15.9613C96.7916 16.2172 96.7277 16.4411 96.6317 16.601C96.5357 16.793 96.4078 16.9209 96.2159 17.0489C96.056 17.1448 95.864 17.2408 95.6401 17.2728C95.4162 17.3367 95.2243 17.3367 95.0004 17.3367H92.9532V14.5859H92.9852ZM97.2394 21.8468C97.1115 22.0388 96.9836 22.1987 96.7916 22.3266C96.5997 22.4546 96.4078 22.5506 96.1839 22.5825C95.96 22.6145 95.7361 22.6465 95.5122 22.6465H92.9532V19.7357H95.0964C95.3203 19.7357 95.5761 19.7357 95.832 19.7997C96.0879 19.8317 96.3438 19.8957 96.5677 19.9916C96.7916 20.0876 96.9836 20.2475 97.1435 20.4075C97.3034 20.5994 97.3674 20.8233 97.3674 21.1431C97.3994 21.431 97.3674 21.6549 97.2394 21.8468Z" fill="white"/>
<path d="M109.49 19.8C109.874 19.3202 110.034 18.6805 110.034 17.9768C110.034 17.401 109.938 16.8892 109.714 16.5054C109.49 16.1216 109.234 15.8017 108.882 15.5458C108.531 15.3219 108.147 15.162 107.667 15.066C107.219 14.97 106.739 14.9061 106.26 14.9061H102.389V24.7899H104.788V20.9515H105.62L107.635 24.7899H110.514L108.051 20.6956C108.691 20.5677 109.17 20.2478 109.49 19.8ZM107.443 18.4886C107.347 18.6165 107.219 18.7125 107.059 18.7764C106.899 18.8404 106.739 18.8724 106.515 18.9044C106.292 18.9044 106.1 18.9364 105.908 18.9364H104.788V17.0172H106.036C106.228 17.0172 106.419 17.0172 106.611 17.0492C106.803 17.0812 106.963 17.1131 107.091 17.1771C107.219 17.2411 107.347 17.337 107.411 17.465C107.507 17.5929 107.539 17.7529 107.539 17.9768C107.571 18.2007 107.539 18.3606 107.443 18.4886Z" fill="white"/>
<path d="M120.557 16.0892C120.078 15.6414 119.534 15.2896 118.862 15.0337C118.222 14.8098 117.519 14.6818 116.751 14.6818C115.983 14.6818 115.28 14.8098 114.608 15.0337C113.968 15.2576 113.392 15.6094 112.913 16.0892C112.433 16.537 112.081 17.0808 111.793 17.7206C111.537 18.3603 111.409 19.064 111.409 19.8637C111.409 20.6633 111.537 21.367 111.793 22.0068C112.049 22.6465 112.433 23.1903 112.913 23.6381C113.392 24.0859 113.968 24.4377 114.608 24.6936C115.248 24.9175 115.983 25.0455 116.751 25.0455C117.519 25.0455 118.222 24.9175 118.862 24.6936C119.502 24.4377 120.078 24.0859 120.557 23.6381C121.037 23.1903 121.421 22.6465 121.677 22.0068C121.933 21.367 122.061 20.6313 122.061 19.8637C122.061 19.096 121.933 18.3603 121.677 17.7206C121.389 17.0808 121.037 16.537 120.557 16.0892ZM119.374 21.0472C119.246 21.399 119.054 21.7189 118.798 21.9748C118.542 22.2307 118.254 22.4546 117.902 22.5825C117.551 22.7424 117.167 22.8064 116.719 22.8064C116.303 22.8064 115.887 22.7424 115.535 22.5825C115.184 22.4546 114.896 22.2307 114.64 21.9748C114.384 21.7189 114.192 21.399 114.064 21.0472C113.936 20.6953 113.872 20.2795 113.872 19.8637C113.872 19.4478 113.936 19.032 114.064 18.6801C114.192 18.3283 114.384 18.0084 114.64 17.7525C114.896 17.4966 115.184 17.2727 115.535 17.1448C115.887 17.0168 116.271 16.9209 116.719 16.9209C117.135 16.9209 117.551 16.9849 117.902 17.1448C118.254 17.3047 118.542 17.4966 118.798 17.7525C119.054 18.0084 119.246 18.3283 119.374 18.6801C119.502 19.032 119.566 19.4478 119.566 19.8637C119.598 20.3115 119.534 20.6953 119.374 21.0472Z" fill="white"/>
<path d="M133.128 14.9379H129.993L126.443 18.7123V14.9379H124.044V24.7898H126.443V20.4716L130.153 24.7898H133.48L128.714 19.544L133.128 14.9379Z" fill="white"/>
<path d="M137.095 20.8874H141.253V18.6804H137.095V17.145H141.477V14.9379H134.696V24.7898H141.733V22.5827H137.095V20.8874Z" fill="white"/>
<path d="M149.537 20.6955C150.145 20.5355 150.625 20.2477 150.977 19.7679C151.36 19.2881 151.52 18.6483 151.52 17.9446C151.52 17.3689 151.424 16.8571 151.2 16.4732C150.977 16.0894 150.721 15.7695 150.369 15.5136C150.017 15.2897 149.633 15.1298 149.185 15.0338C148.737 14.9379 148.258 14.8739 147.746 14.8739H143.875V24.7578H146.274V20.9194H147.106L149.121 24.7578H152L149.537 20.6955ZM148.929 18.4884C148.833 18.6163 148.705 18.7123 148.546 18.7763C148.386 18.8402 148.226 18.8722 148.002 18.9042C147.778 18.9042 147.586 18.9362 147.394 18.9362H146.274V17.017H147.522C147.714 17.017 147.906 17.017 148.098 17.049C148.29 17.081 148.45 17.113 148.578 17.1769C148.705 17.2409 148.833 17.3369 148.897 17.4648C148.993 17.5928 149.025 17.7527 149.025 17.9766C149.057 18.2005 149.025 18.3604 148.929 18.4884Z" fill="white"/>
<path d="M12.4749 30.8351C13.1786 30.8351 13.7864 30.2593 13.7864 29.5556C13.7864 28.8519 13.2106 28.2762 12.4749 28.2762C12.0911 28.2762 11.7072 28.5641 11.3874 28.82C11.2914 28.596 11.1954 28.2442 11.1954 27.8284H10.2358C10.2358 28.628 10.4917 29.2038 10.6837 29.5556L10.6517 29.5876L10.6837 29.6196C10.4917 29.9715 10.2358 30.5472 10.2358 31.3149C10.2358 32.1146 10.4917 32.6903 10.6837 33.0102L10.6517 33.0422L10.6837 33.0742C10.4917 33.426 10.2358 34.0018 10.2358 34.7695C10.2358 34.8334 10.2358 34.8974 10.2358 34.9614H11.1954C11.1954 34.8974 11.1954 34.8334 11.1954 34.7695C11.1954 34.3217 11.2914 34.0018 11.3874 33.7779C11.7072 34.0338 12.123 34.2897 12.4749 34.2897C13.1786 34.2897 13.7864 33.7139 13.7864 33.0102C13.7864 32.3065 13.2106 31.7307 12.4749 31.7307C12.0911 31.7307 11.7072 31.9866 11.3874 32.2745C11.2914 32.0506 11.1954 31.6987 11.1954 31.2829C11.1954 30.8671 11.2914 30.5152 11.3874 30.2913C11.6752 30.5792 12.0911 30.8351 12.4749 30.8351ZM12.4749 29.2038C12.6668 29.2038 12.8268 29.3637 12.8268 29.5237C12.8268 29.7156 12.6668 29.8435 12.4749 29.8435C12.3789 29.8435 12.187 29.6836 11.9631 29.5237C12.155 29.3637 12.3789 29.2358 12.4749 29.2038ZM12.4749 32.6903C12.6668 32.6903 12.8268 32.8503 12.8268 33.0102C12.8268 33.2021 12.6668 33.3301 12.4749 33.3301C12.3789 33.3301 12.187 33.1701 11.9631 33.0102C12.155 32.8503 12.3789 32.7223 12.4749 32.6903Z" fill="white"/>
<path d="M2.20708 9.02026C2.1431 9.02026 2.07913 9.02026 2.01516 9.02026C1.79125 9.02026 1.59933 9.08424 1.40741 9.14821C0.575759 9.46808 0 10.2677 0 11.1954V14.9378C0 15.8974 0.575759 16.6971 1.40741 16.9849C1.59933 17.0489 1.79125 17.1129 2.01516 17.1129C2.07913 17.1129 2.1431 17.1129 2.20708 17.1129H2.52694C1.95118 15.9614 1.63132 14.5539 1.63132 13.1145C1.63132 11.6432 1.95118 10.2677 2.49496 9.02026H2.20708Z" fill="white"/>
<path d="M20.4079 6.5571L20.3759 6.52511C20.12 6.14127 19.8001 5.78942 19.4483 5.43756C19.2883 5.27763 19.1284 5.14969 19.0005 5.02174C18.9685 4.98975 18.9365 4.95777 18.9045 4.92578C17.657 3.80625 16.1217 2.9746 14.4584 2.52678C13.5947 2.30288 12.6671 2.17493 11.7395 2.14294V3.16652C17.1452 3.23049 21.5274 7.61265 21.5594 13.0184H22.583C22.583 12.1548 22.487 11.3551 22.2631 10.5554C21.9112 9.08404 21.2715 7.7406 20.4079 6.5571Z" fill="white"/>
<path d="M11.7395 0V1.02357C13.7866 1.02357 15.7698 1.56734 17.5291 2.55893C17.8809 2.75085 18.2328 2.97476 18.5846 3.23065H18.6166C19.992 4.19025 21.1436 5.46971 22.0072 6.90911C22.2311 7.29295 22.455 7.67679 22.6469 8.09261C23.3187 9.65996 23.7025 11.2913 23.7025 13.0186H24.7261C24.6621 5.85355 18.8725 0.0639732 11.7395 0Z" fill="white"/>
<path d="M11.6432 4.31818C6.81326 4.31818 2.87891 8.25253 2.87891 13.0825C2.87891 16.9529 7.421 26.6128 9.24424 26.8687C10.3638 27.0287 10.6197 27.0607 11.6432 27.0607C12.6668 27.0607 12.9227 27.0287 14.0422 26.8687C15.8655 26.6128 20.4076 16.9529 20.4076 13.0825C20.4076 8.25253 16.4732 4.31818 11.6432 4.31818ZM11.6432 6.94108C13.3065 6.94108 14.8099 7.6128 15.9294 8.66836H7.32504C8.44458 7.58081 9.94795 6.94108 11.6432 6.94108ZM11.6432 19.2559C9.97993 19.2559 8.47656 18.5842 7.35703 17.5286H15.9294C14.8099 18.5842 13.3065 19.2559 11.6432 19.2559ZM17.1769 15.7374H6.07757C5.82167 15.1936 5.62975 14.5859 5.53379 13.9781H17.7207C17.6247 14.5859 17.4328 15.1936 17.1769 15.7374ZM5.53379 12.1869C5.62975 11.5791 5.82167 10.9714 6.07757 10.4276H17.1769C17.4328 10.9714 17.6247 11.5791 17.7207 12.1869H5.53379Z" fill="white"/>
</svg>
