<svg width="1440" height="2456" viewBox="0 0 1440 2456" fill="none" xmlns="http://www.w3.org/2000/svg">
<g clip-path="url(#clip0)">
<path d="M107.67 423C107.67 423 224.67 402 265.32 380.11C305.97 358.22 336.02 359.11 355.52 353.41C375.02 347.71 365.28 331.56 365.28 329.13C365.28 326.7 337.65 320.23 333.58 319.42C329.51 318.61 316.52 313.75 312.45 312.94C308.38 312.13 279.95 300 274.26 300C268.57 300 249.88 293.52 239.32 293.52C228.76 293.52 236.07 288.67 229.56 287.05C223.05 285.43 219.81 283 211.69 282.19C203.57 281.38 196.25 275.72 190.56 273.29C182.649 269.983 174.499 267.278 166.18 265.2C156.43 262.77 148.3 257.92 143.42 256.3C138.54 254.68 135.3 247.4 132.86 245.78C130.42 244.16 124.73 242.54 121.48 240.92C118.23 239.3 104.42 232.02 99.5399 229.59C94.6599 227.16 88.1699 219.07 80.0399 215.84C71.9099 212.61 68.6599 209.36 58.9099 209.36C49.1599 209.36 45.1 201.27 41.84 197.22C38.58 193.17 25.58 190.78 25.58 190.78C25.58 190.78 10.7 185.71 4.19995 188.14C1.94995 188.98 0.41999 189.47 -0.0100098 190.01V414.91L107.67 423Z" fill="#E8F9EC"/>
<path d="M1440 208.25C1440 208.25 1402 209.14 1393.46 210.89C1384.92 212.64 1377.05 219.46 1371.82 220.99C1366.59 222.52 1351.69 227.25 1348.21 228.27C1344.73 229.29 1338.83 229.87 1336.15 231.04C1333.47 232.21 1328.96 238.78 1323.88 239.52C1318.8 240.26 1309.88 243.6 1299.88 244.27C1291.32 244.841 1282.81 246.064 1274.44 247.93C1268.44 249.31 1260.21 253.59 1252.06 252.93C1243.91 252.27 1240.31 254.13 1233.58 254.58C1226.85 255.03 1233.23 261.09 1222.83 259.23C1212.43 257.37 1192.89 260.43 1187.29 259.43C1181.69 258.43 1151.54 265.35 1147.4 265.43C1143.26 265.51 1129.59 267.99 1125.4 268.07C1121.21 268.15 1092.91 269.64 1092.48 272.07C1092.05 274.5 1079.57 288.67 1097.76 297.68C1115.95 306.69 1145.68 311.21 1181.76 339.89C1217.84 368.57 1329.27 409.94 1329.27 409.94L1439.89 420.34V208.34L1440 208.25Z" fill="#E8F9EC"/>
<path d="M841.48 462.65C841.48 462.65 1251.05 287.86 1247.8 288.65C1244.55 289.44 1230.74 269.23 1222.61 267.65C1214.48 266.07 1209.61 259.55 1202.3 257.13C1194.99 254.71 1194.98 253.13 1190.92 252.27C1186.86 251.41 1180.35 247.42 1172.23 243.37C1164.11 239.32 1164.1 236.9 1160.04 235.28C1155.98 233.66 1152.73 227.99 1149.47 224.76C1146.21 221.53 1139.72 217.47 1133.22 212.62C1126.72 207.77 1121.03 207.78 1115.34 207.78C1109.65 207.78 1109.66 200.5 1105.59 197.26C1101.52 194.02 1092.59 192.41 1086.09 190.79C1079.59 189.17 1077.15 186.79 1071.46 183.51C1065.77 180.23 1060.08 168.13 1054.4 166.51C1048.72 164.89 1045.46 162.51 1043.02 162.51H1031.64C1028.39 162.51 1017.83 164.13 1014.58 165.74C1011.33 167.35 1008.89 167.36 1004.82 168.98C1001.11 170.328 997.312 171.41 993.45 172.22C990.2 173.03 984.51 173.03 980.45 173.84C976.39 174.65 966.63 177.07 959.32 177.84C952.01 178.61 945.5 179.46 945.5 179.46C945.5 179.46 932.5 183.46 922.75 185.93C913 188.4 908.93 189.17 906.49 189.17C904.05 189.17 899.18 185.17 896.74 183.51C894.3 181.85 884.55 179.51 873.99 175.41C870.291 173.257 866.08 172.142 861.8 172.18C854.49 172.18 854.49 170.56 847.98 170.56C841.47 170.56 835.79 170.56 833.36 171.37C830.93 172.18 821.17 172.99 817.92 173.8C814.67 174.61 807.35 174.61 801.66 175.41C795.97 176.21 791.91 177.84 786.22 181.08C780.53 184.32 775.66 182.7 770.78 182.7C765.9 182.7 758.59 181.89 753.72 181.89C748.85 181.89 738.28 181.89 730.96 184.32C723.64 186.75 720.4 189.17 713.9 191.6C707.4 194.03 708.21 193.22 702.52 195.6C696.83 197.98 688.71 202.88 683.83 205.31C678.95 207.74 678.14 206.12 670.83 201.31C663.52 196.5 663.52 196.45 658.64 194.84C653.76 193.23 650.51 189.98 639.14 187.55C627.77 185.12 626.14 182.7 622.07 181.89C618 181.08 611.51 178.65 605.82 177.84C600.13 177.03 593.63 172.99 587.13 169.75C580.63 166.51 582.25 164.09 568.44 160.04C568.44 160.04 558.68 163.28 552.18 163.28C545.68 163.28 542.43 167.28 540.81 172.18C539.19 177.08 532.68 175.41 529.43 177.84C526.18 180.27 526.18 178.65 522.12 180.27C518.06 181.89 515.61 183.51 509.93 186.74C504.25 189.97 500.17 189.17 492.86 191.6C485.946 193.941 478.888 195.832 471.73 197.26C465.172 198.376 459.013 201.166 453.85 205.36C448.17 210.21 449.79 207.78 442.48 211.02C435.17 214.26 431.91 213.45 424.6 215.88C417.29 218.31 417.28 215.88 405.91 219.11C394.54 222.34 388.03 229.63 383.97 233.68C379.91 237.73 374.21 236.92 370.15 239.34C366.09 241.76 360.4 241.78 353.9 245.78C347.4 249.78 346.59 249.01 339.27 254.68C331.95 260.35 333.58 261.96 331.14 265.2C328.7 268.44 322.21 274.1 318.14 279.77C314.07 285.44 308.39 284.62 297.83 287.05C287.27 289.48 288.08 288.67 282.39 290.29C276.7 291.91 265.32 291.09 265.32 291.09L252.32 296.76C252.32 296.76 244.19 301.61 237.69 304.85C231.19 308.09 225.5 307.28 218.19 310.52C210.88 313.76 207.62 312.94 199.5 315.37C191.38 317.8 190.56 316.18 181.62 319.37C172.68 322.56 162.12 321.8 156.43 322.6C150.74 323.4 144.24 323.41 138.55 325.03C132.86 326.65 122.3 326.65 115.8 329.03C109.3 331.41 95.4799 329.03 88.1699 329.03C80.8599 329.03 67.8499 329.84 60.5399 332.27C53.2299 334.7 39.4099 332.27 39.4099 332.27C39.4099 332.27 14.3 334.51 0 335.4V466.78C27.4 471.61 69.47 477.99 69.47 477.99L841.48 462.65Z" fill="#DFF4E4"/>
<path d="M130.58 375.16C130.58 375.16 150.27 371.49 163.8 365.36C177.33 359.23 187.18 353.11 197.02 346.99C206.86 340.87 235.16 337.18 242.54 333.51C249.92 329.84 269.6 328.61 279.44 322.51C289.28 316.41 301.59 315.16 305.28 312.71C308.97 310.26 317.58 310.26 321.28 307.81C324.98 305.36 340.97 307.81 344.66 304.14C348.35 300.47 348.35 301.69 355.73 295.56C363.11 289.43 370.49 286.99 376.64 282.09C382.79 277.19 386.49 278.41 391.41 272.29C396.33 266.17 400.02 262.48 403.71 260.03C407.4 257.58 409.86 260.03 414.78 255.13C419.7 250.23 418.47 252.68 427.09 247.78C435.71 242.88 439.18 241.32 443.09 239.21C456.62 231.86 439.4 242.88 462.77 229.41C486.14 215.94 490.98 215.64 493.53 214.71C496.08 213.78 501.22 215.42 509.83 216.64C518.44 217.86 516.24 216.7 526.08 221.64C535.92 226.58 536.45 226.3 540.28 227C553.81 229.45 555.04 229.45 561.19 229.45C567.34 229.45 569.8 231.9 575.96 231.9C580.087 231.956 584.202 232.364 588.26 233.12C606.71 239.25 610.4 242.92 614.09 242.92C617.78 242.92 630.09 244.15 630.09 244.15H643.58C658.34 245.37 657.11 245.37 663.26 246.6C669.41 247.83 670.64 250.27 674.34 250.27C678.04 250.27 682.95 250.27 686.64 251.5C690.33 252.73 694.02 256.4 700.17 255.17C706.32 253.94 708.78 253.95 712.47 255.17C716.16 256.39 726.01 257.62 726.01 257.62C726.01 257.62 733.39 264.97 742.01 263.75C750.63 262.53 766.61 264.97 766.61 264.97C766.61 264.97 760.46 263.75 785.07 267.42C809.68 271.09 824.44 272.33 830.59 272.33C836.74 272.33 835.51 271.1 847.81 272.33C860.11 273.56 866.29 274.33 869.96 274.78C881.03 276 893.33 283.35 903.17 284.58C913.01 285.81 917.94 284.58 922.86 285.8C927.78 287.02 942.35 288.57 946.1 287.54C959.34 283.9 968.92 286.63 968.92 286.63C977.6 290.26 983.11 298.28 988.1 299.81C1004.1 304.71 1000.03 311.17 1008.64 311.17C1017.25 311.17 1024.97 312.75 1028.64 312.75C1032.31 312.75 1044.64 316.43 1052.01 316.43C1059.38 316.43 1097.53 331.13 1104.91 332.35C1112.29 333.57 1134.44 442.61 1134.44 442.61V537.17L96.11 492.78L130.58 375.16Z" fill="#D0EAD7"/>
<path d="M1440 2455.99V363.32C1437.91 361.63 1435.43 357.81 1432.31 355.14C1423.69 347.79 1422.31 353.14 1412.48 344.54C1402.65 335.94 1391.58 337.18 1385.41 337.18C1379.24 337.18 1375.57 333.51 1369.41 331.06C1363.25 328.61 1358.33 322.48 1348.49 320.06C1338.65 317.64 1336.19 311.49 1331.27 310.26C1326.35 309.03 1302.97 289.44 1302.97 283.31C1302.97 277.18 1291.9 274.74 1286.97 273.51C1281 271.74 1274.8 270.903 1268.58 271.03C1258.73 271.03 1261.2 271.03 1250.12 272.26C1239.04 273.49 1237.82 269.8 1230.44 268.58C1223.06 267.36 1219.37 273.48 1211.99 269.8C1204.61 266.12 1197.22 269.8 1192.3 271.03C1187.38 272.26 1184.92 274.71 1173.85 278.38C1162.78 282.05 1166.47 279.61 1159.08 282.06C1151.69 284.51 1148.01 283.28 1135.71 285.73C1123.41 288.18 1128.33 286.96 1122.18 289.41C1116.03 291.86 1112.33 291.86 1103.72 294.31C1095.11 296.76 1091.42 294.31 1081.58 295.53C1071.74 296.75 1072.97 295.53 1069.28 295.53C1065.59 295.53 1059.43 295.53 1054.51 296.76C1049.59 297.99 1042.21 297.98 1027.45 300.43C1027.45 300.43 1015.14 304.11 1006.53 306.56C997.92 309.01 994.23 306.56 985.62 307.78C977.01 309 974.55 307.78 969.62 309.01C964.69 310.24 954.85 306.56 948.7 305.33C942.55 304.1 924.1 302.88 915.48 297.98C906.86 293.08 903.15 285.78 889.58 283.28C876.01 280.78 853.9 261.28 845.29 251.43C836.68 241.58 829.29 239.18 818.22 234.28C807.15 229.38 805.92 233.05 801 235.5C796.08 237.95 786.28 236.78 771.52 240.4L755.52 245.3C755.52 245.3 744.45 250.2 740.76 251.43C737.07 252.66 728.46 256.33 717.38 262.43C706.3 268.53 707.54 268.56 694.01 275.91C680.48 283.26 687.86 284.49 682.94 288.16C678.02 291.83 657.1 300.41 653.41 304.09C649.72 307.77 637.41 312.66 637.41 312.66C637.41 312.66 631.26 317.56 623.88 322.46C616.5 327.36 614.03 329.81 604.19 335.94C594.35 342.07 590.66 340.84 582.05 343.29C573.44 345.74 572.2 343.29 564.82 343.29C557.44 343.29 553.75 345.74 547.6 348.19C541.45 350.64 535.3 350.64 530.38 354.32C526.385 357.354 521.757 359.446 516.84 360.44C511.92 361.67 509.46 361.67 504.54 364.12C499.62 366.57 493.47 369.02 483.63 376.37C473.79 383.72 468.86 380.04 461.48 380.04C454.1 380.04 456.56 377.59 446.72 377.59C439.171 377.409 431.655 378.658 424.57 381.27C417.19 383.72 419.65 383.72 411.04 388.62C402.43 393.52 399.97 393.52 392.59 392.29C385.21 391.06 385.21 394.74 376.59 395.97C367.97 397.2 365.52 398.42 355.68 403.32C345.84 408.22 344.61 403.32 337.23 403.32C329.85 403.32 327.38 406.99 327.38 406.99C327.38 406.99 315.08 409.44 299.09 413.12C292.98 414.52 289.25 413.12 285.56 410.67C281.87 408.22 275.71 410.67 262.18 403.32C258.29 401.2 251.11 400.87 251.11 400.87L236.35 393.52C231.318 392.779 226.371 391.546 221.58 389.84C215.43 387.39 212.97 387.39 209.28 386.17L194.52 381.27C189.216 380.54 183.873 380.129 178.52 380.04C171.14 380.04 168.68 375.14 162.52 372.69C156.36 370.24 162.52 372.69 152.68 371.47C142.84 370.25 145.3 367.79 139.15 366.57C133 365.35 120.69 367.79 110.85 369.02C101.01 370.25 96.0899 367.79 91.1699 369.02C86.2499 370.25 75.1699 371.47 66.5599 371.47H53.0299C48.487 371.322 43.9432 371.732 39.5 372.69C34.58 373.92 7.58998 366.54 -0.0200195 362.95V2455.95L1440 2455.99Z" fill="#C1E3CB"/>
</g>
<defs>
<clipPath id="clip0">
<rect width="1440" height="2456" fill="white"/>
</clipPath>
</defs>
</svg>
