<svg width="173" height="50" viewBox="0 0 173 50" fill="none" xmlns="http://www.w3.org/2000/svg">
<g clip-path="url(#clip0)">
<path d="M125.276 34.9683V29.2717H119.99V34.9683H116.717V21.335H119.99V26.5272H125.276V21.335H128.55V34.9683H125.276Z" fill="#2E3A33"/>
<path d="M145.831 28.1017C145.845 29.1179 145.657 30.1268 145.278 31.0687C144.927 31.9313 144.402 32.7115 143.737 33.3607C143.064 34.011 142.266 34.5159 141.393 34.8442C140.449 35.1947 139.45 35.3706 138.443 35.3634C137.437 35.3724 136.438 35.1965 135.494 34.8442C134.624 34.5139 133.829 34.0092 133.157 33.3607C132.492 32.7115 131.968 31.9313 131.616 31.0687C131.237 30.1268 131.049 29.1179 131.063 28.1017C131.048 27.0854 131.236 26.0763 131.616 25.1347C131.968 24.292 132.493 23.5336 133.157 22.9095C133.834 22.2821 134.628 21.7978 135.494 21.4853C136.44 21.1416 137.438 20.9707 138.443 20.9809C139.448 20.9725 140.447 21.1432 141.393 21.4853C142.262 21.796 143.059 22.2804 143.737 22.9095C144.401 23.5336 144.926 24.292 145.278 25.1347C145.658 26.0763 145.846 27.0854 145.831 28.1017ZM142.329 28.1017C142.333 27.535 142.236 26.9721 142.041 26.4402C141.865 25.9556 141.597 25.5098 141.252 25.1273C140.909 24.7552 140.492 24.4595 140.029 24.2594C139.529 24.0416 138.988 23.9329 138.443 23.9405C137.903 23.9321 137.368 24.0409 136.873 24.2594C136.41 24.4614 135.994 24.7568 135.649 25.1273C135.3 25.506 135.031 25.9528 134.86 26.4402C134.668 26.9726 134.573 27.5354 134.58 28.1017C134.574 28.6807 134.671 29.256 134.868 29.8003C135.044 30.2957 135.314 30.7517 135.664 31.1429C136.002 31.5161 136.414 31.8142 136.873 32.0181C137.369 32.2333 137.904 32.3419 138.443 32.3371C138.983 32.3419 139.518 32.2333 140.014 32.0181C140.476 31.8127 140.893 31.5149 141.238 31.1429C141.592 30.754 141.866 30.2975 142.041 29.8003C142.238 29.256 142.335 28.6807 142.329 28.1017V28.1017Z" fill="#2E3A33"/>
<path d="M159.546 32.0755C159.286 32.7306 158.885 33.3205 158.374 33.8038C157.839 34.3006 157.209 34.684 156.524 34.9312C155.754 35.2131 154.939 35.3513 154.12 35.3392C153.299 35.3526 152.481 35.2143 151.709 34.9312C151.033 34.6865 150.416 34.3025 149.896 33.8038C149.391 33.3193 148.998 32.7294 148.745 32.0755C148.473 31.3659 148.335 30.611 148.34 29.8503V21.335H151.599V29.561C151.596 29.9194 151.643 30.2765 151.739 30.6217C151.829 30.9439 151.979 31.246 152.181 31.5118C152.386 31.7833 152.655 31.9998 152.963 32.1423C153.334 32.3059 153.737 32.3845 154.142 32.3722C154.548 32.3845 154.951 32.3059 155.322 32.1423C155.632 32.0001 155.903 31.7836 156.111 31.5118C156.319 31.2495 156.469 30.9462 156.553 30.6217C156.643 30.2754 156.688 29.9188 156.686 29.561V21.335H159.93V29.828C159.952 30.5954 159.821 31.3594 159.546 32.0755V32.0755Z" fill="#2E3A33"/>
<path d="M169.166 24.1462V34.9683H165.893V24.1462H162.066V21.335H172.993V24.1462H169.166Z" fill="#2E3A33"/>
<path d="M111.122 22.1231C110.746 21.655 110.266 21.2816 109.721 21.0327C109.201 20.7793 108.633 20.6427 108.055 20.6321C107.773 20.631 107.492 20.6559 107.214 20.7063C106.94 20.7472 106.677 20.8431 106.44 20.9882C106.217 21.126 106.024 21.3076 105.873 21.5223C105.708 21.7725 105.626 22.0681 105.637 22.3678C105.63 22.6274 105.693 22.8839 105.821 23.1096C105.961 23.3177 106.145 23.4924 106.359 23.6214C106.626 23.7836 106.907 23.9202 107.2 24.0294L108.298 24.4077C108.881 24.6005 109.493 24.823 110.127 25.0604C110.746 25.2893 111.33 25.6065 111.859 26.0024C112.384 26.4044 112.823 26.909 113.149 27.4859C113.51 28.1487 113.685 28.897 113.658 29.6518C113.684 30.5461 113.497 31.4336 113.113 32.2405C112.763 32.9462 112.259 33.5626 111.638 34.043C111.004 34.5276 110.283 34.8851 109.515 35.0963C108.714 35.3285 107.885 35.4459 107.052 35.4449C105.828 35.4475 104.614 35.2263 103.469 34.7922C102.38 34.4077 101.396 33.7727 100.594 32.9378L103.322 30.1414C103.778 30.6958 104.349 31.1438 104.995 31.4543C105.628 31.7958 106.334 31.979 107.052 31.9883C107.355 31.9881 107.657 31.9532 107.952 31.8845C108.227 31.8272 108.49 31.719 108.726 31.5655C108.944 31.4148 109.124 31.214 109.249 30.9796C109.382 30.7049 109.448 30.4023 109.441 30.0969C109.45 29.7987 109.364 29.5054 109.198 29.2587C109.009 29.0075 108.774 28.7958 108.505 28.6356C108.15 28.4265 107.774 28.255 107.384 28.1238C106.934 27.9681 106.426 27.7975 105.858 27.6194C105.305 27.4397 104.763 27.2267 104.236 26.9815C103.72 26.7396 103.243 26.4221 102.82 26.0395C102.4 25.6429 102.061 25.1664 101.825 24.6376C101.555 24.0056 101.425 23.3224 101.442 22.6349C101.419 21.7713 101.622 20.9168 102.031 20.1574C102.411 19.4859 102.935 18.9082 103.565 18.4662C104.217 18.0181 104.944 17.6915 105.71 17.502C106.5 17.295 107.313 17.1903 108.129 17.1904C109.135 17.2051 110.131 17.3881 111.078 17.7319C112.065 18.0766 112.973 18.6191 113.747 19.3267L111.122 22.1231Z" fill="#2E3A33"/>
<path d="M43.2039 33.1153H51.2549V34.6878H41.4492V17.3086H43.2039V33.1153Z" fill="#2E3A33"/>
<path d="M67.2682 28.1075C67.2781 29.1009 67.0927 30.0866 66.7226 31.0077C66.3866 31.8557 65.8852 32.6275 65.2481 33.2775C64.5976 33.9236 63.8222 34.4285 62.9699 34.761C62.0556 35.1175 61.0824 35.2962 60.1019 35.2876C59.1238 35.2969 58.1529 35.1181 57.2413 34.761C56.3931 34.4248 55.6208 33.9203 54.9706 33.2775C54.3326 32.6281 53.8312 31.8562 53.496 31.0077C53.1285 30.0861 52.9455 29.1004 52.9578 28.1075C52.9434 27.1095 53.1264 26.1186 53.496 25.1924C53.8296 24.3562 54.3317 23.5985 54.9706 22.9671C55.6216 22.3252 56.3937 21.8208 57.2413 21.4836C58.1533 21.129 59.1243 20.9528 60.1019 20.9644C61.082 20.9534 62.0552 21.1296 62.9699 21.4836C63.8217 21.817 64.5969 22.3218 65.2481 22.9671C65.8863 23.5991 66.3883 24.3566 66.7226 25.1924C67.0948 26.1181 67.2803 27.109 67.2682 28.1075ZM65.2186 28.1075C65.2241 27.3892 65.1018 26.6758 64.8573 26.0009C64.6255 25.3596 64.2753 24.7682 63.8251 24.2578C63.3731 23.7522 62.8205 23.3478 62.2032 23.071C61.5322 22.7744 60.8052 22.6276 60.0725 22.6408C59.3446 22.6291 58.6228 22.7758 57.9565 23.071C57.3424 23.3461 56.7943 23.7508 56.3493 24.2578C55.9014 24.7686 55.5537 25.36 55.3244 26.0009C55.08 26.6758 54.9576 27.3892 54.9632 28.1075C54.9571 28.8354 55.0794 29.5587 55.3244 30.2437C55.5546 30.8858 55.905 31.4775 56.3566 31.9868C56.8071 32.4821 57.3542 32.8785 57.9639 33.1514C58.6289 33.4414 59.3477 33.5855 60.0725 33.5741C60.8019 33.5847 61.5253 33.4406 62.1958 33.1514C62.8153 32.8847 63.3709 32.4876 63.8251 31.9868C64.2768 31.4775 64.6271 30.8858 64.8573 30.2437C65.1023 29.5587 65.2247 28.8354 65.2186 28.1075Z" fill="#2E3A33"/>
<path d="M70.6366 34.941H68.5059L74.404 21.3076H76.1292L81.9462 34.941H79.8008L78.4295 31.5957H71.9931L70.6366 34.941ZM72.664 29.9193H77.7365L75.2076 23.5255L72.664 29.9193Z" fill="#2E3A33"/>
<path d="M94.0099 32.2113V21.3076H95.9046V34.941H93.5749L86.416 23.8147H86.3792V34.941H84.4844V21.3076H86.9395L94.0099 32.2113Z" fill="#2E3A33"/>
<path d="M17.3768 43.5737C17.8542 43.5738 18.3127 43.3861 18.6543 43.0507C18.996 42.7153 19.1937 42.2588 19.2053 41.7786C19.2034 41.54 19.1544 41.3042 19.0612 41.0848C18.968 40.8654 18.8324 40.6668 18.6623 40.5005C18.4922 40.3342 18.291 40.2035 18.0704 40.1161C17.8497 40.0286 17.6139 39.9861 17.3768 39.991C16.8058 40.072 16.2745 40.3314 15.8581 40.7328C15.6797 40.2925 15.5895 39.8211 15.5926 39.3457H14.2582C14.2557 40.1918 14.469 41.0243 14.8775 41.7638L14.8333 41.8083L14.8775 41.8528C14.4753 42.5815 14.2623 43.4004 14.2582 44.2338C14.2475 45.0668 14.4615 45.8871 14.8775 46.6074L14.8333 46.6519L14.8775 46.6964C14.4753 47.4251 14.2623 48.244 14.2582 49.0775V49.3445H15.5926V49.0775C15.5855 48.5993 15.6758 48.1247 15.8581 47.683C16.2753 48.0831 16.8062 48.3424 17.3768 48.4247C17.8542 48.4249 18.3127 48.2372 18.6543 47.9018C18.996 47.5664 19.1937 47.1098 19.2053 46.6297C19.2033 46.3907 19.1544 46.1545 19.0613 45.9347C18.9682 45.7149 18.8327 45.5158 18.6627 45.3489C18.4928 45.1821 18.2916 45.0507 18.0709 44.9624C17.8502 44.8741 17.6143 44.8307 17.3768 44.8347C16.8004 44.8972 16.2635 45.1594 15.8581 45.5764C15.6805 45.1359 15.5903 44.6647 15.5926 44.1893C15.591 43.7116 15.6811 43.2381 15.8581 42.7948C16.2497 43.2364 16.7916 43.5143 17.3768 43.5737V43.5737ZM17.3768 41.2891C17.4986 41.2886 17.6161 41.334 17.7062 41.4164C17.7963 41.4988 17.8524 41.6122 17.8634 41.7341C17.8626 41.7965 17.8491 41.858 17.8238 41.915C17.7986 41.9719 17.7621 42.0231 17.7166 42.0654C17.6711 42.1077 17.6175 42.1403 17.5591 42.1611C17.5007 42.182 17.4387 42.1906 17.3768 42.1866C17.1046 42.0845 16.8544 41.9309 16.6396 41.7341C16.8604 41.5437 17.1091 41.3886 17.3768 41.2743V41.2891ZM17.3768 46.1772C17.4986 46.1767 17.6161 46.2221 17.7062 46.3045C17.7963 46.3869 17.8524 46.5003 17.8634 46.6223C17.8626 46.6846 17.8491 46.7461 17.8238 46.8031C17.7986 46.86 17.7621 46.9112 17.7166 46.9535C17.6711 46.9959 17.6175 47.0284 17.5591 47.0493C17.5007 47.0701 17.4387 47.0788 17.3768 47.0747C17.2441 47.0747 16.9713 46.8448 16.6396 46.6223C16.8614 46.4371 17.11 46.287 17.3768 46.1772V46.1772Z" fill="#2E3A33"/>
<path d="M3.07535 12.999H2.80257C2.51451 13.0108 2.23042 13.071 1.96207 13.177C1.38468 13.3994 0.888019 13.7929 0.537821 14.3055C0.187624 14.8181 0.000400043 15.4256 0.000934642 16.0476V21.2918C-0.0147158 21.9172 0.166526 22.5315 0.518742 23.0471C0.870957 23.5626 1.37612 23.953 1.96207 24.1624C2.23042 24.2684 2.51451 24.3286 2.80257 24.3404H3.53984C2.70371 22.5943 2.27741 20.6783 2.29385 18.7402C2.29511 16.7634 2.70433 14.8084 3.4956 12.999H3.07535Z" fill="#2E3A33"/>
<path d="M28.43 9.5485L28.3784 9.50399C28.001 8.95187 27.5687 8.43989 27.0881 7.97599C26.867 7.75347 26.6458 7.57545 26.4688 7.39743L26.3288 7.25649C24.5532 5.66575 22.4323 4.51504 20.1357 3.89637C18.8978 3.58158 17.6297 3.40251 16.3535 3.3623V4.79388C19.9765 4.83649 23.4383 6.30692 25.9955 8.88934C28.5526 11.4717 30.0011 14.9602 30.0298 18.6053H31.4601C31.4693 17.4377 31.318 16.2745 31.0104 15.1487C30.5302 13.1275 29.6528 11.2234 28.43 9.5485V9.5485Z" fill="#2E3A33"/>
<path d="M16.3535 0.359375V1.79095C19.181 1.79955 21.9588 2.54035 24.4192 3.94203C24.9288 4.22645 25.4212 4.54101 25.8938 4.88405H25.938C27.8583 6.2616 29.4686 8.03078 30.6639 10.0763C30.9736 10.6178 31.2832 11.1518 31.556 11.7378C32.5136 13.9134 33.0155 16.2642 33.0305 18.6435H34.4534C34.4247 13.816 32.5108 9.19336 29.1247 5.7728C25.7386 2.35224 21.1517 0.407953 16.3535 0.359375V0.359375Z" fill="#2E3A33"/>
<path d="M16.2204 6.41113C12.9829 6.41505 9.87894 7.71021 7.58896 10.0127C5.29897 12.3153 4.00976 15.4373 4.00391 18.6945C4.00391 24.1167 10.337 37.6536 12.8511 38.0171C13.9561 38.2113 15.0767 38.3007 16.1983 38.2841C17.3174 38.3005 18.4356 38.211 19.5381 38.0171C22.0743 37.6536 28.3854 24.1167 28.3854 18.6945C28.3796 15.4462 27.0975 12.332 24.8186 10.031C22.5397 7.72996 19.449 6.42875 16.2204 6.41113ZM16.2204 10.1199C18.4443 10.1282 20.5799 10.9966 22.1849 12.5454H10.2043C11.8126 10.9693 13.9754 10.0974 16.2204 10.1199V10.1199ZM16.2204 27.3804C13.9997 27.3672 11.8681 26.4993 10.2633 24.9549H22.1997C20.584 26.4917 18.4439 27.3466 16.2204 27.3433V27.3804ZM23.9249 22.4478H8.44225C8.08353 21.6655 7.83537 20.8366 7.70499 19.9852H24.6622C24.5318 20.8247 24.2835 21.6414 23.9249 22.4107V22.4478ZM7.70499 17.478C7.83638 16.6244 8.08449 15.7932 8.44225 15.008H23.9249C24.2859 15.792 24.5342 16.6237 24.6622 17.478H7.70499Z" fill="#2E3A33"/>
</g>
<defs>
<clipPath id="clip0">
<rect width="173" height="49" fill="white" transform="translate(0 0.359375)"/>
</clipPath>
</defs>
</svg>
