<svg width="163" height="49" viewBox="0 0 163 49" fill="none" xmlns="http://www.w3.org/2000/svg">
<g clip-path="url(#clip0)">
<path d="M72.1803 14.102H71.8316C68.3446 14.102 65.9211 16.1616 65.9211 18.8253C65.9211 21.0461 67.5321 22.3162 70.0741 22.8105L74.0877 23.5828C78.2023 24.3963 80.5665 26.473 80.5665 30.1733C80.5665 34.5087 77.2016 37.1895 71.8316 37.1895C65.6352 37.1895 62.1621 34.2272 62.1621 29.0818H64.6693C64.6693 32.8164 67.6053 34.8966 71.7932 34.8966H72.1419C75.9776 34.8966 78.0489 32.837 78.0489 30.3175C78.0489 28.0246 76.546 26.7202 73.3937 26.0851L69.3907 25.2751C65.5968 24.4993 63.4139 22.4912 63.4139 18.8596C63.4139 14.9842 66.6708 11.8125 72.0059 11.8125C77.341 11.8125 80.7792 14.7371 80.9571 19.3916H78.4569C78.2442 16.1341 75.6673 14.102 72.1803 14.102Z" fill="#2E3A33" stroke="#2E3A33" stroke-width="0.25" stroke-miterlimit="10"/>
<path d="M90.9551 14.456H81.8262V12.1631H102.591V14.456H93.4518V36.8364H90.9447L90.9551 14.456Z" fill="#2E3A33" stroke="#2E3A33" stroke-width="0.25" stroke-miterlimit="10"/>
<path d="M108.394 12.1631H111.532L121.735 36.8364H119.088L116.299 30.0331H103.488L100.698 36.8364H98.1211L108.394 12.1631ZM109.897 14.4183L104.419 27.7435H115.375L109.897 14.4183Z" fill="#2E3A33" stroke="#2E3A33" stroke-width="0.25" stroke-miterlimit="10"/>
<path d="M133.282 12.1631H136.42L146.623 36.8364H143.973L141.184 30.0331H128.376L125.586 36.8364H123.006L133.282 12.1631ZM134.788 14.4183L129.31 27.7435H140.267L134.788 14.4183Z" fill="#2E3A33" stroke="#2E3A33" stroke-width="0.25" stroke-miterlimit="10"/>
<path d="M151.336 14.456H142.189V12.1631H162.955V14.456H153.826V36.8364H151.336V14.456Z" fill="#2E3A33" stroke="#2E3A33" stroke-width="0.25" stroke-miterlimit="10"/>
<path d="M24.8844 48.9995C19.9616 48.9995 15.1493 47.5625 11.0561 44.8702C6.96293 42.178 3.77269 38.3513 1.88881 33.8742C0.00492528 29.3971 -0.487985 24.4706 0.472411 19.7178C1.43281 14.9649 3.80337 10.5991 7.28433 7.17249C10.7653 3.74586 15.2003 1.4123 20.0285 0.466898C24.8568 -0.478506 29.8614 0.00671006 34.4095 1.86119C38.9576 3.71566 42.8449 6.85611 45.5799 10.8854C48.3148 14.9147 49.7746 19.6518 49.7746 24.4978C49.7672 30.9938 47.1425 37.2217 42.4763 41.8151C37.8101 46.4085 31.4834 48.9923 24.8844 48.9995ZM24.8844 1.02931C20.1676 1.02931 15.5568 2.4062 11.635 4.98586C7.7132 7.56552 4.65659 11.2321 2.85172 15.5218C1.04686 19.8116 0.574798 24.5319 1.49525 29.0858C2.41569 33.6396 4.68731 37.8225 8.0228 41.1055C11.3583 44.3884 15.6079 46.624 20.2341 47.5294C24.8603 48.4348 29.6554 47.9694 34.0129 46.1921C38.3704 44.4148 42.0947 41.4054 44.7146 37.5444C47.3346 33.6834 48.7327 29.1444 48.732 24.5012C48.7246 18.2777 46.2096 12.3113 41.7388 7.9109C37.268 3.51053 31.2066 1.03567 24.8844 1.02931V1.02931Z" fill="#2E3A33"/>
<path d="M24.8856 38.2021C23.6553 38.2029 22.437 37.9651 21.3001 37.5021C20.1633 37.0392 19.1304 36.3603 18.2602 35.5041L17.8906 35.1437L21.7612 31.3267L22.1308 31.6699C22.4932 32.0282 22.9242 32.3122 23.3989 32.5055C23.8735 32.6987 24.3824 32.7974 24.896 32.7958V32.7958C25.4103 32.7973 25.9197 32.6979 26.3944 32.5034C26.8692 32.3089 27.2999 32.0232 27.6612 31.6631C28.3946 30.9397 28.8064 29.9595 28.8064 28.9376C28.8064 27.9157 28.3946 26.9355 27.6612 26.2121L27.2916 25.8483L31.1622 22.0312L31.5283 22.3951C32.844 23.6865 33.741 25.3331 34.1057 27.1265C34.4704 28.9199 34.2864 30.7795 33.5771 32.47C32.8678 34.1605 31.665 35.6058 30.121 36.6231C28.5769 37.6404 26.761 38.1839 24.903 38.1849L24.8856 38.2021Z" fill="#2E3A33"/>
<path d="M18.6196 26.9508L18.25 26.5904C16.4859 24.858 15.4932 22.5067 15.4902 20.0537C15.4873 17.6008 16.4744 15.2471 18.2343 13.5106C19.9942 11.7741 22.3828 10.7968 24.8746 10.794C27.3665 10.7911 29.7574 11.7627 31.5215 13.4951L31.8911 13.859L28.0205 17.676L27.6718 17.3156C26.9364 16.5935 25.9401 16.188 24.9014 16.188C23.8627 16.188 22.8664 16.5935 22.131 17.3156V17.3156C21.3983 18.04 20.9869 19.0206 20.9869 20.0428C20.9869 21.065 21.3983 22.0456 22.131 22.77L22.5006 23.1132L18.6196 26.9508Z" fill="#2E3A33"/>
</g>
<defs>
<clipPath id="clip0">
<rect width="163" height="49" fill="white"/>
</clipPath>
</defs>
</svg>
