<svg width="591" height="86" viewBox="0 0 591 86" fill="none" xmlns="http://www.w3.org/2000/svg">
<path d="M23.8019 81.2233V17.4209H40.9981V81.2233H23.8019ZM2.30664 19.5231V4.49219H62.5982V19.5231H2.30664ZM91.52 83.2204C86.6271 83.2204 82.2928 82.3795 78.518 80.6977C74.8133 79.016 71.7024 76.7738 69.1859 73.9706C66.7395 71.0978 64.8521 67.9091 63.5238 64.4055C62.2655 60.8317 61.6364 57.1877 61.6364 53.474V51.3717C61.6364 47.5177 62.2655 43.8388 63.5238 40.3351C64.8521 36.7613 66.7395 33.5729 69.1859 30.77C71.6328 27.967 74.6736 25.7597 78.3083 24.148C82.0135 22.4662 86.2077 21.6253 90.8909 21.6253C97.0425 21.6253 102.215 23.0268 106.409 25.8297C110.674 28.5626 113.924 32.1714 116.161 36.6562C118.398 41.0709 119.516 45.906 119.516 51.1615V56.8375H68.6616V47.2724H109.345L103.893 51.6871C103.893 48.2533 103.404 45.3103 102.425 42.8577C101.446 40.4052 99.9785 38.5482 98.021 37.2869C96.1336 35.9554 93.7572 35.2897 90.8909 35.2897C87.9549 35.2897 85.4737 35.9554 83.4462 37.2869C81.4191 38.6183 79.8811 40.5803 78.8326 43.1731C77.784 45.6957 77.2597 48.8142 77.2597 52.528C77.2597 55.9618 77.7492 58.9746 78.7277 61.5675C79.7067 64.0902 81.2442 66.0524 83.3413 67.4537C85.4384 68.8551 88.1646 69.556 91.52 69.556C94.5961 69.556 97.1126 68.9602 99.0695 67.7691C101.027 66.578 102.355 65.1064 103.054 63.3544H118.468C117.629 67.2086 115.986 70.642 113.54 73.6553C111.093 76.6686 108.017 79.016 104.312 80.6977C100.608 82.3795 96.3433 83.2204 91.52 83.2204ZM165.34 81.2233V64.1953H162.509V45.6957C162.509 42.7526 161.81 40.5453 160.412 39.0737C159.014 37.6022 156.777 36.8664 153.701 36.8664C152.164 36.8664 150.136 36.9014 147.62 36.9715C145.103 37.0416 142.517 37.1467 139.86 37.2869C137.204 37.427 134.793 37.5672 132.625 37.7073V23.5173C134.234 23.3772 136.121 23.237 138.288 23.0969C140.455 22.9567 142.692 22.8516 144.998 22.7815C147.305 22.7114 149.472 22.6764 151.499 22.6764C157.371 22.6764 162.299 23.5173 166.284 25.1991C170.338 26.8809 173.414 29.4385 175.511 32.8722C177.608 36.2357 178.657 40.5803 178.657 45.906V81.2233H165.34ZM146.991 82.6949C142.866 82.6949 139.231 81.9591 136.086 80.4875C133.01 79.016 130.598 76.9137 128.851 74.1809C127.103 71.3777 126.229 68.0495 126.229 64.1953C126.229 59.9909 127.313 56.5571 129.48 53.8944C131.647 51.1615 134.688 49.1644 138.602 47.9031C142.517 46.5717 147.026 45.906 152.128 45.906H164.396V55.2609H152.024C149.088 55.2609 146.816 55.9966 145.208 57.4682C143.671 58.8695 142.901 60.7969 142.901 63.2493C142.901 65.5617 143.671 67.4537 145.208 68.9253C146.816 70.3266 149.088 71.0275 152.024 71.0275C153.911 71.0275 155.589 70.7122 157.057 70.0815C158.595 69.3806 159.853 68.2244 160.831 66.6129C161.81 65.0013 162.369 62.7586 162.509 59.8857L166.494 64.0902C166.144 68.0844 165.166 71.448 163.558 74.1809C162.02 76.9137 159.853 79.016 157.057 80.4875C154.33 81.9591 150.975 82.6949 146.991 82.6949ZM192.891 81.2233V23.6224H206.207V48.4286H205.264C205.264 42.5424 205.998 37.6372 207.466 33.7131C208.934 29.7889 211.136 26.8458 214.071 24.8837C217.007 22.8516 220.608 21.8355 224.872 21.8355H225.606C229.94 21.8355 233.54 22.8516 236.406 24.8837C239.341 26.8458 241.543 29.7889 243.011 33.7131C244.549 37.6372 245.318 42.5424 245.318 48.4286H241.229C241.229 42.5424 241.963 37.6372 243.431 33.7131C244.969 29.7889 247.206 26.8458 250.142 24.8837C253.077 22.8516 256.678 21.8355 260.942 21.8355H261.676C266.01 21.8355 269.645 22.8516 272.58 24.8837C275.586 26.8458 277.858 29.7889 279.396 33.7131C280.934 37.6372 281.703 42.5424 281.703 48.4286V81.2233H264.926V47.4826C264.926 44.3293 264.087 41.7716 262.41 39.8095C260.802 37.8474 258.495 36.8664 255.489 36.8664C252.484 36.8664 250.107 37.8825 248.359 39.9146C246.612 41.8767 245.738 44.5045 245.738 47.798V81.2233H228.856V47.4826C228.856 44.3293 228.017 41.7716 226.339 39.8095C224.732 37.8474 222.46 36.8664 219.524 36.8664C216.448 36.8664 214.037 37.8825 212.289 39.9146C210.542 41.8767 209.668 44.5045 209.668 47.798V81.2233H192.891ZM317.815 83.0102C309.636 83.0102 303.24 81.3284 298.626 77.9649C294.013 74.6013 291.566 69.8713 291.287 63.7749H306.176C306.456 65.5966 307.539 67.2435 309.426 68.7151C311.384 70.1164 314.285 70.8173 318.129 70.8173C321.065 70.8173 323.477 70.3266 325.364 69.3457C327.322 68.2946 328.3 66.8231 328.3 64.9311C328.3 63.2493 327.566 61.9177 326.098 60.9369C324.63 59.8857 322.009 59.15 318.234 58.7295L313.725 58.3091C306.805 57.6082 301.597 55.6813 298.102 52.528C294.677 49.3746 292.964 45.3454 292.964 40.4402C292.964 36.3759 293.978 32.9773 296.005 30.2444C298.032 27.5115 300.828 25.4443 304.393 24.0429C308.029 22.6414 312.153 21.9406 316.766 21.9406C324.176 21.9406 330.153 23.5874 334.696 26.8809C339.24 30.1043 341.617 34.7992 341.827 40.9657H326.937C326.657 39.0737 325.679 37.4971 324.001 36.2357C322.324 34.9043 319.842 34.2386 316.557 34.2386C313.97 34.2386 311.908 34.7292 310.37 35.7102C308.832 36.6912 308.063 38.0226 308.063 39.7044C308.063 41.3161 308.727 42.5424 310.056 43.3833C311.384 44.2242 313.551 44.8198 316.557 45.1702L321.065 45.5906C328.125 46.3614 333.613 48.3235 337.528 51.4769C341.442 54.6302 343.399 58.8695 343.399 64.1953C343.399 68.0495 342.351 71.4131 340.254 74.286C338.157 77.0891 335.186 79.2611 331.341 80.8029C327.496 82.2744 322.988 83.0102 317.815 83.0102ZM380.378 81.9591C374.576 81.9591 369.892 81.2582 366.327 79.8569C362.762 78.3853 360.141 75.9677 358.463 72.6042C356.856 69.1704 356.052 64.5455 356.052 58.7295V8.06597H371.675V59.3602C371.675 62.0931 372.374 64.1953 373.772 65.6669C375.24 67.0682 377.302 67.7691 379.958 67.7691H388.452V81.9591H380.378ZM347.349 35.9204V23.6224H388.452V35.9204H347.349ZM434.236 81.2233V64.1953H431.405V45.6957C431.405 42.7526 430.705 40.5453 429.307 39.0737C427.91 37.6022 425.672 36.8664 422.597 36.8664C421.059 36.8664 419.032 36.9014 416.515 36.9715C413.999 37.0416 411.412 37.1467 408.756 37.2869C406.1 37.427 403.688 37.5672 401.521 37.7073V23.5173C403.129 23.3772 405.016 23.237 407.183 23.0969C409.35 22.9567 411.587 22.8516 413.894 22.7815C416.201 22.7114 418.368 22.6764 420.395 22.6764C426.267 22.6764 431.195 23.5173 435.179 25.1991C439.234 26.8809 442.309 29.4385 444.407 32.8722C446.504 36.2357 447.552 40.5803 447.552 45.906V81.2233H434.236ZM415.886 82.6949C411.762 82.6949 408.127 81.9591 404.981 80.4875C401.906 79.016 399.494 76.9137 397.746 74.1809C395.998 71.3777 395.125 68.0495 395.125 64.1953C395.125 59.9909 396.208 56.5571 398.375 53.8944C400.542 51.1615 403.583 49.1644 407.498 47.9031C411.412 46.5717 415.921 45.906 421.024 45.906H433.292V55.2609H420.919C417.983 55.2609 415.711 55.9966 414.104 57.4682C412.565 58.8695 411.797 60.7969 411.797 63.2493C411.797 65.5617 412.565 67.4537 414.104 68.9253C415.711 70.3266 417.983 71.0275 420.919 71.0275C422.806 71.0275 424.484 70.7122 425.952 70.0815C427.49 69.3806 428.748 68.2244 429.727 66.6129C430.705 65.0013 431.265 62.7586 431.405 59.8857L435.389 64.0902C435.04 68.0844 434.061 71.448 432.453 74.1809C430.915 76.9137 428.748 79.016 425.952 80.4875C423.226 81.9591 419.871 82.6949 415.886 82.6949ZM461.786 81.2233V23.6224H475.103V48.3235H474.159C474.159 42.4373 474.893 37.5321 476.361 33.608C477.9 29.6838 480.206 26.7407 483.281 24.7786C486.359 22.8165 490.096 21.8355 494.5 21.8355H495.234C501.945 21.8355 507.049 24.0429 510.543 28.4575C514.108 32.8021 515.89 39.4241 515.89 48.3235V81.2233H499.114V47.3775C499.114 44.2943 498.208 41.7716 496.387 39.8095C494.572 37.8474 492.126 36.8664 489.048 36.8664C485.902 36.8664 483.352 37.8825 481.393 39.9146C479.506 41.8767 478.562 44.4694 478.562 47.6929V81.2233H461.786ZM553.886 83.1153C549.83 83.1153 546.127 82.3795 542.771 80.908C539.483 79.4364 536.618 77.4044 534.173 74.8115C531.723 72.1489 529.836 69.0304 528.511 65.4566C527.253 61.8829 526.624 58.0286 526.624 53.8944V51.4769C526.624 47.3425 527.215 43.4884 528.406 39.9146C529.664 36.3409 531.447 33.2225 533.754 30.5597C536.127 27.8269 538.958 25.7246 542.247 24.2531C545.531 22.7114 549.201 21.9406 553.257 21.9406C557.87 21.9406 561.855 22.9567 565.21 24.9889C568.566 26.9509 571.187 29.8941 573.074 33.8182C574.962 37.6723 576.01 42.4373 576.22 48.1133L571.816 44.014V4.49219H588.698V81.2233H575.381V57.3631H577.688C577.478 62.8289 576.325 67.4886 574.228 71.3429C572.197 75.1971 569.438 78.1402 565.944 80.1722C562.446 82.1344 558.428 83.1153 553.886 83.1153ZM558.08 69.0304C560.663 69.0304 563.008 68.47 565.105 67.3486C567.269 66.1575 568.985 64.4404 570.243 62.1982C571.568 59.956 572.236 57.258 572.236 54.1046V50.2155C572.236 47.1323 571.568 44.5395 570.243 42.4373C568.914 40.3351 567.164 38.7234 565.001 37.6022C562.832 36.481 560.492 35.9204 557.975 35.9204C555.178 35.9204 552.661 36.6562 550.426 38.1277C548.257 39.5292 546.546 41.4913 545.288 44.014C544.03 46.4665 543.4 49.3398 543.4 52.6331C543.4 55.9966 544.03 58.9049 545.288 61.3573C546.546 63.8097 548.291 65.7017 550.531 67.0333C552.766 68.3649 555.282 69.0304 558.08 69.0304Z" fill="white"/>
</svg>
