<svg width="175" height="32" viewBox="0 0 175 32" fill="none" xmlns="http://www.w3.org/2000/svg">
<path d="M36.2002 1.95703L33.0693 6.79955H4.76146V15.2578H15.1975C16.1107 15.2578 16.9586 15.7098 17.4152 16.42L22.1114 23.5224L26.7425 16.42L29.624 20.7982L24.3291 28.8815C23.2855 30.4311 21.0026 30.4311 19.959 28.8815L14.0887 19.9712H2.60902C1.17406 19.9712 0 18.809 0 17.3885V4.53971C0 3.11924 1.17406 1.95703 2.60902 1.95703H36.2002Z" fill="#FCFCFC"/>
<path d="M71.0953 3.26172H48.2012V9.52472H55.7673V28.2491H63.5292V9.52472H71.0953V3.26172Z" fill="#FCFCFC"/>
<path d="M167.498 2.06616V28.2158H174.999V1.09766L167.498 2.06616Z" fill="#FCFCFC"/>
<path d="M134.169 28.2158V9.94331L141.67 8.97481V28.2158H134.169ZM133.582 3.22835V4.19685C133.582 6.00473 135.017 7.4252 136.843 7.4252H138.931C140.757 7.4252 142.192 6.00473 142.192 4.19685V3.22835C142.192 1.42047 140.757 0 138.931 0H136.843C135.082 0 133.582 1.42047 133.582 3.22835Z" fill="#FCFCFC"/>
<path d="M81.3352 9.03906H79.9655C74.617 9.03906 70.1816 13.4296 70.1816 18.7241V19.0469C70.1816 24.3414 74.617 28.732 79.9655 28.732H81.3352C86.6837 28.732 91.119 24.3414 91.119 19.0469V18.7241C91.119 13.3651 86.6837 9.03906 81.3352 9.03906ZM83.6181 20.08C83.6181 21.6942 82.3136 22.9855 80.6829 22.9855C79.0523 22.9855 77.7478 21.6942 77.7478 20.08V17.6265C77.7478 16.0123 79.0523 14.721 80.6829 14.721C82.3136 14.721 83.6181 16.0123 83.6181 17.6265V20.08Z" fill="#FCFCFC"/>
<path d="M106.056 9.49219V21.5016C105.599 22.6639 101.686 23.9552 101.686 19.952V19.8875V9.49219H94.1849V21.6308C94.1849 21.7599 94.0545 22.5993 94.1849 23.6324C94.3806 25.2465 95.0981 27.3772 97.7071 28.2812C98.4246 28.5394 99.3377 28.6686 100.381 28.6686C102.599 28.6686 104.556 27.3772 106.056 25.8276V28.5394L113.557 27.5709V9.49219H106.056Z" fill="#FCFCFC"/>
<path d="M124.907 12.203V8.97461L117.406 9.94311V28.2156H124.907V19.6927C124.907 19.6927 124.972 14.4628 130.712 16.1415L132.082 9.49115C129.408 8.78091 127.125 8.52264 124.907 12.203Z" fill="#FCFCFC"/>
<path d="M163.324 22.2108C163.324 22.2108 163.193 15.5604 163.193 15.1085C163.324 12.8486 160.845 8.97461 154.975 8.97461C151.714 8.97461 148.452 9.36201 144.734 10.7825L146.3 16.2061C146.3 16.2061 150.213 14.2045 153.67 14.6565C156.018 14.9793 155.692 17.1746 155.692 17.1746C154.518 17.0455 144.734 17.0455 144.734 23.4376C144.734 27.9573 149.365 28.6675 150.409 28.6675C153.54 28.6675 155.627 25.8912 155.823 25.5683C156.345 26.4077 156.866 29.2486 163.976 28.603L164.693 23.6313C164.693 23.5667 163.324 23.373 163.324 22.2108ZM155.757 22.8565C155.757 22.8565 155.301 24.0833 153.735 24.0833C152.431 24.0833 151.779 23.373 151.779 22.4691C151.779 21.2423 152.888 20.7258 153.801 20.5321C154.714 20.3384 155.823 20.403 155.823 20.403V22.8565H155.757Z" fill="#FCFCFC"/>
</svg>
