<svg width="145" height="32" viewBox="0 0 145 32" fill="none" xmlns="http://www.w3.org/2000/svg">
<g clip-path="url(#clip0)">
<path d="M43.1123 9.98339H38.2707V24.0803H35.7791V9.98339H30.9375V7.54102H43.1123V9.98339Z" fill="#2E3A33"/>
<path d="M51.0628 11.9389L50.4037 14.2534C49.8302 13.9395 49.1826 13.7844 48.5283 13.8043C46.9859 13.8043 46.0861 14.8894 46.0861 16.9908V24.0721H43.6406V11.6799H46.0861V12.8601C46.4091 12.4097 46.8366 12.0436 47.3325 11.793C47.8283 11.5425 48.3776 11.4148 48.9337 11.4209C49.6804 11.3687 50.4247 11.5498 51.0628 11.9389Z" fill="#2E3A33"/>
<path d="M62.2915 24.0722H59.8955V22.8461C58.9978 23.7707 57.7696 24.3056 56.4777 24.3345C54.4606 24.3345 52.1602 23.2001 52.1602 20.1546C52.1602 17.3942 54.2959 16.1419 57.1039 16.1419C58.0518 16.1063 58.9968 16.267 59.879 16.6139V15.6927C59.879 14.3486 59.0484 13.5913 57.5291 13.5913C56.3948 13.5536 55.2715 13.8233 54.2794 14.3715L53.3302 12.5291C54.6192 11.7521 56.1085 11.3669 57.6148 11.421C60.3898 11.421 62.2882 12.7651 62.2882 15.5747L62.2915 24.0722ZM59.8955 20.5578V18.7842C59.0026 18.3824 58.0267 18.1971 57.0479 18.2433C55.4824 18.2433 54.4837 18.9514 54.4837 20.0824C54.4837 21.3118 55.2681 22.138 56.8831 22.138C57.4712 22.116 58.0469 21.9626 58.5672 21.689C59.0876 21.4154 59.5393 21.0288 59.8889 20.5578H59.8955Z" fill="#2E3A33"/>
<path d="M68.714 8.52358C68.7121 8.83429 68.6175 9.13744 68.4422 9.39466C68.267 9.65187 68.019 9.85159 67.7295 9.96854C67.4401 10.0855 67.1224 10.1144 66.8164 10.0516C66.5105 9.98888 66.2302 9.83724 66.0109 9.61593C65.7916 9.39462 65.6433 9.11358 65.5847 8.80838C65.5261 8.50318 65.5598 8.18755 65.6816 7.90142C65.8034 7.61529 66.0078 7.37154 66.2689 7.201C66.53 7.03047 66.8361 6.94083 67.1485 6.94341C67.5666 6.94688 67.9663 7.1152 68.2598 7.41145C68.5533 7.7077 68.7167 8.10766 68.714 8.52358ZM68.3581 24.0794H65.9159V11.6806H68.3581V24.0794Z" fill="#2E3A33"/>
<path d="M74.6473 24.0733H72.2051V8.14051L74.6473 6.86523V24.0733Z" fill="#2E3A33"/>
<path d="M95.2958 24.0735H92.8503V17.0644C92.8503 14.563 92.0659 13.6647 90.4542 13.6647C88.8426 13.6647 88.0549 14.822 88.0549 16.8283V24.0735H85.6126V17.0644C85.6126 14.563 84.8282 13.6647 83.2166 13.6647C81.6049 13.6647 80.8172 14.822 80.8172 16.8283V24.0735H78.375V11.6813H80.8172V12.8615C81.1545 12.3975 81.6017 12.0234 82.1191 11.7723C82.6365 11.5213 83.2082 11.4011 83.7835 11.4223C85.4709 11.4223 86.5388 12.0583 87.2012 13.2385C88.1043 12.1304 89.0766 11.4223 91.0244 11.4223C93.9181 11.4223 95.309 13.3106 95.309 16.9693L95.2958 24.0735Z" fill="#2E3A33"/>
<path d="M108.914 17.631C108.914 18.0769 108.868 18.4801 108.845 18.7391H100.606C100.866 21.1225 102.221 22.1388 103.74 22.1388C104.727 22.1254 105.68 21.7786 106.442 21.1553L107.893 22.7158C106.798 23.755 105.493 24.3549 103.608 24.3549C100.691 24.3549 98.2227 22.0175 98.2227 17.9097C98.2227 13.7068 100.454 11.4415 103.681 11.4415C107.207 11.4218 108.914 14.2773 108.914 17.631ZM106.456 16.7197C106.337 15.0215 105.533 13.6052 103.516 13.6052C101.868 13.6052 100.879 14.7362 100.665 16.7197H106.456Z" fill="#2E3A33"/>
<path d="M119.356 11.9401L118.716 14.2546C118.143 13.9411 117.495 13.7861 116.841 13.8055C115.298 13.8055 114.395 14.8906 114.395 16.992V24.0733H111.953V11.6811H114.395V12.8613C114.719 12.4113 115.146 12.0455 115.642 11.795C116.138 11.5444 116.687 11.4165 117.243 11.4221C117.984 11.3725 118.723 11.5535 119.356 11.9401Z" fill="#2E3A33"/>
<path d="M131.125 22.8928C131.125 26.6695 129.751 28.489 125.242 28.6299L124.411 26.7875C127.921 26.6236 128.696 25.6794 128.696 23.1059V22.8928C127.793 23.719 126.774 24.3353 125.466 24.3353C122.81 24.3353 120.674 22.3978 120.674 17.677C120.674 13.4151 123.024 11.4219 125.585 11.4219C126.173 11.4348 126.752 11.5671 127.287 11.8106C127.822 12.0541 128.302 12.4038 128.696 12.8381V11.6809H131.138L131.125 22.8928ZM128.729 20.5095V15.2936C128.185 14.5625 127.045 13.6544 125.809 13.6544C124.055 13.6544 123.106 14.9658 123.106 17.5885C123.106 20.7062 124.095 22.0732 125.904 22.0732C127.068 22.0896 128.089 21.3094 128.729 20.5095Z" fill="#2E3A33"/>
<path d="M144.842 17.631C144.842 18.0769 144.793 18.4801 144.77 18.7391H136.53C136.79 21.1225 138.142 22.1388 139.661 22.1388C140.649 22.1259 141.603 21.779 142.367 21.1553L143.814 22.7158C142.723 23.755 141.418 24.3549 139.529 24.3549C136.609 24.3549 134.141 22.0175 134.141 17.9097C134.141 13.7068 136.372 11.4415 139.602 11.4415C143.132 11.4218 144.842 14.2773 144.842 17.631ZM142.38 16.7197C142.262 15.0215 141.454 13.6052 139.437 13.6052C137.789 13.6052 136.8 14.7362 136.589 16.7197H142.38Z" fill="#2E3A33"/>
<path d="M4.72958 9.89682C5.23136 10.0011 5.71995 10.1605 6.18634 10.3722C6.56287 9.39704 7.01008 8.45039 7.52445 7.53968C8.53415 5.7415 9.7836 4.08735 11.2389 2.62215C9.74255 1.6911 8.15725 0.825614 6.5357 -0.000530766C6.20611 -0.16117 4.19565 5.44481 2.74219 9.75912C3.40786 9.7157 4.07638 9.76201 4.72958 9.89682Z" fill="#2E3A33"/>
<path d="M17.3557 19.369C15.5951 19.3929 13.8511 19.0267 12.2504 18.297C10.207 17.343 8.9546 16.0021 7.82743 14.799C7.73514 14.6962 7.64286 14.5979 7.55058 14.5039C7.2337 16.3938 7.26161 18.3249 7.63297 20.205C8.71071 25.7618 12.3328 29.2073 14.8838 31.0038C19.4288 28.9713 21.6106 23.7915 21.9765 19.6378C22.0061 19.3264 22.0226 19.0215 22.0325 18.7199C20.508 19.135 18.9362 19.3532 17.3557 19.369Z" fill="#2E3A33"/>
<path d="M13.273 4.03529C11.8338 5.40475 10.6115 6.98315 9.64756 8.71678C9.08933 9.69454 8.61841 10.7191 8.24023 11.7788C8.72143 12.2148 9.16307 12.6836 9.59812 13.1491C10.6099 14.231 11.658 15.3522 13.273 16.0996C15.5801 17.1782 18.4672 17.2208 21.8916 16.234C21.1896 10.9887 17.7026 7.05465 13.0884 3.83203L13.273 4.03529Z" fill="#2E3A33"/>
<path d="M11.2053 31.145C8.12544 28.3848 6.03261 24.7024 5.24312 20.6543C4.73159 18.0207 4.80244 15.3079 5.45076 12.7043C5.07045 12.4952 4.66037 12.3448 4.2346 12.2584C3.45959 12.1063 2.66027 12.1276 1.89455 12.3207C1.54519 13.4091 1.3046 14.2123 1.23539 14.4975C0.342214 18.9364 -1.51005 24.9489 2.26369 28.9223C2.3296 28.9911 2.39552 29.06 2.46473 29.1255C4.85421 31.4859 8.54226 32.3875 11.9831 31.8335C11.7359 31.6269 11.4723 31.3942 11.2053 31.145Z" fill="#2E3A33"/>
</g>
<defs>
<clipPath id="clip0">
<rect width="144.842" height="32" fill="white"/>
</clipPath>
</defs>
</svg>
