<svg width="612" height="957" viewBox="0 0 612 957" fill="none" xmlns="http://www.w3.org/2000/svg">
<g opacity="0.4" clip-path="url(#clip0)">
<path d="M610.657 39.8525L603.594 43.0631C603.385 43.1579 603.216 43.3214 603.113 43.5263L601.083 47.5858C600.979 47.795 600.804 47.9609 600.59 48.0547L595.8 50.1502C595.636 50.2218 595.5 50.3295 595.395 50.4744C582.811 67.9173 557.951 105.775 557.951 119.416C557.951 133.113 549.446 130.271 545.194 127.137L542.911 125.869C542.484 125.632 541.949 125.738 541.644 126.119L539.89 128.312C539.644 128.619 539.245 128.754 538.864 128.656C533.86 127.362 524.582 124.81 523.037 123.78C521.52 122.769 519.487 122.67 518.507 122.755C518.394 122.765 518.284 122.797 518.188 122.857C517.486 123.301 516.323 124.638 516.323 127.137C516.323 129.698 502.894 137.955 495.243 142.307C494.688 142.623 493.99 142.338 493.804 141.727L491.918 135.531C491.852 135.313 491.717 135.127 491.527 135C486.216 131.462 474.826 125.927 468.935 130.275C468.749 130.412 468.526 130.494 468.295 130.494H466.299C466.083 130.494 465.872 130.424 465.699 130.294L463.435 128.596C463.333 128.52 463.217 128.463 463.093 128.43L458.617 127.237C458.377 127.173 458.172 127.022 458.03 126.819C456.644 124.842 453.331 121.43 449.516 121.43C445.702 121.43 441.588 123.637 439.736 124.916C439.545 125.048 439.32 125.114 439.088 125.111C436.907 125.075 432.174 125.666 427.912 128.342C427.769 128.431 427.607 128.486 427.439 128.498L409.256 129.797C409.023 129.814 408.804 129.912 408.633 130.071C405.684 132.829 398.999 137.955 393.788 138.216C388.584 138.476 380.859 137.076 377.33 136.277C377.117 136.228 376.895 136.249 376.696 136.338L370.96 138.887L366.145 140.994C365.803 141.143 365.576 141.47 365.53 141.84C365.3 143.721 364.488 147.037 362.567 148.958C360.419 151.107 354.958 152.763 352.496 153.323L350.046 154.139C349.694 154.257 349.436 154.558 349.376 154.924L348.585 159.668C348.515 160.089 348.188 160.42 347.765 160.483C342.187 161.307 331.961 161.648 330.675 157.015C329.444 151.308 326.109 139.424 322.618 137.544C319.171 135.688 306.932 136.734 301.022 137.514C300.871 137.534 300.722 137.519 300.577 137.472C298.481 136.795 294.371 135.76 293.075 136.537C291.397 137.544 276.625 140.23 272.597 138.887C269.577 137.88 262.194 139.153 258.238 140.054C257.796 140.155 257.342 139.955 257.116 139.562C254.075 134.277 246.982 125.257 240.033 126.802C232.909 128.385 229.738 137.226 228.992 141.674C228.966 141.83 228.907 141.976 228.812 142.102C227.252 144.182 223.383 148.178 219.219 148.958C215.09 149.733 208.358 150.569 205.157 150.931C204.915 150.958 204.693 151.072 204.529 151.252L201.652 154.417C201.506 154.578 201.31 154.687 201.096 154.727L196.227 155.64C196.113 155.662 196.004 155.703 195.904 155.761L190.647 158.854C190.453 158.968 190.227 159.012 190.004 158.986C186.653 158.585 180.383 158.679 179.605 162.051C178.819 165.459 181.381 174.477 182.856 178.86C182.925 179.065 183.058 179.236 183.233 179.362C185.407 180.925 189.028 184.396 187.998 187.229C186.655 190.922 184.641 195.286 190.348 195.622C194.487 195.866 197.652 194.656 199.041 193.844C199.283 193.702 199.569 193.638 199.833 193.734C201.004 194.159 203.128 195.47 204.783 198.308C206.412 201.1 210.511 196.87 213.105 193.433C213.584 192.799 214.604 192.897 214.96 193.608C216.428 196.535 219.175 200.986 222.683 203.9C223.015 204.176 223.153 204.623 223.01 205.03C221.365 209.693 218.247 217.811 215.754 222.185C215.288 223.001 216.024 224.221 216.954 224.083L220.254 223.594C221.207 223.453 221.789 224.609 221.108 225.29L218.576 227.822C217.946 228.452 218.392 229.529 219.283 229.529H219.68C220.407 229.529 220.891 230.281 220.591 230.943L220.197 231.808C219.896 232.47 220.38 233.222 221.108 233.222L233.549 233.222C234.143 233.222 234.606 233.737 234.543 234.328L233.731 241.91C233.685 242.336 233.374 242.685 232.957 242.779L223.53 244.908C223.345 244.949 223.176 245.043 223.043 245.176L219.747 248.472C219.621 248.598 219.464 248.688 219.291 248.733L210.633 250.977C210.539 251.002 210.448 251.04 210.364 251.091L202.978 255.587C202.841 255.671 202.687 255.719 202.527 255.732C199.069 256.021 191.964 257.781 189.341 262.764C186.68 267.82 182.481 273.074 180.662 275.129C180.628 275.168 180.599 275.206 180.572 275.25C179.619 276.832 179.172 281.256 184.502 287.099C184.783 287.407 184.857 287.856 184.676 288.231L180.8 296.282C180.68 296.53 180.668 296.817 180.767 297.074L183.843 305.072C183.925 305.284 183.931 305.515 183.868 305.734C183.258 307.828 182.678 311.516 183.844 313.799C184.198 314.492 184.071 315.538 183.36 315.854L182.085 316.42C181.999 316.458 181.91 316.484 181.816 316.498C179.382 316.867 174.246 318.577 171.515 322.707C171.32 323.002 170.997 323.191 170.643 323.198C166.712 323.273 159.616 324.134 158.486 327.133C158.465 327.191 158.442 327.245 158.412 327.299C156.755 330.316 153.496 338.222 153.106 346.79C153.09 347.145 152.892 347.468 152.581 347.638L145.8 351.336C145.732 351.373 145.669 351.418 145.612 351.469L139.456 356.977C139.366 357.057 139.263 357.122 139.148 357.161C137.614 357.693 134.415 358.082 132.606 355.756C130.256 352.735 127.234 349.378 122.199 350.385C118.294 351.166 115.756 357.897 114.89 361.469C114.838 361.683 114.724 361.877 114.547 362.008C112.448 363.556 108.535 364.245 107.763 355.756C107.315 352.399 106.353 345.483 106.085 344.678C105.751 343.677 96.7992 347.98 96.027 355.61C96.0172 355.706 95.9963 355.799 95.9609 355.889C94.0481 360.752 90.6541 370.748 91.9847 372.877C93.2855 374.959 102.462 375.108 107.307 374.912C107.597 374.9 107.875 375.011 108.08 375.216C110.633 377.766 116.539 382.356 122.199 382.613C129.584 382.949 137.306 382.949 141.67 385.97C142.439 386.629 144.157 388.194 144.982 389.268C145.012 389.307 145.038 389.347 145.061 389.391C145.857 390.904 147.448 395.111 147.713 400.405C147.962 405.401 150.941 408.46 152.707 409.584C152.943 409.734 153.124 409.956 153.19 410.227C153.887 413.107 155.098 420.026 155.098 427.934C154.874 433.417 155.3 445.525 158.791 450.091C162.263 454.63 167.128 463.751 169.163 467.814C169.187 467.862 169.206 467.909 169.222 467.959L172.869 479.562C172.883 479.61 172.895 479.656 172.902 479.705C173.234 481.856 173.547 486.152 172.219 486.683C170.92 487.203 176.638 494.257 179.95 498.06C180.155 498.296 180.457 498.419 180.77 498.404C184.061 498.245 190.159 498.647 191.691 501.454C193.247 504.308 192.423 508.227 191.76 510.004C191.715 510.123 191.691 510.248 191.691 510.375V516.945C191.691 517.481 192.113 517.922 192.649 517.944L207.496 518.563C207.697 518.571 207.896 518.518 208.067 518.412L220.684 510.526C221.018 510.317 221.199 509.932 221.145 509.541L219.976 501.068C219.924 500.688 220.09 500.308 220.426 500.122C221.658 499.439 223.542 498.802 224.682 499.712C225.096 500.042 225.642 500.284 226.128 500.076L233.055 497.107C233.766 496.803 234.539 497.385 234.441 498.153L232.407 514.132C232.351 514.576 232.596 515.004 233.008 515.179L245.31 520.407C245.583 520.523 245.892 520.512 246.156 520.378L260.901 512.854C261.524 512.537 262.272 512.936 262.348 513.631C263.272 522.071 264.793 536.944 264.54 538.718C264.28 540.539 269.247 548.805 272 553.085C272.165 553.341 272.205 553.655 272.113 553.945C270.375 559.468 268.557 570.771 274.146 575.538C274.231 575.61 274.305 575.695 274.363 575.789L292.068 604.517C300.125 619.177 317.851 649.1 324.296 651.517C330.674 653.909 343.056 655.402 348.627 655.867C348.747 655.877 348.859 655.907 348.967 655.958L370.794 666.21C370.904 666.262 371.003 666.333 371.087 666.42L380.844 676.491C381.154 676.811 381.214 677.294 381.006 677.687C378.822 681.814 376.279 689.431 381.367 691.466C386.519 693.527 391.26 696.371 393.218 697.686C393.373 697.79 393.492 697.935 393.567 698.106L400.273 713.434C400.415 713.759 400.372 714.133 400.18 714.431C398.377 717.221 395.793 723.743 397.817 731.08C399.949 738.811 401.156 748.944 401.502 753.143C401.507 753.208 401.506 753.269 401.499 753.334L399.516 770.845C399.502 770.967 399.468 771.083 399.411 771.191C397.881 774.072 393.687 780.433 388.417 784.122C383.392 787.64 354.466 806.517 337.931 817.273C337.066 817.836 337.518 819.179 338.547 819.108L392.418 815.414C392.983 815.376 393.404 814.694 393.953 814.553C395.718 814.098 402.517 817.445 420.773 833.291C420.906 833.407 421.066 833.488 421.239 833.521C430.273 835.224 448.752 836.707 454.887 829.953C455.279 829.522 455.946 829.422 456.399 829.79L460.241 832.912C460.634 833.231 460.726 833.79 460.479 834.232C455.325 843.427 451.69 868.549 475.702 901.957C482.721 913.878 499.857 937.936 512.465 939.205C512.576 939.216 512.679 939.243 512.781 939.287C515.881 940.624 522.767 942.391 526.73 939.221C531.729 935.221 532.758 923.611 553.141 920.816C553.419 920.778 553.676 920.629 553.838 920.4C557.401 915.336 564.508 905.104 566.343 901.957C568.681 897.949 564.043 906.233 569.942 890.128C570.001 889.966 570.105 889.813 570.237 889.701L589.948 872.946C590.099 872.818 590.208 872.649 590.262 872.459L598.907 842.2L604.89 823.255C604.93 823.129 604.994 823.013 605.078 822.913L612 814.672" stroke="#C2BFBC" stroke-opacity="0.72" stroke-dasharray="4 4"/>
<path d="M333.36 820.043C321.887 820.155 295.599 817.982 281.849 808.425C281.724 808.338 281.589 808.282 281.438 808.258C258.31 804.538 211.961 794.835 209.819 785.465C207.74 776.369 208.846 767.587 209.731 763.987C209.786 763.764 209.92 763.57 210.106 763.435L216.305 758.926C216.786 758.577 216.858 757.888 216.459 757.447L208.274 748.385C207.992 748.073 207.94 747.623 208.098 747.234C209.814 742.997 209.403 733.057 195.383 722.352C180.734 711.165 162.674 702.136 155.281 698.931C155.156 698.877 155.033 698.852 154.897 698.852C150.932 698.852 140.113 698.852 126.724 698.852C126.618 698.852 126.516 698.836 126.415 698.803C118.17 696.121 99.6497 692.445 90.3061 698.852C80.9415 705.273 62.1364 699.122 53.8074 695.203C53.7431 695.173 53.6876 695.139 53.6313 695.096C42.5191 686.573 19.1222 670.188 13.7641 672.331C8.39274 674.479 27.8639 708.364 38.271 725.037C38.7186 726.045 38.9424 728.529 36.2567 730.409C33.571 732.289 11.1903 718.883 0.335688 711.945" stroke="#2E3A33" stroke-opacity="0.2" stroke-dasharray="4 4"/>
<path d="M-0.000155628 750.551C22.2391 799.112 66.0156 898.752 70.1883 923.742C70.3429 924.668 69.2643 925.084 68.6385 924.384L24.8424 875.436C22.2686 872.526 16.3825 867.848 13.4283 872.414C11.5993 875.241 12.5067 879.671 14.0475 883.539C14.4731 884.608 12.5306 886.338 11.4888 885.851C9.10369 884.734 6.72156 884.285 5.42457 885.779C5.38905 885.82 5.35761 885.866 5.33053 885.913L0.335555 894.571" stroke="#EA5B47" stroke-opacity="0.2" stroke-dasharray="4 4"/>
</g>
<defs>
<clipPath id="clip0">
<rect width="957" height="612" fill="white" transform="translate(612) rotate(90)"/>
</clipPath>
</defs>
</svg>
