<svg width="1440" height="748" viewBox="0 0 1440 748" fill="none" xmlns="http://www.w3.org/2000/svg">
<path opacity="0.64" d="M416.387 8.48346C631.852 -28.1891 937.398 62.4189 1125.98 120.325C1280.98 132.762 1481.93 255.267 1525.58 376.82C1569.24 498.374 1725.67 2157.9 1622.21 2304.75C1518.75 2451.6 1436.04 2359.58 1353.1 2440.61C1270.15 2521.64 1139.85 2455.46 975.014 2469.21C810.175 2482.96 838.526 2386.05 569.881 2388.1C301.237 2390.14 250.306 2433.34 37.5839 2294.84C-175.138 2156.34 -209.704 2107.64 -247.446 1989.93C-285.188 1872.22 -195.774 238.65 -90.8989 102.024C13.9764 -34.603 200.923 45.156 416.387 8.48346Z" fill="#F1EFEC"/>
</svg>
