<svg width="1440" height="800" viewBox="0 0 1440 800" fill="none" xmlns="http://www.w3.org/2000/svg">
<path d="M855.016 3.48705C863.215 1.13775 865.265 -2.38106 883.715 2.31746C902.164 7.01598 914.482 9.31692 928.831 18.762C943.181 28.2072 980.031 46.9062 1002.65 49.3034C1025.26 51.7007 1031.45 58.6999 1045.81 63.3985C1060.18 68.0971 1090.93 69.2675 1101.18 70.4469C1111.43 71.6265 1127.83 75.1548 1136.05 73.9754C1144.26 72.7961 1148.36 73.9663 1162.71 72.7964C1177.06 71.6267 1183.21 73.9751 1197.56 71.6259C1211.91 69.2766 1232.43 65.748 1232.43 65.748C1257.03 63.3987 1269.33 63.4083 1277.53 62.2289C1285.73 61.0495 1295.99 61.0499 1302.14 61.0499C1308.29 61.0499 1306.24 62.2198 1322.64 61.0499C1339.04 59.8802 1345.19 62.2287 1359.54 59.8794C1373.89 57.5302 1380.06 57.5306 1390.31 55.1814C1400.56 52.8321 1392.36 54.0013 1412.86 51.652C1433.36 49.3028 1439.49 50.4822 1451.81 48.1329C1464.12 45.7838 1457.97 48.1235 1476.42 44.6045C1494.87 41.0853 1498.97 38.7364 1507.17 37.5569C1515.37 36.3775 1527.69 32.8486 1539.99 36.377C1552.29 39.9057 1558.44 34.0378 1570.74 35.2075C1583.04 36.3773 1585.07 39.9153 1603.54 38.7359C1622 37.5565 1617.89 37.5569 1634.3 37.5569C1644.67 37.4352 1655.01 38.2369 1664.95 39.9345C1673.17 41.114 1691.62 43.4537 1691.62 49.3315C1691.62 55.2095 1730.58 73.9943 1738.79 75.174C1746.99 76.3534 1751.09 82.2504 1767.48 84.571C1783.88 86.8916 1792.09 92.7696 1802.35 95.1189C1812.62 97.4682 1818.74 100.987 1829.02 100.987C1839.3 100.987 1857.75 99.7989 1874.13 108.045C1890.52 116.292 1892.82 111.162 1907.18 118.209C1912.38 120.769 1916.52 124.433 1920 126.054V685.842V721.701C1787.4 741.861 1461.06 751.252 1375.38 741.283C1224.81 723.763 1002.15 742.094 842.739 760.186C683.328 778.279 560.366 782.241 191.698 796.127C-176.97 810.014 -306.338 783.719 -432.041 762.107C-477.955 754.213 -477.586 738.713 -480 721.663L-479.999 125.699C-467.316 129.141 -422.333 136.217 -414.133 135.038C-406.728 134.119 -399.155 133.726 -391.584 133.868H-369.034C-354.684 133.868 -336.217 132.698 -328.018 131.519C-319.818 130.339 -311.618 132.698 -295.219 131.519C-278.819 130.339 -258.303 128 -248.053 129.17C-237.803 130.34 -241.903 132.698 -225.503 133.868C-209.103 135.038 -219.369 132.689 -209.103 135.038C-198.837 137.387 -194.737 142.086 -182.437 142.086C-173.515 142.172 -164.61 142.565 -155.771 143.265L-131.171 147.964C-125.022 149.134 -120.92 149.134 -110.67 151.483C-102.685 153.119 -94.4407 154.301 -86.0549 155.012L-61.4557 162.06C-61.4557 162.06 -49.4887 162.377 -43.0055 164.41C-20.4561 171.457 -10.1895 169.108 -4.03955 171.457C2.11035 173.806 8.32739 175.149 18.5106 173.807C45.1601 170.278 65.6599 167.929 65.6599 167.929C65.6599 167.929 69.7761 164.41 82.0757 164.41C94.3754 164.41 96.4261 169.108 112.826 164.41C129.225 159.711 133.309 158.541 147.675 157.361C162.042 156.182 162.042 152.653 174.342 153.833C186.641 155.012 190.742 155.012 205.091 150.314C219.441 145.615 215.341 145.614 227.64 143.265C239.449 140.76 251.975 139.563 264.557 139.737C280.956 139.737 276.857 142.086 289.156 142.086C301.456 142.086 309.673 145.615 326.073 138.567C342.473 131.519 352.723 129.17 360.923 126.821C369.122 124.471 373.222 124.471 381.422 123.291C389.616 122.338 397.331 120.333 403.988 117.424C412.188 113.895 422.438 113.894 432.688 111.545C442.937 109.195 449.087 106.847 461.387 106.847C473.687 106.847 475.754 109.196 490.104 106.847C504.453 104.497 510.603 105.676 527.003 99.7982C543.402 93.9202 547.52 91.5714 559.82 86.8727C572.12 82.1742 582.37 77.4757 582.37 77.4757C582.471 77.4526 602.901 72.7777 609.036 69.2577C615.187 65.7289 650.05 57.502 658.251 53.9827C666.451 50.4636 654.151 49.2841 676.701 42.2362C699.251 35.1884 697.184 35.1591 715.651 29.3099C734.117 23.4606 748.467 19.9414 754.617 18.762C760.758 17.5842 779.162 12.8977 779.216 12.8841L805.882 8.18508C830.482 4.71388 846.816 5.83635 855.016 3.48705Z" fill="#2E3A33"/>
</svg>
