<svg width="1062" height="272" viewBox="0 0 1062 272" fill="none" xmlns="http://www.w3.org/2000/svg">
<path opacity="0.5" d="M176.482 338.078C80.8939 310.99 30.9165 264.288 15.2169 228.613C-86.4138 83.0891 351.796 -42.8838 419.831 13.9322C487.865 70.7482 604.493 67.9015 689.792 56.1086C775.09 44.3157 837.265 54.8396 1024.41 82.4568C1211.55 110.074 1265.93 180.963 1320.2 242.11C1374.47 303.258 1148.5 568.536 1030.9 556.646C913.299 544.755 910.026 492.385 833.016 440.65C756.006 388.914 686.1 365.027 589.029 347.43C491.958 329.834 479.646 356.271 406.023 366.647C332.401 377.023 272.07 365.167 176.482 338.078Z" fill="#C1E3CB"/>
</svg>
