<svg width="1440" height="829" viewBox="0 0 1440 829" fill="none" xmlns="http://www.w3.org/2000/svg">
<path opacity="0.64" d="M716.303 54.4145C501.08 -35.0167 263.105 6.38329 117.168 34.2759C-19.3656 15.7283 -146.213 117.167 -129.014 251.192C-111.815 385.218 -257.609 451.382 -93.3424 646.769C70.9242 842.157 103.523 751.333 217.923 864.694C332.324 978.054 420.818 927.904 578.729 979.451C736.64 1031 664.909 910.607 912.663 970.591C1160.42 1030.58 1227.57 1092.45 1357.69 974.662C1487.82 856.874 1496.61 806.844 1475.79 676.083C1454.97 545.323 1387.17 457.096 1226.41 273.462C1065.66 89.828 931.525 143.846 716.303 54.4145Z" fill="#F1EFEC"/>
</svg>
