<svg width="209" height="48" viewBox="0 0 209 48" fill="none" xmlns="http://www.w3.org/2000/svg">
<path d="M49.0983 25.0764V25.0325C50.1083 24.8129 50.8549 24.3298 51.4258 23.6272C51.9528 22.9245 52.2163 22.0901 52.2163 21.124C52.2163 20.2896 52.0846 19.5869 51.7332 19.016C51.4258 18.4451 50.9867 18.006 50.4597 17.6546C49.9327 17.3033 49.3179 17.0398 48.6591 16.9081C47.9565 16.7763 47.2538 16.6885 46.5512 16.6885H41.2812V34.3427H46.6829C48.0882 34.3427 49.23 34.1231 50.0644 33.7278C50.8988 33.3326 51.5576 32.8495 51.9967 32.3225C52.4359 31.7955 52.7433 31.2246 52.875 30.6976C53.0068 30.1706 53.0946 29.7315 53.0946 29.468C53.0946 28.1505 52.7433 27.1405 52.0406 26.35C51.2941 25.6034 50.3279 25.1642 49.0983 25.0764ZM43.0379 18.3573H46.4633C47.2977 18.3573 48.0004 18.489 48.4835 18.7086C49.0104 18.9282 49.3618 19.2356 49.6253 19.5869C49.8888 19.9383 50.0644 20.2457 50.1523 20.597C50.1962 20.9483 50.2401 21.1679 50.2401 21.3875C50.2401 21.9584 50.1523 22.4415 49.9327 22.8367C49.7131 23.2319 49.4496 23.5394 49.0983 23.8028C48.7469 24.0663 48.3956 24.242 47.9565 24.3298C47.5173 24.4616 47.0781 24.5055 46.6829 24.5055H43.0818V18.3573H43.0379ZM50.7671 30.8733C50.5475 31.3125 50.1962 31.6199 49.8009 31.9273C49.3618 32.1908 48.8787 32.4104 48.3078 32.5421C47.7369 32.6739 47.1221 32.7617 46.5072 32.7617H43.0818V25.9547H46.7707C48.22 25.9547 49.3179 26.2182 50.0644 26.7891C50.811 27.36 51.2062 28.2383 51.2062 29.3802C51.1184 29.995 50.9867 30.4781 50.7671 30.8733Z" fill="#101512"/>
<path d="M64.337 26.6572C64.9518 25.9985 65.2592 25.1641 65.2592 24.1979C65.2592 22.9683 64.864 22.0021 64.0296 21.3873C63.2391 20.7725 62.0973 20.4651 60.7359 20.4651H56.4761V34.0351H58.1888V27.8869H60.1211L63.7222 34.0351H65.7862L61.9656 27.7551C62.9756 27.6234 63.7661 27.2281 64.337 26.6572ZM60.3846 26.3059H58.1888V22.09H60.3846C60.9555 22.09 61.4386 22.1339 61.8338 22.2656C62.2291 22.3535 62.5365 22.5291 62.756 22.7048C62.9756 22.8805 63.1513 23.1 63.2391 23.3635C63.3269 23.627 63.3709 23.8905 63.3709 24.154C63.3709 24.4614 63.3269 24.7249 63.2391 24.9884C63.1513 25.2519 62.9756 25.4715 62.756 25.6472C62.5365 25.8228 62.2291 25.9985 61.8338 26.0863C61.4386 26.262 60.9555 26.3059 60.3846 26.3059Z" fill="#101512"/>
<path d="M79.6193 22.1776C79.0045 21.5628 78.2579 21.0358 77.3796 20.6845C76.5013 20.3331 75.5791 20.1575 74.569 20.1575C73.5589 20.1575 72.6367 20.3331 71.7584 20.6845C70.8801 21.0358 70.1335 21.5189 69.5187 22.1776C68.9038 22.7924 68.3769 23.539 68.0255 24.4173C67.6742 25.2956 67.4985 26.2179 67.4985 27.2718C67.4985 28.2819 67.6742 29.2481 68.0255 30.1264C68.3769 31.0047 68.8599 31.7513 69.5187 32.3661C70.1335 32.9809 70.924 33.5079 71.7584 33.8592C72.5928 34.2106 73.5589 34.3862 74.569 34.3862C75.5791 34.3862 76.5013 34.2106 77.3796 33.8592C78.2579 33.5079 79.0045 33.0248 79.6193 32.3661C80.2341 31.7513 80.7611 30.9608 81.1125 30.1264C81.4638 29.2481 81.6394 28.2819 81.6394 27.2718C81.6394 26.2618 81.4638 25.2956 81.1125 24.4173C80.7611 23.539 80.2341 22.7924 79.6193 22.1776ZM79.4437 29.3798C79.1802 30.0385 78.8727 30.6534 78.4336 31.1364C77.9944 31.6195 77.4235 32.0148 76.8087 32.3222C76.15 32.6296 75.4473 32.7613 74.6129 32.7613C73.7785 32.7613 73.0759 32.6296 72.4171 32.3222C71.7584 32.0148 71.2314 31.6195 70.7922 31.1364C70.3531 30.6534 70.0017 30.0385 69.7822 29.3798C69.5187 28.7211 69.4308 28.0184 69.4308 27.2718C69.4308 26.5253 69.5626 25.8226 69.7822 25.1639C70.0017 24.5051 70.3531 23.9342 70.7922 23.4072C71.2314 22.9242 71.8023 22.5289 72.4171 22.2215C73.0759 21.9141 73.7785 21.7824 74.6129 21.7824C75.4034 21.7824 76.15 21.9141 76.8087 22.2215C77.4235 22.5289 77.9944 22.9242 78.4336 23.4072C78.8727 23.9342 79.2241 24.5051 79.4437 25.1639C79.6632 25.8226 79.795 26.5253 79.795 27.2718C79.795 28.0184 79.7071 28.7211 79.4437 29.3798Z" fill="#101512"/>
<path d="M95.2099 20.5088H92.7067L86.6024 26.13V20.5088H84.8896V34.0349H86.6024V27.3158L93.0141 34.0349H95.5173L88.3151 26.657L95.2099 20.5088Z" fill="#101512"/>
<path d="M99.3817 27.7988H105.793V26.2179H99.3817V22.0898H106.233V20.5088H97.6689V34.0349H106.452V32.4539H99.3817V27.7988Z" fill="#101512"/>
<path d="M117.211 26.6572C117.826 25.9985 118.133 25.1641 118.133 24.1979C118.133 22.9683 117.694 22.0021 116.904 21.3873C116.113 20.7725 114.971 20.4651 113.61 20.4651H109.35V34.0351H111.063V27.8869H112.995L116.596 34.0351H118.704L114.884 27.7551C115.85 27.6234 116.64 27.2281 117.211 26.6572ZM113.259 26.3059H111.063V22.09H113.259C113.83 22.09 114.313 22.1339 114.708 22.2656C115.103 22.3535 115.41 22.5291 115.63 22.7048C115.85 22.8805 116.025 23.1 116.113 23.3635C116.201 23.627 116.289 23.8905 116.289 24.154C116.289 24.4614 116.245 24.7249 116.113 24.9884C116.025 25.2519 115.85 25.4715 115.63 25.6472C115.41 25.8228 115.103 25.9985 114.708 26.0863C114.313 26.262 113.83 26.3059 113.259 26.3059Z" fill="#101512"/>
<path d="M136.579 26.5691C136.227 26.1738 135.832 25.8664 135.349 25.6468C134.866 25.3833 134.339 25.2516 133.768 25.1638V25.1198C134.69 24.8563 135.437 24.3733 135.964 23.7145C136.535 23.0558 136.798 22.2214 136.798 21.2113C136.798 20.2452 136.623 19.4547 136.227 18.8838C135.832 18.3129 135.349 17.8737 134.734 17.5224C134.12 17.215 133.417 16.9954 132.67 16.8637C131.88 16.7319 131.133 16.688 130.343 16.688H123.755V34.3422H131.001C131.792 34.3422 132.582 34.2543 133.373 34.0787C134.163 33.903 134.866 33.6395 135.481 33.2443C136.096 32.849 136.623 32.366 137.018 31.7511C137.413 31.1363 137.633 30.3458 137.633 29.4236C137.633 28.8527 137.545 28.3257 137.369 27.8426C137.194 27.3595 136.93 26.9204 136.579 26.5691ZM127.664 20.0256H130.299C130.606 20.0256 130.914 20.0695 131.221 20.1134C131.528 20.1573 131.836 20.2891 132.055 20.4208C132.319 20.5526 132.495 20.7282 132.67 20.9917C132.802 21.2552 132.89 21.5187 132.89 21.914C132.89 22.2653 132.802 22.5727 132.67 22.7923C132.539 23.0558 132.363 23.2315 132.099 23.4071C131.88 23.5389 131.616 23.6706 131.309 23.7145C131.001 23.8024 130.738 23.8024 130.431 23.8024H127.62V20.0256H127.664ZM133.505 29.9945C133.329 30.258 133.153 30.4776 132.89 30.6532C132.626 30.8289 132.363 30.9606 132.055 31.0046C131.748 31.0485 131.441 31.0924 131.133 31.0924H127.62V27.0961H130.562C130.87 27.0961 131.221 27.096 131.572 27.1839C131.924 27.2278 132.275 27.3156 132.582 27.4474C132.89 27.5791 133.153 27.7987 133.373 28.0183C133.593 28.2818 133.68 28.5892 133.68 29.0283C133.724 29.4236 133.68 29.731 133.505 29.9945Z" fill="#101512"/>
<path d="M150.324 27.1845C150.851 26.5257 151.07 25.6474 151.07 24.6813C151.07 23.8908 150.938 23.1881 150.631 22.6611C150.324 22.1341 149.972 21.695 149.489 21.3436C149.006 21.0362 148.479 20.8167 147.82 20.6849C147.206 20.5532 146.547 20.4653 145.888 20.4653H140.574V34.0353H143.868V28.7654H145.01L147.776 34.0353H151.729L148.347 28.4141C149.226 28.2384 149.884 27.7993 150.324 27.1845ZM147.513 25.3839C147.381 25.5596 147.206 25.6913 146.986 25.7792C146.766 25.867 146.547 25.9109 146.239 25.9548C145.932 25.9548 145.668 25.9987 145.405 25.9987H143.868V23.3638H145.581C145.844 23.3638 146.108 23.3638 146.371 23.4077C146.635 23.4516 146.854 23.4955 147.03 23.5834C147.206 23.6712 147.381 23.8029 147.469 23.9786C147.601 24.1543 147.645 24.3738 147.645 24.6813C147.689 24.9887 147.645 25.2082 147.513 25.3839Z" fill="#101512"/>
<path d="M165.519 22.0895C164.86 21.4747 164.114 20.9916 163.191 20.6403C162.313 20.3329 161.347 20.1572 160.293 20.1572C159.239 20.1572 158.273 20.3329 157.351 20.6403C156.472 20.9477 155.682 21.4308 155.023 22.0895C154.364 22.7043 153.881 23.4509 153.486 24.3292C153.135 25.2076 152.959 26.1737 152.959 27.2716C152.959 28.3695 153.135 29.3356 153.486 30.214C153.837 31.0923 154.364 31.8388 155.023 32.4537C155.682 33.0685 156.472 33.5516 157.351 33.9029C158.229 34.2103 159.239 34.386 160.293 34.386C161.347 34.386 162.313 34.2103 163.191 33.9029C164.07 33.5516 164.86 33.0685 165.519 32.4537C166.178 31.8388 166.705 31.0923 167.056 30.214C167.407 29.3356 167.583 28.3256 167.583 27.2716C167.583 26.2176 167.407 25.2076 167.056 24.3292C166.661 23.4509 166.178 22.7043 165.519 22.0895ZM163.894 28.8965C163.718 29.3796 163.455 29.8187 163.104 30.17C162.752 30.5214 162.357 30.8288 161.874 31.0044C161.391 31.224 160.864 31.3119 160.249 31.3119C159.678 31.3119 159.107 31.224 158.624 31.0044C158.141 30.8288 157.746 30.5214 157.394 30.17C157.043 29.8187 156.78 29.3796 156.604 28.8965C156.428 28.4134 156.34 27.8425 156.34 27.2716C156.34 26.7007 156.428 26.1298 156.604 25.6467C156.78 25.1636 157.043 24.7245 157.394 24.3732C157.746 24.0218 158.141 23.7144 158.624 23.5388C159.107 23.3631 159.634 23.2313 160.249 23.2313C160.82 23.2313 161.391 23.3192 161.874 23.5388C162.357 23.7583 162.752 24.0218 163.104 24.3732C163.455 24.7245 163.718 25.1636 163.894 25.6467C164.07 26.1298 164.158 26.7007 164.158 27.2716C164.201 27.8864 164.114 28.4134 163.894 28.8965Z" fill="#101512"/>
<path d="M182.778 20.5088H178.474L173.599 25.6909V20.5088H170.306V34.0349H173.599V28.1062L178.694 34.0349H183.261L176.717 26.8327L182.778 20.5088Z" fill="#101512"/>
<path d="M188.223 28.6771H193.932V25.6469H188.223V23.539H194.24V20.5088H184.93V34.0349H194.591V31.0047H188.223V28.6771Z" fill="#101512"/>
<path d="M205.306 28.4136C206.14 28.194 206.799 27.7988 207.282 27.14C207.809 26.4813 208.029 25.603 208.029 24.6368C208.029 23.8463 207.897 23.1437 207.589 22.6167C207.282 22.0897 206.931 21.6505 206.448 21.2992C205.965 20.9918 205.438 20.7722 204.823 20.6405C204.208 20.5087 203.549 20.4209 202.847 20.4209H197.533V33.9909H200.826V28.721H201.968L204.735 33.9909H208.687L205.306 28.4136ZM204.471 25.3834C204.34 25.5591 204.164 25.6908 203.944 25.7786C203.725 25.8665 203.505 25.9104 203.198 25.9543C202.89 25.9543 202.627 25.9982 202.363 25.9982H200.826V23.3633H202.539C202.803 23.3633 203.066 23.3633 203.33 23.4072C203.593 23.4511 203.813 23.495 203.988 23.5828C204.164 23.6707 204.34 23.8024 204.427 23.9781C204.559 24.1537 204.603 24.3733 204.603 24.6807C204.647 24.9881 204.603 25.2077 204.471 25.3834Z" fill="#101512"/>
<path d="M17.1268 42.3349C18.093 42.3349 18.9274 41.5444 18.9274 40.5782C18.9274 39.6121 18.1369 38.8216 17.1268 38.8216C16.5999 38.8216 16.0729 39.2169 15.6337 39.5682C15.502 39.2608 15.3702 38.7777 15.3702 38.2068H14.0527C14.0527 39.3047 14.4041 40.0952 14.6676 40.5782L14.6236 40.6222L14.6676 40.6661C14.4041 41.1492 14.0527 41.9396 14.0527 42.9936C14.0527 44.0915 14.4041 44.882 14.6676 45.3212L14.6236 45.3651L14.6676 45.409C14.4041 45.8921 14.0527 46.6826 14.0527 47.7365C14.0527 47.8244 14.0527 47.9122 14.0527 48H15.3702C15.3702 47.9122 15.3702 47.8244 15.3702 47.7365C15.3702 47.1217 15.502 46.6826 15.6337 46.3751C16.0729 46.7265 16.6438 47.0778 17.1268 47.0778C18.093 47.0778 18.9274 46.2873 18.9274 45.3212C18.9274 44.355 18.1369 43.5645 17.1268 43.5645C16.5999 43.5645 16.0729 43.9158 15.6337 44.3111C15.502 44.0037 15.3702 43.5206 15.3702 42.9497C15.3702 42.3788 15.502 41.8957 15.6337 41.5883C16.0289 41.9836 16.5999 42.3349 17.1268 42.3349ZM17.1268 40.0952C17.3903 40.0952 17.6099 40.3147 17.6099 40.5343C17.6099 40.7978 17.3903 40.9735 17.1268 40.9735C16.9951 40.9735 16.7316 40.7539 16.4242 40.5343C16.6877 40.3147 16.9951 40.1391 17.1268 40.0952ZM17.1268 44.882C17.3903 44.882 17.6099 45.1016 17.6099 45.3212C17.6099 45.5847 17.3903 45.7603 17.1268 45.7603C16.9951 45.7603 16.7316 45.5407 16.4242 45.3212C16.6877 45.1016 16.9951 44.9259 17.1268 44.882Z" fill="#101512"/>
<path d="M3.0302 12.3843C2.94236 12.3843 2.85453 12.3843 2.7667 12.3843C2.45929 12.3843 2.19579 12.4721 1.9323 12.5599C0.790486 12.9991 0 14.097 0 15.3706V20.5087C0 21.8262 0.790486 22.9241 1.9323 23.3193C2.19579 23.4072 2.45929 23.495 2.7667 23.495C2.85453 23.495 2.94236 23.495 3.0302 23.495H3.46935C2.67887 21.914 2.23971 19.9817 2.23971 18.0055C2.23971 15.9854 2.67887 14.097 3.42544 12.3843H3.0302Z" fill="#101512"/>
<path d="M28.0194 9.00253L27.9754 8.95861C27.6241 8.43162 27.185 7.94855 26.7019 7.46547C26.4823 7.24589 26.2627 7.07023 26.0871 6.89457C26.0432 6.85065 25.9992 6.80674 25.9553 6.76282C24.2426 5.22576 22.1346 4.08395 19.851 3.46913C18.6653 3.16172 17.3917 2.98605 16.1182 2.94214V4.34745C23.5399 4.43528 29.5564 10.4518 29.6003 17.8735H31.0056C31.0056 16.6878 30.8739 15.5899 30.5665 14.492C30.0834 12.4719 29.2051 10.6274 28.0194 9.00253Z" fill="#101512"/>
<path d="M16.1182 0V1.40531C18.9288 1.40531 21.6516 2.15188 24.0669 3.51327C24.55 3.77677 25.0331 4.08418 25.5162 4.4355H25.5601C27.4485 5.75298 29.0294 7.50962 30.2152 9.48583C30.5226 10.0128 30.83 10.5398 31.0935 11.1107C32.0157 13.2626 32.5427 15.5023 32.5427 17.8738H33.948C33.8602 8.03661 25.9114 0.0878318 16.1182 0Z" fill="#101512"/>
<path d="M15.9856 5.92871C9.35429 5.92871 3.95264 11.3304 3.95264 17.9617C3.95264 23.2755 10.1887 36.5381 12.6919 36.8894C14.229 37.109 14.5803 37.1529 15.9856 37.1529C17.3909 37.1529 17.7422 37.109 19.2793 36.8894C21.7825 36.5381 28.0185 23.2755 28.0185 17.9617C28.0185 11.3304 22.6169 5.92871 15.9856 5.92871ZM15.9856 9.52981C18.2692 9.52981 20.3333 10.452 21.8703 11.9013H10.0569C11.594 10.4081 13.658 9.52981 15.9856 9.52981ZM15.9856 26.4374C13.702 26.4374 11.6379 25.5152 10.1009 24.066H21.8703C20.3333 25.5152 18.2692 26.4374 15.9856 26.4374ZM23.583 21.6067H8.34422C7.9929 20.8601 7.7294 20.0257 7.59765 19.1913H24.3296C24.1979 20.0257 23.9344 20.8601 23.583 21.6067ZM7.59765 16.732C7.7294 15.8976 7.9929 15.0632 8.34422 14.3166H23.583C23.9344 15.0632 24.1979 15.8976 24.3296 16.732H7.59765Z" fill="#101512"/>
</svg>
