<svg width="648" height="114" viewBox="0 0 648 114" fill="none" xmlns="http://www.w3.org/2000/svg">
<path fill-rule="evenodd" clip-rule="evenodd" d="M155.539 10.1851C155.431 10.2934 155.342 28.717 155.342 51.1268V91.8714H161.806H168.271L168.198 51.007L168.125 10.1426L161.931 10.0653C158.523 10.0228 155.647 10.0768 155.539 10.1851ZM316.12 10.1851C316.011 10.2934 315.922 28.717 315.922 51.1268V91.8714H322.372H328.822L328.911 72.9833L328.998 54.0952L329.783 51.7746C331.542 46.5692 335.047 43.0237 339.909 41.5328C342.325 40.7919 347.083 40.6681 349.532 41.282C354.526 42.5339 358.093 45.903 359.831 51.0087L360.589 53.2333L360.675 72.5524L360.762 91.8714H367.212H373.663L373.653 73.8451C373.648 63.9308 373.524 54.4976 373.378 52.8829C372.991 48.5853 372.123 45.3118 370.47 41.9177C369.215 39.3397 368.678 38.596 366.528 36.4596C363.756 33.7046 361.773 32.4128 358.744 31.3878C355.541 30.3045 353.327 30.0301 349.014 30.183C344.412 30.3461 342.633 30.7661 339.047 32.5374C334.939 34.567 332.004 37.3423 329.935 41.1562L328.993 42.8916L328.849 26.5171L328.706 10.1426L322.511 10.0653C319.104 10.0228 316.228 10.0768 316.12 10.1851ZM98.3696 13.9234C98.2633 14.0297 98.1763 31.6113 98.1763 52.9941V91.8714H104.64H111.103V75.0689V58.2661L124.82 58.1917L138.537 58.117L138.616 53.1615L138.694 48.2061H124.899H111.103V36.2843V24.3625H127.771H144.439L144.361 19.1198L144.282 13.8771L121.423 13.8036C108.85 13.7631 98.4759 13.8171 98.3696 13.9234ZM391.186 23.3516V30.9698H386.733H382.28V36.428V41.8861H386.719H391.158L391.255 59.7688C391.352 77.411 391.362 77.6805 392.007 79.806C393.55 84.8907 395.793 87.797 399.646 89.7005C403.033 91.3741 406.034 91.8631 412.946 91.8677L418.763 91.8714V86.456V81.041L414.239 80.868C411.75 80.7729 409.247 80.5583 408.675 80.3912C406.96 79.8899 405.737 78.8887 404.974 77.3639L404.256 75.9278L404.174 58.907L404.091 41.8861H411.427H418.763V36.428V30.9698H411.443H404.122L404.046 23.4289L403.969 15.888L397.577 15.8107L391.186 15.7335V23.3516ZM620.327 15.936C620.221 16.0411 620.135 19.4669 620.135 23.5487V30.9698H615.826H611.517V36.428V41.8861H615.826H620.135L620.14 57.327C620.143 65.8196 620.269 73.9313 620.421 75.3533C621.365 84.1995 624.86 88.8519 632.202 91.034C634.092 91.5956 635.189 91.689 641.177 91.799L648 91.9243V86.4822V81.0401L643.332 80.8741C638.128 80.6891 636.566 80.3165 635.137 78.9198C633.229 77.0542 633.239 77.1565 633.128 58.6197L633.028 41.8861H640.37H647.712V36.428V30.9698H640.387H633.062V23.3571V15.7444H626.79C623.34 15.7444 620.432 15.8306 620.327 15.936ZM204.141 30.4059C191.822 31.8445 183.156 40.6256 180.745 54.1115C180.069 57.8935 180.062 65.1252 180.731 68.8141C182.937 80.9775 190.081 89.2745 200.643 91.9383C202.765 92.4735 203.933 92.5735 207.911 92.5611C212.231 92.5479 212.879 92.477 215.226 91.7617C221.327 89.9016 225.791 86.365 228.812 80.9979L229.887 79.0878L229.964 85.4796L230.041 91.8714H236.501H242.96L242.887 61.4924L242.814 31.1134L236.428 31.0362L230.041 30.9589L229.964 37.4998L229.887 44.0407L228.748 41.8861C227.107 38.7821 222.95 34.6699 219.833 33.0669C215.046 30.6055 209.901 29.7331 204.141 30.4059ZM273.656 30.3981C264.598 31.4366 257.966 36.3926 256.327 43.3492C255.815 45.5204 255.754 49.5658 256.202 51.7111C256.755 54.3652 258.012 56.5993 259.998 58.4565C263.366 61.6076 265.356 62.418 276.855 65.3226C288.924 68.3714 291.487 70.1272 291.496 75.3533C291.504 80.2044 288.306 83.2087 282.841 83.4834C278.023 83.7255 274.1 82.4736 271.259 79.7867C269.508 78.1303 268.087 75.6026 267.788 73.6144L267.597 72.3369H261.47C258.101 72.3369 255.288 72.4337 255.219 72.5524C254.915 73.0781 256.303 77.6061 257.531 80.0933C258.637 82.3363 259.314 83.2624 261.331 85.2923C264.846 88.8315 268.266 90.6582 273.786 91.9464C275.999 92.4626 277.303 92.5609 281.882 92.5563C286.573 92.552 287.663 92.4638 289.638 91.928C297.062 89.9145 302.236 84.8671 303.291 78.6061C303.499 77.3751 303.578 75.492 303.481 74.0614C303.192 69.7716 301.714 66.6702 298.629 63.8788C295.557 61.0989 291.866 59.5921 282.729 57.3884C274.33 55.3629 271.958 54.456 269.746 52.423C268.116 50.9257 267.661 49.8645 267.665 47.5689C267.67 44.3747 269.399 41.7603 272.402 40.4058C273.522 39.9008 274.516 39.7324 276.915 39.6417C280.49 39.5064 282.961 40.0898 285.26 41.6126C287.89 43.3552 290.087 46.5692 290.527 49.3175L290.717 50.5043H296.849H302.981L302.812 49.5706C302.434 47.4879 300.886 43.3492 299.795 41.5049C297.482 37.5954 293.211 33.8669 289.159 32.2206C285.233 30.6254 278.538 29.8382 273.656 30.3981ZM459.403 30.5461C453.427 31.8592 448.094 35.3317 444.662 40.143L443.324 42.018L443.246 36.4937L443.168 30.9698H436.711H430.254V61.4206V91.8714H436.717H443.18L443.183 75.2815C443.185 58.2977 443.284 56.4275 444.346 53.4026C446.505 47.2501 452.796 43.897 462.178 43.897H465.3V37.0025V30.108L463.217 30.1367C462.072 30.1528 460.355 30.3369 459.403 30.5461ZM495.032 30.4102C490.996 30.9485 486.53 32.6673 483.11 34.9979C481.283 36.2435 478.184 39.3981 476.817 41.4041C471.579 49.09 469.887 61.5117 472.643 72.0496C473.509 75.3613 475.943 80.3992 477.959 83.0522C481.011 87.0699 486.374 90.5514 491.585 91.8987C494.892 92.7536 500.577 92.9484 503.901 92.3207C511.013 90.978 516.431 87.2087 519.823 81.2423L520.885 79.3751L520.963 85.6232L521.04 91.8714H527.498H533.956V61.4151V30.9589L527.564 31.0362L521.173 31.1134L521.029 37.4334L520.885 43.7534L519.776 41.677C517.744 37.8752 513.826 34.2642 509.703 32.3947C505.799 30.6245 499.655 29.7934 495.032 30.4102ZM571.848 30.4159C567.571 30.8698 563.096 32.3257 559.522 34.4265C553.351 38.0545 548.625 44.629 546.894 51.9961C543.43 66.7351 548.115 81.1941 558.539 87.9343C567.143 93.4988 579.997 94.3402 589.847 89.9837C595.709 87.3914 600.884 82.0275 603.339 75.9999C604.017 74.3326 605.197 70.1993 605.197 69.488C605.197 69.2735 603.11 69.1769 598.475 69.1769H591.752L591.159 71.1281C589.665 76.0485 585.539 79.8916 580.466 81.0872C579.454 81.3259 577.416 81.523 575.938 81.5253C571.022 81.5331 567.606 80.1513 564.254 76.7983C560.706 73.251 559.308 69.5492 559.029 62.9704C558.649 53.9981 560.942 48.1219 566.319 44.2843C567.331 43.5621 569.093 42.6382 570.233 42.2317C572.011 41.598 572.796 41.4911 575.753 41.4819C579.431 41.4704 581.357 41.87 583.945 43.1811C587.391 44.9275 590.053 48.0708 591.152 51.6907L591.752 53.6643H598.507H605.261L605.061 52.5939C604.706 50.7059 603.433 46.9651 602.539 45.1897C597.145 34.4696 585.675 28.9485 571.848 30.4159ZM216.344 42.0542C221.061 43.2711 225.524 46.9361 227.685 51.3661C229.196 54.4646 229.725 56.5269 229.932 60.1279C230.518 70.3082 225.093 78.5966 216.397 80.8071C214.164 81.3748 208.918 81.3696 206.49 80.7974C201.82 79.6965 197.464 76.234 195.487 72.0496C193.822 68.5283 193.429 66.5007 193.426 61.4206C193.422 56.312 193.929 53.9352 195.779 50.3736C197.807 46.4698 202.118 43.0837 206.373 42.0539C208.723 41.4851 214.138 41.4851 216.344 42.0542ZM507.396 42.0323C513.259 43.5164 518.126 48.1349 520.068 54.0575C520.716 56.0328 520.854 57.0414 520.962 60.5915C521.071 64.1798 521.002 65.1393 520.488 67.1988C519.55 70.9557 518.106 73.5371 515.43 76.2435C511.754 79.9608 508.478 81.2423 502.65 81.2423C492.831 81.2423 486.322 75.6842 484.811 66.0103C484.27 62.5478 484.613 56.6022 485.514 53.8079C486.524 50.6761 488.066 48.1909 490.3 46.0906C492.552 43.9746 494.429 42.9174 497.241 42.1806C499.894 41.4857 504.944 41.4118 507.396 42.0323Z" fill="white"/>
<path d="M0.136637 55.0508C0.222814 54.6194 14.9683 0 14.9683 0H32.5593C33.0767 0 34.3701 0.345146 35.7498 1.2943C37.1295 2.24345 37.4745 2.50231 37.9918 3.10631C38.5092 3.71032 52.0474 24.4191 52.3923 24.9368C52.7372 25.4545 54.0615 27.1803 54.4618 29.4237C54.8622 31.6671 54.6343 34.8597 54.4618 35.3775C54.2894 35.8952 48.6844 55.0508 48.6844 55.0508C48.6844 55.0508 48.5119 56.997 49.1156 58.0708C49.7192 59.1446 51.0126 59.4514 51.0126 59.4514C51.0126 59.4514 2.29239 59.624 1.86124 59.5377C1.43009 59.4514 0.395382 59.1063 0.136637 57.8982C-0.122108 56.6902 0.0504603 55.4822 0.136637 55.0508Z" fill="url(#paint0_linear_4991_4183)"/>
<path fill-rule="evenodd" clip-rule="evenodd" d="M22.0489 59.5295L9.54004 113.361C9.54004 113.361 63.5455 59.7868 65.3572 57.8026C67.1689 55.8184 67.514 52.5401 67.4277 51.5911C67.3414 50.6421 66.565 48.2266 64.0631 48.2266H50.7041C49.6109 51.9555 48.707 55.0427 48.707 55.0427C48.707 55.0427 48.5344 56.9886 49.1383 58.0622C49.7422 59.1358 51.0362 59.4425 51.0362 59.4425C51.0362 59.4425 35.6188 59.4971 22.0489 59.5295Z" fill="url(#paint1_linear_4991_4183)"/>
<path fill-rule="evenodd" clip-rule="evenodd" d="M51.0334 59.4418H52.072C52.9347 59.4418 54.2287 58.8379 55.264 58.0614C56.2992 57.285 57.9384 55.042 58.6286 54.093C58.8327 53.8123 59.0443 53.509 59.2702 53.1853C59.8081 52.4145 60.4268 51.528 61.2167 50.5559C62.3382 49.1755 64.1499 48.2266 64.1499 48.2266H50.7045C49.6113 51.9555 48.7074 55.0427 48.7074 55.0427C48.7074 55.0427 48.5348 56.9886 49.1387 58.0622C49.7251 59.1046 50.9621 59.4241 51.0334 59.4418Z" fill="white"/>
<path fill-rule="evenodd" clip-rule="evenodd" d="M37.7872 2.85938C37.8602 2.937 37.933 3.01882 38.0096 3.1082C38.4345 3.60387 47.6353 17.6413 51.1104 22.9431C51.8182 24.0229 52.2884 24.7404 52.3986 24.9073C51.1896 24.4715 48.9424 23.7514 46.2052 23.2952C42.0642 22.6051 37.0605 22.4325 37.0605 22.4325C37.0605 22.4325 39.9075 17.4288 39.9075 12.7702C39.9075 9.12895 38.4317 4.64441 37.7872 2.85938Z" fill="white"/>
<defs>
<linearGradient id="paint0_linear_4991_4183" x1="27.3423" y1="0" x2="27.3423" y2="59.5619" gradientUnits="userSpaceOnUse">
<stop offset="0.0794045" stop-color="white" stop-opacity="0.16"/>
<stop offset="0.920596" stop-color="white"/>
</linearGradient>
<linearGradient id="paint1_linear_4991_4183" x1="38.4899" y1="48.2266" x2="38.4899" y2="113.361" gradientUnits="userSpaceOnUse">
<stop offset="0.072611" stop-color="white" stop-opacity="0.16"/>
<stop offset="0.927389" stop-color="white"/>
</linearGradient>
</defs>
</svg>
