<svg width="218" height="48" viewBox="0 0 218 48" fill="none" xmlns="http://www.w3.org/2000/svg">
<path d="M64.8886 14.9739H57.6016V36.1192H53.8514V14.9739H46.5644V11.3103H64.8886V14.9739Z" fill="#0A3C20"/>
<path d="M76.8533 17.9097L75.8612 21.3814C74.9981 20.9106 74.0234 20.6779 73.0387 20.7077C70.7172 20.7077 69.363 22.3354 69.363 25.4876V36.1094H65.6823V17.5212H69.363V19.2915C69.849 18.6159 70.4925 18.0668 71.2388 17.6909C71.985 17.315 72.8119 17.1235 73.6489 17.1327C74.7726 17.0544 75.8929 17.3261 76.8533 17.9097Z" fill="#0A3C20"/>
<path d="M93.7538 36.1094H90.1475V34.2703C88.7965 35.6572 86.9479 36.4596 85.0035 36.5028C81.9676 36.5028 78.5052 34.8014 78.5052 30.233C78.5052 26.0924 81.7196 24.2139 85.946 24.2139C87.3727 24.1605 88.795 24.4017 90.1227 24.9221V23.5402C90.1227 21.5241 88.8727 20.3881 86.5859 20.3881C84.8787 20.3316 83.1881 20.7362 81.6948 21.5585L80.2662 18.7948C82.2063 17.6293 84.4478 17.0515 86.7149 17.1327C90.8916 17.1327 93.7489 19.1489 93.7489 23.3632L93.7538 36.1094ZM90.1475 30.8378V28.1775C88.8037 27.5748 87.3349 27.2968 85.8617 27.3661C83.5054 27.3661 82.0024 28.4283 82.0024 30.1248C82.0024 31.9689 83.183 33.2081 85.6136 33.2081C86.4988 33.1752 87.3652 32.945 88.1484 32.5347C88.9316 32.1243 89.6115 31.5444 90.1376 30.8378H90.1475Z" fill="#0A3C20"/>
<path d="M103.422 12.7856C103.419 13.2516 103.277 13.7063 103.013 14.0922C102.749 14.478 102.376 14.7776 101.94 14.953C101.505 15.1284 101.026 15.1718 100.566 15.0777C100.105 14.9835 99.6835 14.756 99.3535 14.4241C99.0235 14.0921 98.8002 13.6706 98.712 13.2128C98.6238 12.755 98.6745 12.2815 98.8578 11.8523C99.0411 11.4231 99.3488 11.0575 99.7418 10.8017C100.135 10.5459 100.596 10.4114 101.066 10.4153C101.695 10.4205 102.297 10.673 102.738 11.1174C103.18 11.5617 103.426 12.1617 103.422 12.7856ZM102.886 36.1192H99.2104V17.5211H102.886V36.1192Z" fill="#0A3C20"/>
<path d="M112.351 36.1094H108.675V12.2102L112.351 10.2973V36.1094Z" fill="#0A3C20"/>
<path d="M143.428 36.1094H139.748V25.5958C139.748 21.8437 138.567 20.4963 136.141 20.4963C133.716 20.4963 132.53 22.2322 132.53 25.2417V36.1094H128.854V25.5958C128.854 21.8437 127.674 20.4963 125.248 20.4963C122.822 20.4963 121.637 22.2322 121.637 25.2417V36.1094H117.961V17.5212H121.637V19.2915C122.145 18.5954 122.818 18.0343 123.596 17.6577C124.375 17.2812 125.236 17.1008 126.101 17.1327C128.641 17.1327 130.248 18.0867 131.245 19.857C132.605 18.1949 134.068 17.1327 137 17.1327C141.355 17.1327 143.448 19.9652 143.448 25.4531L143.428 36.1094Z" fill="#0A3C20"/>
<path d="M163.925 26.4465C163.925 27.1153 163.856 27.7201 163.821 28.1086H151.42C151.812 31.6837 153.851 33.2081 156.137 33.2081C157.623 33.188 159.057 32.6678 160.205 31.7328L162.388 34.0736C160.741 35.6324 158.776 36.5323 155.939 36.5323C151.549 36.5323 147.833 33.0261 147.833 26.8645C147.833 20.5602 151.192 17.1622 156.048 17.1622C161.356 17.1327 163.925 21.4159 163.925 26.4465ZM160.225 25.0794C160.046 22.5321 158.836 20.4078 155.8 20.4078C153.32 20.4078 151.832 22.1043 151.509 25.0794H160.225Z" fill="#0A3C20"/>
<path d="M179.64 17.9096L178.678 21.3814C177.815 20.9112 176.84 20.6786 175.855 20.7077C173.534 20.7077 172.175 22.3354 172.175 25.4875V36.1094H168.499V17.5211H172.175V19.2914C172.661 18.6165 173.305 18.0678 174.051 17.692C174.797 17.3162 175.624 17.1243 176.461 17.1327C177.576 17.0583 178.687 17.3298 179.64 17.9096Z" fill="#0A3C20"/>
<path d="M197.354 34.3391C197.354 40.0041 195.286 42.7333 188.5 42.9448L187.25 40.1811C192.533 39.9353 193.698 38.519 193.698 34.6588V34.3391C192.339 35.5783 190.806 36.5028 188.837 36.5028C184.839 36.5028 181.625 33.5966 181.625 26.5153C181.625 20.1225 185.161 17.1327 189.016 17.1327C189.901 17.1521 190.773 17.3505 191.578 17.7158C192.383 18.0811 193.105 18.6056 193.698 19.2571V17.5212H197.374L197.354 34.3391ZM193.748 30.7641V22.9403C192.93 21.8437 191.213 20.4815 189.353 20.4815C186.714 20.4815 185.285 22.4485 185.285 26.3826C185.285 31.0591 186.774 33.1097 189.497 33.1097C191.248 33.1343 192.786 31.964 193.748 30.7641Z" fill="#0A3C20"/>
<path d="M218 26.4465C218 27.1153 217.926 27.7201 217.891 28.1086H205.49C205.881 31.6837 207.915 33.2081 210.202 33.2081C211.689 33.1887 213.125 32.6685 214.275 31.7328L216.452 34.0736C214.81 35.6324 212.846 36.5323 210.004 36.5323C205.609 36.5323 201.893 33.0261 201.893 26.8645C201.893 20.5602 205.251 17.1622 210.113 17.1622C215.425 17.1327 218 21.4159 218 26.4465ZM214.294 25.0794C214.116 22.5321 212.901 20.4078 209.865 20.4078C207.384 20.4078 205.896 22.1043 205.579 25.0794H214.294Z" fill="#0A3C20"/>
<path d="M7.11836 14.846C7.87359 15.0025 8.60895 15.2416 9.31091 15.5591C9.87762 14.0964 10.5507 12.6764 11.3249 11.3103C12.8446 8.61304 14.7251 6.13181 16.9154 3.93402C14.6633 2.53744 12.2773 1.23921 9.83672 -2.69106e-06C9.34067 -0.240962 6.31475 8.16801 4.12716 14.6395C5.12906 14.5743 6.13524 14.6438 7.11836 14.846Z" fill="#0A3C20"/>
<path d="M26.1221 29.0527C23.4722 29.0886 20.8475 28.5393 18.4383 27.4447C15.3627 26.0137 13.4777 24.0024 11.7812 22.1977C11.6424 22.0436 11.5035 21.8961 11.3646 21.7551C10.8876 24.5899 10.9297 27.4867 11.4886 30.3067C13.1107 38.6419 18.5623 43.8102 22.4017 46.5051C29.2423 43.4562 32.5262 35.6865 33.0768 29.456C33.1214 28.9888 33.1462 28.5315 33.1611 28.0791C30.8666 28.7018 28.5009 29.029 26.1221 29.0527Z" fill="#0A3C20"/>
<path d="M19.976 6.05348C17.8099 8.10767 15.9702 10.4753 14.5194 13.0757C13.6793 14.5424 12.9705 16.0792 12.4013 17.6687C13.1255 18.3227 13.7903 19.0259 14.445 19.7242C15.9679 21.347 17.5454 23.0288 19.976 24.15C23.4484 25.7679 27.7938 25.8318 32.9478 24.3516C31.8912 16.4836 26.643 10.5825 19.6982 5.7486L19.976 6.05348Z" fill="#0A3C20"/>
<path d="M16.8656 46.7165C12.2302 42.5762 9.08027 37.0526 7.89202 30.9804C7.12211 27.03 7.22875 22.9609 8.20453 19.0554C7.63213 18.7418 7.01492 18.5163 6.3741 18.3866C5.20765 18.1585 4.0046 18.1904 2.85213 18.4801C2.32631 20.1127 1.96419 21.3175 1.86002 21.7453C0.515723 28.4037 -2.27209 37.4224 3.40771 43.3824C3.50692 43.4857 3.60613 43.589 3.7103 43.6873C7.30668 47.228 12.8575 48.5803 18.0363 47.7492C17.6642 47.4394 17.2674 47.0903 16.8656 46.7165Z" fill="#0A3C20"/>
</svg>
