<svg width="585" height="496" viewBox="0 0 585 496" fill="none" xmlns="http://www.w3.org/2000/svg">
<g clip-path="url(#clip0)">
<g clip-path="url(#clip1)">
<path d="M708.344 67.2809C775.07 205.53 792.094 351.309 481.367 464.795C352.722 511.824 254.787 481.637 175.37 450.191C102.646 421.38 39.879 322.067 17.6202 252.336C-28.945 106.458 94.9035 -23.064 287.601 -76.1495C490.544 -132.088 625.56 -104.269 708.344 67.2809Z" fill="#FCEEDE"/>
</g>
<g clip-path="url(#clip2)">
<path d="M675.789 166.438C692.297 280.867 670.738 389.317 417.26 399.573C312.306 403.851 247.796 359.78 197.108 319.045C150.696 281.733 128 196.136 128 141.029C128 25.7446 248.687 -38.7953 401.849 -32.7531C563.162 -26.4114 655.315 24.4505 675.789 166.438Z" fill="#A5DEDA"/>
</g>
<path d="M643.087 125.372C652.568 196.762 640.186 264.422 494.607 270.82C434.33 273.489 397.28 245.994 368.169 220.581C341.513 197.302 328.479 143.9 328.479 109.519C328.479 37.596 397.792 -2.66922 485.757 1.10043C578.403 5.05689 631.328 36.7886 643.087 125.372Z" fill="#EA5B47"/>
</g>
<defs>
<clipPath id="clip0">
<rect width="585" height="496" fill="white"/>
</clipPath>
<clipPath id="clip1">
<rect width="719.777" height="575.145" fill="white" transform="translate(-52.7363 31.9238) rotate(-17.7034)"/>
</clipPath>
<clipPath id="clip2">
<rect width="552" height="433" fill="white" transform="translate(128)"/>
</clipPath>
</defs>
</svg>
