<svg width="300" height="300" viewBox="0 0 300 300" fill="none" xmlns="http://www.w3.org/2000/svg">
<g clip-path="url(#clip0)">
<path opacity="0.8" d="M240.586 251.767C245.294 241.809 248.505 227.139 243.446 215.426C227.066 199.743 221.053 210.762 218.234 213.583C215.415 216.405 215.91 222.953 212.754 232.305C209.598 241.656 206.267 241.582 203.089 246.126C199.911 250.67 187.456 248.727 177.392 257.476C167.327 266.225 166.914 273.266 167.2 277.695C167.486 282.124 167.792 288.54 171.049 291.945C174.306 295.35 175.591 292.302 186.133 290.935C196.675 289.567 194.856 284.912 201.289 280.953C207.722 276.994 211.434 280.153 219.626 274.887C227.819 269.622 235.878 261.725 240.586 251.767Z" fill="#FCEEDE"/>
<path opacity="0.4" d="M138.388 145.856C141.462 131.438 147.097 120.883 155.037 111.615C164.77 104.921 170.149 100.287 180.65 102.604C191.152 104.921 194.994 115.992 190.64 130.151C186.285 144.311 180.65 145.856 178.089 153.836C175.528 161.817 178.089 172.115 186.798 179.581C195.506 187.047 194.738 203.267 194.994 215.109C195.25 226.952 187.566 233.646 178.089 245.488C168.612 257.331 155.037 255.529 141.975 259.39C128.912 263.252 95.3584 248.063 86.9061 233.646C78.4538 219.228 89.9796 212.535 101.762 203.267C113.544 193.998 113.544 196.316 126.094 179.581C138.645 162.847 135.315 160.273 138.388 145.856Z" fill="#EA5B47"/>
<path opacity="0.64" d="M117.196 98.8471C97.6566 126.312 107.951 132.165 105.021 145.426C99.0932 182.246 71.2542 153.398 61.0054 138.679C50.7567 123.96 50.6382 117.418 57.1361 93.6033C63.634 69.7882 80.5634 56.9366 102.95 38.511C125.337 20.0855 139.218 35.0896 143.498 53.2174C147.778 71.3451 136.735 71.382 117.196 98.8471Z" fill="#A5DEDA"/>
<path d="M208.092 231.286C207.04 232.872 205.989 234.457 204.675 236.306C206.778 237.892 209.406 238.156 211.772 238.42C215.452 238.949 218.869 239.477 222.548 239.741C223.6 240.006 224.651 240.27 225.703 240.27C227.017 240.27 228.068 240.006 229.12 241.062C229.645 241.591 230.96 241.591 232.011 241.327C234.377 240.534 236.479 241.855 238.845 242.119C240.422 242.383 241.211 243.969 240.948 245.818C240.685 247.932 240.159 249.782 239.634 252.16C238.056 252.688 236.216 253.745 234.377 253.481C231.485 253.217 228.857 254.273 225.965 254.538C223.074 254.538 220.183 253.745 217.291 254.273C210.983 255.066 204.938 254.009 198.892 252.952C193.372 251.895 187.327 251.631 182.07 248.989C179.179 247.668 176.024 246.083 173.922 243.44C172.345 241.591 170.505 240.534 168.139 241.591C164.459 242.912 160.779 244.761 156.311 246.611C160.254 249.517 163.145 252.16 166.299 253.745C169.979 255.595 173.922 256.651 177.864 257.708C182.596 258.765 187.59 259.294 192.321 260.086C193.372 260.35 194.424 260.35 195.475 260.35C199.681 260.615 203.886 261.143 208.092 261.407C209.406 261.407 210.457 261.407 211.772 261.407C217.029 260.615 222.286 262.2 227.543 262.2C233.062 262.2 238.319 263.257 243.839 262.2C244.102 262.2 244.628 262.2 244.89 262.2C247.519 261.672 249.359 262.728 248.833 265.899C248.045 270.391 246.73 274.883 245.679 279.374C245.679 279.903 245.153 280.167 244.89 280.431C241.211 280.96 237.531 281.224 233.851 281.752C230.96 282.281 228.068 283.338 225.177 282.017C223.6 281.488 221.76 281.752 219.92 281.752C215.452 281.752 210.72 281.488 206.252 281.488C205.989 281.488 205.726 281.488 205.463 281.488C200.469 278.846 195.212 279.639 189.693 279.11H189.43C184.436 278.053 179.441 276.996 174.447 275.939C170.505 275.147 166.562 274.09 162.619 273.033C161.042 272.505 159.728 271.976 158.151 271.183C153.945 268.806 150.528 265.899 146.848 263.257C143.694 261.143 141.066 258.501 138.437 255.859C136.86 254.273 135.02 252.952 133.443 251.367C132.917 250.839 132.392 250.046 131.866 249.253C130.552 246.875 129.238 244.233 128.186 241.855C127.135 239.477 124.769 240.27 122.929 240.006C120.301 239.477 117.409 240.006 114.518 240.006C112.678 240.006 111.364 240.534 110.838 242.648C110.313 244.233 109.261 245.554 108.21 246.875C104.53 251.103 102.427 256.387 99.5358 261.143C99.0101 262.2 98.4845 262.993 97.6959 264.05C96.9074 265.106 95.856 265.635 94.5417 265.371C92.1761 264.842 89.8105 264.578 87.4449 265.635C86.6564 265.899 85.8678 265.899 84.8164 265.899C82.7136 265.899 81.3994 265.106 81.6622 262.993C81.9251 261.143 82.4508 259.294 83.2393 257.444C84.0279 255.595 85.0793 253.745 86.1307 251.631C83.5022 251.631 81.3994 251.367 79.2966 251.631C74.3025 252.424 69.3084 253.217 64.3143 254.009C60.6344 254.538 56.9546 255.066 53.2747 255.33C51.6976 255.594 49.8577 255.33 48.2806 255.859C44.075 257.444 40.3952 255.859 36.7153 254.273C35.4011 253.745 33.824 253.745 32.7726 252.16C31.984 250.839 31.4584 249.782 31.9841 248.196C32.7726 246.083 33.5611 243.969 34.0868 241.591C35.4011 237.363 36.7153 236.571 40.9209 236.835C42.498 236.835 44.3379 236.306 45.915 236.306C49.8577 236.306 53.8004 236.571 57.7431 236.835C59.3202 236.835 61.1601 237.363 62.7372 237.099C65.8913 236.835 69.0455 236.306 72.4626 235.778C72.7254 235.778 72.9882 235.514 73.2511 235.778C76.9309 238.156 80.6108 235.514 84.2907 236.042C87.9706 236.571 91.6504 235.514 95.5931 235.514C99.5358 235.514 103.741 235.514 107.684 235.778C109.787 236.042 110.838 235.25 111.627 233.4C112.678 231.286 113.992 229.437 115.307 227.587C116.621 225.738 116.358 224.152 114.255 223.095C113.204 222.567 112.153 222.303 111.101 222.039C106.896 221.246 103.216 218.868 99.0102 218.075C94.2789 217.018 90.0733 214.64 85.0792 214.376C79.8223 214.112 74.5653 213.055 69.3084 212.262C67.4684 211.998 65.8914 209.62 66.4171 206.978C67.2056 203.015 68.257 199.316 69.3084 195.617C69.5712 194.824 70.3597 194.295 70.6226 193.767C74.8282 195.617 79.0338 197.73 83.2393 199.051C86.3935 200.108 89.8105 200.637 93.2275 201.165C97.433 201.694 101.639 201.694 105.581 203.543C107.158 204.336 108.998 204.336 111.364 203.543C108.473 200.637 105.581 197.994 102.69 195.352C97.6959 191.125 93.7532 186.369 92.1761 180.028C91.9133 179.235 91.3876 178.178 91.1247 177.385C90.3362 174.743 89.2848 172.101 90.599 169.195C91.3876 166.817 91.6504 164.174 91.9133 161.532C92.1761 158.361 93.7532 155.455 95.3303 152.813C96.1189 151.756 96.3817 150.435 97.4331 149.378C100.324 146.207 99.273 143.037 97.6959 139.866C95.3303 135.903 95.0674 131.675 95.856 127.183C96.3817 123.749 96.9073 120.314 98.2216 117.143C100.062 112.651 101.639 108.16 104.004 103.932C106.37 99.1761 109.524 94.6844 111.364 89.6642C112.941 85.7009 112.941 81.2092 112.153 76.7174C113.992 75.9248 115.57 75.9248 117.409 76.9817C119.512 78.3028 121.089 79.8881 122.666 81.7376C127.135 85.9651 128.975 91.5138 132.129 96.2697C136.335 102.347 136.597 109.745 136.072 116.879C135.809 119.785 135.546 122.692 135.546 125.598C135.546 127.448 135.283 129.033 135.283 130.883C134.495 135.903 133.443 140.923 133.18 145.943C133.18 148.321 134.495 150.963 135.283 153.606C138.7 151.756 139.751 148.321 140.803 145.415C141.854 142.508 142.38 139.073 143.431 136.167C144.746 132.468 145.797 128.505 144.22 124.277C143.957 123.749 143.957 123.22 144.22 122.956C145.271 120.314 144.22 117.936 143.957 115.294C143.694 113.18 143.169 111.33 143.431 109.217C143.431 104.989 144.483 100.497 143.957 96.534C143.169 91.2495 145.534 86.2294 145.797 81.2092C146.06 76.9816 148.425 73.0184 149.74 68.7908C150.003 67.7339 150.528 66.4128 150.791 65.356C151.054 64.0349 151.842 63.2422 153.42 63.2422C154.734 63.5064 155.259 64.2991 154.997 65.6202C154.997 66.4128 154.734 67.2055 154.734 67.9982C154.208 72.2257 154.208 76.4532 154.997 80.6807C156.048 87.022 158.414 93.0991 161.305 98.6477C163.933 103.668 166.825 108.688 169.716 114.237C174.973 109.217 177.864 102.611 184.173 99.1762C184.436 99.4404 184.961 99.4404 185.487 99.7046C186.013 100.233 186.275 100.761 186.538 101.29C185.487 106.046 184.436 110.273 183.647 114.765C183.384 116.086 183.91 117.672 184.173 118.993C184.173 119.785 184.698 120.842 184.436 121.371C183.647 124.541 184.961 126.919 185.75 129.826C187.064 133.525 188.641 136.96 190.218 140.923C193.898 138.017 196.789 134.582 198.629 130.09C199.681 127.712 200.206 125.07 200.995 122.428C201.258 121.899 201.258 121.106 201.521 120.842C202.309 120.314 203.361 119.521 204.149 119.521C204.938 119.521 205.989 120.578 205.989 121.371C206.252 124.013 207.566 126.655 207.04 129.561C206.515 131.411 207.04 133.525 207.04 135.374C207.04 138.809 206.778 142.244 205.726 145.415C205.201 147.264 205.2 149.642 204.675 151.492C203.623 154.398 202.309 157.305 200.995 160.211C198.366 165.231 196.001 170.251 196.264 176.328C196.264 178.706 196.264 180.82 196.527 183.198C196.527 183.727 197.052 184.255 197.315 185.048C197.841 184.784 198.629 184.784 198.629 184.519C201.521 180.028 205.989 176.857 209.406 172.629C212.823 168.402 215.452 163.91 215.189 158.361C215.189 156.776 215.452 155.455 215.714 153.87C215.714 152.549 216.503 151.492 217.817 151.756C218.606 152.02 219.92 152.813 220.183 153.606C220.709 155.191 220.971 157.305 220.971 158.89C221.234 160.739 221.234 162.589 221.234 164.174C221.234 165.495 221.234 166.817 220.971 168.138C220.708 170.251 220.709 172.365 220.183 174.215C219.394 177.385 218.869 180.292 217.817 183.198C216.766 186.105 214.926 188.483 213.612 191.389C212.297 194.031 209.932 195.881 207.829 197.73C204.938 200.373 201.521 201.958 197.578 202.75C193.635 203.543 189.43 204.072 185.75 205.657C181.281 207.506 177.076 206.185 172.607 205.393C171.556 205.128 170.505 204.864 169.716 204.336C168.139 203.543 166.562 202.75 164.985 201.958C164.196 201.429 163.145 200.637 162.619 199.58C161.042 197.202 159.991 194.56 158.414 192.446C154.734 187.954 153.945 182.406 151.843 177.65C151.317 176.593 150.528 175.536 149.74 173.95C148.951 175.8 148.425 177.121 147.9 178.442C146.323 182.67 143.694 186.369 141.591 190.332C140.54 191.917 140.803 193.239 141.854 194.295C143.694 195.881 145.797 197.466 147.9 199.051C148.951 199.844 150.003 200.901 151.054 201.694C153.42 203.279 156.311 204.864 158.414 206.714C160.516 208.563 162.094 210.677 164.196 212.791C166.299 214.64 168.665 215.961 170.505 218.075C173.396 221.51 176.55 221.51 180.23 219.396C182.07 218.339 184.436 218.075 186.275 217.018C187.853 216.226 189.167 215.697 191.007 215.433C192.584 215.169 194.161 214.376 195.212 213.319C197.315 210.941 199.944 210.149 202.572 209.092C207.303 207.506 212.297 206.185 217.029 204.864C217.817 204.6 218.343 204.864 219.131 204.864C220.971 204.6 222.811 204.336 224.651 203.279C227.28 201.694 230.434 200.901 233.325 200.108C234.639 199.844 235.691 200.637 235.691 202.222C235.954 204.6 236.216 206.714 236.216 209.092C236.479 211.998 235.428 212.791 232.537 213.848C229.12 214.905 225.965 216.49 222.811 217.547C219.394 218.604 215.977 219.661 212.56 220.717C209.932 221.51 207.04 222.039 204.149 222.567C203.098 222.831 201.784 222.831 200.469 223.095C199.944 223.095 199.155 223.624 199.155 223.888C198.892 224.417 199.155 225.473 199.681 225.738C200.995 226.53 202.309 227.587 203.886 227.851C206.252 228.38 207.303 229.172 208.092 231.286ZM203.098 132.468C200.469 136.431 198.629 140.395 195.475 143.037C194.424 143.829 193.635 144.886 192.584 145.943C191.007 147.793 190.481 149.906 189.955 152.549C189.43 157.04 189.692 161.796 186.275 165.495C186.013 165.76 186.013 166.552 185.75 166.817C182.858 170.78 179.967 174.479 177.076 178.442C177.076 178.442 176.813 178.442 176.813 178.706C174.71 180.028 172.607 179.235 172.082 177.121C171.819 176.064 171.556 174.479 172.082 173.422C173.659 169.723 173.396 165.231 176.024 161.796C178.39 158.626 179.441 154.662 182.333 151.756C185.75 148.321 186.538 141.187 184.698 137.488C183.121 134.582 182.07 131.675 180.493 128.769C179.179 126.655 179.967 124.541 179.967 122.428C179.704 118.464 179.967 114.765 179.967 110.273C177.076 113.972 173.922 117.407 172.607 121.899C172.345 122.428 172.607 123.22 172.607 123.749C172.87 125.862 173.133 127.976 173.396 130.354C173.922 135.11 174.447 139.602 170.767 143.829C169.19 145.415 167.876 145.943 165.773 145.679C163.408 145.415 162.882 143.829 162.619 141.98C162.356 140.659 162.619 139.073 162.619 137.752C162.882 136.167 163.671 134.582 163.671 133.261C163.408 130.618 164.459 128.505 165.511 126.391C168.139 122.163 167.088 117.936 164.985 113.972C161.831 108.16 158.677 102.611 155.785 96.7982C154.208 93.6275 153.682 90.1927 152.631 86.7578C152.368 85.4367 151.842 84.3798 151.317 82.7945C150.791 83.3229 150.528 83.3229 150.528 83.5872C149.74 90.4569 148.688 97.5908 148.163 104.461C147.9 107.367 148.163 110.538 148.951 113.444C150.528 120.314 150.528 127.448 149.214 134.317C148.425 139.073 146.848 144.094 145.271 148.85C144.483 150.963 143.694 153.341 142.117 154.927C140.54 156.512 139.226 158.097 138.174 159.947C136.86 162.325 134.495 162.325 133.443 159.947C132.129 157.305 131.34 154.662 130.815 151.756C129.238 143.565 131.078 135.374 131.866 127.183C134.232 123.749 133.18 119.785 133.18 116.086C133.443 109.745 132.917 103.139 129.238 97.5908C127.661 95.2128 126.609 92.3064 125.032 89.9284C123.455 87.5505 121.089 85.4367 118.987 82.7945C118.724 84.1156 118.461 84.9082 118.198 85.4367C117.672 87.2862 117.147 89.4 116.358 91.2495C115.57 93.3633 113.992 95.2128 112.941 97.0624C110.05 102.611 107.158 108.424 104.53 114.237C104.004 115.294 103.741 116.35 103.479 117.407C102.69 120.314 102.164 123.22 101.639 126.127C101.376 127.183 101.113 128.24 101.376 129.297C102.164 132.732 102.953 136.167 103.741 139.866C103.741 140.13 104.53 140.394 104.793 140.659C109.787 135.639 111.627 129.561 114.255 123.484C116.884 117.407 116.358 110.538 117.409 104.196C120.564 103.932 121.615 104.196 121.352 106.046C121.089 108.952 122.929 111.594 121.615 114.501C121.352 115.294 121.878 116.615 121.878 117.672C121.878 118.464 122.404 119.521 122.141 120.05C121.089 122.428 121.878 124.806 121.878 127.183C122.141 133.525 122.404 139.602 122.666 145.943C122.666 147.793 122.666 149.906 123.192 151.756C124.243 156.512 125.558 161.268 126.609 166.024C127.135 167.873 126.609 169.723 123.981 170.78C121.878 169.194 119.512 167.609 117.672 165.495C114.781 162.589 112.415 159.154 109.787 155.983C107.947 153.606 105.844 151.492 103.479 149.114C102.69 150.435 102.427 151.228 101.902 152.284C100.062 155.983 97.6959 159.418 96.3817 163.117C94.5418 168.402 95.3303 173.686 97.6959 178.706C99.0102 181.613 99.5358 185.048 102.69 186.897C103.216 187.161 103.216 188.218 103.479 188.747C103.741 189.275 104.004 189.804 104.53 190.068C106.896 191.917 108.998 193.767 111.627 195.352C114.255 196.938 116.358 199.051 118.198 201.429C120.301 204.072 122.404 206.714 126.083 207.242C127.66 207.506 129.5 207.771 130.815 208.563C133.706 210.149 136.597 210.413 139.752 210.677C142.38 210.941 144.22 212.527 146.323 214.112C148.425 215.961 150.265 217.811 152.368 219.661C154.471 221.51 156.574 223.095 158.676 224.681C159.465 225.209 161.042 225.738 162.094 225.473C164.459 224.945 166.562 224.152 169.19 223.36C168.139 220.982 166.562 219.925 164.722 218.868C164.196 218.604 163.408 218.339 163.145 218.075C161.305 216.226 159.991 213.848 157.888 212.262C155.522 210.149 152.631 208.035 150.003 206.185C147.9 204.6 146.06 203.015 143.694 201.958C140.54 200.372 139.226 197.202 136.597 195.088C135.809 194.295 135.546 191.917 135.809 190.861C136.334 188.747 137.912 186.897 138.963 185.312C143.168 179.235 145.797 172.629 146.586 164.967C146.586 163.646 147.374 162.325 147.637 161.004C151.054 162.325 151.58 162.853 151.843 165.76C151.843 167.081 151.842 168.402 152.631 169.195C155.522 172.894 157.099 177.121 158.414 181.349C160.254 186.633 163.933 190.861 167.35 195.352C167.613 195.881 168.402 195.881 168.928 196.145C169.453 196.409 170.242 196.673 170.767 197.202C172.607 199.051 174.973 199.844 177.602 200.108C183.647 200.901 189.43 198.787 195.212 197.202C197.315 196.673 199.681 196.145 201.521 195.088C206.515 192.182 210.983 188.747 213.086 182.934C214.4 179.235 216.24 175.536 216.503 170.516C215.452 171.572 214.663 172.101 214.137 172.894C212.823 174.479 212.035 176.328 210.72 177.914C208.355 180.556 206.515 183.727 203.361 185.312C202.046 186.105 200.995 187.426 200.206 188.747C199.418 190.596 198.104 190.861 196.264 190.596C193.635 187.426 192.321 183.727 192.321 179.499C192.321 176.593 192.847 173.422 192.847 170.516C192.847 166.817 194.161 163.382 195.738 160.211C197.052 157.569 198.366 154.927 199.681 152.02C200.469 150.171 201.258 148.321 201.784 146.207C202.309 143.829 202.309 141.187 202.835 138.809C203.361 137.752 203.098 135.639 203.098 132.468ZM245.153 265.371C244.102 265.635 243.576 265.899 243.05 265.899C238.056 265.635 233.062 267.484 228.331 265.106C228.068 264.842 227.543 265.106 227.28 265.371C224.388 265.371 221.76 265.899 218.869 265.371C216.766 265.106 214.663 266.428 212.823 265.899C209.932 264.842 207.303 266.428 204.675 265.371C204.412 265.371 204.149 265.371 203.886 265.371C200.469 265.371 197.052 265.371 193.372 265.106C191.27 265.106 188.904 264.314 186.801 264.05C185.75 263.785 184.436 263.785 183.384 263.521C181.281 263.257 179.179 262.993 177.076 262.464C174.71 261.936 172.345 261.143 170.242 260.35C166.562 259.029 162.619 257.973 159.991 254.538C159.728 254.273 159.202 254.009 158.939 254.009C157.099 252.952 155.259 251.895 153.42 250.839C151.842 250.046 151.842 248.461 152.105 247.139C152.631 244.761 153.682 242.648 156.311 241.591C159.202 240.27 162.094 238.684 164.722 237.363C163.408 236.042 162.356 234.721 161.042 233.664C160.254 233.136 158.939 232.872 158.151 232.872C156.574 233.136 155.259 233.664 153.682 234.193C149.477 235.25 145.534 236.306 141.329 237.628C138.963 238.42 136.597 239.213 134.232 240.006C134.232 242.648 135.283 244.497 136.597 246.083C141.854 252.16 147.374 257.973 154.208 262.464C159.465 265.899 164.985 269.07 171.293 270.655C173.133 271.183 174.973 271.448 176.55 271.712C184.698 273.033 192.847 274.354 200.995 275.675C204.149 276.204 207.303 276.204 210.195 276.732C215.189 277.789 220.183 278.582 225.44 278.582C226.754 278.582 228.331 278.317 229.382 278.582C231.748 279.374 233.851 278.846 236.216 278.317C236.742 278.053 237.531 277.789 238.056 278.053C242.262 278.317 243.576 276.204 244.365 272.505C244.89 269.862 244.89 267.749 245.153 265.371ZM108.21 240.27C104.53 240.27 101.639 240.27 98.4844 240.27C94.5417 240.006 90.599 239.477 86.9192 240.798C86.6563 240.798 86.3935 240.798 86.1307 240.798C81.9251 240.798 77.7195 240.798 73.2511 240.798C68.257 240.798 63.0001 241.062 58.006 240.798C52.4862 240.798 46.9663 240.534 41.7094 241.591C39.3438 242.119 36.4524 247.404 37.7667 249.517C38.0295 250.046 38.5552 250.31 39.0809 250.574C41.9722 251.103 44.6007 252.16 47.4921 252.16C50.6462 252.16 54.0633 251.367 57.2174 250.839C58.7945 250.574 60.3716 250.046 62.2115 249.782C67.2056 248.989 72.4625 248.725 77.4566 247.668C82.7136 246.611 87.4449 245.554 92.439 247.932C92.9647 249.782 93.2275 251.103 91.9133 252.952C90.3362 254.802 89.5477 257.18 88.4963 259.294C88.2334 259.822 88.7591 260.615 88.7591 261.143C94.5418 261.407 95.0675 261.143 97.9588 256.916C98.7473 255.595 99.7987 254.538 100.324 253.217C101.901 249.253 104.267 245.818 106.896 242.384C107.421 241.591 107.684 241.062 108.21 240.27ZM235.954 247.404C234.114 246.083 232.011 246.083 230.171 245.818C228.857 245.818 227.543 245.554 226.228 245.29C221.234 244.761 215.977 243.969 210.983 243.705C208.88 243.705 207.04 243.44 204.938 242.648C202.572 241.855 200.469 240.006 197.578 241.062C197.052 241.327 196.264 240.534 195.738 240.27C192.584 239.213 189.693 237.628 186.013 237.892C184.698 237.892 183.384 237.363 182.07 237.628C179.967 237.892 177.602 236.835 176.024 240.006C176.55 240.27 177.339 240.798 177.864 241.062C181.019 243.705 184.698 245.026 188.641 245.818C190.481 246.083 192.058 247.139 193.898 247.404C197.315 247.932 200.995 247.932 204.149 248.989C209.406 250.574 214.663 250.574 220.183 250.31C223.863 250.31 227.542 250.31 230.96 249.782C232.799 249.517 234.902 249.782 235.954 247.404ZM153.682 228.644C150.003 225.473 146.586 222.303 143.168 219.132C142.38 218.604 141.591 218.075 140.54 217.811C137.123 216.754 133.969 215.697 130.552 214.64C128.449 214.112 126.609 213.584 124.506 212.791C124.506 215.433 124.506 218.075 124.506 220.453C128.712 223.624 129.238 224.417 130.026 228.116C130.289 229.173 130.552 230.229 130.815 231.286C131.603 233.928 133.18 235.514 136.597 233.928C137.123 233.664 137.386 233.664 137.912 233.4C143.957 232.872 148.688 231.022 153.682 228.644ZM230.96 205.657C228.594 206.185 226.491 206.714 224.651 207.506C220.446 209.62 215.977 210.149 211.509 211.47C206.778 212.791 202.046 214.376 197.841 216.754C191.795 219.925 185.487 222.567 179.179 225.473C180.493 227.851 182.858 229.172 184.961 230.229C187.327 231.286 189.955 232.079 192.321 232.872C193.898 233.4 195.738 234.193 197.315 234.721C199.944 235.25 199.944 235.25 201.258 232.079C200.206 231.55 199.418 231.286 198.366 230.758C195.738 229.965 194.161 227.851 194.424 224.945C194.949 220.717 194.687 220.453 198.629 219.132C201.521 218.339 204.675 218.075 207.566 217.547C212.823 217.018 217.292 213.584 222.811 214.112C223.074 214.112 223.337 213.848 223.6 213.848C225.703 212.791 227.805 211.47 229.908 210.413C232.537 209.092 232.537 208.828 230.96 205.657ZM72.9883 208.035C74.5654 207.771 75.8795 207.506 77.1938 207.506C81.925 208.299 86.9191 209.092 91.6504 210.149C96.6445 211.206 101.639 212.262 106.37 214.112C110.838 215.961 115.307 216.754 119.512 218.339C120.564 215.433 120.564 213.055 119.249 211.206C118.724 210.677 118.198 210.149 117.409 210.149C115.307 210.413 113.467 209.356 111.627 208.563C107.421 206.978 102.69 207.242 98.4844 205.657C96.3817 206.714 94.8046 204.864 92.9646 204.6C87.7077 204.336 80.8737 202.486 76.1424 199.844C75.091 199.316 73.7768 199.051 73.5139 200.373C72.7254 203.015 71.4112 205.393 72.9883 208.035ZM119.512 161.796C118.987 150.171 118.198 138.809 117.672 127.448C117.409 127.448 117.147 127.183 116.884 127.183C114.781 134.317 110.313 140.13 106.107 145.943C107.421 147.264 108.736 148.057 109.261 149.378C110.575 153.077 113.467 155.455 115.832 158.361C116.621 159.683 117.672 161.268 119.512 161.796ZM116.621 235.514C120.301 236.042 123.718 236.835 126.609 234.985C127.398 232.343 126.083 228.38 124.244 226.795C123.192 226.002 121.878 226.266 120.826 227.851C119.512 230.229 118.198 232.607 116.621 235.514ZM178.39 231.815C176.813 230.494 175.236 229.437 173.922 228.38C171.293 229.172 168.928 229.965 166.299 230.758C169.979 236.835 172.87 236.042 178.39 231.815ZM178.916 167.609C182.596 164.967 184.698 160.475 184.173 157.305C181.807 160.475 179.441 163.382 178.916 167.609ZM167.876 131.939C167.613 134.053 167.613 135.903 167.35 138.017C169.19 136.167 168.928 134.053 167.876 131.939Z" fill="#2E3A33"/>
<path d="M180.753 35.2368C180.491 35.501 179.965 35.501 179.702 35.7653C175.759 38.6717 174.182 38.4074 172.079 34.1799C171.817 33.6515 171.817 32.5946 172.079 32.0662C172.868 30.4808 176.811 28.8955 178.388 29.424C180.228 30.2166 181.016 32.3304 180.753 35.2368Z" fill="#2E3A33"/>
<path d="M131.336 60.3359C133.176 61.3928 136.593 58.7506 137.119 62.9781C137.381 65.0919 134.753 68.2626 132.913 67.9983C130.81 67.9983 128.444 65.0919 128.707 62.9781C128.707 61.3928 129.759 60.3359 131.336 60.3359Z" fill="#2E3A33"/>
<path d="M174.966 74.3385C173.389 73.0174 172.337 72.2247 173.126 70.3752C173.914 68.5256 174.703 66.6761 176.806 66.4119C177.594 66.1476 178.909 66.9403 179.171 67.4687C179.697 67.9972 179.434 69.5825 179.171 70.1109C178.12 71.432 176.543 72.7531 174.966 74.3385Z" fill="#2E3A33"/>
<path d="M82.4485 126.919C80.8714 128.24 80.6086 131.147 77.7173 130.618C76.403 130.354 75.6145 129.561 75.6145 127.976C75.6145 126.127 76.6659 124.013 77.9801 124.013C80.6086 123.484 81.1342 125.598 82.4485 126.919Z" fill="#2E3A33"/>
<path d="M194.423 77.2461C196.263 77.5103 197.84 77.7745 199.155 78.0388C199.418 81.4736 198.103 83.3232 195.475 83.3232C193.372 83.5874 192.583 82.5305 193.109 80.4167C193.372 79.8883 193.635 78.8314 194.423 77.2461Z" fill="#2E3A33"/>
<path d="M217.026 75.1321C215.449 76.7174 213.609 76.4532 211.244 76.1889C211.244 74.6036 210.981 73.0183 210.981 71.6972C215.449 68.5266 216.238 69.055 217.026 75.1321Z" fill="#2E3A33"/>
<path d="M88.2246 69.0547C89.5388 69.8473 90.8531 70.9042 92.4302 71.6969C91.9045 73.5464 91.6416 75.1318 89.276 75.396C87.9617 75.396 86.9104 75.396 86.1219 74.0749C85.0705 71.6969 86.9104 70.3758 88.2246 69.0547Z" fill="#2E3A33"/>
<path d="M115.567 44.2188C116.618 44.7472 118.721 44.2188 118.721 46.3325C118.721 47.9178 116.092 49.7674 114.515 49.5032C113.201 49.2389 112.15 48.1821 112.413 46.5967C112.413 45.2756 113.727 44.2188 115.567 44.2188Z" fill="#2E3A33"/>
<path d="M196.518 46.0712C196.781 47.6565 197.306 48.9776 197.569 50.2987C196.518 51.884 195.466 52.9409 193.627 52.4124C192.049 51.884 192.312 50.2987 192.575 48.9776C192.838 46.8638 193.889 45.8069 196.518 46.0712Z" fill="#2E3A33"/>
<path d="M145.791 27.8378C144.476 32.3296 143.688 32.5938 139.745 29.9516C140.271 28.8947 140.797 27.5736 141.322 25.9883C143.162 26.7809 144.476 27.3094 145.791 27.8378Z" fill="#2E3A33"/>
<path d="M222.542 105.252C222.017 107.102 222.017 108.951 221.228 110.008C220.177 111.329 218.862 110.272 217.285 109.215C217.548 107.63 218.074 106.045 218.337 104.195C219.914 104.724 220.965 104.988 222.542 105.252Z" fill="#2E3A33"/>
<path d="M99.0054 94.9505C96.6397 96.5358 95.0626 97.3285 93.7484 98.1211C91.3828 94.6863 91.6456 93.8936 95.3255 91.5156C96.114 92.5725 97.1654 93.6294 99.0054 94.9505Z" fill="#2E3A33"/>
<path d="M158.67 41.3125C160.51 42.8978 160.773 44.4831 159.722 46.0684C158.933 47.3895 158.145 47.1253 156.831 46.8611C155.516 46.3327 154.991 45.2758 155.253 43.9547C155.516 41.8409 157.356 42.1052 158.67 41.3125Z" fill="#2E3A33"/>
<path d="M196.257 104.195C197.834 103.931 199.149 102.081 200.726 103.666C202.04 104.987 201.251 106.573 200.463 107.894C197.046 107.894 197.046 107.894 196.257 104.195Z" fill="#2E3A33"/>
<path d="M165.769 13.5703C167.609 15.9483 167.872 17.5336 166.557 18.3263C165.769 18.8547 163.666 18.3263 162.878 17.5336C162.352 16.2125 163.14 14.8914 165.769 13.5703Z" fill="#2E3A33"/>
</g>
<defs>
<clipPath id="clip0">
<rect width="300" height="300" fill="white"/>
</clipPath>
</defs>
</svg>
