<svg width="103" height="24" viewBox="0 0 103 24" fill="none" xmlns="http://www.w3.org/2000/svg">
<path d="M9.81173 21.7333C11.2824 21.7333 12.5006 21.4556 13.4664 20.9C14.4542 20.3222 15.2334 19.5778 15.8041 18.6667C16.3968 17.7333 16.8029 16.6778 17.0224 15.5C17.2638 14.3222 17.3845 13.1333 17.3845 11.9333V0H19.6893V11.9333C19.6893 13.5333 19.5137 15.0556 19.1625 16.5C18.8113 17.9222 18.2406 19.1778 17.4504 20.2667C16.6821 21.3556 15.6724 22.2222 14.4213 22.8667C13.1701 23.5111 11.6446 23.8333 9.84466 23.8333C8.00084 23.8333 6.44238 23.5 5.16927 22.8333C3.91811 22.1444 2.9084 21.2444 2.14014 20.1333C1.37189 19.0222 0.823132 17.7556 0.493879 16.3333C0.164626 14.9111 0 13.4444 0 11.9333V0H2.27184V11.9333C2.27184 13.1778 2.39257 14.3889 2.63402 15.5667C2.87547 16.7444 3.28155 17.7889 3.85226 18.7C4.44491 19.6111 5.22414 20.3444 6.18995 20.9C7.15576 21.4556 8.36302 21.7333 9.81173 21.7333Z" fill="white"/>
<path d="M30.0331 24C28.6942 24 27.3881 23.7778 26.115 23.3333C24.8419 22.8889 23.7444 22.2444 22.8225 21.4L23.8432 19.8667C24.809 20.6667 25.7858 21.2667 26.7735 21.6667C27.7832 22.0667 28.8588 22.2667 30.0002 22.2667C31.3831 22.2667 32.4806 21.9889 33.2927 21.4333C34.1268 20.8556 34.5439 20.0444 34.5439 19C34.5439 18.5111 34.4341 18.1111 34.2146 17.8C33.9951 17.4667 33.6659 17.1778 33.2269 16.9333C32.8098 16.6889 32.2721 16.4778 31.6136 16.3C30.977 16.1 30.2307 15.9 29.3746 15.7C28.3869 15.4556 27.5308 15.2111 26.8065 14.9667C26.0821 14.7222 25.4785 14.4444 24.9956 14.1333C24.5346 13.8222 24.1834 13.4444 23.942 13C23.7225 12.5333 23.6127 11.9556 23.6127 11.2667C23.6127 10.4 23.7773 9.63333 24.1066 8.96667C24.4578 8.3 24.9188 7.75556 25.4895 7.33333C26.0821 6.88889 26.7626 6.55555 27.5308 6.33333C28.321 6.11111 29.1551 6 30.0331 6C31.3502 6 32.5464 6.22222 33.622 6.66667C34.6976 7.08889 35.5646 7.65556 36.2231 8.36667L35.1366 9.7C34.5 9.03333 33.7208 8.53333 32.7989 8.2C31.8989 7.86667 30.955 7.7 29.9673 7.7C29.3746 7.7 28.8259 7.76667 28.321 7.9C27.8162 8.01111 27.3662 8.2 26.9711 8.46667C26.5979 8.73333 26.3016 9.07778 26.0821 9.5C25.8626 9.9 25.7529 10.3778 25.7529 10.9333C25.7529 11.4 25.8297 11.7778 25.9833 12.0667C26.137 12.3556 26.3894 12.6111 26.7406 12.8333C27.0918 13.0333 27.5308 13.2222 28.0576 13.4C28.6064 13.5556 29.2649 13.7222 30.0331 13.9C31.1307 14.1667 32.0965 14.4333 32.9306 14.7C33.7647 14.9667 34.4561 15.2778 35.0049 15.6333C35.5756 15.9889 36.0036 16.4222 36.2889 16.9333C36.5743 17.4444 36.717 18.0667 36.717 18.8C36.717 20.4 36.1133 21.6667 34.9061 22.6C33.6988 23.5333 32.0745 24 30.0331 24Z" fill="white"/>
<path d="M47.79 24C46.5388 24 45.3864 23.7667 44.3328 23.3C43.3012 22.8111 42.4012 22.1556 41.633 21.3333C40.8647 20.4889 40.2611 19.5222 39.8221 18.4333C39.405 17.3444 39.1965 16.1778 39.1965 14.9333C39.1965 13.7111 39.405 12.5667 39.8221 11.5C40.2611 10.4111 40.8537 9.46667 41.6 8.66667C42.3683 7.84444 43.2792 7.2 44.3328 6.73333C45.3864 6.24444 46.5279 6 47.7571 6C49.0082 6 50.1496 6.24444 51.1813 6.73333C52.2349 7.2 53.1349 7.84444 53.8812 8.66667C54.6275 9.48889 55.2091 10.4333 55.6262 11.5C56.0433 12.5667 56.2518 13.7 56.2518 14.9C56.2518 15.0778 56.2518 15.2556 56.2518 15.4333C56.2518 15.6111 56.2408 15.7333 56.2189 15.8H41.5342C41.6 16.7333 41.8086 17.6 42.1598 18.4C42.5329 19.1778 43.0049 19.8556 43.5756 20.4333C44.1463 21.0111 44.7938 21.4667 45.5181 21.8C46.2645 22.1111 47.0547 22.2667 47.8888 22.2667C48.4375 22.2667 48.9863 22.1889 49.535 22.0333C50.0838 21.8778 50.5886 21.6667 51.0496 21.4C51.5105 21.1333 51.9276 20.8111 52.3008 20.4333C52.6739 20.0333 52.9593 19.6 53.1568 19.1333L55.0994 19.6667C54.836 20.3111 54.4628 20.9 53.9799 21.4333C53.497 21.9444 52.9373 22.4 52.3008 22.8C51.6642 23.1778 50.9618 23.4667 50.1935 23.6667C49.4253 23.8889 48.6241 24 47.79 24ZM54.1116 14.0667C54.0458 13.1333 53.8263 12.2889 53.4531 11.5333C53.1019 10.7556 52.641 10.0889 52.0703 9.53333C51.5215 8.97778 50.874 8.54444 50.1277 8.23333C49.4033 7.92222 48.6241 7.76667 47.79 7.76667C46.9559 7.76667 46.1657 7.92222 45.4194 8.23333C44.6731 8.54444 44.0146 8.97778 43.4439 9.53333C42.8951 10.0889 42.4451 10.7556 42.0939 11.5333C41.7647 12.3111 41.5671 13.1556 41.5013 14.0667H54.1116Z" fill="white"/>
<path d="M68.2667 8.3C66.7521 8.34444 65.4351 8.76667 64.3156 9.56667C63.1962 10.3667 62.406 11.4667 61.945 12.8667V23.6667H59.7061V6.3H61.8133V10.4667C62.4499 9.13333 63.3059 8.08889 64.3815 7.33333C65.457 6.57778 66.6094 6.2 67.8386 6.2C68.0143 6.2 68.1569 6.21111 68.2667 6.23333V8.3Z" fill="white"/>
<path d="M71.4668 23.8333V0.166672H76.0074V23.8333H71.4668Z" fill="white"/>
<path d="M96.7737 22.3C95.9182 22.8333 94.9969 23.2556 94.0098 23.5667C93.0227 23.8556 91.9698 24 90.8511 24C89.1402 24 87.5827 23.6556 86.1789 22.9667C84.7969 22.2778 83.6015 21.3778 82.5924 20.2667C81.6053 19.1556 80.8376 17.8778 80.2892 16.4333C79.7408 14.9889 79.4666 13.5111 79.4666 12C79.4666 10.4222 79.7518 8.91111 80.3221 7.46667C80.9144 6.02222 81.715 4.74444 82.724 3.63333C83.755 2.52222 84.9724 1.64445 86.3763 1C87.7802 0.333334 89.3047 0 90.9498 0C92.6389 0 94.1743 0.355556 95.5563 1.06667C96.9601 1.75556 98.1556 2.66667 99.1427 3.8C100.13 4.93333 100.898 6.22222 101.446 7.66667C101.994 9.11111 102.269 10.5778 102.269 12.0667C102.269 13.6 101.994 15.0667 101.446 16.4667C100.919 17.8667 100.174 19.1111 99.2085 20.2L102.4 23.8333H98.1227L96.7737 22.3ZM90.884 19.9333C91.4763 19.9333 92.0247 19.8667 92.5292 19.7333C93.0556 19.5778 93.5382 19.3778 93.9769 19.1333L90.4234 15.0667H94.7008L96.3131 16.9C96.7518 16.1889 97.0918 15.4111 97.333 14.5667C97.5743 13.7222 97.695 12.8667 97.695 12C97.695 10.9778 97.5305 9.98889 97.2014 9.03333C96.8943 8.07778 96.4447 7.23333 95.8524 6.5C95.2821 5.76667 94.5692 5.17778 93.7137 4.73333C92.8802 4.28889 91.9369 4.06667 90.884 4.06667C89.7873 4.06667 88.8111 4.3 87.9556 4.76667C87.1002 5.21111 86.3873 5.81111 85.8169 6.56667C85.2466 7.32222 84.8079 8.17778 84.5008 9.13333C84.2157 10.0667 84.0731 11.0222 84.0731 12C84.0731 13.0222 84.2266 14.0111 84.5337 14.9667C84.8408 15.9222 85.2795 16.7667 85.8498 17.5C86.4421 18.2333 87.155 18.8222 87.9886 19.2667C88.844 19.7111 89.8092 19.9333 90.884 19.9333Z" fill="white"/>
</svg>
