<svg width="223" height="41" viewBox="0 0 223 41" fill="none" xmlns="http://www.w3.org/2000/svg">
<g clip-path="url(#clip0_10591_3598)" filter="url(#filter0_ddii_10591_3598)">
<path d="M59.623 12.6299H67.697C70.5165 12.6299 71.8638 14.6563 71.8638 16.6355C71.8638 18.6148 70.7728 19.898 69.4288 20.2605C70.9437 20.5179 72.1398 22.1201 72.1398 24.0994C72.1398 26.3868 70.7531 28.366 67.9533 28.366H59.623V12.6299ZM66.8525 18.709C67.018 18.7171 67.1833 18.6874 67.338 18.6218C67.4927 18.5563 67.6335 18.4563 67.7515 18.328C67.8696 18.1998 67.9625 18.0461 68.0244 17.8765C68.0862 17.7069 68.1157 17.5251 68.1111 17.3424C68.1154 17.1607 68.0856 16.9801 68.0233 16.8118C67.9611 16.6436 67.8679 16.4914 67.7496 16.365C67.6313 16.2385 67.4904 16.1406 67.336 16.0773C67.1816 16.0141 67.0169 15.9869 66.8525 15.9975H63.2969V18.709H66.8525ZM66.9806 24.9766C67.8547 24.9766 68.3904 24.3858 68.3904 23.5266C68.395 23.3243 68.3612 23.1232 68.2911 22.9361C68.221 22.7491 68.1161 22.5803 67.9834 22.4407C67.8506 22.301 67.6928 22.1936 67.5201 22.1253C67.3474 22.057 67.1636 22.0293 66.9806 22.044H63.2969V24.9658L66.9806 24.9766Z" fill="#54504B"/>
<path d="M73.8203 12.6299H84.2668V16.0446H77.4942V18.6619H84.1157V22.102H77.4942V24.9295H84.2668V28.3479H73.8203V12.6299Z" fill="#54504B"/>
<path d="M91.127 22.0078L85.7246 12.6299H89.8684L92.9639 18.4299L96.02 12.6299H100.183L94.8008 22.0078V28.3479H91.127V22.0078Z" fill="#54504B"/>
<path d="M107.183 12.3691C111.54 12.3691 114.787 15.715 114.787 20.5C114.787 25.285 111.534 28.6309 107.183 28.6309C102.832 28.6309 99.5527 25.285 99.5527 20.5C99.5527 15.715 102.819 12.3691 107.183 12.3691ZM107.183 15.9506C104.814 15.9506 103.296 17.9299 103.296 20.5C103.296 23.0701 104.807 25.0458 107.183 25.0458C109.559 25.0458 111.044 23.0375 111.044 20.5C111.044 17.9625 109.526 15.9506 107.183 15.9506Z" fill="#54504B"/>
<path d="M120.329 18.8504V28.3479H116.648V12.6299H120.431L126.198 21.6924V12.6299H129.891V28.3479H126.346L120.329 18.8504Z" fill="#54504B"/>
<path d="M132.027 12.6299H138.008C142.494 12.6299 145.721 15.5988 145.721 20.4744C145.721 25.35 142.494 28.3479 138.031 28.3479H132.027V12.6299ZM138.008 24.8099C140.509 24.8099 141.951 22.8089 141.951 20.4599C141.951 18.0348 140.637 16.1498 138.008 16.1498H135.678V24.8099H138.008Z" fill="#54504B"/>
<path d="M151.977 21.8446H148.838V28.3479H147.619V12.6299H152.939C155.394 12.6299 157.274 14.3481 157.274 17.2228C157.274 20.0974 155.437 21.6525 153.33 21.7504L157.461 28.3479H155.989L151.977 21.8446ZM152.831 13.8696H148.838V20.6158H152.831C154.711 20.6158 155.992 19.202 155.992 17.2228C155.992 15.2435 154.711 13.8551 152.831 13.8551V13.8696Z" fill="#54504B"/>
<path d="M159.666 12.6299H168.703V13.8551H160.885V19.6551H168.552V20.8985H160.885V27.1226H168.703V28.3479H159.666V12.6299Z" fill="#54504B"/>
<path d="M181.184 24.4875H173.602L172.17 28.3518H170.803L176.636 12.6338H178.164L183.996 28.3518H182.629L181.184 24.4875ZM173.987 23.2623H180.792L177.375 13.9533L173.987 23.2623Z" fill="#54504B"/>
<path d="M184.473 20.5003C184.473 15.6682 187.657 12.3695 191.65 12.3695C192.66 12.3481 193.661 12.5885 194.572 13.0714C195.483 13.5543 196.278 14.2662 196.894 15.1498L195.869 15.8748C195.374 15.1576 194.733 14.5791 193.998 14.1861C193.262 13.7931 192.453 13.5967 191.636 13.6128C188.35 13.6128 185.754 16.4005 185.754 20.5003C185.754 24.6002 188.35 27.3878 191.636 27.3878C192.451 27.3975 193.257 27.1958 193.988 26.7991C194.719 26.4025 195.355 25.8218 195.846 25.1041L196.894 25.8255C196.282 26.719 195.486 27.4394 194.572 27.9272C193.658 28.415 192.652 28.6563 191.636 28.6312C187.657 28.6312 184.473 25.3325 184.473 20.5003Z" fill="#54504B"/>
<path d="M209.401 20.8623H200.364V28.3479H199.148V12.6299H200.364V19.6515H209.401V12.6299H210.64V28.3479H209.401V20.8623Z" fill="#54504B"/>
<path d="M36.8611 18.064C37.3201 16.7755 37.4969 15.3857 37.377 14.0076C36.9893 9.42925 33.3877 6 29.2209 6H20.1973L26.2634 12.6918H29.3984C29.6593 12.6946 29.917 12.7545 30.1568 12.868C30.3965 12.9815 30.6135 13.1464 30.7951 13.3531C30.9766 13.5598 31.1192 13.8042 31.2145 14.0721C31.3098 14.34 31.356 14.6261 31.3503 14.9139C31.312 15.4831 31.0795 16.0152 30.6995 16.4027C30.3196 16.7902 29.8205 17.0044 29.3031 17.0019H26.8582V23.4761C27.4891 23.4109 28.1288 23.3783 28.7773 23.3783C30.1342 23.3788 31.4878 23.5245 32.8192 23.8132C35.7436 24.4618 38.5074 25.7963 40.9233 27.7265C43.3392 29.6566 45.3506 32.1372 46.8213 35H53.5578C52.058 31.0079 49.7872 27.4245 46.9035 24.4996C44.0199 21.5746 40.5929 19.3784 36.8611 18.064Z" fill="#54504B"/>
<path d="M32.7206 26.072C34.7483 26.5577 36.6878 27.4155 38.4581 28.6095C37.9612 30.4544 36.9377 32.0731 35.5398 33.2246C34.1419 34.3761 32.4443 34.9989 30.6996 35.0004H18.7678V26.2279C15.4114 28.2834 12.6328 31.3184 10.7365 35.0004H4C5.36696 31.3597 7.37652 28.0551 9.91178 25.2789C12.447 22.5027 15.4574 20.3104 18.7678 18.8293V7.5918L24.8339 14.269V28.3087H30.6996C31.2359 28.3058 31.7495 28.069 32.1281 27.65C32.5067 27.2309 32.7197 26.6637 32.7206 26.072Z" fill="#54504B"/>
<path d="M214.82 14.5227L214.998 14.2943C215.078 14.4021 215.178 14.4901 215.291 14.5526C215.405 14.615 215.529 14.6505 215.655 14.6568C216.03 14.6568 216.197 14.4719 216.197 14.2327C216.197 13.939 215.911 13.852 215.606 13.765C215.251 13.6563 214.856 13.5475 214.856 13.069C214.856 12.6667 215.185 12.3839 215.645 12.3839C215.796 12.3737 215.947 12.401 216.087 12.4638C216.227 12.5265 216.352 12.6231 216.454 12.7464L216.276 12.953C216.199 12.8566 216.103 12.7803 215.995 12.7295C215.888 12.6787 215.772 12.6548 215.655 12.6594C215.379 12.6594 215.182 12.8225 215.182 13.0509C215.182 13.2793 215.438 13.3772 215.734 13.4642C216.099 13.5729 216.523 13.6925 216.523 14.2145C216.523 14.6604 216.227 14.9395 215.665 14.9395C215.505 14.9433 215.346 14.9079 215.2 14.8358C215.054 14.7637 214.924 14.6568 214.82 14.5227ZM218.724 12.8479L217.985 14.8272H217.906L217.167 12.8479V14.8272H216.891V12.4347H217.314L217.945 14.1747L218.576 12.4347H219V14.8272H218.724V12.8479Z" fill="#54504B"/>
</g>
<defs>
<filter id="filter0_ddii_10591_3598" x="0" y="0" width="223" height="41" filterUnits="userSpaceOnUse" color-interpolation-filters="sRGB">
<feFlood flood-opacity="0" result="BackgroundImageFix"/>
<feColorMatrix in="SourceAlpha" type="matrix" values="0 0 0 0 0 0 0 0 0 0 0 0 0 0 0 0 0 0 127 0" result="hardAlpha"/>
<feOffset dy="2"/>
<feGaussianBlur stdDeviation="2"/>
<feComposite in2="hardAlpha" operator="out"/>
<feColorMatrix type="matrix" values="0 0 0 0 1 0 0 0 0 1 0 0 0 0 1 0 0 0 0.4 0"/>
<feBlend mode="normal" in2="BackgroundImageFix" result="effect1_dropShadow_10591_3598"/>
<feColorMatrix in="SourceAlpha" type="matrix" values="0 0 0 0 0 0 0 0 0 0 0 0 0 0 0 0 0 0 127 0" result="hardAlpha"/>
<feOffset dy="-2"/>
<feGaussianBlur stdDeviation="2"/>
<feComposite in2="hardAlpha" operator="out"/>
<feColorMatrix type="matrix" values="0 0 0 0 0 0 0 0 0 0 0 0 0 0 0 0 0 0 0.25 0"/>
<feBlend mode="normal" in2="effect1_dropShadow_10591_3598" result="effect2_dropShadow_10591_3598"/>
<feBlend mode="normal" in="SourceGraphic" in2="effect2_dropShadow_10591_3598" result="shape"/>
<feColorMatrix in="SourceAlpha" type="matrix" values="0 0 0 0 0 0 0 0 0 0 0 0 0 0 0 0 0 0 127 0" result="hardAlpha"/>
<feOffset dy="-2"/>
<feGaussianBlur stdDeviation="2"/>
<feComposite in2="hardAlpha" operator="arithmetic" k2="-1" k3="1"/>
<feColorMatrix type="matrix" values="0 0 0 0 1 0 0 0 0 1 0 0 0 0 1 0 0 0 0.4 0"/>
<feBlend mode="normal" in2="shape" result="effect3_innerShadow_10591_3598"/>
<feColorMatrix in="SourceAlpha" type="matrix" values="0 0 0 0 0 0 0 0 0 0 0 0 0 0 0 0 0 0 127 0" result="hardAlpha"/>
<feOffset dy="2"/>
<feGaussianBlur stdDeviation="2"/>
<feComposite in2="hardAlpha" operator="arithmetic" k2="-1" k3="1"/>
<feColorMatrix type="matrix" values="0 0 0 0 0 0 0 0 0 0 0 0 0 0 0 0 0 0 0.25 0"/>
<feBlend mode="normal" in2="effect3_innerShadow_10591_3598" result="effect4_innerShadow_10591_3598"/>
</filter>
<clipPath id="clip0_10591_3598">
<rect width="215" height="29" fill="white" transform="translate(4 6)"/>
</clipPath>
</defs>
</svg>
