<svg width="182" height="59" viewBox="0 0 182 59" fill="none" xmlns="http://www.w3.org/2000/svg">
<g clip-path="url(#clip0_10591_3599)" filter="url(#filter0_ddii_10591_3599)">
<path d="M169.489 18.9562V16.9202C169.489 12.0524 168.333 9.41797 162.254 9.41797H145.492V35.2686H149.055V25.3972H162.169C164.759 25.3972 165.816 25.9463 165.816 29.3273V35.2501H169.203V28.4635C169.203 26.1129 168.443 24.626 166.82 23.8302C168.625 23.1577 169.489 21.5721 169.489 18.9562ZM149.055 13.0642H161.263C165.257 13.0642 165.932 13.8724 165.932 16.3032V18.5737C165.932 20.8873 164.85 21.7448 161.944 21.7448H149.055V13.0642Z" fill="#54504B"/>
<path d="M138.931 26.021V27.9151C138.931 30.9999 137.915 31.8204 134 31.8204H123.336C119.834 31.8204 118.406 30.4138 118.406 26.965V17.7229C118.406 14.2803 119.834 12.8736 123.336 12.8736H133.903C136.809 12.8736 138.712 13.1512 138.712 16.8777V18.3646H142.086V15.8967C142.086 11.578 139.593 9.4248 134.681 9.4248H123.026C117.08 9.44331 114.648 12.2073 114.648 19V25.7434C114.648 32.53 117.08 35.3001 123.014 35.3001H134.529C141.217 35.3001 142.487 32.6533 142.487 28.0817V26.021H138.931Z" fill="#54504B"/>
<path d="M108.236 26.0703V27.9891C108.236 31.1356 107.123 31.95 102.843 31.95H91.2373C87.4071 31.95 85.8446 30.5248 85.8446 27.0143V17.6797C85.8446 14.1877 87.4071 12.744 91.2373 12.744H102.746C105.92 12.744 107.999 13.0278 107.999 16.8036V18.3398H111.647V15.8288C111.647 11.5101 108.941 9.27051 103.597 9.27051H90.8968C84.4342 9.27051 81.7773 12.0777 81.7773 18.9568V25.7433C81.7773 32.6224 84.4159 35.4234 90.8968 35.4234H103.421C110.662 35.4234 112.084 32.7458 112.084 28.1125V26.0703H108.236Z" fill="#54504B"/>
<path d="M71.3675 8.11621H70.8203V50.6803H71.3675V8.11621Z" fill="#54504B"/>
<path d="M85.6304 43.1595C85.8216 42.9608 86.0506 42.8036 86.3035 42.6976C86.5564 42.5915 86.828 42.5388 87.1016 42.5425C87.2949 42.5253 87.4896 42.5493 87.6733 42.6129C87.8569 42.6766 88.0254 42.7785 88.1679 42.9121C88.3105 43.0457 88.4239 43.2081 88.501 43.3888C88.5781 43.5695 88.6171 43.7646 88.6155 43.9615C88.6129 44.1715 88.5628 44.3781 88.4689 44.5654C88.3751 44.7526 88.2401 44.9154 88.0744 45.0412C87.7988 45.2667 87.5083 45.4728 87.205 45.6582C87.588 45.7333 87.9328 45.9424 88.1795 46.249C88.4261 46.5557 88.5589 46.9405 88.5547 47.3363C88.5312 47.7631 88.4033 48.1773 88.1825 48.5414C87.9617 48.9055 87.655 49.208 87.2901 49.4216C86.6866 49.8501 85.9768 50.0981 85.2413 50.1373C84.8341 50.1365 84.4402 49.9901 84.1287 49.7239C84.0547 49.6694 83.9958 49.5965 83.9574 49.5123C83.9191 49.428 83.9027 49.3352 83.9098 49.2427C83.9622 49.0755 84.0723 48.9331 84.2199 48.8417C84.2347 48.8256 84.2525 48.8128 84.2724 48.804C84.2923 48.7953 84.3137 48.7908 84.3354 48.7908C84.357 48.7908 84.3785 48.7953 84.3984 48.804C84.4182 48.8128 84.4361 48.8256 84.4509 48.8417C84.62 49.0551 84.8337 49.2278 85.0766 49.3473C85.3194 49.4668 85.5854 49.5301 85.8553 49.5327C86.7794 49.5327 87.5454 48.9157 87.5454 47.6201C87.5613 47.4377 87.5384 47.254 87.4785 47.0813C87.4185 46.9086 87.3229 46.7509 87.1979 46.6188C87.0729 46.4867 86.9216 46.3833 86.754 46.3155C86.5864 46.2478 86.4064 46.2171 86.2262 46.2258C85.9918 46.232 85.7591 46.2673 85.5331 46.3307L85.4601 46.0222C86.8037 45.6335 87.6731 45.0844 87.6731 44.1713C87.6853 44.0386 87.6685 43.9048 87.6239 43.7794C87.5793 43.654 87.5081 43.5401 87.4152 43.4459C87.3223 43.3516 87.2101 43.2793 87.0866 43.2341C86.963 43.1888 86.8312 43.1718 86.7004 43.1842C86.4156 43.2179 86.1422 43.3171 85.901 43.4743C85.6597 43.6315 85.4569 43.8424 85.3081 44.0911L85.0771 43.8443L85.6304 43.1595Z" fill="#54504B"/>
<path d="M95.1465 42.8262C94.7056 42.9137 94.274 43.0439 93.8576 43.2149C93.2575 43.4452 92.711 43.7994 92.2527 44.2549C91.7943 44.7105 91.4341 45.2576 91.1947 45.8617L91.9486 45.4977C92.2342 45.3341 92.5598 45.2565 92.8872 45.2739C93.2147 45.2913 93.5305 45.403 93.7978 45.5958C94.065 45.7887 94.2726 46.0548 94.3962 46.363C94.5199 46.6712 94.5545 47.0088 94.496 47.3362C94.5158 48.0549 94.2556 48.7526 93.772 49.2781C93.2883 49.8036 92.6201 50.1144 91.9121 50.1434C90.6415 50.1434 89.8633 49.1069 89.8633 47.6755C89.8764 46.5595 90.249 45.4785 90.9241 44.5974C91.5991 43.7163 92.5397 43.0834 93.6023 42.7954C94.0832 42.6434 94.5751 42.53 95.0736 42.4561L95.1465 42.8262ZM91.0549 46.3182C90.9046 46.7646 90.8346 47.2348 90.8482 47.7064C90.8482 48.749 91.2069 49.7485 92.0641 49.7485C92.9214 49.7485 93.4868 48.7614 93.4868 47.5151C93.4868 46.7994 93.2193 45.9295 92.1432 45.9295C91.7549 45.9686 91.3817 46.102 91.0549 46.3182Z" fill="#54504B"/>
<path d="M100.527 45.1897C100.49 47.0406 99.542 50.1254 97.4323 50.1254C96.0948 50.1254 95.6084 48.8051 95.651 47.3861C95.651 45.5352 96.7149 42.5244 98.7759 42.5244C100.132 42.5368 100.563 43.8756 100.527 45.1897ZM96.6237 47.7069C96.6237 48.7372 96.7757 49.749 97.5174 49.749C98.9158 49.749 99.5298 46.3311 99.5663 44.8133C99.6028 43.9064 99.4629 42.9008 98.6969 42.9008C97.2986 42.9254 96.6481 46.0226 96.6237 47.7069Z" fill="#54504B"/>
<path d="M105.098 43.7332C105.1 43.9616 105.056 44.1879 104.968 44.3982C104.88 44.6085 104.751 44.7982 104.588 44.9555C104.425 45.1129 104.232 45.2346 104.02 45.313C103.809 45.3914 103.584 45.4249 103.359 45.4113C103.159 45.4245 102.957 45.3947 102.769 45.3239C102.58 45.253 102.408 45.1428 102.265 45.0003C102.121 44.8578 102.008 44.6861 101.934 44.4966C101.859 44.307 101.825 44.1037 101.833 43.8998C101.835 43.6719 101.881 43.4466 101.969 43.2371C102.058 43.0276 102.186 42.838 102.348 42.6795C102.509 42.521 102.7 42.3966 102.909 42.3138C103.118 42.2309 103.341 42.1912 103.566 42.197C103.769 42.1846 103.972 42.2157 104.162 42.2883C104.352 42.3609 104.525 42.4733 104.67 42.6182C104.814 42.7631 104.927 42.9373 105.001 43.1294C105.075 43.3215 105.108 43.5273 105.098 43.7332ZM102.49 43.8998C102.476 44.0308 102.49 44.1632 102.53 44.2885C102.57 44.4138 102.635 44.5293 102.721 44.6275C102.808 44.7257 102.913 44.8044 103.032 44.8587C103.15 44.9129 103.278 44.9415 103.408 44.9425C103.553 44.9387 103.696 44.905 103.828 44.8432C103.961 44.7815 104.079 44.6931 104.176 44.5833C104.273 44.4736 104.348 44.3449 104.394 44.2051C104.441 44.0653 104.459 43.9174 104.447 43.7702C104.447 43.1533 104.113 42.6659 103.523 42.6659C103.374 42.6742 103.228 42.7133 103.095 42.7806C102.961 42.848 102.842 42.9422 102.746 43.0576C102.649 43.1731 102.576 43.3073 102.532 43.452C102.488 43.5968 102.474 43.7492 102.49 43.8998Z" fill="#54504B"/>
<path d="M115.026 48.1139C114.768 48.7291 114.463 49.3231 114.114 49.8908C113.461 50.055 112.793 50.1481 112.12 50.1684C110.187 50.1684 108.752 48.9838 108.752 46.7875C108.752 44.005 110.88 42.1973 113.543 42.1973C114.224 42.1954 114.9 42.3209 115.537 42.5675C115.5 43.1844 115.488 43.8014 115.446 44.369L115.099 44.3998C115.038 43.0055 114.436 42.5921 113.275 42.5921C111.245 42.5921 109.871 44.5788 109.871 46.7504C109.871 48.4347 110.679 49.7735 112.23 49.7735C113.403 49.7735 114.053 48.9715 114.722 47.9227L115.026 48.1139Z" fill="#54504B"/>
<path d="M116.139 48.3176C116.117 47.6713 116.269 47.0312 116.578 46.466C116.888 45.9008 117.343 45.4318 117.896 45.1094C118.281 44.8807 118.715 44.7475 119.16 44.7207C120.109 44.7207 120.686 45.387 120.686 46.5716C120.691 47.1056 120.585 47.6346 120.376 48.1245C120.166 48.6144 119.858 49.0543 119.47 49.4158C118.978 49.862 118.349 50.1233 117.689 50.1561C116.564 50.1376 116.139 49.2554 116.139 48.3176ZM118.461 49.5947C119.069 49.3232 119.726 48.0831 119.714 46.5778C119.714 45.6215 119.306 45.1773 118.777 45.1773C118.625 45.1762 118.473 45.2077 118.334 45.2698C117.884 45.4857 117.118 46.4482 117.118 48.2435C117.118 49.1135 117.482 49.6687 118.09 49.6687C118.217 49.6677 118.343 49.6426 118.461 49.5947Z" fill="#54504B"/>
<path d="M126.889 48.9966C126.484 49.5489 125.911 49.9501 125.259 50.138C124.98 50.138 124.864 49.8171 125.083 48.904C125.302 47.9909 125.49 47.1642 125.691 46.2943C125.855 45.6218 125.782 45.4614 125.612 45.4614C125.101 45.4614 123.758 46.9051 123.18 47.9292C123.04 48.503 122.87 49.1632 122.73 49.9159C122.447 49.9676 122.169 50.0418 121.897 50.138L121.824 50.0578C122.153 48.7745 122.487 47.374 122.773 46.0722C122.858 45.6959 122.821 45.6033 122.773 45.6033C122.489 45.7217 122.236 45.903 122.031 46.1339L121.867 45.8501C122.284 45.3142 122.856 44.9239 123.502 44.7334C123.751 44.7334 123.8 45.1344 123.593 46.0352L123.35 47.0593C123.918 46.2376 124.641 45.5392 125.478 45.0049C125.702 44.8415 125.968 44.7472 126.244 44.7334C126.53 44.7334 126.852 44.9061 126.506 46.4115C126.323 47.2136 126.129 48.0341 125.94 48.8424C125.873 49.1632 125.885 49.2681 125.94 49.2681C126.233 49.1558 126.493 48.9688 126.694 48.7251L126.889 48.9966Z" fill="#54504B"/>
<path d="M133.162 48.9282C132.815 49.3848 131.879 50.1621 131.417 50.1621C131.192 50.1621 130.973 50.0079 131.216 49.0084C131.46 48.0089 131.648 47.1575 131.867 46.1519C132.019 45.4732 131.958 45.3992 131.393 45.3992H129.849C129.618 46.7442 129.49 47.4722 129.241 48.5889C128.803 50.6865 128.432 51.5688 127.794 52.2906C127.462 52.7141 126.979 52.987 126.45 53.0495C126.128 53.0495 125.781 52.8521 125.781 52.5806C125.83 52.3736 125.948 52.1903 126.116 52.0624C126.149 52.032 126.192 52.0152 126.237 52.0152C126.282 52.0152 126.325 52.032 126.359 52.0624C126.54 52.2215 126.77 52.3129 127.009 52.3215C127.104 52.3263 127.198 52.3088 127.284 52.2702C127.371 52.2317 127.448 52.1732 127.508 52.0994C127.678 51.9328 127.958 51.4084 128.341 49.138C128.608 47.5894 128.754 46.6146 128.949 45.4362H128.043L128 45.3252L128.323 44.992H129.028C129.189 44.0158 129.639 43.1123 130.317 42.4008C130.769 41.9447 131.37 41.6725 132.007 41.6357C132.882 41.6357 133.125 42.1663 133.125 42.4008C133.121 42.5231 133.079 42.6408 133.005 42.7372C132.93 42.8337 132.828 42.9038 132.712 42.9375C132.457 43.0239 132.341 42.9375 132.305 42.8018C132.214 42.3514 131.995 42.0923 131.599 42.0923C130.754 42.0923 130.268 43.1967 129.97 44.9365H131.253C131.771 44.9412 132.287 44.8832 132.791 44.7637C132.907 44.8316 132.955 45.0907 132.828 45.609C132.584 46.6146 132.366 47.5894 132.098 48.7555C131.995 49.1688 132.025 49.2737 132.098 49.286C132.427 49.1409 132.725 48.9312 132.973 48.6691L133.162 48.9282Z" fill="#54504B"/>
<path d="M139.363 48.947C138.945 49.5288 138.345 49.9488 137.66 50.1377C137.429 50.1377 137.271 49.9465 137.454 49.0457L137.66 48.0462C137.22 48.626 136.705 49.1428 136.128 49.5824C135.825 49.8839 135.432 50.0748 135.01 50.1254C134.627 50.1254 134.256 49.6565 134.256 48.7125C134.264 48.1332 134.388 47.5615 134.619 47.0315C134.849 46.5016 135.183 46.0242 135.599 45.6277C136.18 45.1296 136.893 44.8162 137.648 44.727C137.882 44.7232 138.113 44.7673 138.329 44.8565L138.712 42.9316C138.816 42.3887 138.779 42.3147 138.275 42.3147H137.904L137.934 42.0247C138.535 41.93 139.128 41.7918 139.709 41.6113C139.813 41.6113 139.837 41.7039 139.788 41.9383C139.247 44.2889 138.761 46.5717 138.354 48.8606C138.305 49.1321 138.317 49.237 138.396 49.237C138.714 49.1181 138.998 48.9209 139.223 48.6632L139.363 48.947ZM137.8 47.2133L138.171 45.529C137.898 45.3314 137.57 45.2257 137.235 45.2267C136.949 45.2113 136.667 45.2987 136.438 45.4735C135.66 46.0349 135.223 47.5156 135.223 48.5028C135.223 49.1197 135.387 49.3727 135.581 49.3727C136.147 49.3727 137.417 47.9167 137.8 47.2133Z" fill="#54504B"/>
<path d="M144.051 48.8112C143.047 49.9155 142.178 50.1377 141.619 50.1377C141.059 50.1377 140.336 49.8168 140.336 48.4225C140.334 47.8432 140.459 47.2707 140.7 46.746C140.942 46.2212 141.295 45.7572 141.734 45.3871C142.187 45.0038 142.746 44.7712 143.333 44.7207C143.461 44.7124 143.589 44.7303 143.709 44.7734C143.83 44.8164 143.941 44.8838 144.035 44.9714C144.129 45.059 144.205 45.165 144.258 45.2831C144.311 45.4012 144.339 45.5289 144.342 45.6585C144.342 46.8246 142.409 47.46 141.303 47.7377C141.303 47.8919 141.303 48.0091 141.303 48.114C141.303 48.731 141.491 49.4405 142.196 49.4405C142.852 49.3577 143.456 49.0379 143.899 48.5397L144.051 48.8112ZM142.421 45.3439C142.104 45.5832 141.843 45.89 141.655 46.2428C141.467 46.5955 141.357 46.9857 141.333 47.386C142.987 46.9295 143.485 46.3989 143.485 45.8498C143.492 45.7671 143.48 45.684 143.452 45.6062C143.424 45.5284 143.379 45.4578 143.321 45.3991C143.264 45.3405 143.194 45.2952 143.117 45.2665C143.041 45.2378 142.959 45.2263 142.877 45.2328C142.719 45.2313 142.562 45.2694 142.421 45.3439Z" fill="#54504B"/>
<path d="M150.416 48.9966C150.012 49.5489 149.439 49.9501 148.787 50.138C148.507 50.138 148.391 49.8171 148.61 48.904C148.829 47.9909 149.018 47.1642 149.218 46.2943C149.382 45.6218 149.316 45.4614 149.139 45.4614C148.628 45.4614 147.285 46.9051 146.707 47.9292C146.567 48.503 146.397 49.1632 146.257 49.9159C145.974 49.9676 145.696 50.0418 145.425 50.138L145.352 50.0578C145.68 48.7745 146.014 47.374 146.3 46.0722C146.385 45.6959 146.349 45.6033 146.3 45.6033C146.018 45.7233 145.765 45.9044 145.558 46.1339L145.394 45.8501C145.811 45.3142 146.383 44.9239 147.03 44.7334C147.279 44.7334 147.327 45.1344 147.121 46.0352L146.878 47.0593C147.445 46.2376 148.168 45.5392 149.005 45.0049C149.231 44.843 149.496 44.7489 149.771 44.7334C150.057 44.7334 150.379 44.9061 150.039 46.4115C149.851 47.2136 149.656 48.0341 149.467 48.8424C149.401 49.1632 149.413 49.2681 149.467 49.2681C149.76 49.1546 150.019 48.9678 150.221 48.7251L150.416 48.9966Z" fill="#54504B"/>
<path d="M155.062 48.8297C154.782 49.194 154.432 49.4976 154.034 49.7223C153.636 49.9469 153.198 50.0882 152.745 50.1376C152.004 50.1376 151.529 49.5206 151.529 48.4225C151.537 47.8941 151.649 47.3725 151.857 46.8884C152.066 46.4042 152.368 45.9672 152.745 45.603C153.246 45.1202 153.884 44.8113 154.569 44.7207C155.068 44.7207 155.439 45.0107 155.451 45.3377C155.446 45.4545 155.409 45.5676 155.343 45.6637C155.277 45.7599 155.186 45.8351 155.08 45.8806C155.059 45.8945 155.035 45.9036 155.01 45.9074C154.985 45.9111 154.96 45.9094 154.936 45.9024C154.911 45.8954 154.889 45.8832 154.87 45.8667C154.851 45.8502 154.835 45.8296 154.824 45.8066C154.732 45.6534 154.602 45.5266 154.448 45.4381C154.294 45.3496 154.12 45.3023 153.943 45.3006C153.536 45.3006 153.213 45.6523 152.982 46.0904C152.654 46.7458 152.483 47.4711 152.484 48.2065C152.484 49.0394 152.794 49.4404 153.292 49.4404C153.906 49.3455 154.469 49.0382 154.885 48.5705L155.062 48.8297Z" fill="#54504B"/>
<path d="M159.791 48.8112C158.788 49.9155 157.918 50.1377 157.359 50.1377C156.8 50.1377 156.076 49.8168 156.076 48.4225C156.074 47.8432 156.199 47.2707 156.441 46.746C156.682 46.2212 157.035 45.7572 157.475 45.3871C157.928 45.0038 158.486 44.7712 159.073 44.7207C159.201 44.7124 159.329 44.7303 159.449 44.7734C159.57 44.8164 159.681 44.8838 159.775 44.9714C159.869 45.059 159.945 45.165 159.998 45.2831C160.051 45.4012 160.08 45.5289 160.083 45.6585C160.083 46.8246 158.149 47.46 157.043 47.7377C157.043 47.8919 157.043 48.0091 157.043 48.114C157.043 48.731 157.231 49.4405 157.937 49.4405C158.588 49.3659 159.192 49.0573 159.639 48.5706L159.791 48.8112ZM158.162 45.3439C157.844 45.5832 157.583 45.89 157.395 46.2428C157.207 46.5955 157.097 46.9857 157.073 47.386C158.727 46.9295 159.225 46.3989 159.225 45.8498C159.231 45.7698 159.221 45.6895 159.194 45.614C159.168 45.5384 159.126 45.4694 159.072 45.4112C159.017 45.3531 158.951 45.3072 158.878 45.2765C158.805 45.2457 158.727 45.2309 158.648 45.2328C158.479 45.2261 158.311 45.2643 158.162 45.3439Z" fill="#54504B"/>
<path d="M160.855 49.5268C160.849 49.4337 160.861 49.3401 160.892 49.2519C160.922 49.1638 160.97 49.0831 161.033 49.0147C161.096 48.9464 161.172 48.8919 161.256 48.8548C161.341 48.8176 161.432 48.7986 161.524 48.7988C161.601 48.8003 161.677 48.8177 161.748 48.8499C161.818 48.882 161.881 48.9284 161.934 48.986C161.986 49.0437 162.026 49.1115 162.052 49.1853C162.078 49.2592 162.088 49.3376 162.083 49.4158C162.09 49.5046 162.079 49.5939 162.051 49.6785C162.024 49.763 161.98 49.8412 161.922 49.9083C161.864 49.9755 161.794 50.0303 161.715 50.0697C161.637 50.1091 161.551 50.1322 161.463 50.1376C161.382 50.1451 161.3 50.1345 161.224 50.1065C161.147 50.0785 161.077 50.0339 161.019 49.9757C160.961 49.9175 160.917 49.8472 160.888 49.7697C160.86 49.6921 160.849 49.6093 160.855 49.5268Z" fill="#54504B"/>
<path d="M12.5117 30.4814C12.535 32.1584 12.7492 33.8271 13.1501 35.4541C15.1074 37.0746 17.4232 38.1882 19.8985 38.6994C16.9621 36.4411 14.4585 33.6558 12.5117 30.4814Z" fill="#54504B"/>
<path d="M38.0947 7.70265C36.0512 7.51407 33.9926 7.58454 31.9663 7.91241C28.084 8.54174 24.416 10.1379 21.2905 12.5581C20.5867 13.1021 19.9148 13.6871 19.2781 14.3103C19.2112 14.5571 19.1504 14.8162 19.1018 15.0691C18.8705 16.432 18.9327 17.8296 19.2842 19.1658C21.0935 15.9532 23.799 13.3558 27.0601 11.7005C28.8744 10.7771 30.8219 10.1524 32.8297 9.84967C33.8176 9.69699 34.8155 9.62068 35.8148 9.62139C38.6773 9.59412 41.5089 10.223 44.0985 11.4611C46.6882 12.6992 48.9689 14.5146 50.7708 16.772C53.2618 19.8878 54.6207 23.7785 54.6192 27.7909C54.6033 30.2885 54.0707 32.7548 53.0559 35.0303C52.041 37.3057 50.5666 39.3395 48.728 41C47.2252 42.8425 45.485 44.4715 43.5542 45.8431C40.2512 48.1758 36.5354 49.8391 32.6108 50.7418C31.0784 51.1014 29.5218 51.3448 27.9538 51.4698C30.4966 52.3576 33.1682 52.806 35.8573 52.7962C48.7219 52.7962 59.185 42.6534 59.185 30.197C59.1668 18.4871 50.1081 8.81934 38.0947 7.70265Z" fill="#54504B"/>
<path d="M12.0377 14.5325C11.4725 15.7348 11.0951 17.0191 10.919 18.3392C10.7299 19.7486 10.7442 21.1786 10.9616 22.5838C11.2429 24.3784 11.7795 26.122 12.5545 27.7601C14.5668 32.0788 18.1964 36.1446 22.7865 39.1862C23.3945 39.2356 24.0025 39.2603 24.6104 39.2603C26.4515 39.2667 28.2874 39.0597 30.0821 38.6433C32.9819 37.9621 35.7265 36.7244 38.1681 34.9971C35.3149 34.6999 32.5351 33.8981 29.9545 32.6279C24.5618 29.9997 20.2817 25.718 18.5065 21.1648C17.6847 19.1656 17.4319 16.9725 17.7769 14.8348C17.8445 14.4718 17.9339 14.1133 18.0444 13.7613C18.17 13.3388 18.3265 12.9263 18.5125 12.5274C18.5429 12.4534 18.5855 12.3793 18.622 12.3053C20.4884 8.60352 24.7016 6.49969 30.1733 6.49969C30.7023 6.49969 31.2494 6.49969 31.8027 6.56139C32.2039 6.49969 32.6113 6.44417 33.0186 6.40098C31.4119 6.12288 29.7849 5.98254 28.1549 5.98145C20.5979 5.99995 14.5608 9.18964 12.0377 14.5325Z" fill="#54504B"/>
<path d="M4.37642 36.2315C6.23679 44.4 14.4869 50.0391 24.9014 50.2365C27.3988 50.2782 29.8918 50.0089 32.3246 49.4344C36.0791 48.5693 39.6338 46.9773 42.7938 44.7455C44.6535 43.4356 46.3286 41.8748 47.7731 40.106C51.2932 35.7441 52.7645 30.6974 51.9194 25.8851C51.8768 25.626 51.8282 25.373 51.7735 25.12C50.0225 17.4204 42.654 11.948 32.9873 11.1768C32.3936 11.2686 31.8051 11.3922 31.2242 11.5469C38.7387 11.985 44.5204 15.952 45.8154 21.6836C46.8429 26.2182 44.8305 31.1724 40.4228 34.9235C37.4907 37.3669 34.0302 39.071 30.3244 39.8962C27.7895 40.5065 25.1767 40.7146 22.5789 40.5132H22.4999C18.384 40.143 14.6936 38.6623 12.1219 36.3549C10.3485 34.7961 9.10225 32.7113 8.55923 30.3951C7.9903 27.733 8.36941 24.9526 9.62925 22.5473C9.50765 21.6893 9.45479 20.8228 9.47118 19.9561C5.02086 24.7375 3.124 30.6789 4.37642 36.2315Z" fill="#54504B"/>
<path d="M178 11.4414C177.997 11.8693 177.87 12.2868 177.633 12.6409C177.396 12.995 177.062 13.2698 176.671 13.4304C176.28 13.591 175.851 13.6301 175.438 13.5429C175.025 13.4556 174.647 13.2459 174.352 12.9404C174.057 12.6348 173.858 12.2472 173.781 11.8266C173.703 11.4061 173.75 10.9716 173.916 10.5783C174.082 10.1851 174.36 9.85074 174.713 9.61776C175.067 9.38477 175.481 9.26365 175.902 9.26975C176.464 9.27788 176.999 9.51066 177.392 9.9174C177.785 10.3242 178.003 10.8719 178 11.4414ZM174.006 11.4414C174.013 11.8146 174.128 12.1773 174.337 12.4843C174.546 12.7913 174.84 13.0291 175.181 13.168C175.522 13.3069 175.896 13.3407 176.256 13.2652C176.617 13.1898 176.947 13.0084 177.206 12.7436C177.465 12.4789 177.642 12.1426 177.714 11.7767C177.786 11.4107 177.75 11.0313 177.611 10.6859C177.472 10.3404 177.236 10.0441 176.932 9.83393C176.628 9.6238 176.27 9.50911 175.902 9.5042C175.652 9.50253 175.403 9.5516 175.172 9.64852C174.94 9.74544 174.73 9.88828 174.553 10.0687C174.377 10.2491 174.237 10.4634 174.143 10.6991C174.049 10.9348 174.002 11.1872 174.006 11.4414ZM174.917 10.2075H176.097C176.632 10.2075 176.826 10.3988 176.826 10.9109C176.826 11.3057 176.747 11.4538 176.498 11.5278C176.594 11.5577 176.676 11.6214 176.73 11.7074C176.783 11.7934 176.805 11.8961 176.79 11.9967V12.6137H176.48V12.0584C176.48 11.7746 176.358 11.6574 176.042 11.6697H175.234V12.626H174.917V10.2075ZM176.006 11.3983C176.389 11.3983 176.51 11.2995 176.51 10.9911C176.51 10.5592 176.45 10.479 176.097 10.479H175.234V11.3983H176.006Z" fill="#54504B"/>
</g>
<defs>
<filter id="filter0_ddii_10591_3599" x="0" y="0" width="182" height="59" filterUnits="userSpaceOnUse" color-interpolation-filters="sRGB">
<feFlood flood-opacity="0" result="BackgroundImageFix"/>
<feColorMatrix in="SourceAlpha" type="matrix" values="0 0 0 0 0 0 0 0 0 0 0 0 0 0 0 0 0 0 127 0" result="hardAlpha"/>
<feOffset dy="2"/>
<feGaussianBlur stdDeviation="2"/>
<feComposite in2="hardAlpha" operator="out"/>
<feColorMatrix type="matrix" values="0 0 0 0 1 0 0 0 0 1 0 0 0 0 1 0 0 0 0.4 0"/>
<feBlend mode="normal" in2="BackgroundImageFix" result="effect1_dropShadow_10591_3599"/>
<feColorMatrix in="SourceAlpha" type="matrix" values="0 0 0 0 0 0 0 0 0 0 0 0 0 0 0 0 0 0 127 0" result="hardAlpha"/>
<feOffset dy="-2"/>
<feGaussianBlur stdDeviation="2"/>
<feComposite in2="hardAlpha" operator="out"/>
<feColorMatrix type="matrix" values="0 0 0 0 0 0 0 0 0 0 0 0 0 0 0 0 0 0 0.25 0"/>
<feBlend mode="normal" in2="effect1_dropShadow_10591_3599" result="effect2_dropShadow_10591_3599"/>
<feBlend mode="normal" in="SourceGraphic" in2="effect2_dropShadow_10591_3599" result="shape"/>
<feColorMatrix in="SourceAlpha" type="matrix" values="0 0 0 0 0 0 0 0 0 0 0 0 0 0 0 0 0 0 127 0" result="hardAlpha"/>
<feOffset dy="-2"/>
<feGaussianBlur stdDeviation="2"/>
<feComposite in2="hardAlpha" operator="arithmetic" k2="-1" k3="1"/>
<feColorMatrix type="matrix" values="0 0 0 0 1 0 0 0 0 1 0 0 0 0 1 0 0 0 0.4 0"/>
<feBlend mode="normal" in2="shape" result="effect3_innerShadow_10591_3599"/>
<feColorMatrix in="SourceAlpha" type="matrix" values="0 0 0 0 0 0 0 0 0 0 0 0 0 0 0 0 0 0 127 0" result="hardAlpha"/>
<feOffset dy="2"/>
<feGaussianBlur stdDeviation="2"/>
<feComposite in2="hardAlpha" operator="arithmetic" k2="-1" k3="1"/>
<feColorMatrix type="matrix" values="0 0 0 0 0 0 0 0 0 0 0 0 0 0 0 0 0 0 0.25 0"/>
<feBlend mode="normal" in2="effect3_innerShadow_10591_3599" result="effect4_innerShadow_10591_3599"/>
</filter>
<clipPath id="clip0_10591_3599">
<rect width="174" height="47" fill="white" transform="translate(4 6)"/>
</clipPath>
</defs>
</svg>
