<svg width="296" height="69" viewBox="0 0 296 69" fill="none" xmlns="http://www.w3.org/2000/svg">
<path d="M51.5534 0H17.1272V17.2176H51.5105V51.7824H17.1272V17.2176H0V51.7824C0 61.2758 7.68364 69 17.1272 69H51.5105C60.954 69 68.6377 61.2758 68.6377 51.7824V17.2176C68.6806 7.7242 60.997 0 51.5534 0Z" fill="#54504B"/>
<path d="M112.928 46.1545V51.7803H89.2285V46.2523L105.19 27.8093H89.2285V22.2812H112.928V27.7114L97.112 46.1545H112.928Z" fill="#54504B"/>
<path d="M144.364 38.7178H121.978C122.076 44.2458 125.677 47.1321 130.251 47.1321C133.706 47.1321 136.578 45.4688 137.697 42.289H144.023C142.466 48.2573 137.162 52.2688 130.105 52.2688C121.297 52.2688 115.604 46.2027 115.604 36.9567C115.604 27.8085 121.346 21.6445 130.008 21.6445C138.475 21.6445 144.315 27.515 144.315 36.3696V38.7178H144.364ZM122.027 34.4128H137.989C137.697 29.2761 134.29 26.6833 130.008 26.6833C125.92 26.6833 122.465 29.2761 122.027 34.4128Z" fill="#54504B"/>
<path d="M176.871 38.7178H154.389C154.486 44.2458 158.087 47.1321 162.661 47.1321C166.117 47.1321 168.988 45.4688 170.107 42.289H176.433C174.876 48.2573 169.572 52.2688 162.515 52.2688C153.707 52.2688 148.014 46.2027 148.014 36.9567C148.014 27.8085 153.756 21.6445 162.418 21.6445C170.886 21.6445 176.725 27.515 176.725 36.3696V38.7178H176.871ZM154.486 34.4128H170.545C170.253 29.2761 166.847 26.6833 162.564 26.6833C158.379 26.6833 154.875 29.2761 154.486 34.4128Z" fill="#54504B"/>
<path d="M192.277 44.7847L198.895 22.2812H205.465L211.888 44.7847L217.533 22.2812H224.054L215.781 51.7803H208.725L202.058 29.2769L195.44 51.7803H188.286L179.965 22.2812H186.534L192.277 44.7847Z" fill="#54504B"/>
<path d="M233.592 11.8125H227.363V17.683H233.592V11.8125Z" fill="#54504B"/>
<path d="M233.592 22.2812H227.363V51.6825H233.592V22.2812Z" fill="#54504B"/>
<path d="M243.908 42.8269C244.005 45.9089 246.779 47.6701 250.575 47.6701C254.371 47.6701 256.707 46.2514 256.707 43.6586C256.707 41.4083 255.587 40.1852 252.229 39.6471L246.292 38.6198C240.55 37.5925 238.312 34.6083 238.312 30.499C238.312 25.2645 243.519 21.7422 250.186 21.7422C257.339 21.7422 262.546 25.2155 262.546 31.086H256.366C256.269 28.1019 253.689 26.4386 250.137 26.4386C246.682 26.4386 244.492 27.8573 244.492 30.2544C244.492 32.4069 246.049 33.3364 249.212 33.9723L254.955 34.9997C260.356 36.027 262.935 38.7176 262.935 43.1205C262.935 49.1866 257.29 52.3665 250.575 52.3665C242.886 52.3665 237.679 48.6485 237.484 42.9248H243.908V42.8269Z" fill="#54504B"/>
<path d="M295.54 38.7178H273.154C273.252 44.2458 276.853 47.1321 281.427 47.1321C284.882 47.1321 287.753 45.4688 288.873 42.289H295.199C293.642 48.2573 288.337 52.2688 281.281 52.2688C272.473 52.2688 266.779 46.2027 266.779 36.9567C266.779 27.8085 272.522 21.6445 281.184 21.6445C289.651 21.6445 295.491 27.515 295.491 36.3696V38.7178H295.54ZM273.252 34.4128H289.311C289.019 29.2761 285.612 26.6833 281.33 26.6833C277.145 26.6833 273.69 29.2761 273.252 34.4128Z" fill="#54504B"/>
</svg>
