<svg width="183" height="43" viewBox="0 0 183 43" fill="none" xmlns="http://www.w3.org/2000/svg">
<g filter="url(#filter0_ddii_10591_3601)">
<path d="M40.2001 7.95703L37.0693 12.7996H8.76146V21.2578H19.1975C20.1107 21.2578 20.9586 21.7098 21.4152 22.42L26.1114 29.5224L30.7425 22.42L33.624 26.7982L28.3291 34.8815C27.2855 36.4311 25.0026 36.4311 23.959 34.8815L18.0887 25.9712H6.60902C5.17406 25.9712 4 24.809 4 23.3885V10.5397C4 9.11924 5.17406 7.95703 6.60902 7.95703H40.2001Z" fill="#54504B"/>
<path d="M75.0953 9.26172H52.2012V15.5247H59.7673V34.2491H67.5292V15.5247H75.0953V9.26172Z" fill="#54504B"/>
<path d="M171.498 8.06616V34.2158H178.999V7.09766L171.498 8.06616Z" fill="#54504B"/>
<path d="M138.169 34.2158V15.9433L145.67 14.9748V34.2158H138.169ZM137.582 9.22835V10.1969C137.582 12.0047 139.017 13.4252 140.843 13.4252H142.931C144.757 13.4252 146.192 12.0047 146.192 10.1969V9.22835C146.192 7.42047 144.757 6 142.931 6H140.843C139.082 6 137.582 7.42047 137.582 9.22835Z" fill="#54504B"/>
<path d="M85.3352 15.0391H83.9655C78.617 15.0391 74.1816 19.4296 74.1816 24.7241V25.0469C74.1816 30.3414 78.617 34.732 83.9655 34.732H85.3352C90.6837 34.732 95.119 30.3414 95.119 25.0469V24.7241C95.119 19.3651 90.6837 15.0391 85.3352 15.0391ZM87.6181 26.08C87.6181 27.6942 86.3136 28.9855 84.6829 28.9855C83.0523 28.9855 81.7478 27.6942 81.7478 26.08V23.6265C81.7478 22.0123 83.0523 20.721 84.6829 20.721C86.3136 20.721 87.6181 22.0123 87.6181 23.6265V26.08Z" fill="#54504B"/>
<path d="M110.056 15.4912V27.5007C109.599 28.6629 105.686 29.9542 105.686 25.9511V25.8865V15.4912H98.1849V27.6298C98.1849 27.7589 98.0545 28.5983 98.1849 29.6314C98.3806 31.2456 99.0981 33.3763 101.707 34.2802C102.425 34.5385 103.338 34.6676 104.381 34.6676C106.599 34.6676 108.556 33.3763 110.056 31.8267V34.5385L117.557 33.57V15.4912H110.056Z" fill="#54504B"/>
<path d="M128.907 18.203V14.9746L121.406 15.9431V34.2156H128.907V25.6927C128.907 25.6927 128.972 20.4628 134.712 22.1415L136.082 15.4911C133.408 14.7809 131.125 14.5226 128.907 18.203Z" fill="#54504B"/>
<path d="M167.324 28.2108C167.324 28.2108 167.193 21.5604 167.193 21.1085C167.324 18.8486 164.845 14.9746 158.975 14.9746C155.714 14.9746 152.452 15.362 148.734 16.7825L150.3 22.2061C150.3 22.2061 154.213 20.2045 157.67 20.6565C160.018 20.9793 159.692 23.1746 159.692 23.1746C158.518 23.0455 148.734 23.0455 148.734 29.4376C148.734 33.9573 153.365 34.6675 154.409 34.6675C157.54 34.6675 159.627 31.8912 159.823 31.5683C160.345 32.4077 160.866 35.2486 167.976 34.603L168.693 29.6313C168.693 29.5667 167.324 29.373 167.324 28.2108ZM159.757 28.8565C159.757 28.8565 159.301 30.0833 157.735 30.0833C156.431 30.0833 155.779 29.373 155.779 28.4691C155.779 27.2423 156.888 26.7258 157.801 26.5321C158.714 26.3384 159.823 26.403 159.823 26.403V28.8565H159.757Z" fill="#54504B"/>
</g>
<defs>
<filter id="filter0_ddii_10591_3601" x="0" y="0" width="183" height="44" filterUnits="userSpaceOnUse" color-interpolation-filters="sRGB">
<feFlood flood-opacity="0" result="BackgroundImageFix"/>
<feColorMatrix in="SourceAlpha" type="matrix" values="0 0 0 0 0 0 0 0 0 0 0 0 0 0 0 0 0 0 127 0" result="hardAlpha"/>
<feOffset dy="2"/>
<feGaussianBlur stdDeviation="2"/>
<feComposite in2="hardAlpha" operator="out"/>
<feColorMatrix type="matrix" values="0 0 0 0 1 0 0 0 0 1 0 0 0 0 1 0 0 0 0.4 0"/>
<feBlend mode="normal" in2="BackgroundImageFix" result="effect1_dropShadow_10591_3601"/>
<feColorMatrix in="SourceAlpha" type="matrix" values="0 0 0 0 0 0 0 0 0 0 0 0 0 0 0 0 0 0 127 0" result="hardAlpha"/>
<feOffset dy="-2"/>
<feGaussianBlur stdDeviation="2"/>
<feComposite in2="hardAlpha" operator="out"/>
<feColorMatrix type="matrix" values="0 0 0 0 0 0 0 0 0 0 0 0 0 0 0 0 0 0 0.25 0"/>
<feBlend mode="normal" in2="effect1_dropShadow_10591_3601" result="effect2_dropShadow_10591_3601"/>
<feBlend mode="normal" in="SourceGraphic" in2="effect2_dropShadow_10591_3601" result="shape"/>
<feColorMatrix in="SourceAlpha" type="matrix" values="0 0 0 0 0 0 0 0 0 0 0 0 0 0 0 0 0 0 127 0" result="hardAlpha"/>
<feOffset dy="-2"/>
<feGaussianBlur stdDeviation="2"/>
<feComposite in2="hardAlpha" operator="arithmetic" k2="-1" k3="1"/>
<feColorMatrix type="matrix" values="0 0 0 0 1 0 0 0 0 1 0 0 0 0 1 0 0 0 0.4 0"/>
<feBlend mode="normal" in2="shape" result="effect3_innerShadow_10591_3601"/>
<feColorMatrix in="SourceAlpha" type="matrix" values="0 0 0 0 0 0 0 0 0 0 0 0 0 0 0 0 0 0 127 0" result="hardAlpha"/>
<feOffset dy="2"/>
<feGaussianBlur stdDeviation="2"/>
<feComposite in2="hardAlpha" operator="arithmetic" k2="-1" k3="1"/>
<feColorMatrix type="matrix" values="0 0 0 0 0 0 0 0 0 0 0 0 0 0 0 0 0 0 0.25 0"/>
<feBlend mode="normal" in2="effect3_innerShadow_10591_3601" result="effect4_innerShadow_10591_3601"/>
</filter>
</defs>
</svg>
