<svg width="393" height="72" viewBox="0 0 393 72" fill="none" xmlns="http://www.w3.org/2000/svg">
<path d="M81.2952 4.4043L74.2643 15.3H10.6929V34.3311H34.1293C36.18 34.3311 38.0842 35.348 39.1096 36.9461L49.656 52.9264L60.0559 36.9461L66.5271 46.797L54.6362 64.9843C52.2926 68.4709 47.1659 68.4709 44.8222 64.9843L31.6392 44.9362H5.85911C2.6366 44.9362 0 42.3213 0 39.1252V10.2153C0 7.01926 2.6366 4.4043 5.85911 4.4043H81.2952Z" fill="#54504B"/>
<path d="M159.662 7.33984H108.248V21.4316H125.239V63.5615H142.67V21.4316H159.662V7.33984Z" fill="#54504B"/>
<path d="M376.156 4.64984V63.4865H393.001V2.4707L376.156 4.64984Z" fill="#54504B"/>
<path d="M301.307 63.4855V22.3725L318.152 20.1933V63.4855H301.307ZM299.988 7.26379V9.44292C299.988 13.5106 303.211 16.7067 307.312 16.7067H311.999C316.101 16.7067 319.323 13.5106 319.323 9.44292V7.26379C319.323 3.19607 316.101 0 311.999 0H307.312C303.357 0 299.988 3.19607 299.988 7.26379Z" fill="#54504B"/>
<path d="M182.659 20.3379H179.583C167.572 20.3379 157.611 30.2166 157.611 42.1292V42.8556C157.611 54.7682 167.572 64.647 179.583 64.647H182.659C194.67 64.647 204.631 54.7682 204.631 42.8556V42.1292C204.631 30.0714 194.67 20.3379 182.659 20.3379ZM187.786 45.18C187.786 48.8119 184.856 51.7174 181.194 51.7174C177.532 51.7174 174.603 48.8119 174.603 45.18V39.6596C174.603 36.0277 177.532 33.1222 181.194 33.1222C184.856 33.1222 187.786 36.0277 187.786 39.6596V45.18Z" fill="#54504B"/>
<path d="M238.174 21.3555V48.3767C237.149 50.9917 228.36 53.8972 228.36 44.8901V44.7449V21.3555H211.515V48.6673C211.515 48.9579 211.222 50.8464 211.515 53.1708C211.954 56.8027 213.566 61.5968 219.425 63.6307C221.036 64.2118 223.087 64.5024 225.43 64.5024C230.411 64.5024 234.805 61.5968 238.174 58.1102V64.2118L255.019 62.0327V21.3555H238.174Z" fill="#54504B"/>
<path d="M280.505 27.4571V20.1934L263.66 22.3725V63.4855H280.505V44.3091C280.505 44.3091 280.652 32.5418 293.542 36.319L296.618 21.3556C290.612 19.7575 285.485 19.1764 280.505 27.4571Z" fill="#54504B"/>
<path d="M366.781 49.9749C366.781 49.9749 366.488 35.0115 366.488 33.9946C366.781 28.9099 361.215 20.1934 348.032 20.1934C340.708 20.1934 333.384 21.065 325.035 24.2611L328.551 36.4642C328.551 36.4642 337.339 31.9607 345.103 32.9776C350.376 33.704 349.643 38.6434 349.643 38.6434C347.007 38.3528 325.035 38.3528 325.035 52.7351C325.035 62.9044 335.435 64.5025 337.779 64.5025C344.81 64.5025 349.497 58.2556 349.936 57.5292C351.108 59.4178 352.28 65.8099 368.246 64.3572L369.857 53.1709C369.857 53.0257 366.781 52.5898 366.781 49.9749ZM349.79 51.4276C349.79 51.4276 348.765 54.1879 345.249 54.1879C342.32 54.1879 340.855 52.5898 340.855 50.556C340.855 47.7957 343.345 46.6335 345.396 46.1977C347.446 45.7619 349.936 45.9072 349.936 45.9072V51.4276H349.79Z" fill="#54504B"/>
</svg>
