<svg width="150" height="45" viewBox="0 0 150 45" fill="none" xmlns="http://www.w3.org/2000/svg">
<g filter="url(#filter0_ddii_10591_3602)">
<path d="M17.5268 35.8833C19.5544 35.8833 21.2339 35.5014 22.5654 34.7375C23.9271 33.9431 25.0014 32.9194 25.7882 31.6667C26.6053 30.3833 27.1651 28.9319 27.4677 27.3125C27.8006 25.6931 27.967 24.0583 27.967 22.4083V6H31.1445V22.4083C31.1445 24.6083 30.9024 26.7014 30.4182 28.6875C29.934 30.6431 29.1472 32.3694 28.0578 33.8667C26.9987 35.3639 25.6066 36.5556 23.8817 37.4417C22.1568 38.3278 20.0537 38.7708 17.5722 38.7708C15.0303 38.7708 12.8817 38.3125 11.1266 37.3958C9.40166 36.4486 8.00964 35.2111 6.95049 33.6833C5.89134 32.1556 5.1348 30.4139 4.68088 28.4583C4.22696 26.5028 4 24.4861 4 22.4083V6H7.13206V22.4083C7.13206 24.1194 7.29849 25.7847 7.63137 27.4042C7.96424 29.0236 8.52408 30.4597 9.31088 31.7125C10.1279 32.9653 11.2022 33.9736 12.5337 34.7375C13.8652 35.5014 15.5296 35.8833 17.5268 35.8833Z" fill="#54504B"/>
<path d="M45.405 39C43.5591 39 41.7586 38.6944 40.0034 38.0833C38.2482 37.4722 36.7352 36.5861 35.4642 35.425L36.8713 33.3167C38.2028 34.4167 39.5495 35.2417 40.9112 35.7917C42.3033 36.3417 43.7861 36.6167 45.3597 36.6167C47.2661 36.6167 48.7792 36.2347 49.8989 35.4708C51.0488 34.6764 51.6238 33.5611 51.6238 32.125C51.6238 31.4528 51.4725 30.9028 51.1698 30.475C50.8672 30.0167 50.4133 29.6194 49.8081 29.2833C49.2331 28.9472 48.4917 28.6569 47.5839 28.4125C46.7063 28.1375 45.6774 27.8625 44.4972 27.5875C43.1354 27.2514 41.9553 26.9153 40.9566 26.5792C39.958 26.2431 39.1258 25.8611 38.4601 25.4333C37.8246 25.0056 37.3404 24.4861 37.0075 23.875C36.7049 23.2333 36.5536 22.4389 36.5536 21.4917C36.5536 20.3 36.7805 19.2458 37.2345 18.3292C37.7187 17.4125 38.3541 16.6639 39.1409 16.0833C39.958 15.4722 40.8961 15.0139 41.9553 14.7083C43.0447 14.4028 44.1946 14.25 45.405 14.25C47.2207 14.25 48.87 14.5556 50.3528 15.1667C51.8356 15.7472 53.0309 16.5264 53.9388 17.5042L52.4408 19.3375C51.5632 18.4208 50.489 17.7333 49.218 17.275C47.9773 16.8167 46.676 16.5875 45.3143 16.5875C44.4972 16.5875 43.7407 16.6792 43.0447 16.8625C42.3486 17.0153 41.7283 17.275 41.1836 17.6417C40.6691 18.0083 40.2606 18.4819 39.958 19.0625C39.6554 19.6125 39.5041 20.2694 39.5041 21.0333C39.5041 21.675 39.61 22.1944 39.8218 22.5917C40.0336 22.9889 40.3817 23.3403 40.8658 23.6458C41.35 23.9208 41.9553 24.1806 42.6815 24.425C43.4381 24.6389 44.3459 24.8681 45.405 25.1125C46.9181 25.4792 48.2496 25.8458 49.3996 26.2125C50.5495 26.5792 51.5027 27.0069 52.2593 27.4958C53.0461 27.9847 53.6362 28.5806 54.0296 29.2833C54.423 29.9861 54.6196 30.8417 54.6196 31.85C54.6196 34.05 53.7875 35.7917 52.1231 37.075C50.4587 38.3583 48.2194 39 45.405 39Z" fill="#54504B"/>
<path d="M69.8852 39C68.1603 39 66.5716 38.6792 65.1191 38.0375C63.6968 37.3653 62.4561 36.4639 61.3969 35.3333C60.3378 34.1722 59.5056 32.8431 58.9003 31.3458C58.3254 29.8486 58.0379 28.2444 58.0379 26.5333C58.0379 24.8528 58.3254 23.2792 58.9003 21.8125C59.5056 20.3153 60.3226 19.0167 61.3515 17.9167C62.4107 16.7861 63.6665 15.9 65.1191 15.2583C66.5716 14.5861 68.1452 14.25 69.8398 14.25C71.5647 14.25 73.1383 14.5861 74.5606 15.2583C76.0132 15.9 77.2539 16.7861 78.2828 17.9167C79.3117 19.0472 80.1136 20.3458 80.6885 21.8125C81.2635 23.2792 81.551 24.8375 81.551 26.4875C81.551 26.7319 81.551 26.9764 81.551 27.2208C81.551 27.4653 81.5359 27.6333 81.5056 27.725H61.2607C61.3515 29.0083 61.639 30.2 62.1232 31.3C62.6376 32.3694 63.2882 33.3014 64.075 34.0958C64.8618 34.8903 65.7545 35.5167 66.7532 35.975C67.7821 36.4028 68.8715 36.6167 70.0214 36.6167C70.7779 36.6167 71.5345 36.5097 72.291 36.2958C73.0475 36.0819 73.7436 35.7917 74.379 35.425C75.0145 35.0583 75.5895 34.6153 76.1039 34.0958C76.6184 33.5458 77.0118 32.95 77.2841 32.3083L79.9623 33.0417C79.5991 33.9278 79.0847 34.7375 78.4189 35.4708C77.7532 36.1736 76.9815 36.8 76.1039 37.35C75.2264 37.8694 74.258 38.2667 73.1989 38.5417C72.1397 38.8472 71.0352 39 69.8852 39ZM78.6005 25.3417C78.5097 24.0583 78.2071 22.8972 77.6927 21.8583C77.2085 20.7889 76.573 19.8722 75.7862 19.1083C75.0297 18.3444 74.137 17.7486 73.1081 17.3208C72.1094 16.8931 71.0352 16.6792 69.8852 16.6792C68.7353 16.6792 67.6459 16.8931 66.617 17.3208C65.5881 17.7486 64.6803 18.3444 63.8935 19.1083C63.1369 19.8722 62.5166 20.7889 62.0324 21.8583C61.5785 22.9278 61.3061 24.0889 61.2153 25.3417H78.6005Z" fill="#54504B"/>
<path d="M98.1152 17.4125C96.0272 17.4736 94.2115 18.0542 92.6682 19.1542C91.1248 20.2542 90.0354 21.7667 89.3999 23.6917V38.5417H86.3133V14.6625H89.2184V20.3917C90.0959 18.5583 91.2761 17.1222 92.7589 16.0833C94.2418 15.0444 95.8305 14.525 97.5251 14.525C97.7672 14.525 97.9639 14.5403 98.1152 14.5708V17.4125Z" fill="#54504B"/>
<path d="M102.527 38.7708V6.22917H108.787V38.7708H102.527Z" fill="#54504B"/>
<path d="M137.416 36.6625C136.237 37.3958 134.967 37.9764 133.606 38.4042C132.245 38.8014 130.794 39 129.251 39C126.893 39 124.745 38.5264 122.81 37.5792C120.905 36.6319 119.257 35.3944 117.866 33.8667C116.505 32.3389 115.446 30.5819 114.69 28.5958C113.934 26.6097 113.556 24.5778 113.556 22.5C113.556 20.3306 113.949 18.2528 114.736 16.2667C115.552 14.2806 116.656 12.5236 118.047 10.9958C119.468 9.46806 121.147 8.26111 123.082 7.375C125.018 6.45833 127.119 6 129.387 6C131.716 6 133.833 6.48889 135.738 7.46667C137.674 8.41389 139.322 9.66667 140.682 11.225C142.043 12.7833 143.102 14.5556 143.858 16.5417C144.614 18.5278 144.992 20.5444 144.992 22.5917C144.992 24.7 144.614 26.7167 143.858 28.6417C143.132 30.5667 142.104 32.2778 140.773 33.775L145.173 38.7708H139.276L137.416 36.6625ZM129.297 33.4083C130.113 33.4083 130.869 33.3167 131.565 33.1333C132.291 32.9194 132.956 32.6444 133.561 32.3083L128.662 26.7167H134.559L136.781 29.2375C137.386 28.2597 137.855 27.1903 138.188 26.0292C138.52 24.8681 138.687 23.6917 138.687 22.5C138.687 21.0944 138.46 19.7347 138.006 18.4208C137.583 17.1069 136.963 15.9458 136.146 14.9375C135.36 13.9292 134.377 13.1194 133.198 12.5083C132.049 11.8972 130.748 11.5917 129.297 11.5917C127.785 11.5917 126.439 11.9125 125.26 12.5542C124.08 13.1653 123.097 13.9903 122.311 15.0292C121.525 16.0681 120.92 17.2444 120.497 18.5583C120.103 19.8417 119.907 21.1556 119.907 22.5C119.907 23.9056 120.119 25.2653 120.542 26.5792C120.965 27.8931 121.57 29.0542 122.356 30.0625C123.173 31.0708 124.156 31.8806 125.305 32.4917C126.484 33.1028 127.815 33.4083 129.297 33.4083Z" fill="#54504B"/>
</g>
<defs>
<filter id="filter0_ddii_10591_3602" x="0" y="0" width="150" height="45" filterUnits="userSpaceOnUse" color-interpolation-filters="sRGB">
<feFlood flood-opacity="0" result="BackgroundImageFix"/>
<feColorMatrix in="SourceAlpha" type="matrix" values="0 0 0 0 0 0 0 0 0 0 0 0 0 0 0 0 0 0 127 0" result="hardAlpha"/>
<feOffset dy="2"/>
<feGaussianBlur stdDeviation="2"/>
<feComposite in2="hardAlpha" operator="out"/>
<feColorMatrix type="matrix" values="0 0 0 0 1 0 0 0 0 1 0 0 0 0 1 0 0 0 0.4 0"/>
<feBlend mode="normal" in2="BackgroundImageFix" result="effect1_dropShadow_10591_3602"/>
<feColorMatrix in="SourceAlpha" type="matrix" values="0 0 0 0 0 0 0 0 0 0 0 0 0 0 0 0 0 0 127 0" result="hardAlpha"/>
<feOffset dy="-2"/>
<feGaussianBlur stdDeviation="2"/>
<feComposite in2="hardAlpha" operator="out"/>
<feColorMatrix type="matrix" values="0 0 0 0 0 0 0 0 0 0 0 0 0 0 0 0 0 0 0.25 0"/>
<feBlend mode="normal" in2="effect1_dropShadow_10591_3602" result="effect2_dropShadow_10591_3602"/>
<feBlend mode="normal" in="SourceGraphic" in2="effect2_dropShadow_10591_3602" result="shape"/>
<feColorMatrix in="SourceAlpha" type="matrix" values="0 0 0 0 0 0 0 0 0 0 0 0 0 0 0 0 0 0 127 0" result="hardAlpha"/>
<feOffset dy="-2"/>
<feGaussianBlur stdDeviation="2"/>
<feComposite in2="hardAlpha" operator="arithmetic" k2="-1" k3="1"/>
<feColorMatrix type="matrix" values="0 0 0 0 1 0 0 0 0 1 0 0 0 0 1 0 0 0 0.4 0"/>
<feBlend mode="normal" in2="shape" result="effect3_innerShadow_10591_3602"/>
<feColorMatrix in="SourceAlpha" type="matrix" values="0 0 0 0 0 0 0 0 0 0 0 0 0 0 0 0 0 0 127 0" result="hardAlpha"/>
<feOffset dy="2"/>
<feGaussianBlur stdDeviation="2"/>
<feComposite in2="hardAlpha" operator="arithmetic" k2="-1" k3="1"/>
<feColorMatrix type="matrix" values="0 0 0 0 0 0 0 0 0 0 0 0 0 0 0 0 0 0 0.25 0"/>
<feBlend mode="normal" in2="effect3_innerShadow_10591_3602" result="effect4_innerShadow_10591_3602"/>
</filter>
</defs>
</svg>
