<svg width="538" height="125" viewBox="0 0 538 125" fill="none" xmlns="http://www.w3.org/2000/svg">
<path d="M51.2496 113.194C58.9313 113.194 65.2945 111.748 70.3392 108.854C75.4986 105.845 79.5688 101.968 82.5497 97.2222C85.6453 92.3611 87.7664 86.8634 88.9129 80.7292C90.1741 74.5949 90.8047 68.4028 90.8047 62.1528V0H102.843V62.1528C102.843 70.4861 101.926 78.4144 100.092 85.9375C98.2571 93.3449 95.2761 99.8842 91.1486 105.556C87.1358 111.227 81.8618 115.741 75.3266 119.097C68.7914 122.454 60.8231 124.132 51.4216 124.132C41.7908 124.132 33.6505 122.396 27.0006 118.924C20.4654 115.336 15.1914 110.648 11.1786 104.861C7.16577 99.0741 4.29946 92.4768 2.57968 85.0694C0.859893 77.662 0 70.0231 0 62.1528V0H11.8665V62.1528C11.8665 68.6343 12.4971 74.9421 13.7583 81.0764C15.0195 87.2106 17.1405 92.6505 20.1215 97.3958C23.2171 102.141 27.2873 105.961 32.332 108.854C37.3767 111.748 43.6826 113.194 51.2496 113.194Z" fill="#54504B"/>
<path d="M156.873 125C149.879 125 143.057 123.843 136.407 121.528C129.757 119.213 124.025 115.856 119.209 111.458L124.541 103.472C129.585 107.639 134.687 110.764 139.847 112.847C145.121 114.931 150.739 115.972 156.701 115.972C163.924 115.972 169.656 114.525 173.899 111.632C178.255 108.623 180.434 104.398 180.434 98.9583C180.434 96.412 179.86 94.3287 178.714 92.7083C177.567 90.9722 175.848 89.4676 173.555 88.1944C171.376 86.9213 168.567 85.8217 165.128 84.8958C161.803 83.8542 157.905 82.8125 153.433 81.7708C148.274 80.4977 143.802 79.2245 140.019 77.9514C136.235 76.6782 133.082 75.2315 130.56 73.6111C128.152 71.9907 126.318 70.0231 125.057 67.7083C123.91 65.2778 123.337 62.2685 123.337 58.6806C123.337 54.1667 124.197 50.1736 125.917 46.7014C127.751 43.2292 130.159 40.3935 133.14 38.1945C136.235 35.8796 139.789 34.1435 143.802 32.9861C147.93 31.8287 152.287 31.25 156.873 31.25C163.752 31.25 170 32.4074 175.618 34.7222C181.236 36.9213 185.765 39.8727 189.205 43.5764L183.529 50.5208C180.204 47.0486 176.134 44.4444 171.319 42.7083C166.618 40.9722 161.688 40.1042 156.529 40.1042C153.433 40.1042 150.567 40.4514 147.93 41.1458C145.293 41.7245 142.942 42.7083 140.879 44.0972C138.93 45.4861 137.382 47.2801 136.235 49.4792C135.089 51.5625 134.515 54.0509 134.515 56.9444C134.515 59.375 134.917 61.3426 135.719 62.8472C136.522 64.3519 137.84 65.6829 139.675 66.8403C141.509 67.8819 143.802 68.8657 146.554 69.7917C149.42 70.6018 152.86 71.4699 156.873 72.3958C162.605 73.7847 167.65 75.1736 172.007 76.5625C176.364 77.9514 179.975 79.5718 182.841 81.4236C185.822 83.2755 188.058 85.5324 189.549 88.1944C191.039 90.8565 191.784 94.0972 191.784 97.9167C191.784 106.25 188.631 112.847 182.325 117.708C176.02 122.569 167.535 125 156.873 125Z" fill="#54504B"/>
<path d="M249.621 125C243.086 125 237.067 123.785 231.564 121.354C226.175 118.808 221.474 115.394 217.462 111.111C213.449 106.713 210.296 101.678 208.003 96.0069C205.824 90.3356 204.735 84.2593 204.735 77.7778C204.735 71.412 205.824 65.4514 208.003 59.8958C210.296 54.2245 213.391 49.3055 217.29 45.1389C221.302 40.8565 226.06 37.5 231.564 35.0694C237.067 32.5231 243.029 31.25 249.45 31.25C255.985 31.25 261.947 32.5231 267.335 35.0694C272.839 37.5 277.539 40.8565 281.438 45.1389C285.336 49.4213 288.374 54.3403 290.552 59.8958C292.731 65.4514 293.82 71.3542 293.82 77.6042C293.82 78.5301 293.82 79.456 293.82 80.3819C293.82 81.3079 293.763 81.9444 293.648 82.2917H216.946C217.29 87.1528 218.379 91.6667 220.213 95.8333C222.162 99.8843 224.627 103.414 227.608 106.424C230.589 109.433 233.971 111.806 237.755 113.542C241.653 115.162 245.781 115.972 250.137 115.972C253.004 115.972 255.87 115.567 258.736 114.757C261.603 113.947 264.24 112.847 266.647 111.458C269.055 110.069 271.233 108.391 273.183 106.424C275.132 104.34 276.622 102.083 277.654 99.6528L287.801 102.431C286.425 105.787 284.476 108.854 281.953 111.632C279.431 114.294 276.507 116.667 273.183 118.75C269.858 120.718 266.189 122.222 262.176 123.264C258.163 124.421 253.978 125 249.621 125ZM282.641 73.2639C282.297 68.4028 281.151 64.0046 279.202 60.0694C277.367 56.0185 274.96 52.5463 271.979 49.6528C269.112 46.7593 265.73 44.5023 261.832 42.8819C258.048 41.2616 253.978 40.4514 249.621 40.4514C245.265 40.4514 241.137 41.2616 237.239 42.8819C233.341 44.5023 229.901 46.7593 226.92 49.6528C224.054 52.5463 221.704 56.0185 219.869 60.0694C218.149 64.1204 217.118 68.5185 216.774 73.2639H282.641Z" fill="#54504B"/>
<path d="M356.577 43.2292C348.666 43.4606 341.787 45.6597 335.94 49.8264C330.093 53.993 325.965 59.7222 323.557 67.0139V123.264H311.863V32.8125H322.87V54.5139C326.194 47.5694 330.666 42.1296 336.284 38.1945C341.902 34.2593 347.921 32.2917 354.342 32.2917C355.259 32.2917 356.004 32.3495 356.577 32.4653V43.2292Z" fill="#54504B"/>
<path d="M373.291 124.132V0.868057H397.008V124.132H373.291Z" fill="#54504B"/>
<path d="M505.477 116.146C501.008 118.924 496.196 121.123 491.04 122.743C485.884 124.248 480.385 125 474.541 125C465.604 125 457.469 123.206 450.137 119.618C442.918 116.03 436.674 111.343 431.404 105.556C426.248 99.7685 422.238 93.1134 419.373 85.5903C416.509 78.0671 415.077 70.3704 415.077 62.5C415.077 54.2824 416.566 46.412 419.545 38.8889C422.639 31.3657 426.821 24.7106 432.091 18.9236C437.476 13.1366 443.835 8.56482 451.168 5.20833C458.501 1.73611 466.464 0 475.057 0C483.879 0 491.899 1.85185 499.118 5.55556C506.45 9.14352 512.695 13.8889 517.851 19.7917C523.007 25.6944 527.017 32.4074 529.881 39.9306C532.745 47.4537 534.178 55.0926 534.178 62.8472C534.178 70.8333 532.745 78.4722 529.881 85.7639C527.131 93.0555 523.236 99.537 518.194 105.208L534.865 124.132H512.523L505.477 116.146ZM474.713 103.819C477.807 103.819 480.671 103.472 483.306 102.778C486.056 101.968 488.577 100.926 490.868 99.6528L472.307 78.4722H494.649L503.07 88.0208C505.362 84.3171 507.138 80.2662 508.398 75.868C509.659 71.4699 510.289 67.0139 510.289 62.5C510.289 57.1759 509.429 52.0255 507.711 47.0486C506.107 42.0718 503.758 37.6736 500.664 33.8542C497.685 30.0347 493.962 26.9676 489.493 24.6528C485.139 22.338 480.213 21.1806 474.713 21.1806C468.984 21.1806 463.886 22.3958 459.417 24.8264C454.949 27.1412 451.225 30.2662 448.246 34.2014C445.267 38.1366 442.976 42.5926 441.372 47.5694C439.882 52.4305 439.137 57.4074 439.137 62.5C439.137 67.8241 439.939 72.9745 441.543 77.9514C443.148 82.9282 445.439 87.3264 448.418 91.1458C451.512 94.9653 455.235 98.0324 459.589 100.347C464.058 102.662 469.099 103.819 474.713 103.819Z" fill="#54504B"/>
</svg>
