<svg width="641" height="113" viewBox="0 0 641 113" fill="none" xmlns="http://www.w3.org/2000/svg">
<path fill-rule="evenodd" clip-rule="evenodd" d="M173.545 55.4973L173.638 110.995L177.964 111.098L182.291 111.201V80.8668V50.5321L183.668 48.7323C187.35 43.9212 194.933 39.1391 201.622 37.4105C204.945 36.5515 211.785 36.3523 214.761 37.0274C219.987 38.2126 223.934 40.9983 225.816 44.8279C227.911 49.0919 227.949 49.7476 227.949 81.8204V111.201L232.275 111.098L236.601 110.995V79.6225C236.601 48.3878 236.598 48.2373 235.785 45.201C233.671 37.3063 229.553 32.5623 222.837 30.2859C210.481 26.0978 194.904 30.1659 184.753 40.2318L182.291 42.6736V21.3366V0H177.871H173.451L173.545 55.4973ZM571.433 0.877315C568.329 1.98212 566.353 4.50473 566.059 7.73953C565.582 12.9774 569.179 17.0513 574.249 17.0157C581.92 16.9618 585.616 7.94244 580.122 2.68185C577.794 0.453151 574.529 -0.224925 571.433 0.877315ZM265.279 4.37117C260.961 6.32541 260.209 12.1767 263.865 15.3756C266.893 18.0252 271.962 17.066 273.997 13.4584C274.637 12.3235 274.764 11.6154 274.638 9.88017C274.289 5.07456 269.697 2.3718 265.279 4.37117ZM608.194 8.67519C608.054 8.81462 607.94 13.7681 607.94 19.6833V30.4378L601.404 30.538L594.869 30.6382L594.767 36.0503L594.665 41.4624H601.28H607.895L608.036 69.9908C608.192 101.364 608.108 100.184 610.509 104.923C611.659 107.194 614.426 109.983 616.651 111.114C618.576 112.093 623.181 113.016 626.059 113C631.388 112.97 638.073 110.865 640.218 108.539L641 107.692L639.346 103.473C638.437 101.152 637.562 99.1147 637.402 98.9455C637.242 98.7767 636.418 99.1389 635.57 99.7509C633.695 101.104 630.826 101.794 628.037 101.564C625.332 101.34 623.239 99.9171 621.952 97.4253L621.011 95.6039L620.91 68.5334L620.809 41.4624H628.919H637.029V35.9586V30.4547H628.933H620.838L620.741 19.5387L620.643 8.62272L614.546 8.52255C611.192 8.46714 608.334 8.53612 608.194 8.67519ZM26.9566 29.1848C18.9425 30.5875 12.3126 33.9049 6.29237 39.5247L3.57572 42.0605L6.08322 45.0814L8.59109 48.1019L11.3972 45.3827C16.3334 40.5987 21.4188 37.9326 27.6916 36.8407C31.7187 36.1391 37.5688 36.3233 41.0826 37.2615C46.3119 38.6584 51.1321 42.0836 53.2022 45.8732C55.0502 49.2566 55.2494 50.7295 55.2542 61.0305L55.2586 70.5081L53.1414 68.6185C46.2051 62.4285 38.5452 59.6648 28.3794 59.6842C22.5974 59.6953 19.3572 60.402 14.5715 62.6956C5.0191 67.2737 0.0155114 75.2466 4.65984e-05 85.9157C-0.00879041 91.9083 1.2387 96.3154 4.2304 100.862C8.27002 106.999 14.7637 111.078 22.6898 112.455C26.693 113.151 29.7867 113.157 34.2707 112.48C41.9232 111.323 47.8355 108.592 53.3141 103.68L55.2354 101.958L55.3392 106.476L55.4427 110.995L59.7692 111.098L64.0956 111.201V81.0866C64.0956 47.243 64.1328 47.7897 61.4416 42.1963C58.4613 36.0022 52.673 31.6201 44.9488 29.7106C40.777 28.6792 31.4094 28.4054 26.9566 29.1848ZM118.959 29.1514C110.829 30.6327 104.73 33.6756 99.1546 39.0338C93.2095 44.7468 89.9914 50.4943 87.7405 59.4197C86.8565 62.9253 86.7622 63.9582 86.7537 70.266C86.7464 75.7174 86.8929 77.9134 87.4257 80.3369C89.5227 89.8726 93.0354 96.4772 99.2423 102.555C107.73 110.867 119.471 114.397 132.246 112.478C139.711 111.357 145.213 108.557 150.766 103.053C154.913 98.9422 154.896 99.5825 150.95 96.096L148.432 93.872L145.202 97.1127C139.695 102.638 135.416 104.536 127.769 104.846C120.791 105.128 116.428 104.076 110.705 100.729C106.083 98.0275 101.447 92.5728 99.1001 87.077C95.319 78.2227 94.9618 66.3553 98.1936 56.9591C101.905 46.1701 109.752 39.0591 120.194 37.0234C123.462 36.386 130.216 36.5713 133.372 37.3848C138.584 38.7281 144.064 42.2168 146.908 46.0013L148.161 47.6697L149.301 46.7146C149.928 46.1895 151.331 44.9688 152.42 44.0019L154.4 42.2443L152.493 40.0604C147.848 34.7389 142.342 31.317 135.795 29.6838C131.861 28.7019 122.97 28.4208 118.959 29.1514ZM326.3 29.3954C322.147 30.2643 318.065 31.7881 314.924 33.6422C305.43 39.2473 299.367 47.5647 296.141 59.4105C295.246 62.6938 295.183 63.4518 295.19 70.8164C295.198 78.1145 295.269 78.9665 296.141 82.191C298.801 92.0297 303.128 99.0383 309.872 104.437C319.832 112.409 333.712 114.945 347.616 111.332C353.763 109.735 361.738 105.235 365.578 101.198L366.787 99.9274L364.53 97.1098L362.273 94.2918L360.226 96.1551C355.664 100.311 351.279 102.649 344.671 104.449C341.277 105.373 331.143 105.376 327.733 104.453C318.526 101.962 310.672 94.9585 307.091 86.0459C305.841 82.9355 304.549 77.4027 304.541 75.1277L304.536 73.7518H338.054C368.253 73.7518 371.595 73.6945 371.796 73.1724C372.112 72.3516 371.295 63.0596 370.637 59.9921C367.924 47.3479 360.904 37.4934 351.072 32.5264C343.875 28.8909 334.424 27.6962 326.3 29.3954ZM501.356 29.3646C493.649 30.9823 488.241 33.8308 482.618 39.2334C476.788 44.8337 473.284 50.9632 471.081 59.4105C469.8 64.3203 469.487 73.0968 470.399 78.5585C472.732 92.5364 480.23 103.176 491.77 108.883C502.864 114.368 517.942 114.276 529.696 108.651C533.449 106.854 538.275 103.513 540.512 101.163L541.754 99.8577L539.461 97.061L537.168 94.2647L535.273 96.045C531.246 99.8283 525.954 102.731 520.306 104.254C516.123 105.382 506.405 105.483 502.632 104.438C495.797 102.543 489.736 98.4087 485.849 92.9889C482.545 88.3832 480.082 81.8175 479.561 76.2303L479.33 73.7558L512.982 73.6619L546.633 73.5683L546.567 69.4771C546.384 58.1278 542.342 47.1274 535.649 39.7606C532.138 35.8969 526.402 32.2156 521.227 30.5061C515.398 28.5805 507.306 28.1159 501.356 29.3646ZM263.91 30.6994C263.775 30.8337 263.665 48.9965 263.665 71.0611V111.178H268.083H272.502V70.8164V30.4547H268.329C266.033 30.4547 264.045 30.5648 263.91 30.6994ZM382.021 31.0858C382.157 31.445 389.84 49.6159 399.094 71.4658L415.919 111.193L420.851 111.094L425.782 110.995L442.662 71.1833C451.945 49.2871 459.544 31.1658 459.547 30.9134C459.55 30.5696 458.348 30.4547 454.745 30.4547H449.938L449.094 32.3811C448.63 33.4407 442.149 49.0853 434.692 67.1471C427.235 85.209 421.038 100.101 420.92 100.24C420.802 100.379 414.137 84.7756 406.109 65.5657L391.512 30.6382L386.642 30.5354C382.103 30.4397 381.789 30.4771 382.021 31.0858ZM568.173 70.8252V111.196L574.341 111.095L580.508 110.995L580.602 70.7246L580.696 30.4547H574.435H568.173V70.8252ZM339.952 36.8583C349.007 38.7703 356.202 44.764 360.014 53.5691C361.601 57.2354 362.327 60.0956 362.598 63.7531L362.822 66.7802H333.626H304.43L304.663 64.3035C305.02 60.512 306.2 56.7246 308.407 52.2867C312.557 43.945 319.469 38.3164 327.549 36.7005C330.007 36.2088 337.318 36.3016 339.952 36.8583ZM517.177 37.4215C522.747 39.2011 527.3 42.2198 530.597 46.3194C532.908 49.1939 535.889 55.1472 536.702 58.5138C537.349 61.1956 537.956 66.3149 537.661 66.6088C537.567 66.7031 524.404 66.7802 508.411 66.7802H479.333L479.574 64.4447C480.364 56.7511 484.162 48.8761 489.621 43.6082C493.126 40.2255 496.426 38.3733 501.344 37.0274C505.026 36.0195 513.443 36.229 517.177 37.4215ZM37.5268 67.1368C43.9892 68.4519 48.5038 70.721 52.7732 74.7997L55.2586 77.1744V86.305V95.4359L52.7382 97.8946C46.9625 103.529 39.1638 106.314 30.2204 105.935C23.093 105.632 17.8158 103.41 13.8951 99.0604C10.6888 95.5034 9.23251 91.552 9.23251 86.4106C9.23251 72.4118 21.703 63.9171 37.5268 67.1368Z" fill="#54504B"/>
</svg>
