<svg width="2311" height="1963" viewBox="0 0 2311 1963" fill="none" xmlns="http://www.w3.org/2000/svg">
<path opacity="0.64" d="M993.883 1490.02C752.017 1478.35 523.467 1329.42 384.004 1235.66C241.153 1191.24 141.33 1034.89 195.827 912.799C250.324 790.706 121.613 659.904 341.453 545.542C561.294 431.18 568.998 534.147 715.807 476.526C862.615 418.904 937.97 507.984 1111.53 530.189C1285.09 552.395 1179.37 636.338 1445.88 691.431C1712.4 746.525 1797.28 717.227 1895.88 890.921C1994.47 1064.61 1989.48 1117.15 1932.24 1234.42C1874.99 1351.69 1782.14 1406.24 1569.11 1510.81C1356.07 1615.39 1235.75 1501.69 993.883 1490.02Z" fill="#F1EFEC"/>
<path opacity="0.5" d="M2008.48 1221.34C2132.23 1215.38 2207.8 1243.16 2238.55 1271.84C2409.1 1376.36 1925.32 1641.24 1824.71 1609.84C1724.1 1578.43 1585.09 1619.79 1486.68 1659.27C1388.26 1698.74 1310.13 1709.36 1076.34 1745.16C842.551 1780.96 753.624 1731.67 668.087 1691.58C582.55 1651.5 765.127 1324.66 910.215 1296.98C1055.3 1269.29 1076.72 1317.94 1186.4 1341.55C1296.09 1365.15 1387.95 1364.67 1510.31 1349.2C1632.67 1333.74 1638.62 1304.55 1723.5 1270.29C1808.38 1236.03 1884.74 1227.29 2008.48 1221.34Z" fill="#C1E3CB"/>
<path d="M362.764 1727L372.122 1722.74C372.331 1722.65 372.501 1722.48 372.603 1722.28L375.363 1716.76C375.468 1716.55 375.642 1716.38 375.857 1716.29L382.315 1713.46C382.479 1713.39 382.616 1713.28 382.72 1713.13C399.199 1690.29 431.849 1640.55 431.849 1622.64C431.849 1604.67 442.996 1608.4 448.57 1612.51L451.791 1614.3C452.218 1614.54 452.753 1614.43 453.058 1614.05L455.647 1610.81C455.892 1610.51 456.295 1610.37 456.675 1610.47C463.186 1612.15 475.567 1615.55 477.612 1616.92C479.628 1618.26 482.34 1618.38 483.603 1618.26C483.716 1618.24 483.824 1618.21 483.921 1618.15C484.836 1617.6 486.412 1615.85 486.412 1612.51C486.412 1609.12 504.407 1598.08 514.375 1592.43C514.93 1592.11 515.63 1592.39 515.816 1593.01L518.432 1601.61C518.498 1601.83 518.632 1602.01 518.821 1602.14C525.77 1606.79 540.884 1614.18 548.614 1608.33C548.799 1608.19 549.023 1608.11 549.253 1608.11H552.083C552.3 1608.11 552.51 1608.18 552.683 1608.31L555.782 1610.63C555.884 1610.71 556 1610.77 556.124 1610.8L562.165 1612.41C562.404 1612.48 562.609 1612.63 562.75 1612.83C564.525 1615.41 568.914 1620 573.978 1620C579.041 1620 584.508 1617.03 586.889 1615.36C587.079 1615.23 587.303 1615.16 587.535 1615.17C590.353 1615.24 596.686 1614.48 602.363 1610.89C602.505 1610.8 602.668 1610.74 602.836 1610.73L626.861 1609.02C627.094 1609 627.311 1608.9 627.481 1608.74C631.302 1605.14 640.143 1598.33 647.023 1597.98C653.896 1597.64 664.124 1599.5 668.7 1600.55C668.913 1600.6 669.132 1600.58 669.331 1600.49L676.945 1597.1L683.429 1594.26C683.771 1594.11 683.998 1593.79 684.04 1593.41C684.309 1590.99 685.362 1586.48 687.945 1583.89C690.762 1581.07 697.919 1578.9 701.146 1578.17L704.536 1577.04C704.887 1576.92 705.145 1576.62 705.206 1576.25L706.309 1569.62C706.38 1569.2 706.709 1568.87 707.132 1568.81C714.392 1567.7 728.045 1567.19 729.748 1573.32C731.362 1580.81 735.733 1596.4 740.309 1598.86C744.841 1601.3 760.966 1599.92 768.686 1598.89C768.837 1598.87 768.985 1598.89 769.13 1598.93C771.856 1599.82 777.319 1601.21 779.032 1600.18C781.232 1598.86 800.593 1595.34 805.873 1597.1C809.893 1598.44 819.808 1596.7 824.93 1595.52C825.372 1595.41 825.824 1595.62 826.048 1596.01C829.967 1602.91 839.358 1615 848.556 1612.95C857.933 1610.87 862.085 1599.18 863.04 1593.37C863.066 1593.21 863.124 1593.07 863.218 1592.94C865.231 1590.23 870.339 1584.92 875.838 1583.89C881.299 1582.87 890.236 1581.76 894.384 1581.29C894.626 1581.26 894.849 1581.15 895.013 1580.97L898.934 1576.65C899.08 1576.49 899.275 1576.38 899.489 1576.34L906.028 1575.12C906.142 1575.09 906.251 1575.05 906.351 1574.99L913.381 1570.86C913.575 1570.74 913.8 1570.7 914.023 1570.72C918.388 1571.27 926.733 1571.18 927.761 1566.72C928.798 1562.22 925.395 1550.28 923.466 1544.57C923.397 1544.37 923.265 1544.19 923.089 1544.07C920.25 1542.05 915.397 1537.44 916.761 1533.69C918.521 1528.85 921.161 1523.12 913.68 1522.68C908.133 1522.36 903.921 1524.02 902.168 1525.09C901.928 1525.23 901.642 1525.29 901.376 1525.2C899.872 1524.7 896.991 1522.99 894.759 1519.16C892.551 1515.37 886.878 1521.44 883.507 1526.02C883.035 1526.66 882.021 1526.56 881.674 1525.84C879.803 1521.98 876.017 1515.67 871.124 1511.68C870.79 1511.41 870.653 1510.96 870.795 1510.55C873.027 1504.2 877.452 1492.66 880.822 1487.09C881.309 1486.28 880.598 1485.09 879.669 1485.22L873.55 1486.13C872.597 1486.27 872.015 1485.12 872.696 1484.44L877.212 1479.92C877.842 1479.29 877.396 1478.21 876.505 1478.21H874.75C874.023 1478.21 873.539 1477.46 873.84 1476.8L874.756 1474.78C875.057 1474.12 874.572 1473.37 873.845 1473.37H856.709C856.115 1473.37 855.652 1472.85 855.715 1472.26L856.84 1461.75C856.886 1461.32 857.197 1460.97 857.614 1460.88L870.275 1458.02C870.46 1457.98 870.628 1457.88 870.762 1457.75L875.205 1453.3C875.331 1453.18 875.489 1453.09 875.662 1453.04L887.136 1450.06C887.23 1450.04 887.321 1450 887.405 1449.95L897.19 1443.99C897.328 1443.91 897.479 1443.86 897.64 1443.84C902.143 1443.49 911.543 1441.19 915 1434.62C918.496 1427.97 924.016 1421.06 926.391 1418.38C926.426 1418.34 926.454 1418.3 926.481 1418.26C927.747 1416.19 928.36 1410.31 921.198 1402.54C920.916 1402.23 920.84 1401.78 921.021 1401.41L926.254 1390.53C926.373 1390.28 926.385 1390 926.286 1389.74L922.167 1379.02C922.085 1378.81 922.079 1378.58 922.144 1378.36C922.997 1375.48 923.841 1370.16 921.931 1367.2C921.51 1366.54 921.626 1365.52 922.336 1365.2L924.551 1364.22C924.637 1364.18 924.726 1364.16 924.819 1364.14C928.02 1363.67 934.892 1361.39 938.462 1355.84C938.654 1355.54 938.978 1355.36 939.332 1355.35C944.458 1355.27 953.988 1354.16 955.453 1350.16C955.474 1350.1 955.497 1350.05 955.526 1349.99C957.705 1346.03 962.028 1335.55 962.503 1324.22C962.518 1323.87 962.715 1323.55 963.027 1323.38L972.103 1318.42C972.17 1318.38 972.233 1318.34 972.291 1318.29L980.428 1311C980.519 1310.92 980.622 1310.86 980.736 1310.82C982.726 1310.11 986.972 1309.56 989.365 1312.64C992.446 1316.6 996.406 1321.01 1003.01 1319.69C1008.16 1318.66 1011.5 1309.7 1012.61 1305.04C1012.66 1304.83 1012.78 1304.64 1012.95 1304.5C1015.68 1302.43 1020.91 1301.39 1021.93 1312.64C1022.51 1317.05 1023.78 1326.12 1024.13 1327.17C1024.57 1328.49 1036.33 1322.82 1037.32 1312.79C1037.32 1312.69 1037.35 1312.6 1037.38 1312.51C1039.88 1306.15 1044.36 1292.98 1042.61 1290.18C1040.89 1287.43 1028.69 1287.26 1022.38 1287.52C1022.09 1287.53 1021.81 1287.42 1021.61 1287.22C1018.32 1283.89 1010.5 1277.76 1003.01 1277.41C993.326 1276.97 983.205 1276.97 977.485 1273.01C976.472 1272.14 974.204 1270.08 973.129 1268.67C973.099 1268.63 973.074 1268.59 973.05 1268.54C972.011 1266.58 969.912 1261.05 969.564 1254.08C969.231 1247.41 965.199 1243.38 962.902 1241.96C962.664 1241.82 962.484 1241.6 962.417 1241.33C961.509 1237.63 959.883 1228.46 959.883 1217.97C960.177 1210.78 959.619 1194.9 955.043 1188.91C950.487 1182.94 944.098 1170.96 941.437 1165.64C941.413 1165.59 941.394 1165.54 941.378 1165.49L936.584 1150.23C936.569 1150.18 936.558 1150.13 936.551 1150.09C936.115 1147.27 935.697 1141.61 937.442 1140.91C939.158 1140.22 931.531 1130.83 927.206 1125.87C927.001 1125.63 926.7 1125.51 926.388 1125.53C922.112 1125.76 913.951 1125.26 911.92 1121.54C909.863 1117.76 910.978 1112.57 911.851 1110.26C911.896 1110.15 911.92 1110.02 911.92 1109.89V1100.92C911.92 1100.38 911.498 1099.94 910.962 1099.92L891.108 1099.09C890.907 1099.08 890.707 1099.14 890.536 1099.24L873.746 1109.74C873.413 1109.95 873.232 1110.34 873.286 1110.73L874.872 1122.24C874.925 1122.61 874.757 1122.99 874.426 1123.19C872.74 1124.16 869.972 1125.15 868.46 1123.62C868.086 1123.25 867.537 1123.02 867.05 1123.23L857.203 1127.45C856.493 1127.76 855.72 1127.17 855.817 1126.41L858.581 1104.67C858.638 1104.23 858.392 1103.8 857.981 1103.63L841.506 1096.62C841.233 1096.5 840.923 1096.51 840.659 1096.65L820.803 1106.79C820.18 1107.1 819.432 1106.71 819.356 1106.01C818.15 1095.03 816.097 1075.02 816.434 1072.66C816.778 1070.25 810.163 1059.26 806.572 1053.68C806.408 1053.43 806.368 1053.12 806.461 1052.83C808.757 1045.63 811.227 1030.6 803.803 1024.33C803.718 1024.26 803.643 1024.17 803.585 1024.08L780.352 986.351C769.791 967.123 746.557 927.874 738.109 924.704C729.728 921.559 713.438 919.598 706.162 918.994C706.043 918.984 705.931 918.953 705.823 918.903L677.111 905.407C677.001 905.355 676.902 905.284 676.817 905.197L663.826 891.778C663.517 891.458 663.456 890.976 663.666 890.584C666.553 885.222 670.058 875.007 663.304 872.304C656.487 869.575 650.22 865.8 647.699 864.098C647.544 863.993 647.423 863.847 647.348 863.676L638.452 843.326C638.31 843.001 638.35 842.629 638.546 842.333C640.912 838.763 644.433 830.102 641.742 820.344C638.942 810.186 637.36 796.865 636.91 791.375C636.904 791.31 636.906 791.249 636.913 791.185L639.521 768.128C639.535 768.006 639.569 767.891 639.626 767.783C641.609 764.03 647.123 755.632 654.063 750.77C660.754 746.083 699.772 720.608 721.254 706.626C722.119 706.063 721.655 704.728 720.626 704.798L648.497 709.748C647.932 709.787 647.584 710.427 647.106 710.731C645.343 711.85 636.76 708.092 611.588 686.221C611.456 686.106 611.296 686.024 611.123 685.991C599.201 683.731 574.544 681.74 566.717 690.907C566.338 691.351 565.67 691.45 565.217 691.082L559.705 686.6C559.312 686.281 559.216 685.729 559.469 685.291C566.297 673.437 571.346 640.334 539.656 596.212C530.446 580.558 507.948 548.954 491.418 547.349C491.307 547.338 491.204 547.312 491.102 547.268C487.062 545.512 477.986 543.16 472.771 547.334C466.207 552.589 464.865 567.861 438.015 571.494C437.737 571.531 437.481 571.678 437.319 571.907C432.676 578.509 423.268 592.06 420.848 596.212C417.78 601.475 423.879 590.575 416.102 611.806C416.043 611.968 415.939 612.122 415.807 612.234L389.836 634.325C389.686 634.453 389.577 634.622 389.523 634.812L378.165 674.592L370.304 699.501C370.265 699.627 370.201 699.743 370.117 699.843L361.004 710.7" stroke="#C2BFBC" stroke-width="2" stroke-dasharray="4 4"/>
<path d="M726.004 704.013C756.439 703.647 826.28 710.812 862.572 742.367C862.704 742.482 862.855 742.558 863.027 742.592C924.098 754.74 1047.15 786.617 1052.83 817.397C1058.46 847.94 1055.25 877.401 1052.89 888.645C1052.85 888.851 1052.74 889.026 1052.59 889.167L1033.96 905.96C1033.58 906.303 1033.52 906.878 1033.82 907.292L1057.82 940.23C1058.03 940.514 1058.07 940.875 1057.94 941.202C1052.81 954.082 1052.46 987.859 1091.02 1024.35C1129.95 1061.2 1177.99 1090.92 1197.38 1101.3C1197.52 1101.37 1197.66 1101.41 1197.83 1101.41C1208.09 1101.41 1237.02 1101.41 1272.88 1101.41C1273.01 1101.41 1273.13 1101.43 1273.25 1101.48C1294.95 1110.28 1344.19 1122.49 1368.99 1101.41C1393.82 1080.3 1443.74 1100.61 1465.7 1113.46C1465.76 1113.5 1465.82 1113.54 1465.88 1113.59C1495.22 1141.5 1557.28 1195.41 1571.48 1188.37C1585.69 1181.33 1534.18 1070.22 1506.65 1015.54C1505.46 1012.24 1504.87 1004.1 1511.98 997.931C1519.08 991.766 1578.29 1035.73 1607 1058.48" stroke="#2E3A33" stroke-opacity="0.4" stroke-width="2" stroke-dasharray="4 4"/>
<path d="M1834 1472C1737.8 1306.46 1545.6 961.534 1538.18 892.174C1538.09 891.293 1539.12 890.987 1539.79 891.572L1729.7 1058.82C1740.51 1068.45 1765.22 1083.93 1777.62 1068.82C1788.5 1055.58 1776.33 1031.69 1766.2 1017.52C1765.53 1016.58 1766.83 1015.15 1767.82 1015.73C1781.3 1023.62 1802.58 1032.8 1811.39 1024.45C1811.43 1024.41 1811.47 1024.37 1811.5 1024.32L1832.59 995.515" stroke="#EA5B47" stroke-opacity="0.4" stroke-width="2" stroke-dasharray="4 4"/>
</svg>
