<svg width="1440" height="1184" viewBox="0 0 1440 1184" fill="none" xmlns="http://www.w3.org/2000/svg">
<path d="M-1.23988 1183L8.11849 1178.74C8.32699 1178.65 8.49662 1178.48 8.599 1178.28L11.3591 1172.76C11.4637 1172.55 11.6383 1172.38 11.8526 1172.29L18.3115 1169.46C18.4751 1169.39 18.6118 1169.28 18.7163 1169.13C35.1947 1146.29 67.8447 1096.55 67.8447 1078.64C67.8447 1060.67 78.9921 1064.4 84.5658 1068.51L87.787 1070.3C88.2137 1070.54 88.7492 1070.43 89.054 1070.05L91.6429 1066.81C91.8884 1066.51 92.2908 1066.37 92.6715 1066.47C99.1823 1068.15 111.563 1071.55 113.608 1072.92C115.624 1074.26 118.336 1074.38 119.599 1074.26C119.712 1074.24 119.82 1074.21 119.917 1074.15C120.832 1073.6 122.408 1071.85 122.408 1068.51C122.408 1065.12 140.403 1054.08 150.371 1048.43C150.926 1048.11 151.626 1048.39 151.812 1049.01L154.428 1057.61C154.494 1057.83 154.628 1058.01 154.817 1058.14C161.766 1062.79 176.88 1070.18 184.611 1064.33C184.795 1064.19 185.019 1064.11 185.25 1064.11H188.079C188.296 1064.11 188.506 1064.18 188.679 1064.31L191.778 1066.63C191.88 1066.71 191.996 1066.77 192.12 1066.8L198.161 1068.41C198.401 1068.48 198.606 1068.63 198.746 1068.83C200.521 1071.41 204.91 1076 209.974 1076C215.037 1076 220.504 1073.03 222.885 1071.36C223.075 1071.23 223.299 1071.16 223.531 1071.17C226.349 1071.24 232.682 1070.48 238.359 1066.89C238.501 1066.8 238.664 1066.74 238.832 1066.73L262.857 1065.02C263.09 1065 263.307 1064.9 263.477 1064.74C267.299 1061.14 276.139 1054.33 283.019 1053.98C289.892 1053.64 300.12 1055.5 304.696 1056.55C304.909 1056.6 305.128 1056.58 305.327 1056.49L312.941 1053.1L319.425 1050.26C319.767 1050.11 319.995 1049.79 320.036 1049.41C320.305 1046.99 321.358 1042.48 323.942 1039.89C326.758 1037.07 333.916 1034.9 337.142 1034.17L340.532 1033.04C340.883 1032.92 341.141 1032.62 341.202 1032.25L342.305 1025.62C342.376 1025.2 342.705 1024.87 343.128 1024.81C350.388 1023.7 364.041 1023.19 365.744 1029.32C367.358 1036.81 371.729 1052.4 376.305 1054.86C380.837 1057.3 396.962 1055.92 404.682 1054.89C404.834 1054.87 404.981 1054.89 405.126 1054.93C407.852 1055.82 413.315 1057.21 415.028 1056.18C417.228 1054.86 436.589 1051.34 441.869 1053.1C445.889 1054.44 455.804 1052.7 460.926 1051.52C461.368 1051.41 461.82 1051.62 462.044 1052.01C465.963 1058.91 475.354 1071 484.552 1068.95C493.93 1066.87 498.081 1055.18 499.036 1049.37C499.062 1049.21 499.12 1049.07 499.214 1048.94C501.227 1046.23 506.335 1040.92 511.834 1039.89C517.295 1038.87 526.232 1037.76 530.38 1037.29C530.622 1037.26 530.846 1037.15 531.009 1036.97L534.93 1032.65C535.076 1032.49 535.271 1032.38 535.486 1032.34L542.024 1031.12C542.138 1031.09 542.247 1031.05 542.347 1030.99L549.377 1026.86C549.571 1026.74 549.796 1026.7 550.02 1026.72C554.384 1027.27 562.729 1027.18 563.757 1022.72C564.794 1018.22 561.391 1006.28 559.462 1000.57C559.393 1000.37 559.261 1000.19 559.085 1000.07C556.246 998.049 551.393 993.444 552.757 989.692C554.517 984.848 557.157 979.123 549.677 978.683C544.129 978.357 539.917 980.023 538.164 981.086C537.924 981.232 537.638 981.294 537.372 981.205C535.868 980.698 532.987 978.988 530.755 975.16C528.547 971.372 522.874 977.44 519.503 982.016C519.032 982.656 518.017 982.558 517.671 981.842C515.799 977.98 512.013 971.674 507.12 967.682C506.786 967.41 506.649 966.96 506.792 966.553C509.023 960.198 513.448 948.658 516.818 943.088C517.305 942.284 516.595 941.087 515.665 941.225L509.546 942.132C508.593 942.273 508.011 941.117 508.692 940.436L513.209 935.916C513.838 935.286 513.392 934.209 512.501 934.209H510.746C510.019 934.209 509.535 933.457 509.836 932.795L510.752 930.779C511.053 930.117 510.569 929.365 509.841 929.365H492.705C492.111 929.365 491.648 928.85 491.711 928.259L492.837 917.747C492.882 917.322 493.193 916.972 493.611 916.878L506.271 914.017C506.456 913.975 506.625 913.882 506.758 913.749L511.201 909.302C511.328 909.176 511.485 909.086 511.658 909.041L523.132 906.064C523.227 906.04 523.317 906.001 523.401 905.95L533.186 899.99C533.324 899.906 533.476 899.858 533.636 899.845C538.139 899.487 547.539 897.189 550.997 890.615C554.492 883.969 560.012 877.062 562.387 874.379C562.422 874.34 562.451 874.303 562.478 874.259C563.743 872.187 564.356 866.307 557.194 858.539C556.912 858.232 556.837 857.782 557.017 857.406L562.25 846.53C562.37 846.282 562.381 845.995 562.282 845.738L558.163 835.02C558.081 834.808 558.075 834.575 558.14 834.358C558.993 831.481 559.837 826.163 557.927 823.197C557.506 822.543 557.622 821.52 558.332 821.204L560.547 820.219C560.633 820.181 560.722 820.156 560.815 820.142C564.017 819.667 570.888 817.392 574.458 811.842C574.65 811.544 574.974 811.356 575.328 811.35C580.454 811.273 589.984 810.159 591.449 806.158C591.47 806.1 591.493 806.046 591.523 805.992C593.701 802.033 598.024 791.554 598.499 780.224C598.514 779.869 598.711 779.546 599.023 779.376L608.099 774.422C608.166 774.385 608.229 774.34 608.287 774.289L616.424 767.003C616.515 766.922 616.618 766.858 616.733 766.817C618.722 766.111 622.969 765.563 625.362 768.642C628.442 772.605 632.402 777.008 639.002 775.687C644.159 774.655 647.497 765.7 648.607 761.043C648.658 760.829 648.773 760.638 648.948 760.505C651.677 758.431 656.902 757.393 657.924 768.642C658.51 773.045 659.772 782.116 660.124 783.173C660.562 784.488 672.33 778.825 673.311 768.788C673.321 768.692 673.341 768.599 673.377 768.509C675.881 762.146 680.353 748.983 678.605 746.185C676.887 743.434 664.688 743.256 658.376 743.522C658.087 743.534 657.81 743.422 657.606 743.216C654.315 739.892 646.494 733.755 639.002 733.415C629.322 732.974 619.201 732.974 613.481 729.011C612.468 728.143 610.201 726.075 609.125 724.667C609.095 724.627 609.07 724.588 609.046 724.544C608.007 722.578 605.908 717.045 605.56 710.077C605.227 703.414 601.196 699.377 598.898 697.965C598.66 697.819 598.48 697.597 598.413 697.326C597.505 693.631 595.88 684.465 595.88 673.969C596.173 666.777 595.616 650.895 591.039 644.907C586.483 638.944 580.094 626.957 577.433 621.638C577.409 621.59 577.39 621.543 577.374 621.493L572.58 606.228C572.565 606.181 572.554 606.134 572.547 606.085C572.111 603.271 571.693 597.608 573.438 596.91C575.154 596.223 567.527 586.828 563.202 581.869C562.997 581.634 562.696 581.512 562.384 581.529C558.108 581.757 549.947 581.261 547.916 577.535C545.859 573.761 546.974 568.566 547.847 566.264C547.892 566.146 547.916 566.021 547.916 565.894V556.918C547.916 556.382 547.494 555.941 546.958 555.918L527.104 555.091C526.903 555.082 526.703 555.135 526.532 555.242L509.743 565.743C509.409 565.952 509.228 566.337 509.282 566.727L510.868 578.235C510.921 578.615 510.754 578.994 510.422 579.186C508.736 580.161 505.968 581.147 504.456 579.625C504.082 579.249 503.533 579.019 503.046 579.228L493.199 583.451C492.489 583.756 491.716 583.173 491.813 582.406L494.577 560.672C494.634 560.228 494.389 559.801 493.977 559.625L477.502 552.619C477.229 552.503 476.919 552.514 476.656 552.648L456.799 562.786C456.176 563.104 455.429 562.708 455.352 562.013C454.146 551.03 452.093 531.017 452.43 528.657C452.774 526.251 446.159 515.259 442.569 509.684C442.404 509.428 442.364 509.12 442.457 508.83C444.754 501.628 447.223 486.603 439.799 480.328C439.714 480.256 439.639 480.172 439.581 480.077L416.348 442.351C405.787 423.123 382.553 383.874 374.105 380.704C365.724 377.559 349.435 375.598 342.158 374.994C342.039 374.984 341.927 374.953 341.819 374.903L313.107 361.407C312.997 361.355 312.898 361.284 312.813 361.197L299.822 347.778C299.513 347.458 299.452 346.976 299.662 346.584C302.549 341.222 306.054 331.007 299.3 328.304C292.483 325.575 286.216 321.8 283.695 320.098C283.54 319.993 283.419 319.847 283.345 319.676L274.448 299.326C274.306 299.001 274.346 298.629 274.542 298.333C276.909 294.763 280.429 286.102 277.739 276.344C274.938 266.186 273.356 252.864 272.906 247.375C272.901 247.31 272.902 247.249 272.909 247.185L275.518 224.128C275.531 224.006 275.565 223.891 275.622 223.783C277.605 220.03 283.12 211.632 290.059 206.77C296.751 202.083 335.768 176.608 357.25 162.626C358.115 162.063 357.651 160.728 356.623 160.798L284.493 165.748C283.928 165.787 283.58 166.427 283.102 166.731C281.339 167.85 272.757 164.092 247.585 142.221C247.452 142.106 247.292 142.024 247.119 141.991C235.197 139.731 210.54 137.74 202.713 146.907C202.334 147.351 201.666 147.45 201.214 147.082L195.701 142.6C195.309 142.281 195.212 141.729 195.465 141.291C202.293 129.437 207.342 96.3335 175.652 52.2115C166.442 36.5583 143.944 4.95403 127.414 3.34915C127.303 3.33838 127.2 3.31218 127.098 3.26777C123.058 1.51218 113.982 -0.840322 108.767 3.33411C102.203 8.58921 100.861 23.8613 74.0112 27.4936C73.7334 27.5312 73.4768 27.678 73.3155 27.9073C68.6721 34.509 59.2639 48.0601 56.844 52.2115C53.7761 57.4745 59.875 46.575 52.0981 67.8062C52.0388 67.968 51.9347 68.1224 51.8034 68.234L25.8325 90.3249C25.6821 90.4528 25.573 90.6223 25.5188 90.8121L14.1611 130.592L6.30046 155.501C6.26095 155.627 6.19716 155.743 6.11275 155.843L-3 166.7" stroke="#C2BFBC" stroke-width="2" stroke-dasharray="4 4"/>
<path d="M362 160.013C392.435 159.647 462.276 166.812 498.568 198.367C498.7 198.482 498.851 198.558 499.023 198.592C560.094 210.74 683.147 242.617 688.823 273.397C694.455 303.94 691.25 333.401 688.887 344.645C688.844 344.851 688.739 345.026 688.582 345.167L669.954 361.96C669.573 362.303 669.513 362.878 669.815 363.292L693.817 396.23C694.024 396.514 694.07 396.875 693.939 397.202C688.806 410.082 688.458 443.859 727.011 480.351C765.945 517.204 813.99 546.917 833.372 557.295C833.517 557.373 833.659 557.408 833.823 557.408C844.087 557.408 873.015 557.408 908.875 557.408C909.005 557.408 909.129 557.431 909.248 557.48C930.95 566.281 980.188 578.487 1004.99 557.408C1029.82 536.304 1079.74 556.614 1101.69 569.46C1101.76 569.499 1101.82 569.541 1101.87 569.594C1131.21 597.504 1193.28 651.411 1207.48 644.372C1221.69 637.327 1170.18 526.218 1142.64 471.544C1141.46 468.241 1140.87 460.095 1147.97 453.931C1155.08 447.766 1214.28 491.726 1243 514.476" stroke="#2E3A33" stroke-opacity="0.4" stroke-width="2" stroke-dasharray="4 4"/>
<path d="M1470 928C1373.79 762.465 1181.59 417.534 1174.18 348.174C1174.08 347.293 1175.12 346.987 1175.79 347.572L1365.7 514.824C1376.5 524.45 1401.22 539.926 1413.62 524.821C1424.49 511.576 1412.33 487.688 1402.2 473.517C1401.53 472.582 1402.82 471.148 1403.82 471.729C1417.3 479.621 1438.57 488.799 1447.38 480.453C1447.43 480.414 1447.46 480.37 1447.5 480.323L1468.59 451.515" stroke="#EA5B47" stroke-opacity="0.4" stroke-width="2" stroke-dasharray="4 4"/>
</svg>
