<svg width="1440" height="2865" viewBox="0 0 1440 2865" fill="none" xmlns="http://www.w3.org/2000/svg">
<path opacity="0.64" d="M982.726 3676.8C775.958 3723.9 478.32 3651.68 294.562 3605.18C144.607 3601.23 -53.0906 3492.41 -98.9845 3376.24C-144.878 3260.06 -159.772 309.88 -64.499 161.297C29.5031 14.6943 49.9761 144.064 127.501 60.7094C205.026 -22.6453 358.372 34.9997 517.001 12.9084C675.63 -9.18291 699.344 76.8618 958.501 60.7094C1217.66 44.5569 1229.82 -29.428 1472.5 12.9085C1746.5 60.7095 1521.74 302.888 1561.81 415.632C1601.88 528.376 1566.27 3420.19 1469.31 3558.89C1372.36 3697.59 1189.49 3629.7 982.726 3676.8Z" fill="#F1EFEC"/>
</svg>
