<svg width="503" height="552" viewBox="0 0 503 552" fill="none" xmlns="http://www.w3.org/2000/svg">
<path opacity="0.5" d="M375.15 8.29485C306.368 -28.8222 197.766 -56.2876 96.1622 -22.5219C-58.6287 92.8664 15.9108 139.809 32.5001 161.173C49.0894 182.538 101.335 180.708 168.398 206.323C235.462 231.937 228.376 256.255 257.753 280.712C287.13 305.168 247.59 395.634 296.446 471.559C345.302 547.484 399.631 552.425 434.869 551.545C470.107 550.664 520.946 550.182 553.972 527.315C586.997 504.449 565.641 494.224 575.516 416.832C585.391 339.44 545.386 351.46 526.949 303.376C508.512 255.293 540.498 229.039 515.262 167.746C490.027 106.453 443.932 45.4119 375.15 8.29485Z" fill="#A5DEDA"/>
</svg>
