<svg width="1440" height="2246" viewBox="0 0 1440 2246" fill="none" xmlns="http://www.w3.org/2000/svg">
<path opacity="0.64" d="M982.726 3676.8C775.958 3723.9 478.32 3651.68 294.562 3605.18C144.607 3601.23 -53.0906 3492.41 -98.9845 3376.24C-144.878 3260.06 -159.772 309.88 -64.499 161.296C29.5031 14.694 49.9761 144.064 127.501 60.7091C205.026 -22.6456 358.372 34.9995 517.001 12.9082C675.63 -9.18316 699.344 76.8615 958.501 60.7091C1217.66 44.5567 1229.82 -29.4283 1472.5 12.9083C1746.5 60.7092 1521.74 302.888 1561.81 415.632C1601.88 528.375 1566.27 3420.19 1469.31 3558.89C1372.36 3697.59 1189.49 3629.7 982.726 3676.8Z" fill="#F1EFEC"/>
</svg>
