<svg width="503" height="552" viewBox="0 0 503 552" fill="none" xmlns="http://www.w3.org/2000/svg">
<path opacity="0.5" d="M375.151 8.29485C306.369 -28.8222 197.767 -56.2876 96.163 -22.5219C-58.6278 92.8664 15.9117 139.809 32.501 161.173C49.0903 182.538 101.336 180.708 168.399 206.323C235.463 231.937 228.377 256.255 257.754 280.712C287.131 305.168 247.591 395.634 296.447 471.559C345.303 547.484 399.631 552.425 434.87 551.545C470.108 550.664 520.947 550.182 553.973 527.315C586.998 504.449 565.642 494.224 575.517 416.832C585.392 339.44 545.387 351.46 526.95 303.376C508.512 255.293 540.499 229.039 515.263 167.746C490.028 106.453 443.933 45.4119 375.151 8.29485Z" fill="#A5DEDA"/>
</svg>
