<svg width="1920" height="234" viewBox="0 0 1920 234" fill="none" xmlns="http://www.w3.org/2000/svg">
<path fill-rule="evenodd" clip-rule="evenodd" d="M557.43 94.7163C562.498 94.5893 567.552 95.164 572.491 96.4051C579.319 98.1541 583.163 103.919 585.67 109.856C586.55 112.382 587.934 114.685 589.76 116.629C591.585 118.574 593.785 120.091 596.263 121.113C602.804 123.826 604.15 126.395 606.519 135.706C609.379 136.001 612.277 136.062 615.147 135.888C617.955 135.446 620.813 135.841 623.354 137.031C625.928 138.222 628.087 140.14 629.535 142.578L633.845 148.386C639.557 147.738 645.296 148.996 650.232 151.942C651.723 152.375 653.29 152.307 654.733 151.836C662.865 150.236 671.311 151.117 678.94 154.387C681.743 155.784 684.443 157.345 687.006 159.071C689.272 152.766 693.583 147.441 699.29 143.917C701.482 142.66 703.93 141.943 706.432 141.828C708.934 141.714 711.457 142.168 713.735 143.186C716.046 144.204 718.046 145.751 719.638 147.724C721.23 149.663 722.347 151.96 722.895 154.446L734.512 158.235C736.064 154.189 737.492 149.672 743.677 148.733C742.752 146.774 742.12 145.156 741.382 143.803C739.741 140.994 738.741 137.863 738.476 134.648C738.211 131.399 738.646 128.165 739.81 125.114C741.169 122.301 743.153 119.902 745.658 118.049C748.163 116.197 751.054 115.021 754.13 114.551C760.467 114.283 766.764 115.954 772.192 119.278C774.952 121.142 778.299 122.049 781.637 121.785L786.4 121.885C792.801 121.787 797.151 125.656 801.059 129.985C801.612 130.598 801.452 131.866 800.992 133.16C795.212 127.521 789.021 124.014 780.262 125.367C782.185 128.951 783.877 132.497 785.64 135.778C786.641 137.337 787.067 139.218 786.862 141.053C786.69 142.888 785.886 144.643 784.592 145.986C780.978 149.822 777.957 150.861 773.972 148.604C771.039 147.037 768.486 144.844 766.442 142.226C765.174 140.728 764.448 138.841 764.355 136.9C764.264 134.925 764.871 132.999 766.004 131.418C767.856 128.916 769.641 126.48 772.137 123.456C770.463 122.251 768.651 121.277 766.699 120.6C762.254 119.603 757.769 118.974 753.243 118.678C747.118 118.348 742.323 124.499 741.874 131.544C741.707 136.288 742.841 140.992 745.118 145.186C746.087 148.249 747.592 151.123 749.605 153.673C748.605 153.652 747.641 153.564 746.644 153.41C741.278 151.859 738.609 153.608 738.194 159.015C738.161 160.619 738.226 162.259 738.359 163.867C736.262 165.293 734.78 166.064 732.671 163.345C731.577 161.517 729.873 160.143 727.819 159.532C725.8 158.921 723.597 159.075 721.678 159.97C720.873 160.221 720.036 160.404 719.201 160.486C718.968 160.481 718.643 160.107 718.083 159.794C718.434 158.932 718.854 158.005 719.173 157.109C719.774 155.45 719.78 153.611 719.182 151.927C718.585 150.243 717.381 148.846 715.833 147.978C708.029 143.534 699.773 144.697 695.019 152.052C693.545 153.993 692.267 156.106 691.188 158.29C690.537 160.717 690.151 163.216 689.998 165.721C686.256 163.034 683.044 160.458 679.588 158.446C675.733 156.359 671.458 155.199 667.064 154.972C662.78 154.28 658.409 154.522 654.218 155.704L658.646 166.964C658.435 167.495 658.224 168.025 657.946 168.554C655.085 173.041 652.455 174.523 649.683 173.194C647.51 171.978 645.818 170.037 644.833 167.742C643.848 165.448 643.67 162.87 644.321 160.443C645.098 158.353 646.174 156.336 647.154 154.117C641.766 150.459 636.245 151.479 630.507 153.364C629.471 150.367 629.764 147.498 627.651 145.012C625.148 142.017 621.659 139.971 617.841 139.255C613.991 138.539 610.012 139.157 606.607 141.024C605.021 141.96 603.685 143.67 601.051 142.144C602.392 140.199 603.108 137.874 603.09 135.533C603.074 133.159 602.322 130.87 600.964 128.936C599.635 127.136 597.967 125.663 596.025 124.518C594.115 123.408 591.965 122.661 589.771 122.38C588.089 126.323 586.71 130.072 584.903 133.578C583.762 135.527 582.358 137.302 580.758 138.907C576.151 144.025 568.419 139.315 567.073 133.603C566.452 131.45 566.6 129.179 567.41 127.124C568.253 125.069 569.756 123.328 571.679 122.232C575.64 119.307 580.341 117.601 585.246 117.336C584.013 111.025 580.331 105.464 575.042 101.842C569.753 98.2196 563.217 96.8445 556.927 98.0156C549.605 99.1649 546.204 105.546 548.652 112.752C549.183 114.402 549.749 116.018 550.213 117.7C550.21 117.867 549.802 118.226 549.426 118.686C548.427 118.665 547.436 118.243 546.65 117.591C545.864 116.939 545.349 116.059 545.104 115.051C544.139 110.25 540.541 110.174 537.41 110.108C534.611 110.115 531.864 110.759 529.341 111.91C526.817 113.06 524.549 114.751 522.705 116.852C524.92 119.239 527.068 121.691 529.318 124.046C530.916 125.684 532.107 127.682 532.827 129.87C533.547 132.059 533.732 134.37 533.417 136.637C532.712 143.208 527.328 145.669 522.185 141.448C519.241 138.845 517.113 135.456 516.027 131.655C514.94 127.888 514.958 123.876 516.038 120.088C509.427 117.541 506.099 118.908 500.046 127.774L497.525 130.362C496.897 130.148 496.268 129.934 495.639 129.72L495.409 128.01L496.269 126.725C496.781 126.167 497.22 125.875 497.396 125.445C498.6 122.093 500.959 119.268 503.996 117.46C507.035 115.618 510.615 114.925 514.137 115.434C515.434 115.561 516.703 115.421 517.945 115.013C519.153 114.603 520.3 113.926 521.252 113.043C524.276 110.298 527.948 108.403 531.901 107.45C535.853 106.497 539.984 106.585 543.927 107.671C544.182 106.64 544.432 105.843 544.649 105.045C546.696 98.0336 549.995 94.8936 557.397 94.7156L557.43 94.7163ZM650.925 157.005C646.409 160.989 645.878 165.625 649.614 168.579C650.139 168.958 650.767 169.238 651.397 169.352C652.061 169.466 652.728 169.447 653.365 169.293C654.44 168.881 655.945 167.041 655.76 166.335C654.83 163.039 654.413 159.118 650.958 157.006L650.925 157.005ZM776.611 126.226C771.7 128.362 768.577 131.071 768.538 136.085C768.557 138.359 769.31 140.582 770.704 142.417C772.098 144.251 774.003 145.562 776.19 146.177C777.212 146.7 778.375 146.825 779.514 146.581C780.619 146.337 781.631 145.723 782.35 144.836C783.267 144.019 783.923 142.93 784.215 141.732C784.507 140.535 784.4 139.262 783.958 138.116C781.779 133.991 779.127 130.157 776.579 126.158L776.611 126.226ZM520.582 121.086C517.312 126.032 518.638 131.109 520.736 135.901C521.05 136.81 521.566 137.623 522.218 138.306C522.87 138.988 523.658 139.54 524.517 139.926C525.375 140.312 526.338 140.499 527.27 140.519C528.203 140.538 529.173 140.358 530.048 139.976L530.114 139.977C530.819 138.153 531.128 136.154 531.003 134.178C530.878 132.203 530.386 130.254 529.491 128.463C528.596 126.672 527.329 125.107 525.823 123.838C524.283 122.569 522.504 121.628 520.582 121.086ZM585.688 121.659C581.697 121.24 577.71 122.259 574.429 124.564C572.946 125.335 571.753 126.614 571.088 128.137C570.422 129.695 570.286 131.397 570.717 133.044C571.21 134.961 571.942 136.614 574.162 137.229C575.154 137.585 576.252 137.641 577.258 137.362C578.264 137.082 579.176 136.5 579.86 135.678C583.111 131.634 586.328 127.623 585.687 121.692L585.688 121.659Z" fill="#736658"/>
<path fill-rule="evenodd" clip-rule="evenodd" d="M1704.24 63.2108C1709.08 61.6777 1714.09 60.8227 1719.18 60.6394C1726.22 60.4181 1731.52 64.8848 1735.58 69.8891C1737.13 72.0704 1739.1 73.8966 1741.39 75.2558C1743.69 76.615 1746.23 77.4598 1748.89 77.7513C1755.93 78.5353 1757.94 80.6285 1762.8 88.9117C1765.63 88.3983 1768.43 87.6501 1771.14 86.6845C1773.71 85.4778 1776.57 85.0612 1779.34 85.4971C1782.15 85.9243 1784.75 87.1652 1786.82 89.1034L1792.58 93.482C1797.88 91.2688 1803.75 90.8791 1809.31 92.3342C1810.86 92.3348 1812.35 91.8337 1813.6 90.9796C1820.97 87.1784 1829.32 85.6724 1837.56 86.6893C1840.64 87.2501 1843.67 87.9982 1846.61 88.9421C1847.03 82.256 1849.69 75.9409 1854.19 70.9677C1855.95 69.1493 1858.1 67.7787 1860.47 66.9723C1862.84 66.1659 1865.39 65.8999 1867.86 66.2431C1870.37 66.5777 1872.72 67.5064 1874.79 68.958C1876.86 70.3774 1878.58 72.2724 1879.79 74.5074L1892.01 74.9122C1892.37 70.594 1892.49 65.8581 1898.16 63.2339C1896.73 61.6102 1895.67 60.2321 1894.59 59.1381C1892.23 56.8963 1890.4 54.1681 1889.25 51.1539C1888.09 48.1074 1887.61 44.8803 1887.87 41.6256C1888.4 38.5452 1889.63 35.689 1891.52 33.2119C1893.41 30.7349 1895.86 28.8005 1898.69 27.4926C1904.7 25.4713 1911.21 25.323 1917.35 27.0043C1920.52 28.0258 1923.99 27.9647 1927.12 26.7818L1931.72 25.5521C1937.84 23.675 1943.1 26.1806 1948.06 29.25C1948.76 29.6851 1948.96 30.9466 1948.88 32.3179C1941.76 28.5115 1934.83 26.8664 1926.8 30.6049C1929.64 33.5121 1932.25 36.4472 1934.86 39.1067C1936.26 40.3257 1937.19 42.0137 1937.5 43.8329C1937.85 45.6434 1937.57 47.5528 1936.7 49.2036C1934.29 53.8935 1931.68 55.7331 1927.23 54.6745C1923.97 53.9866 1920.91 52.5905 1918.22 50.6457C1916.58 49.5601 1915.36 47.9494 1914.73 46.1108C1914.09 44.2399 1914.14 42.2206 1914.79 40.3868C1915.87 37.4681 1916.91 34.6312 1918.46 31.0324C1916.52 30.3407 1914.51 29.9094 1912.44 29.8032C1907.9 30.0835 1903.41 30.7277 1898.98 31.7035C1893.01 33.0919 1890.12 40.3347 1891.65 47.2261C1892.81 51.829 1895.21 56.032 1898.56 59.4259C1900.34 62.098 1902.59 64.4388 1905.23 66.3277C1904.27 66.5857 1903.32 66.7705 1902.32 66.8993C1896.73 66.9037 1894.65 69.3269 1895.76 74.6359C1896.18 76.186 1896.7 77.7426 1897.27 79.2497C1895.65 81.2038 1894.44 82.3572 1891.66 80.3326C1890.1 78.8811 1888.08 78.0365 1885.94 78.0207C1883.83 77.9962 1881.76 78.7575 1880.16 80.1519C1879.46 80.6166 1878.71 81.0254 1877.93 81.3372C1877.7 81.3974 1877.29 81.1282 1876.66 80.9837C1876.76 80.0581 1876.9 79.0507 1876.96 78.1014C1877.08 76.3405 1876.57 74.5729 1875.53 73.1216C1874.48 71.6703 1872.94 70.6645 1871.21 70.2613C1862.48 68.1657 1854.87 71.5814 1852.35 79.9696C1851.48 82.2447 1850.84 84.6297 1850.41 87.0276C1850.46 89.5399 1850.79 92.0479 1851.34 94.4957C1847 92.9571 1843.19 91.3778 1839.31 90.4077C1835.03 89.4761 1830.6 89.552 1826.32 90.5579C1822.01 91.0859 1817.88 92.5354 1814.18 94.8374L1821.57 104.42C1821.52 104.988 1821.46 105.556 1821.34 106.142C1819.84 111.247 1817.73 113.404 1814.7 112.899C1812.27 112.336 1810.11 110.942 1808.52 109.013C1806.94 107.084 1806.05 104.657 1806 102.145C1806.16 99.9213 1806.63 97.6848 1806.96 95.2804C1800.76 93.2675 1795.75 95.7844 1790.76 99.1924C1788.93 96.6021 1788.41 93.7646 1785.69 91.9661C1782.45 89.7864 1778.53 88.7926 1774.67 89.1679C1770.77 89.5518 1767.12 91.2533 1764.37 93.9948C1763.11 95.3355 1762.3 97.3502 1759.34 96.6172C1760.09 94.3765 1760.13 91.9439 1759.46 89.7006C1758.79 87.4249 1757.43 85.4353 1755.58 83.9557C1753.81 82.5967 1751.79 81.6466 1749.61 81.0883C1747.47 80.5537 1745.19 80.4344 1743.01 80.7759C1742.49 85.0316 1742.21 89.0162 1741.45 92.8865C1740.9 95.0756 1740.04 97.172 1738.95 99.1586C1735.95 105.357 1727.21 102.986 1724.33 97.8746C1723.14 95.9797 1722.65 93.7579 1722.85 91.558C1723.09 89.3494 1724.05 87.2594 1725.59 85.6713C1728.58 81.7588 1732.62 78.811 1737.26 77.1917C1734.31 71.4731 1729.23 67.1572 1723.14 65.1508C1717.05 63.1444 1710.39 63.6436 1704.68 66.5197C1697.97 69.6623 1696.48 76.7378 1700.83 82.9779C1701.8 84.4141 1702.8 85.8094 1703.71 87.2951C1703.75 87.4566 1703.46 87.915 1703.23 88.4617C1702.26 88.7197 1701.19 88.5901 1700.26 88.1829C1699.32 87.7757 1698.58 87.0737 1698.07 86.1737C1695.8 81.8308 1692.33 82.7595 1689.3 83.5678C1686.61 84.3548 1684.15 85.7381 1682.05 87.5456C1679.95 89.3531 1678.24 91.6085 1677.05 94.1397C1679.85 95.8155 1682.59 97.5731 1685.41 99.208C1687.4 100.337 1689.1 101.924 1690.4 103.825C1691.7 105.727 1692.52 107.895 1692.85 110.159C1694 116.667 1689.52 120.53 1683.4 117.908C1679.85 116.227 1676.86 113.566 1674.76 110.217C1672.67 106.901 1671.57 103.043 1671.55 99.104C1664.49 98.4986 1661.68 100.739 1658.33 110.939L1656.63 114.127C1655.97 114.096 1655.31 114.066 1654.64 114.035L1653.94 112.457L1654.41 110.983C1654.75 110.305 1655.09 109.902 1655.14 109.44C1655.36 105.886 1656.84 102.515 1659.25 99.9326C1661.66 97.3179 1664.91 95.6551 1668.43 95.1634C1669.71 94.9249 1670.89 94.4366 1671.97 93.6987C1673.02 92.9693 1673.93 91.9987 1674.6 90.886C1676.74 87.408 1679.74 84.5654 1683.27 82.5496C1686.8 80.5338 1690.79 79.4675 1694.88 79.413C1694.84 78.3517 1694.86 77.5164 1694.84 76.6898C1694.86 69.3857 1697.15 65.4514 1704.21 63.2194L1704.24 63.2108ZM1811.38 97.0042C1808.15 102.088 1808.94 106.688 1813.35 108.485C1813.96 108.703 1814.64 108.798 1815.28 108.731C1815.94 108.656 1816.58 108.452 1817.15 108.127C1818.07 107.432 1819 105.245 1818.63 104.619C1816.81 101.712 1815.32 98.0626 1811.42 96.9956L1811.38 97.0042ZM1923.53 32.4464C1919.41 35.8656 1917.16 39.3371 1918.52 44.164C1919.17 46.3427 1920.51 48.2677 1922.36 49.6418C1924.21 51.0159 1926.41 51.7444 1928.68 51.7258C1929.81 51.9436 1930.96 51.7396 1931.98 51.1888C1932.98 50.6467 1933.78 49.7752 1934.22 48.7226C1934.88 47.6831 1935.2 46.454 1935.15 45.2227C1935.1 43.9913 1934.64 42.7985 1933.9 41.8209C1930.66 38.4658 1927.04 35.5218 1923.48 32.3904L1923.53 32.4464ZM1676.19 98.7978C1674.43 104.459 1677.12 108.965 1680.47 112.984C1681.02 113.769 1681.74 114.407 1682.56 114.881C1683.38 115.355 1684.29 115.665 1685.22 115.797C1686.15 115.928 1687.13 115.84 1688.03 115.6C1688.93 115.359 1689.81 114.916 1690.54 114.305L1690.61 114.287C1690.78 112.339 1690.52 110.333 1689.85 108.471C1689.18 106.608 1688.16 104.873 1686.8 103.402C1685.45 101.931 1683.79 100.781 1681.99 99.9817C1680.16 99.191 1678.19 98.7835 1676.19 98.7978ZM1738.88 81.22C1734.94 81.929 1731.39 84.018 1728.88 87.145C1727.67 88.2984 1726.88 89.8588 1726.67 91.5077C1726.46 93.1889 1726.8 94.8616 1727.68 96.3237C1728.68 98.0268 1729.85 99.4114 1732.15 99.3843C1733.2 99.4492 1734.27 99.1978 1735.16 98.6491C1736.05 98.1005 1736.76 97.2871 1737.19 96.3077C1739.19 91.5187 1741.16 86.7705 1738.89 81.2523L1738.88 81.22Z" fill="#736658"/>
<path fill-rule="evenodd" clip-rule="evenodd" d="M473.945 124.918C476.406 124.837 478.782 125.652 480.643 127.254C483.387 129.573 486.001 131.69 489.104 134.283L496.812 128.194L499.371 129.778C495.602 133.556 491.506 137.06 487.184 140.228C486.599 138.021 485.545 135.97 484.154 134.145C482.763 132.353 481 130.82 479.029 129.714C477.361 128.415 475.316 127.673 473.223 127.629C471.129 127.585 469.055 128.206 467.334 129.434C463.963 131.657 461.303 134.826 459.695 138.55C459.068 139.934 458.837 141.425 459.038 142.926C459.239 144.427 459.841 145.836 460.78 146.986C461.297 147.696 462.051 148.21 462.569 148.886C463.09 149.363 463.477 149.97 463.661 150.672C463.88 151.342 463.897 152.074 463.75 152.769C463.602 153.464 463.289 154.123 462.813 154.645C462.336 155.167 461.762 155.587 461.092 155.839C454.348 158.789 451.432 164.68 449.071 170.981C448.084 173.687 447.492 176.501 446.697 179.544C449.18 180.029 451.701 180.248 454.228 180.235C459.351 180.044 464.334 181.779 468.218 185.153C469.463 186.044 470.501 187.23 471.17 188.607C474.194 194.956 469.822 198.954 462.871 200.669C459.863 201.437 456.678 201.137 453.88 199.848C451.083 198.525 448.803 196.282 447.466 193.494C445.927 190.801 444.725 187.916 443.258 184.958C439.133 186.667 435.518 189.45 432.817 192.985C430.063 195.92 429.271 195.637 427.723 191.813C426.704 189.663 425.114 187.834 423.147 186.529C421.18 185.224 418.869 184.477 416.512 184.36C412.935 183.719 409.231 184.406 406.1 186.269C402.969 188.131 400.614 191.041 399.444 194.508C397.503 198.258 397.046 202.571 398.09 206.651C398.279 207.153 397.732 207.907 397.344 208.929C395.177 207.653 392.7 206.902 390.176 206.783C387.652 206.663 385.115 207.175 382.832 208.257C378.755 210.831 374.936 213.81 371.442 217.161C370.955 216.586 370.036 216.034 369.917 215.367C369.079 210.993 365.437 208.721 362.294 206.46C361.082 205.57 359.596 205.139 358.1 205.141C356.603 205.176 355.13 205.677 353.947 206.583C351.248 208.488 348.678 210.562 346.204 212.771C345.561 213.323 345.081 214.011 344.765 214.802C344.449 215.594 344.365 216.423 344.481 217.257C344.624 221.517 345.359 226.055 341.815 230.137C341.207 229.026 340.23 228.075 340.283 227.145C340.345 222.623 340.707 218.108 341.433 213.601C342.107 211.62 343.373 209.885 345.03 208.589C354.152 200.036 363.031 199.891 371.208 209.342C371.629 209.849 372.152 210.259 373.13 211.211C378.134 204.068 386.04 204.301 393.078 203.153C394.596 198.962 395.807 195.13 397.413 191.506C400.872 183.531 407.089 180.337 417.801 181.528C422.708 182.163 427.178 184.552 430.389 188.311C433.826 186.123 436.794 184.123 439.955 182.395C440.93 181.85 441.777 181.136 442.428 180.219C443.078 179.335 443.565 178.314 443.787 177.221C445.359 172.034 447.36 167.021 449.822 162.218C452.008 157.842 455.737 154.429 460.295 152.663C459.854 151.523 459.279 150.413 458.602 149.401C456.787 147.201 455.781 144.487 455.707 141.658C455.634 138.83 456.557 136.056 458.267 133.798C459.854 131.038 462.129 128.758 464.888 127.187C467.647 125.616 470.788 124.851 473.945 124.918ZM457.42 183.329C454.044 182.626 450.585 182.752 447.273 183.713C448.505 186.798 449.937 189.821 451.57 192.749C453.086 194.976 455.412 196.555 458.059 197.143C460.707 197.697 463.475 197.257 465.799 195.843C466.57 195.527 467.278 195.043 467.791 194.355C468.304 193.701 468.62 192.876 468.704 192.047C468.788 191.217 468.64 190.349 468.29 189.61C467.941 188.838 467.356 188.194 466.668 187.747C463.988 185.562 460.795 184.065 457.419 183.362L457.42 183.329Z" fill="#736658"/>
<path fill-rule="evenodd" clip-rule="evenodd" d="M1631.52 100.588C1634.27 101.069 1636.71 102.523 1638.4 104.73C1640.9 107.935 1643.31 110.886 1646.14 114.478L1656.09 109.522L1658.56 111.87C1653.51 115.18 1648.16 118.112 1642.63 120.618C1642.5 118.037 1641.81 115.521 1640.69 113.177C1639.56 110.869 1637.97 108.762 1636.04 107.08C1634.5 105.254 1632.4 103.958 1630.09 103.424C1627.79 102.889 1625.34 103.096 1623.15 104.056C1618.9 105.736 1615.22 108.63 1612.58 112.381C1611.56 113.768 1610.96 115.366 1610.83 117.075C1610.71 118.784 1611.05 120.485 1611.82 121.977C1612.23 122.882 1612.94 123.627 1613.36 124.496C1613.83 125.145 1614.12 125.907 1614.16 126.727C1614.24 127.52 1614.09 128.335 1613.77 129.071C1613.44 129.806 1612.94 130.463 1612.3 130.931C1611.65 131.398 1610.91 131.73 1610.11 131.854C1601.96 133.557 1597.36 139.405 1593.28 145.837C1591.56 148.605 1590.25 151.585 1588.67 154.77C1591.31 155.883 1594.05 156.712 1596.85 157.283C1602.57 158.26 1607.68 161.338 1611.2 165.976C1612.38 167.252 1613.25 168.806 1613.67 170.487C1615.55 178.221 1609.78 181.634 1601.68 181.922C1598.17 182.074 1594.71 181.003 1591.91 178.926C1589.12 176.811 1587.12 173.798 1586.28 170.4C1585.2 167.06 1584.54 163.585 1583.6 159.969C1578.64 160.905 1573.99 163.149 1570.18 166.437C1566.44 169.049 1565.63 168.552 1564.81 163.957C1564.18 161.34 1562.84 158.945 1560.96 157.043C1559.09 155.141 1556.7 153.777 1554.12 153.101C1550.3 151.561 1546.04 151.463 1542.14 152.799C1538.24 154.136 1534.96 156.812 1532.86 160.381C1529.84 164.084 1528.33 168.756 1528.54 173.516C1528.63 174.117 1527.85 174.824 1527.19 175.867C1525.08 173.951 1522.51 172.544 1519.74 171.826C1516.98 171.108 1514.05 171.086 1511.27 171.755C1506.16 173.66 1501.23 176.074 1496.59 178.975C1496.18 178.224 1495.29 177.4 1495.31 176.633C1495.4 171.594 1491.89 168.233 1488.94 164.999C1487.8 163.732 1486.25 162.91 1484.6 162.565C1482.93 162.257 1481.18 162.47 1479.66 163.199C1476.23 164.683 1472.9 166.383 1469.65 168.256C1468.81 168.718 1468.12 169.369 1467.59 170.172C1467.05 170.976 1466.77 171.875 1466.7 172.825C1465.87 177.576 1465.63 182.773 1460.76 186.472C1460.35 185.102 1459.48 183.821 1459.76 182.803C1460.88 177.81 1462.32 172.893 1464.17 168.069C1465.38 166.031 1467.19 164.402 1469.32 163.352C1481.41 155.995 1491.28 157.894 1498.14 170.259C1498.49 170.919 1498.97 171.495 1499.84 172.776C1507.04 166.025 1515.74 168.118 1523.8 168.479C1526.46 164.189 1528.69 160.226 1531.31 156.584C1536.99 148.554 1544.61 146.459 1556.2 150.263C1561.49 152.105 1565.89 155.789 1568.57 160.697C1572.89 159.071 1576.64 157.545 1580.54 156.363C1581.75 155.986 1582.85 155.392 1583.78 154.527C1584.71 153.699 1585.48 152.681 1585.98 151.523C1588.93 146.141 1592.31 141.054 1596.15 136.305C1599.59 131.965 1604.51 129.05 1609.97 128.151C1609.74 126.786 1609.36 125.424 1608.85 124.146C1607.35 121.288 1606.86 118.048 1607.44 114.898C1608.01 111.749 1609.68 108.891 1612.1 106.786C1614.5 104.097 1617.54 102.1 1620.96 101C1624.39 99.9001 1628.04 99.7815 1631.52 100.588ZM1599.67 161.45C1596.09 159.888 1592.23 159.226 1588.34 159.522C1588.99 163.225 1589.87 166.905 1591 170.527C1592.16 173.345 1594.37 175.634 1597.17 176.899C1599.97 178.128 1603.14 178.282 1606.04 177.255C1606.97 177.084 1607.87 176.712 1608.6 176.07C1609.32 175.464 1609.86 174.624 1610.14 173.725C1610.43 172.825 1610.47 171.83 1610.25 170.93C1610.04 169.994 1609.54 169.145 1608.88 168.49C1606.42 165.448 1603.23 163.049 1599.66 161.487L1599.67 161.45Z" fill="#736658"/>
<path fill-rule="evenodd" clip-rule="evenodd" d="M1052.53 56.1269C1054.26 56.0311 1056.02 56.4981 1057.46 57.4547C1060.31 59.1358 1062.9 61.2412 1065.1 63.7355C1066.98 66.1898 1068.15 69.0922 1068.45 72.1747C1069.27 77.5505 1068.62 83.0276 1066.62 88.0793C1066.07 88.9938 1065.85 90.0476 1065.99 91.1091C1066.13 92.1706 1066.64 93.1406 1067.43 93.8518C1073.16 99.5298 1076.69 107.047 1077.35 115.032C1077.47 115.63 1077.63 116.229 1077.85 116.796C1079.9 117.368 1082.04 118.075 1084.26 118.585C1086.18 118.857 1087.99 119.623 1089.53 120.813C1091.07 122.004 1092.23 123.583 1092.96 125.384C1093.52 127.116 1094.62 128.628 1096.09 129.751C1097.56 130.84 1099.31 131.472 1101.17 131.545C1103.96 131.901 1106.63 132.917 1108.96 134.488C1111.28 136.058 1113.23 138.117 1114.61 140.561C1115.16 141.433 1115.77 142.272 1116.58 143.414C1120.04 138.559 1124.81 134.756 1130.34 132.425C1135.88 130.128 1141.94 129.396 1147.87 130.315C1149.38 125.054 1152.51 120.39 1156.83 117.009C1161.54 114.429 1166.44 112.217 1171.47 110.338C1171.34 108.483 1171.18 106.462 1171 104.374C1170.84 102.486 1171.11 100.573 1171.81 98.8016C1172.48 97.0296 1173.55 95.3982 1174.9 94.0707C1176.26 92.7432 1177.91 91.7196 1179.72 91.0962C1181.53 90.4729 1183.46 90.2491 1185.35 90.4213C1187.24 90.6928 1189.14 90.4352 1190.89 89.7443C1192.63 89.0204 1194.15 87.8617 1195.28 86.3309C1197.63 83.536 1200.31 81.0125 1203.22 78.7916C1207.85 75.35 1213.5 73.5841 1219.28 73.8054C1229.38 74.0187 1234.89 79.5265 1238.26 88.1978C1238.42 88.6642 1238.91 88.9723 1239.43 89.5456C1241.87 88.8364 1244.32 87.9949 1246.82 87.4194C1255.61 85.4218 1264.15 85.4699 1271.81 91.1225C1272.66 91.7359 1273.65 92.1206 1274.71 92.2092C1275.74 92.2971 1276.81 92.1211 1277.75 91.711C1281.96 90.4438 1286.39 90.1735 1290.7 90.926C1301.8 92.3844 1310.41 103.548 1311.36 112.333C1315.47 114.339 1319.58 116.245 1323.56 118.346C1325.76 119.617 1327.65 121.344 1329.14 123.426C1330.63 125.475 1331.64 127.845 1332.12 130.336C1332.8 132.831 1333.11 135.417 1333.68 138.473C1346.38 136.558 1354.73 141.1 1357.09 153.951L1357.93 159.79C1357.83 159.821 1357.73 159.885 1357.59 159.916C1354.61 161.209 1353.42 160.456 1353.03 157.338C1352.77 155.282 1352.51 153.226 1352.29 151.17C1352.14 148.885 1351.25 146.716 1349.76 144.998C1348.27 143.279 1346.27 142.079 1344.02 141.569C1339.29 140.212 1335 140.518 1331.88 144.819L1329.82 147.719L1328.51 147.063C1328.3 145.834 1328.33 144.578 1328.59 143.36C1332.53 132.957 1329.45 124.392 1319.58 119.453C1317.28 118.28 1315.07 116.083 1311.49 116.967C1310.85 119.136 1310.11 121.072 1309.67 123.081C1309.3 124.628 1308.54 126.067 1307.48 127.269C1306.43 128.47 1305.08 129.401 1303.6 129.965C1303.03 130.317 1302.39 130.535 1301.73 130.62C1301.06 130.705 1300.4 130.691 1299.73 130.512C1299.07 130.332 1298.48 130.055 1297.92 129.647C1297.4 129.239 1296.95 128.733 1296.59 128.163C1296.14 127.757 1295.75 127.252 1295.49 126.685C1295.24 126.117 1295.09 125.518 1295.03 124.922C1295.01 124.293 1295.09 123.699 1295.3 123.108C1295.51 122.517 1295.86 121.995 1296.27 121.541C1297.13 119.905 1298.29 118.474 1299.71 117.314C1301.13 116.153 1302.78 115.261 1304.56 114.737C1305.79 114.333 1306.97 113.795 1308.11 113.158C1307.85 109.811 1306.82 106.581 1305.02 103.765C1303.25 100.916 1300.81 98.5488 1297.89 96.8663C1290.92 92.7831 1281.91 93.0227 1277.43 95.7728C1277.38 99.8732 1277.02 103.934 1276.41 107.99C1276.19 108.812 1275.77 109.597 1275.23 110.28C1274.68 110.963 1273.97 111.478 1273.2 111.891C1272.43 112.272 1271.56 112.485 1270.69 112.533C1269.83 112.581 1268.97 112.43 1268.14 112.115C1261.13 110.247 1260.18 104.968 1264.89 99.411C1266.82 97.5333 1268.85 95.724 1270.98 94.082C1269.15 92.8524 1267.17 91.7854 1265.1 90.9477C1261 89.6704 1256.72 89.2823 1252.46 89.7546C1248.22 90.2275 1244.11 91.5959 1240.4 93.7339C1238.59 94.6218 1236.74 95.4428 1234.87 96.1309C1237.06 88.4701 1233.83 83.672 1228.93 79.5662C1227.96 78.6194 1226.77 77.9329 1225.45 77.5411C1219.39 76.5861 1212.83 75.6537 1207.83 79.4181C1202.83 83.1495 1195.93 86.9732 1194.6 94.8836C1188.19 92.9951 1181.82 91.1074 1176.98 96.6614C1172.14 102.182 1174.34 108.249 1178.17 114.184C1170.29 114.25 1163.52 115 1157.96 120.109C1152.4 125.25 1151.83 131.854 1150.14 139.327C1148.92 137.68 1148.03 137.033 1147.85 136.235C1147.27 133.61 1145.26 133.071 1143.13 132.828C1138.42 132.629 1133.77 133.755 1129.67 136.05C1125.56 138.345 1122.2 141.747 1119.95 145.867C1118.74 148.124 1117.4 150.278 1115.96 152.398L1114.83 152.374C1114.42 151.043 1114.19 149.681 1114.15 148.291C1114.64 142.315 1110.38 138.057 1104.41 135.582C1103.42 135.165 1102.43 134.945 1101.41 134.659C1097.61 133.487 1097.61 133.586 1096.22 137.626C1095.41 139.924 1094.33 142.117 1092.99 144.173C1092.4 145.318 1091.49 146.258 1090.41 146.93C1089.3 147.601 1088.03 147.938 1086.76 147.945C1085.47 147.917 1084.21 147.593 1083.13 146.909C1082.05 146.257 1081.14 145.279 1080.56 144.142C1080.22 143.142 1080.21 142.051 1080.53 141.032C1080.85 140.013 1081.5 139.134 1082.34 138.523C1084.21 136.71 1086.2 135.066 1088.36 133.623C1089.68 132.824 1091.05 132.158 1092.49 131.593C1088.7 121.027 1088.1 122.239 1077.5 120.791C1076.49 122.589 1075.69 124.457 1075.08 126.396C1073.55 131.59 1070.72 136.326 1066.91 140.215C1063.81 144.02 1053.43 144.495 1050.24 140.822C1049.31 139.546 1048.77 138.013 1048.67 136.456C1048.58 134.866 1048.94 133.319 1049.73 131.947C1051.45 128.014 1054.14 124.598 1057.56 122.057C1061 119.483 1065.03 117.848 1069.29 117.343C1070.79 117.044 1072.36 117.044 1074.42 116.889C1074.41 112.754 1073.56 108.701 1071.91 104.895C1070.27 101.123 1067.84 97.6976 1064.85 94.8888C1063.32 96.2459 1061.93 97.3412 1060.71 98.5062C1057.47 100.952 1053.46 102.091 1049.44 101.774C1048.61 101.757 1047.78 101.475 1047.1 101.03C1046.41 100.586 1045.86 99.9125 1045.51 99.1774C1045.16 98.4092 1045.04 97.5798 1045.12 96.7547C1045.24 95.9302 1045.56 95.143 1046.07 94.4923C1047.51 92.4058 1049.54 90.8609 1051.92 90.018C1054.29 89.1752 1056.89 89.1307 1059.3 89.8432C1062.8 90.8764 1063.04 90.6829 1064.34 87.4688C1066.35 82.0535 1066.87 76.2098 1065.89 70.4999C1065.53 68.6731 1064.77 66.937 1063.74 65.3936C1062.67 63.8496 1061.34 62.5314 1059.76 61.5389C1058.19 60.5133 1056.44 59.8479 1054.59 59.5111C1052.73 59.1742 1050.84 59.2334 1049.03 59.6584C1046.96 60.0116 1044.99 60.6315 1043.08 61.4842C1040.96 62.3326 1039.14 63.8156 1037.9 65.741C1036.66 67.6665 1036.08 69.9035 1036.2 72.1883C1036.33 74.0103 1035.48 74.7201 1033.65 74.9129C1033.21 73.9774 1032.79 73.0425 1032.45 72.0429C1032.12 70.349 1031.19 68.8078 1029.88 67.7217C1028.54 66.6019 1026.86 66.004 1025.13 65.9675C1015.98 66.1713 1005.72 72.0407 1006.61 83.5704C1006.73 85.5246 1006.69 87.4752 1006.74 89.8578C1003.23 89.0561 1003.82 86.2901 1002.59 84.9078C998.575 83.9631 994.281 85.2506 989.708 88.7705C987.329 88.0587 987.306 86.0074 987.411 84.1573C987.538 82.903 987.165 81.6713 986.387 80.6957C985.61 79.72 984.494 79.068 983.267 78.8767C980.824 78.0974 978.269 77.845 975.702 78.1877C973.168 78.5311 970.723 79.4056 968.566 80.7824C966.983 81.7413 965.724 83.137 964.99 84.8415C964.256 86.513 964.05 88.394 964.411 90.2209C962.295 91.2016 960.871 90.94 960.414 88.9788C959.904 86.388 958.024 85.6867 955.902 85.3773C948.883 84.0383 934.534 89.6892 931.095 95.1405C931.707 96.0795 932.487 96.9229 933.369 97.6362C935.532 99.1373 937.184 101.19 938.196 103.626C939.444 105.935 939.92 108.591 939.565 111.229C939.211 113.835 938.029 116.258 936.194 118.171C932.021 123.706 920.548 122.273 918.657 115.783C917.547 111.691 918.071 107.336 920.078 103.607C921.188 101.447 922.427 99.4228 924.014 96.7109C920.629 96.4079 917.26 96.9322 914.109 98.1887C910.99 99.479 908.188 101.471 906.006 104.038C901.351 108.802 900.416 115.298 900.393 122.674C892.824 117.453 887.234 120.841 881.56 125.055C879.653 122.434 880.848 120.971 882.962 120.023C887.226 118.063 891.366 115.636 896.555 117.102L897.503 113.12C900.168 101.864 912.778 91.9421 923.816 93.4652C925.312 93.4968 926.814 93.1977 928.189 92.6314C929.564 92.065 930.812 91.1983 931.866 90.129C939.832 84.4425 948.09 80.6477 958.27 83.4427C959.764 83.5404 961.236 83.1415 962.483 82.3409C963.494 81.6676 964.409 80.86 965.226 79.9511C967.768 77.6563 970.925 76.1352 974.327 75.6117C977.73 75.0551 981.211 75.4924 984.34 76.8816C987.032 78.4931 989.449 80.5288 991.493 82.9204C993.961 82.5425 997.226 82.2476 1000.43 81.4884C1001.04 81.2696 1001.61 80.9509 1002.08 80.4979C1002.56 80.0448 1002.94 79.4905 1003.15 78.8996C1005.89 68.9019 1013.38 64.9256 1022.79 63.4373C1024.52 63.3415 1026.24 63.6095 1027.83 64.2383C1029.51 64.8692 1031.15 65.5986 1032.77 66.3934C1035.58 64.0712 1037.98 61.8727 1040.58 59.8769C1044.12 57.6031 1048.24 56.4 1052.43 56.3893L1052.53 56.1269ZM1092.6 134.44C1090.46 134.858 1088.45 135.808 1086.79 137.195C1085.13 138.582 1083.83 140.407 1083.09 142.409L1087.67 144.457C1089.9 141.263 1094.35 139.571 1092.63 134.408L1092.6 134.44ZM1073.95 120.517C1065.24 118.581 1059.49 123.222 1054.39 128.506C1052.95 130.659 1052.1 133.188 1051.91 135.764C1051.9 136.326 1052.02 136.891 1052.28 137.425C1052.53 137.96 1052.89 138.398 1053.31 138.77C1055.02 139.766 1057.01 140.238 1058.97 140.114C1060.93 139.99 1062.84 139.269 1064.4 138.045C1069.45 133.455 1072.81 127.274 1073.91 120.55L1073.95 120.517ZM1307.83 116.923C1304.67 117.253 1301.74 118.779 1299.63 121.149C1299.02 121.731 1298.61 122.549 1298.55 123.408C1298.47 124.267 1298.75 125.133 1299.27 125.805C1300.72 127.721 1302.44 126.997 1303.85 125.902C1305.07 125.034 1306.06 123.831 1306.69 122.455C1307.26 120.681 1307.66 118.904 1307.9 117.056L1307.9 116.924L1307.83 116.923ZM928.154 97.4268C926.289 99.1736 924.815 101.292 923.768 103.619C922.722 105.945 922.169 108.481 922.116 111.026C922.047 114.266 923.181 117.234 925.498 117.713C926.884 118.239 928.409 118.403 929.876 118.203C931.344 117.969 932.753 117.37 933.903 116.435C935.399 114.879 936.371 112.915 936.715 110.805C937.059 108.696 936.805 106.54 935.883 104.569C934.222 101.359 931.515 98.854 928.187 97.4275L928.154 97.4268ZM1272.11 97.2151C1270.09 98.7269 1268.22 100.474 1266.58 102.424C1266.17 103.143 1265.95 103.932 1265.94 104.759C1265.92 105.585 1266.1 106.383 1266.48 107.119C1267.79 108.172 1269.41 108.702 1271.11 108.606C1272.97 108.645 1273.83 107.108 1274 105.491C1274.28 102.983 1275.11 100.09 1272.14 97.3481L1272.15 97.2158L1272.11 97.2151ZM1060.95 93.4174C1059.35 92.1927 1057.37 91.5886 1055.37 91.7118C1053.37 91.835 1051.46 92.6877 1050.04 94.0799C1049.15 95.0205 1048.63 96.2663 1048.6 97.5557C1048.59 97.9194 1050.43 98.7853 1051.46 98.807C1053.39 99.0461 1055.36 98.6577 1057.07 97.7016C1058.79 96.7455 1060.15 95.3189 1060.98 93.5503L1060.99 93.4181L1060.95 93.4174Z" fill="#736658"/>
<path fill-rule="evenodd" clip-rule="evenodd" d="M-60.4972 80.6112C-58.7665 80.5155 -57.0143 80.9825 -55.5717 81.9391C-52.7149 83.6202 -50.133 85.7255 -47.925 88.2199C-46.0486 90.6741 -44.8798 93.5766 -44.5792 96.6591C-43.7619 102.035 -44.4095 107.512 -46.4111 112.564C-46.9624 113.478 -47.1841 114.532 -47.0403 115.593C-46.8965 116.655 -46.3851 117.625 -45.6022 118.336C-39.871 124.014 -36.3395 131.531 -35.677 139.517C-35.5566 140.115 -35.4031 140.713 -35.1823 141.28C-33.1332 141.853 -30.9872 142.56 -28.7705 143.07C-26.848 143.342 -25.0357 144.108 -23.4984 145.298C-21.961 146.488 -20.7975 148.067 -20.071 149.869C-19.5091 151.601 -18.4107 153.112 -16.9384 154.235C-15.4654 155.325 -13.7167 155.957 -11.8565 156.029C-9.07142 156.386 -6.40007 157.401 -4.07284 158.972C-1.7456 160.543 0.205684 162.602 1.58361 165.045C2.13038 165.917 2.74425 166.757 3.55126 167.899C7.01156 163.043 11.7795 159.241 17.3142 156.91C22.8481 154.612 28.9142 153.88 34.8456 154.799C36.353 149.539 39.4769 144.875 43.8036 141.493C48.5124 138.913 53.4129 136.701 58.4393 134.823C58.3123 132.968 58.1555 130.947 57.9669 128.859C57.8073 126.97 58.0804 125.057 58.7827 123.286C59.4518 121.514 60.5168 119.883 61.8747 118.555C63.2325 117.228 64.8832 116.204 66.6916 115.581C68.5 114.957 70.4329 114.733 72.3242 114.906C74.2134 115.177 76.1139 114.92 77.8572 114.229C79.6013 113.505 81.1218 112.346 82.2512 110.815C84.6041 108.02 87.2837 105.497 90.1897 103.276C94.817 99.8344 100.473 98.0684 106.253 98.2897C116.355 98.5031 121.857 104.011 125.231 112.682C125.387 113.149 125.88 113.457 126.399 114.03C128.841 113.321 131.286 112.479 133.791 111.904C142.577 109.906 151.12 109.954 158.78 115.607C159.631 116.22 160.621 116.605 161.683 116.694C162.711 116.781 163.779 116.606 164.718 116.195C168.934 114.928 173.361 114.658 177.667 115.41C188.774 116.869 197.381 128.032 198.326 136.818C202.439 138.823 206.555 140.729 210.533 142.831C212.733 144.101 214.625 145.828 216.111 147.91C217.597 149.959 218.61 152.329 219.09 154.82C219.768 157.315 220.08 159.902 220.647 162.957C233.353 161.042 241.702 165.585 244.057 178.435L244.898 184.275C244.797 184.306 244.696 184.37 244.562 184.4C241.576 185.693 240.395 184.94 239.996 181.823C239.74 179.766 239.484 177.71 239.262 175.655C239.11 173.369 238.225 171.201 236.732 169.482C235.239 167.764 233.237 166.564 230.987 166.053C226.262 164.696 221.966 165.002 218.85 169.303L216.794 172.203L215.478 171.547C215.272 170.319 215.298 169.062 215.557 167.844C219.5 157.442 216.423 148.876 206.553 143.938C204.251 142.764 202.037 140.568 198.461 141.451C197.817 143.621 197.078 145.557 196.636 147.565C196.271 149.112 195.509 150.551 194.453 151.753C193.397 152.954 192.048 153.885 190.573 154.449C190.001 154.801 189.364 155.019 188.698 155.104C188.031 155.19 187.366 155.176 186.705 154.996C186.044 154.817 185.452 154.54 184.895 154.131C184.372 153.723 183.917 153.217 183.563 152.648C183.106 152.241 182.718 151.737 182.464 151.169C182.21 150.601 182.057 150.003 182.003 149.406C181.983 148.777 182.062 148.183 182.274 147.593C182.486 147.002 182.829 146.48 183.238 146.025C184.103 144.39 185.264 142.959 186.685 141.798C188.106 140.637 189.753 139.746 191.526 139.221C192.765 138.817 193.94 138.28 195.084 137.642C194.822 134.296 193.793 131.066 191.991 128.249C190.223 125.4 187.779 123.033 184.856 121.351C177.894 117.267 168.88 117.507 164.4 120.257C164.347 124.358 163.995 128.419 163.377 132.474C163.16 133.296 162.745 134.082 162.199 134.765C161.652 135.448 160.943 135.962 160.17 136.376C159.397 136.756 158.528 136.969 157.663 137.017C156.798 137.065 155.936 136.915 155.112 136.6C148.103 134.732 147.151 129.452 151.856 123.895C153.791 122.018 155.824 120.208 157.953 118.566C156.117 117.337 154.145 116.27 152.068 115.432C147.973 114.155 143.692 113.767 139.427 114.239C135.195 114.712 131.077 116.08 127.375 118.218C125.561 119.106 123.715 119.927 121.839 120.615C124.028 112.954 120.805 108.156 115.905 104.051C114.928 103.104 113.745 102.417 112.424 102.025C106.36 101.07 99.7974 100.138 94.7976 103.902C89.7985 107.634 82.9025 111.458 81.5719 119.368C75.1622 117.48 68.7858 115.592 63.9477 121.146C59.1103 126.667 61.3093 132.733 65.1401 138.669C57.2597 138.734 50.495 139.484 44.9349 144.593C39.3742 149.735 38.8026 156.338 37.1155 163.811C35.8869 162.164 35.003 161.517 34.8204 160.72C34.2441 158.094 32.2276 157.556 30.105 157.312C25.3884 157.113 20.7436 158.239 16.6392 160.534C12.5348 162.829 9.17167 166.231 6.92373 170.351C5.71249 172.608 4.37047 174.763 2.92942 176.882L1.79954 176.859C1.39547 175.527 1.15824 174.166 1.1211 172.776C1.61301 166.799 -2.65212 162.541 -8.61725 160.067C-9.60578 159.649 -10.5985 159.43 -11.6231 159.143C-15.4215 157.972 -15.4236 158.071 -16.8054 162.11C-17.6186 164.408 -18.6956 166.602 -20.0355 168.657C-20.6249 169.803 -21.5424 170.742 -22.6204 171.414C-23.7317 172.085 -25.0021 172.423 -26.2655 172.429C-27.5615 172.402 -28.818 172.077 -29.9006 171.393C-30.9839 170.742 -31.8941 169.763 -32.4685 168.626C-32.8131 167.627 -32.8233 166.535 -32.5026 165.516C-32.1819 164.498 -31.5316 163.618 -30.6876 163.008C-28.8208 161.195 -26.8247 159.55 -24.6665 158.107C-23.3531 157.308 -21.976 156.642 -20.5345 156.077C-24.3341 145.512 -24.9248 146.723 -35.5327 145.275C-36.5348 147.073 -37.3388 148.942 -37.9449 150.88C-39.4842 156.074 -42.3103 160.811 -46.1158 164.7C-49.2215 168.504 -59.604 168.979 -62.7845 165.307C-63.7217 164.03 -64.2545 162.497 -64.3546 160.941C-64.454 159.351 -64.0888 157.804 -63.2952 156.431C-61.5831 152.498 -58.8846 149.082 -55.4732 146.541C-52.0279 143.968 -48.0039 142.333 -43.7379 141.827C-42.2355 141.528 -40.673 141.528 -38.6086 141.373C-38.621 137.238 -39.4662 133.185 -41.1146 129.38C-42.7636 125.607 -45.1847 122.182 -48.184 119.373C-49.7087 120.73 -51.0948 121.826 -52.3163 122.991C-55.5594 125.436 -59.5729 126.575 -63.5889 126.259C-64.4196 126.241 -65.2448 125.959 -65.9336 125.515C-66.6224 125.07 -67.1733 124.397 -67.5234 123.662C-67.8729 122.894 -67.9884 122.064 -67.9045 121.239C-67.7873 120.415 -67.4715 119.627 -66.9591 118.977C-65.5188 116.89 -63.4914 115.345 -61.1132 114.502C-58.735 113.66 -56.141 113.615 -53.7291 114.328C-50.2269 115.361 -49.9901 115.167 -48.6922 111.953C-46.6829 106.538 -46.1605 100.694 -47.137 94.9843C-47.4973 93.1574 -48.2586 91.4213 -49.2898 89.878C-50.3543 88.334 -51.6895 87.0158 -53.2643 86.0233C-54.8384 84.9977 -56.5863 84.3323 -58.441 83.9955C-60.2956 83.6586 -62.1919 83.7178 -63.9961 84.1428C-66.0647 84.496 -68.0392 85.1159 -69.9522 85.9685C-72.0646 86.817 -73.8911 88.3 -75.1286 90.2254C-76.3661 92.1508 -76.9453 94.3879 -76.8273 96.6727C-76.6995 98.4946 -77.5456 99.2045 -79.3782 99.3973C-79.8239 98.4617 -80.2363 97.5269 -80.5809 96.5273C-80.9108 94.8334 -81.8424 93.2921 -83.1493 92.2061C-84.4887 91.0862 -86.1716 90.4884 -87.8996 90.4519C-97.0463 90.6556 -107.31 96.5251 -106.423 108.055C-106.298 110.009 -106.339 111.96 -106.29 114.342C-109.797 113.54 -109.207 110.774 -110.441 109.392C-114.455 108.447 -118.748 109.735 -123.322 113.255C-125.7 112.543 -125.724 110.492 -125.618 108.642C-125.492 107.387 -125.865 106.156 -126.642 105.18C-127.419 104.204 -128.536 103.552 -129.762 103.361C-132.205 102.582 -134.76 102.329 -137.327 102.672C-139.861 103.015 -142.306 103.89 -144.463 105.267C-146.046 106.226 -147.306 107.621 -148.04 109.326C-148.773 110.997 -148.979 112.878 -148.619 114.705C-150.734 115.686 -152.158 115.424 -152.615 113.463C-153.126 110.872 -155.006 110.171 -157.127 109.862C-164.147 108.523 -178.495 114.174 -181.934 119.625C-181.323 120.564 -180.543 121.407 -179.66 122.121C-177.497 123.622 -175.845 125.674 -174.833 128.11C-173.585 130.419 -173.109 133.075 -173.464 135.714C-173.818 138.319 -175 140.742 -176.836 142.655C-181.008 148.19 -192.481 146.757 -194.372 140.267C-195.482 136.175 -194.958 131.82 -192.951 128.091C-191.842 125.932 -190.602 123.907 -189.016 121.195C-192.4 120.892 -195.769 121.417 -198.921 122.673C-202.04 123.963 -204.841 125.955 -207.023 128.522C-211.678 133.286 -212.613 139.783 -212.636 147.158C-220.205 141.938 -225.796 145.326 -231.47 149.539C-233.376 146.919 -232.181 145.456 -230.067 144.508C-225.803 142.547 -221.663 140.121 -216.474 141.586L-215.526 137.604C-212.861 126.348 -200.251 116.426 -189.213 117.95C-187.718 117.981 -186.215 117.682 -184.84 117.116C-183.465 116.549 -182.217 115.683 -181.164 114.613C-173.198 108.927 -164.939 105.132 -154.759 107.927C-153.265 108.025 -151.794 107.626 -150.547 106.825C-149.535 106.152 -148.62 105.344 -147.803 104.435C-145.262 102.141 -142.104 100.62 -138.702 100.096C-135.3 99.5395 -131.818 99.9768 -128.689 101.366C-125.997 102.977 -123.58 105.013 -121.536 107.405C-119.068 107.027 -115.804 106.732 -112.596 105.973C-111.993 105.754 -111.421 105.435 -110.946 104.982C-110.471 104.529 -110.094 103.975 -109.882 103.384C-107.144 93.3863 -99.6463 89.41 -90.2398 87.9217C-88.509 87.8259 -86.7859 88.0938 -85.2035 88.7226C-83.5213 89.3536 -81.8744 90.083 -80.2622 90.8778C-77.4538 88.5555 -75.0469 86.3571 -72.4449 84.3613C-68.9062 82.0875 -64.7916 80.8844 -60.6025 80.8736L-60.4972 80.6112ZM-20.4284 158.924C-22.5649 159.342 -24.5797 160.292 -26.238 161.679C-27.8963 163.067 -29.1981 164.892 -29.9385 166.894L-25.3608 168.942C-23.1324 165.747 -18.675 164.055 -20.3945 158.892L-20.4284 158.924ZM-39.0841 145.002C-47.7867 143.065 -53.5364 147.707 -58.6348 152.991C-60.0765 155.143 -60.9278 157.672 -61.1152 160.248C-61.1271 160.81 -61.0059 161.375 -60.7513 161.91C-60.4966 162.444 -60.1401 162.882 -59.7158 163.255C-58.0081 164.25 -56.0234 164.722 -54.0593 164.598C-52.0953 164.474 -50.185 163.754 -48.6299 162.53C-43.5794 157.939 -40.2241 151.759 -39.118 145.034L-39.0841 145.002ZM194.805 141.407C191.64 141.737 188.715 143.263 186.604 145.633C185.993 146.216 185.577 147.034 185.525 147.893C185.441 148.751 185.722 149.617 186.239 150.289C187.695 152.206 189.406 151.481 190.825 150.386C192.04 149.519 193.03 148.316 193.657 146.94C194.227 145.166 194.63 143.388 194.868 141.541L194.871 141.409L194.805 141.407ZM-184.875 121.911C-186.74 123.658 -188.215 125.777 -189.261 128.103C-190.308 130.43 -190.86 132.965 -190.914 135.511C-190.982 138.751 -189.848 141.719 -187.531 142.198C-186.146 142.723 -184.62 142.888 -183.153 142.687C-181.685 142.453 -180.276 141.855 -179.126 140.92C-177.63 139.364 -176.658 137.4 -176.314 135.29C-175.971 133.18 -176.224 131.025 -177.147 129.054C-178.808 125.843 -181.514 123.338 -184.842 121.912L-184.875 121.911ZM159.084 121.699C157.057 123.211 155.192 124.958 153.555 126.908C153.14 127.627 152.924 128.416 152.907 129.243C152.889 130.07 153.072 130.867 153.455 131.603C154.763 132.656 156.381 133.186 158.078 133.09C159.939 133.129 160.803 131.593 160.97 129.976C161.256 127.468 162.081 124.574 159.114 121.832L159.117 121.7L159.084 121.699ZM-52.0758 117.902C-53.679 116.677 -55.6609 116.073 -57.6582 116.196C-59.6555 116.319 -61.5685 117.172 -62.9942 118.564C-63.8784 119.505 -64.4034 120.751 -64.4307 122.04C-64.4383 122.404 -62.5949 123.27 -61.5648 123.291C-59.6416 123.531 -57.6719 123.142 -55.9562 122.186C-54.2405 121.23 -52.8806 119.803 -52.0454 118.035L-52.0426 117.902L-52.0758 117.902Z" fill="#736658"/>
<path fill-rule="evenodd" clip-rule="evenodd" d="M1424.13 133.575C1430.06 130.577 1436.53 130.388 1442.51 133.019C1448.36 135.843 1453.57 140.638 1453.62 150.757C1453.65 154.011 1455.1 155.213 1456.77 156.679C1459.57 159.146 1461.7 162.802 1462.8 167.12C1463.89 171.437 1463.94 176.156 1462.88 180.525C1462.26 182.334 1461.57 184.076 1460.78 185.751C1459.59 184.783 1458.78 184.18 1459.42 182.404C1459.88 181.145 1460.3 179.885 1460.67 178.559C1461.43 174.574 1461.15 170.404 1459.9 166.701C1458.64 162.998 1456.48 160.057 1453.8 158.341C1453.31 159.502 1452.93 160.73 1452.63 161.993C1452.33 163.613 1451.72 165.097 1450.87 166.315C1450.02 167.533 1448.96 168.422 1447.79 168.885C1444.72 170.87 1439.05 166.033 1438.79 161.407C1438.62 160.135 1438.82 158.805 1439.28 157.676C1439.76 156.548 1440.51 155.685 1441.39 155.216C1443.91 153.708 1446.29 151.383 1449.3 152.357C1450.52 152.806 1451.23 151.422 1451.12 149.793C1451.12 147.678 1450.75 145.621 1450.01 143.784C1449.3 141.947 1448.24 140.363 1446.98 139.23C1438.73 132.061 1430.27 133.444 1421.78 138.372C1419.73 139.988 1417.8 141.9 1416.06 144.075C1417.77 146.779 1419.08 149.084 1420.61 151.329C1421.62 152.814 1422.31 154.65 1422.58 156.608C1422.88 158.599 1422.76 160.646 1422.26 162.588C1420.92 168.676 1415.33 169.501 1412.22 164.197C1411.23 162.843 1410.54 161.104 1410.22 159.242C1409.89 157.381 1409.96 155.398 1410.41 153.553C1410.91 151.579 1411.27 149.57 1411.76 147.14C1406.75 144.204 1402.9 147.831 1398.84 150.576C1393.95 153.726 1392.81 159.688 1392.09 166.245C1389.69 166.259 1389.86 163.985 1389.61 162.028C1389.59 159.718 1388.91 157.524 1387.73 155.905C1386.55 154.286 1384.95 153.373 1383.28 153.338C1380.79 153.871 1378.42 155.155 1376.32 157.063C1374.95 158.66 1373.87 160.655 1373.14 162.917C1372.8 163.853 1372.25 164.655 1371.61 165.194C1370.95 165.733 1370.19 166.01 1369.44 165.962C1368.81 166.013 1368.16 166 1367.53 165.921C1364.03 165.164 1360.53 164.407 1357.09 163.456C1354.82 162.823 1354.41 161.578 1355.42 158.931L1358.61 160.202C1361.89 161.02 1364.66 161.924 1367.58 162.441C1368.4 162.654 1369.25 162.509 1369.99 161.972C1370.72 161.434 1371.32 160.601 1371.68 159.535C1372.68 157.279 1374 155.322 1375.54 153.76C1376.66 152.45 1377.96 151.469 1379.33 150.88C1380.72 150.259 1382.18 150.029 1383.63 150.19C1385.08 150.351 1386.5 150.901 1387.77 151.806C1389.06 152.712 1390.19 153.972 1391.13 155.488C1396.94 146.404 1403.89 141.085 1413.19 143.396C1416.22 138.906 1420 135.504 1424.18 133.446L1424.13 133.575ZM1451.63 155.367C1449.7 155.326 1447.73 155.48 1445.79 155.764C1444.77 155.808 1443.76 156.34 1442.99 157.234C1442.2 158.129 1441.64 159.386 1441.42 160.747C1442.31 163.206 1443.89 165.094 1445.81 165.948C1446.61 166.225 1447.46 166.113 1448.19 165.608C1448.93 165.103 1449.53 164.27 1449.87 163.236C1450.42 161.198 1450.86 158.897 1451.56 155.496L1451.63 155.367ZM1415.53 148.554C1414.34 149.927 1413.5 151.797 1413.09 153.838C1412.68 155.911 1412.76 158.06 1413.3 160.056C1413.68 161.333 1414.34 162.388 1415.2 163.122C1416.05 163.855 1417.04 164.202 1418.06 164.125C1419.62 163.508 1420.37 161.409 1420.37 158.123C1420.29 153.632 1417.84 151.465 1415.48 148.683L1415.55 148.554L1415.53 148.554Z" fill="#736658"/>
<path fill-rule="evenodd" clip-rule="evenodd" d="M315.38 170.872C321.792 169.138 328.169 170.266 333.489 174.054C338.647 178.006 342.772 183.757 340.772 193.676C340.14 196.868 341.318 198.34 342.652 200.114C344.9 203.098 346.242 207.11 346.44 211.56C346.638 216.01 345.726 220.64 343.801 224.703C342.827 226.349 341.797 227.915 340.688 229.396C339.718 228.206 339.046 227.451 340.036 225.843C340.744 224.703 341.405 223.554 342.034 222.329C343.588 218.581 344.164 214.442 343.687 210.562C343.209 206.682 341.683 203.362 339.409 201.139C338.699 202.178 338.069 203.301 337.526 204.478C336.903 206.004 336.002 207.332 334.923 208.353C333.844 209.374 332.625 210.029 331.383 210.245C327.974 211.566 323.408 205.681 324.085 201.098C324.18 199.818 324.643 198.556 325.322 197.544C326.025 196.537 326.93 195.843 327.889 195.562C330.669 194.598 333.467 192.803 336.215 194.367C337.324 195.055 338.298 193.843 338.52 192.226C338.945 190.154 339.001 188.065 338.652 186.116C338.327 184.173 337.613 182.408 336.609 181.043C329.978 172.349 321.412 171.988 312.101 175.093C309.771 176.261 307.493 177.741 305.347 179.518C306.474 182.513 307.288 185.035 308.329 187.543C309.017 189.202 309.319 191.14 309.19 193.112C309.077 195.122 308.548 197.103 307.664 198.903C305.117 204.593 299.476 204.267 297.505 198.443C296.811 196.916 296.488 195.074 296.548 193.185C296.608 191.297 297.075 189.368 297.89 187.653C298.782 185.822 299.54 183.927 300.51 181.646C296.207 177.757 291.695 180.527 287.167 182.393C281.742 184.486 279.413 190.093 277.379 196.367C275.027 195.895 275.653 193.703 275.806 191.735C276.251 189.468 276.029 187.182 275.205 185.358C274.38 183.533 272.994 182.315 271.365 181.942C268.826 181.96 266.238 182.735 263.795 184.178C262.133 185.465 260.667 187.198 259.497 189.266C258.98 190.115 258.278 190.789 257.541 191.187C256.78 191.58 255.983 191.697 255.258 191.498C254.629 191.421 253.992 191.275 253.393 191.07C250.121 189.62 246.85 188.17 243.67 186.54C241.581 185.46 241.432 184.158 242.949 181.77L245.82 183.662C248.865 185.127 251.391 186.574 254.146 187.673C254.906 188.047 255.768 188.078 256.6 187.701C257.432 187.324 258.188 186.63 258.758 185.659C260.187 183.651 261.882 182.004 263.702 180.786C265.062 179.73 266.539 179.034 267.999 178.734C269.491 178.409 270.966 178.48 272.353 178.931C273.741 179.383 275.018 180.209 276.073 181.352C277.152 182.5 278.009 183.965 278.619 185.64C286.154 177.923 294.033 174.122 302.675 178.272C306.549 174.488 310.939 171.923 315.456 170.756L315.38 170.872ZM337.891 197.788C336.002 197.355 334.046 197.107 332.084 196.991C331.078 196.827 329.986 197.144 329.051 197.864C328.092 198.579 327.289 199.696 326.795 200.985C327.171 203.573 328.339 205.743 330.046 206.969C330.767 207.401 331.623 207.463 332.447 207.118C333.272 206.774 334.028 206.079 334.567 205.135C335.521 203.251 336.414 201.087 337.791 197.898L337.891 197.788ZM303.919 183.796C302.473 184.899 301.272 186.56 300.46 188.476C299.641 190.424 299.28 192.543 299.403 194.607C299.521 195.936 299.95 197.102 300.64 197.994C301.33 198.886 302.226 199.425 303.239 199.557C304.896 199.27 306.053 197.366 306.716 194.147C307.553 189.734 305.593 187.116 303.843 183.912L303.942 183.801L303.919 183.796Z" fill="#736658"/>
</svg>
