<svg width="619" height="314" viewBox="0 0 619 314" fill="none" xmlns="http://www.w3.org/2000/svg">
<path d="M577.146 301.768C575.744 298.918 574.15 296.164 572.397 293.506C569.305 289.503 565.384 286.204 560.953 283.803C556.49 281.401 551.581 279.992 546.545 279.639C542.943 279.223 539.341 279.031 535.962 278.775C535.006 274.483 534.145 270.576 533.284 266.669C533.157 265.645 532.679 264.716 531.978 263.947C531.276 263.211 530.352 262.698 529.364 262.506C522.478 261.193 515.561 259.816 508.612 258.887C507.114 258.695 505.584 258.887 504.149 259.368C502.715 259.88 501.408 260.713 500.356 261.834C497.296 264.844 493.885 267.534 490.251 270.672C488.403 268.943 486.554 267.534 485.024 265.837C479.413 259.656 476.258 258.823 468.607 261.353C463.411 263.147 458.088 264.684 452.733 265.901C448.653 266.926 444.381 266.862 440.365 265.677C438.134 261.642 437.113 257.062 437.368 252.45C437.623 248.704 439.313 247.198 443.106 246.878C444.604 246.814 446.103 246.59 447.569 246.206C454.9 243.676 462.2 241.05 469.532 238.424C470.361 238.199 471.094 237.719 471.636 237.079C472.879 235.573 473.739 233.812 474.154 231.891C474.249 229.521 471.763 228.912 469.819 228.496C468.352 228.24 466.854 228.24 465.388 228.496C459.809 229.393 454.135 229.521 448.525 228.848C446.708 228.528 444.955 228.016 443.266 227.247C442.373 226.991 441.576 226.414 441.066 225.614C440.556 224.813 440.365 223.852 440.492 222.924C440.747 221.803 442.341 220.778 443.552 220.106C444.764 219.529 446.071 219.177 447.41 219.017C454.486 217.896 461.595 216.775 468.671 215.622C472.05 215.11 473.963 213.252 473.739 210.466C473.516 207.68 471.891 206.495 468.512 206.271C462.328 205.823 456.176 205.502 450.055 204.542C447.473 203.965 445.051 202.78 442.947 201.147C442.501 200.859 442.118 200.41 441.863 199.93C441.608 199.45 441.512 198.873 441.544 198.329C441.576 197.784 441.767 197.24 442.086 196.792C442.405 196.343 442.819 195.959 443.329 195.735C444.349 195.062 445.497 194.678 446.708 194.55C453.817 193.813 460.957 193.173 468.097 192.436C469.181 192.5 470.297 192.212 471.221 191.668C472.146 191.123 472.943 190.291 473.421 189.298C475.206 185.263 473.198 181.996 468.034 181.452C461.18 180.747 455.538 176.936 449.418 174.342C448.908 174.15 448.43 173.862 448.015 173.446C447.601 173.061 447.314 172.581 447.091 172.069C446.868 171.556 446.772 170.98 446.804 170.435C446.804 169.891 446.963 169.314 447.186 168.834C452.797 167.969 458.534 167.169 464.24 166.08C466.854 165.632 469.404 164.767 471.763 163.582C474.154 162.333 474.218 159.451 473.771 157.273C473.325 155.095 471.699 154.839 469.946 154.839C467.938 154.647 465.962 154.359 463.985 153.975C457.132 152.533 450.629 149.747 444.828 145.776C444.031 145.136 443.011 144.559 441.449 143.567C443.011 142.478 444.7 141.549 446.485 140.812C452.478 139.499 457.355 135.721 462.806 133.287C464.017 132.678 465.037 131.782 465.77 130.693C466.153 130.308 466.44 129.796 466.567 129.252C466.695 128.707 466.663 128.131 466.472 127.618C466.28 127.106 465.962 126.626 465.515 126.305C465.069 125.953 464.559 125.761 463.985 125.697C463.156 125.537 462.328 125.441 461.499 125.441L441.257 123.039C439.95 118.395 440.11 117.627 443.935 116.282C446.804 115.385 449.736 114.68 452.701 114.168C456.271 113.463 459.65 113.015 463.029 111.99C463.667 111.67 464.24 111.19 464.655 110.581C465.069 110.005 465.356 109.3 465.483 108.596C465.611 107.827 464.24 106.482 463.252 105.842C462.104 105.169 460.861 104.689 459.554 104.464C456.303 103.728 452.956 103.344 449.768 102.351C447.25 101.582 444.859 100.461 442.692 98.9562C442.182 98.4438 441.736 97.8674 441.481 97.1949C441.194 96.5223 441.066 95.8178 441.098 95.0812C441.098 93.3519 442.851 92.7434 444.477 92.7434C446.294 92.5833 448.143 92.3271 449.928 92.0069C451.585 91.7827 453.179 91.3343 454.709 90.6618C456.972 89.5089 459.427 88.1319 459.395 85.1856C459.363 82.2393 456.399 81.9831 454.359 80.9584C451.553 79.8695 448.876 78.5245 446.294 76.9553C440.652 72.664 441.257 69.3014 447.824 66.8034C451.075 65.5545 454.135 64.1774 457.514 62.8964C458.216 62.6723 458.821 62.2239 459.236 61.6154C459.65 61.007 459.809 60.2384 459.746 59.5018C459.618 57.6764 458.375 57.068 456.813 56.5235C453.785 55.5628 450.852 54.3459 448.047 52.8727C441.608 49.1258 441.098 44.6744 446.134 39.1662C446.868 38.6217 447.473 37.9492 447.92 37.1806C448.366 36.412 448.685 35.5474 448.812 34.6827C448.94 33.786 448.876 32.8893 448.653 32.0247C448.43 31.16 448.047 30.3274 447.505 29.6228C447.091 28.534 446.549 27.4772 445.848 26.5484C441.927 21.4885 439.377 15.4999 438.42 9.15905C438.293 7.33364 437.751 5.57229 436.858 4.00308C435.966 2.40185 434.723 1.05681 433.256 0C431.981 0.544419 430.898 1.40907 430.069 2.52994C429.24 3.6508 428.73 4.96382 428.571 6.34088C427.072 13.7386 423.853 20.72 419.199 26.6445C416.394 30.4234 413.716 34.2984 410.847 38.0133C410.146 38.8139 409.668 39.8387 409.54 40.8955C409.413 41.9523 409.604 43.0411 410.146 44.0019C414.258 45.6672 418.147 43.3614 422.387 43.3614C422.195 47.1723 420.602 50.7911 417.956 53.5132C414.035 57.4522 410.178 61.4233 406.385 65.4584C405.365 66.7394 404.408 68.0844 403.58 69.5255C409.572 74.2972 415.501 70.3582 421.462 70.3582C420.984 73.1443 419.9 75.8024 418.306 78.1402C416.713 80.478 414.609 82.4315 412.186 83.8726C410.369 85.1856 408.712 86.7868 407.277 88.0358C408.712 92.6473 412.601 92.8075 415.469 94.793C414.864 95.8498 414.131 96.8426 413.27 97.7073C410.433 99.7568 407.182 101.774 404.568 103.6C401.986 105.425 398.639 106.418 397.045 110.069C398.288 110.773 399.595 111.318 400.998 111.638C406.608 111.894 412.218 111.894 417.86 111.894C418.051 113.431 417.86 115.001 417.318 116.442C416.776 117.883 415.884 119.196 414.768 120.221C410.72 124.992 405.301 128.387 399.212 129.892C397.714 130.084 396.344 130.789 395.26 131.846C394.208 132.934 393.538 134.343 393.379 135.849C397.619 138.763 402.591 140.396 407.755 140.62C410.114 140.332 412.505 140.909 414.513 142.222C414.386 143.438 413.907 144.559 413.142 145.52C412.377 146.481 411.357 147.153 410.21 147.538C404.09 150.324 397.619 152.181 390.957 153.078C385.155 153.878 384.549 154.999 385.155 160.668C385.601 164.735 388.406 166.464 393.188 166.464C398.479 166.304 403.771 165.151 409.062 164.447C409.987 164.383 410.911 164.383 411.836 164.447C410.592 169.122 407.596 173.157 403.516 175.687C400.137 177.897 396.758 179.947 393.411 182.092C392.359 182.637 391.403 183.309 390.542 184.078C387.609 187.248 388.566 190.194 392.773 191.475C394.782 192.308 397.045 192.404 399.117 191.732C401.826 190.867 404.6 190.259 407.405 189.906C408.488 189.97 409.54 190.194 410.56 190.547C409.413 192.116 408.202 193.653 406.927 195.126C405.875 196.183 404.408 196.856 403.388 197.944C399.627 201.531 394.654 203.517 389.458 203.517C387.323 203.805 385.219 204.445 383.338 205.47C382.541 205.726 381.808 206.207 381.234 206.815C380.66 207.456 380.246 208.224 380.087 209.057C379.895 209.89 379.927 210.754 380.182 211.555C380.437 212.356 380.884 213.092 381.521 213.669C382.764 215.43 384.549 216.743 386.621 217.319C392.04 218.088 397.587 218.184 403.07 218.504C404.568 218.6 406.321 217.672 407.915 219.209C407.628 219.849 407.309 220.426 406.895 221.002C403.803 224.141 399.914 226.35 395.642 227.375C391.02 228.752 386.207 229.585 381.553 230.93C379.768 231.634 378.047 232.563 376.421 233.652C376.963 235.029 377.218 235.862 377.568 236.598C380.15 242.299 383.242 243.836 389.49 242.747C395.26 241.754 401.476 240.377 406.831 239.993C412.186 239.609 414.29 241.146 414.673 246.75C414.673 249.12 414.418 251.458 413.844 253.763C413.206 258.151 410.975 262.154 407.596 265.004C406.353 266.285 404.631 267.054 402.846 267.118C401.061 267.182 399.308 266.541 397.969 265.356C397.013 264.652 396.152 263.851 395.324 262.987C393.57 261.065 391.403 259.528 388.98 258.535C386.558 257.542 383.976 257.094 381.362 257.19C378.652 257.318 375.975 256.742 373.52 255.557C371.066 254.372 368.962 252.611 367.368 250.401C366.22 248.639 364.531 247.326 362.523 246.718C360.515 246.11 358.379 246.206 356.434 247.006C351.175 248.672 350.282 248.063 348.657 243.035C345.947 234.901 341.739 228.72 332.176 228.72C331.762 228.72 331.316 228.72 330.933 228.528C330.551 228.368 330.168 228.144 329.881 227.855C329.595 227.567 329.34 227.183 329.212 226.799C329.053 226.414 329.021 225.966 329.053 225.55C328.893 223.052 328.415 220.554 328.415 218.024C328.033 212.548 328.064 212.548 322.518 212.548C314.198 212.708 315.888 211.683 314.198 205.534C314.103 205.054 314.103 204.542 314.198 204.029C314.326 202.748 314.007 201.467 313.306 200.41C312.573 199.354 311.489 198.585 310.277 198.265C301.671 194.934 293.16 191.379 284.426 188.529C282.704 187.889 280.856 187.665 279.007 187.857C277.158 188.049 275.405 188.657 273.843 189.618C272.281 190.611 270.942 191.924 269.986 193.493C268.998 195.062 268.392 196.824 268.201 198.681C267.818 203.389 266.83 203.773 261.985 204.189C253.665 204.926 253.251 204.894 252.422 213.444C252.007 217.063 250.382 220.394 247.8 222.956C245.25 225.518 241.871 227.119 238.301 227.535C234.189 228.304 230.045 228.848 225.901 229.201C224.371 229.297 222.841 228.784 221.661 227.791C220.482 226.799 219.749 225.358 219.589 223.82C218.952 221.098 220.099 219.337 223.478 217.736C225.741 216.775 228.068 216.263 230.236 215.334C233.551 214.181 236.739 212.676 239.735 210.914C240.5 210.498 241.106 209.89 241.488 209.121C241.871 208.352 241.998 207.488 241.839 206.623C241.68 205.79 241.265 204.99 240.66 204.413C240.054 203.805 239.257 203.421 238.396 203.325C236.802 203.036 235.145 203.036 233.551 203.325C229.312 203.517 224.849 204.798 220.673 200.795C221.693 199.77 222.809 198.873 224.052 198.169C228.578 196.439 233.296 195.158 237.727 193.269C240.819 192.052 243.688 190.323 246.238 188.145C246.875 187.536 247.385 186.768 247.64 185.935C247.895 185.103 247.927 184.174 247.736 183.309C247.545 182.445 247.099 181.644 246.493 181.003C245.887 180.363 245.122 179.883 244.262 179.626C241.966 178.602 239.384 178.345 236.93 178.922C232.085 179.883 227.08 179.562 222.394 177.993C221.789 175.175 223.51 174.566 225.168 174.022C229.439 172.645 233.806 171.396 238.046 169.795C241.329 168.578 244.517 167.105 247.577 165.407C249.075 164.575 251.083 163.102 249.999 161.02C249.17 159.259 247.704 157.85 245.919 157.049C243.688 156.537 241.361 156.665 239.161 157.401C235.623 158.458 231.925 158.778 228.26 158.362C226.953 158.362 225.678 157.882 224.721 157.017C223.765 156.152 223.159 154.935 223.032 153.622C224.434 152.373 225.933 151.22 227.526 150.228C230.204 148.883 233.169 148.05 235.814 146.641C240.245 144.239 245.058 142.542 246.971 137.482C246.174 135.176 244.58 133.255 242.508 132.006C240.436 130.757 237.982 130.308 235.591 130.693C232.786 131.205 229.917 131.013 227.208 130.116C228.228 126.658 230.905 125.889 233.264 124.8C236.42 123.583 239.161 121.534 241.233 118.876C241.935 118.075 242.381 117.114 242.54 116.089C242.7 115.065 242.604 113.976 242.221 113.015C241.839 112.054 241.201 111.19 240.341 110.549C239.512 109.909 238.524 109.524 237.472 109.428C235.464 109.332 233.487 109.684 231.638 110.453C228.738 111.574 225.582 111.702 222.586 110.805C223.287 107.09 225.04 103.696 227.686 100.974C228.801 99.949 229.694 98.668 230.268 97.2589C230.842 95.8498 231.128 94.3126 231.065 92.7755C231.256 87.9718 229.056 86.2104 224.53 87.5554C222.872 88.0678 221.183 88.7083 219.494 89.2848L218.824 88.5162C219.653 86.979 220.418 85.4098 221.342 83.9366C223.956 79.8375 225.933 75.322 227.144 70.5824C227.526 69.2693 227.463 67.8603 226.953 66.6113C226.475 65.3303 225.55 64.2735 224.403 63.569C223.51 62.6723 222.331 62.0958 221.056 61.9997C219.78 61.9037 218.537 62.256 217.485 62.9925C216.051 64.0493 214.425 64.85 212.449 66.0349C212.258 65.1382 212.13 64.2094 212.035 63.2807C212.194 60.6227 212.194 57.9326 212.035 55.2425C212.003 53.4492 211.493 51.7198 210.6 50.1827C209.708 48.6455 208.433 47.3645 206.902 46.4358C204.161 45.0267 203.3 45.1868 201.228 47.4926C199.698 49.4141 198.583 51.6238 197.945 53.9936C197.308 56.3634 197.116 58.8293 197.435 61.2632C197.499 64.0814 197.818 66.9636 198.041 70.3262L193.801 68.9491C191.729 68.2766 189.689 67.444 187.585 66.9956C186.661 66.7714 185.705 66.8675 184.876 67.2838C184.015 67.7001 183.346 68.3727 182.931 69.2373C182.453 69.9419 182.23 70.8065 182.326 71.6392C182.421 72.5039 182.804 73.2724 183.441 73.8489C185.641 76.1546 187.777 78.4925 189.976 80.7982C191.474 82.3674 192.972 83.9046 194.534 85.4418L200.208 90.9821C194.375 91.7507 189.785 92.9035 185.163 92.9035C183.41 92.7755 181.656 93.2878 180.222 94.3447C178.787 95.4015 177.799 96.9387 177.417 98.668C178.692 100.461 180.222 102.063 181.943 103.44C185.386 105.489 189.02 107.251 192.781 108.692C193.865 109.14 194.853 109.813 195.65 110.677C196.447 111.542 197.085 112.567 197.467 113.688C196.256 114.488 194.949 115.097 193.546 115.513C190.741 115.961 187.872 115.897 185.035 116.218C182.549 116.442 180.094 116.89 177.672 117.595C175.185 118.395 174.899 120.157 176.556 122.302C179.361 125.921 183.346 128.419 187.809 129.38C190.359 129.988 192.845 130.885 195.363 131.653C195.299 132.518 195.108 133.383 194.853 134.215C193.578 137.258 190.677 137.066 188.095 137.61C183.027 138.699 177.704 138.859 173.241 141.805C171.934 142.638 169.926 144.271 170.117 145.2C170.5 146.737 172.189 148.114 173.496 149.267C174.165 149.875 175.377 149.875 176.333 150.196C180.636 151.509 185.003 152.694 189.211 154.231C190.422 154.679 192.08 156.248 192.08 157.049C191.666 158.618 190.677 159.963 189.307 160.796C187.33 162.077 184.748 162.621 182.549 163.806C177.544 166.56 172.603 169.346 167.822 172.389C166.898 172.869 166.196 173.702 165.878 174.663C165.527 175.655 165.559 176.712 165.973 177.673C166.388 178.538 167.089 179.242 167.918 179.69C168.746 180.139 169.703 180.331 170.659 180.235C173.113 179.851 175.536 179.21 178.022 178.666C182.007 177.545 186.183 177.545 190.167 178.666C190.614 180.971 189.147 181.708 187.872 182.413C183.92 184.622 179.967 186.928 175.887 188.817C173.145 190.13 170.978 192.404 169.798 195.222C169.575 195.671 169.448 196.151 169.416 196.663C169.416 197.176 169.48 197.656 169.703 198.137C169.894 198.585 170.181 199.001 170.563 199.354C170.946 199.674 171.392 199.93 171.87 200.058C175.281 200.731 178.756 200.955 182.23 200.731C185.099 200.282 188.032 200.955 190.422 202.62C188.829 203.837 187.171 204.99 185.418 206.015C183.505 207.007 181.338 207.552 179.393 208.481C177.257 209.249 175.377 210.594 173.974 212.388C172.572 214.181 171.743 216.359 171.552 218.632C171.424 220.714 172.285 222.123 174.102 222.315C178.182 222.796 182.358 223.948 186.31 221.29C188.287 220.041 190.422 219.017 192.654 218.312C194.311 217.96 196.001 217.8 197.722 217.8C197.913 224.397 196.766 230.93 194.343 237.047C193.961 238.007 193.259 238.808 192.367 239.32C191.474 239.833 190.454 240.057 189.434 239.929C184.94 239.801 180.445 239.673 175.951 239.16C173.241 238.552 170.404 238.712 167.79 239.673C165.176 240.633 162.881 242.299 161.192 244.508C156.761 249.824 151.533 254.404 145.636 258.055C144.648 258.919 143.468 259.496 142.162 259.72C140.887 259.944 139.548 259.848 138.336 259.4C137.125 258.951 136.041 258.183 135.213 257.158C134.384 256.133 133.842 254.916 133.651 253.635C132.758 250.593 132.184 247.423 131.961 244.252C131.642 240.473 132.822 239.096 136.519 238.199C137.794 237.847 139.197 238.071 140.504 237.847C144.489 237.367 148.441 236.63 152.33 235.702C153.159 235.445 153.924 234.997 154.561 234.421C155.199 233.844 155.709 233.108 156.028 232.307C156.729 230.033 154.689 228.752 152.649 228.08C151.374 227.663 150.067 227.375 148.728 227.119C146.465 226.799 144.202 226.35 141.97 225.742C139.611 224.813 136.679 224.813 135.213 221.451C135.882 220.586 136.679 219.785 137.571 219.145C140.09 217.96 142.735 216.807 145.349 215.75C147.485 215.206 149.461 214.149 151.087 212.676C152.713 211.203 153.956 209.345 154.721 207.264C151.597 204.413 147.74 202.492 143.596 201.723C141.428 201.179 138.878 201.179 137.826 197.784C141.237 196.439 144.744 195.318 148.314 194.39C149.684 194.198 150.991 193.653 152.075 192.756C153.159 191.892 153.988 190.739 154.498 189.426C154.147 188.081 153.414 186.864 152.362 185.935C151.31 185.007 150.035 184.398 148.664 184.206C146.21 183.693 143.819 182.957 141.365 182.316C140.153 182.124 138.974 181.676 137.922 181.035C136.87 180.363 136.009 179.466 135.308 178.441C137.157 177.865 138.751 177.513 140.249 176.872C143.213 175.783 146.082 174.47 148.887 172.965C152.298 170.948 152.394 168.226 149.302 165.792C148.218 165.023 146.975 164.543 145.668 164.319C142.895 163.742 140.281 163.582 137.316 162.781C134.352 162.013 133.714 159.643 135.914 157.529C137.316 156.312 138.878 155.352 140.6 154.647C143.341 153.366 146.178 152.373 148.951 151.252C149.971 150.9 150.928 150.292 151.693 149.523C152.458 148.755 153.063 147.826 153.446 146.801C154.816 143.15 153.382 140.3 149.461 140.044C146.465 139.98 143.437 140.108 140.472 140.46C138.4 140.588 136.328 140.812 134.288 140.973C132.949 134.824 136.743 132.166 140.504 130.052C142.735 128.867 144.68 127.202 146.178 125.184C147.676 123.167 148.728 120.829 149.238 118.331C150.035 114.648 148.505 112.983 144.648 113.399C141.142 113.784 137.794 115.193 135.085 117.434C133.874 118.459 132.439 119.228 131.132 120.06C128.773 117.114 130.176 114.392 130.176 111.798C130.431 107.955 130.431 104.08 130.176 100.205C130.176 99.5967 130.049 98.9882 129.825 98.4118C129.602 97.8354 129.252 97.323 128.805 96.9066C128.359 96.4583 127.849 96.138 127.275 95.9139C126.702 95.6897 126.096 95.5616 125.49 95.5936C124.406 95.5936 123.323 95.9139 122.462 96.5864C121.601 97.2589 120.996 98.1876 120.741 99.2765C119.051 103.119 118.318 107.315 118.637 111.51C119.115 116.858 117.967 117.531 113.027 115.897C109.201 114.52 105.026 114.52 101.2 115.897C100.085 116.217 99.0647 116.826 98.2678 117.659C97.4709 118.523 96.929 119.58 96.674 120.701C96.419 121.854 96.5146 123.039 96.8971 124.128C97.2796 125.216 97.9809 126.209 98.8735 126.946C100.818 128.515 102.858 129.892 105.026 131.141C107.894 132.902 111.273 133.991 111.783 138.347C108.819 138.859 105.854 139.179 102.954 139.948C100.372 140.492 97.8534 141.389 95.5264 142.67C93.072 144.175 92.9763 146.321 94.5064 148.723C95.2396 150.068 96.3234 151.156 97.6303 151.893C98.9691 152.63 100.467 152.982 101.965 152.918C104.452 152.918 106.938 153.462 109.201 154.519C109.743 154.967 110.19 155.512 110.476 156.152C110.763 156.793 110.923 157.497 110.891 158.202C110.859 158.906 109.042 159.899 107.894 160.091C106.109 160.091 104.101 159.611 102.412 160.091C99.511 160.764 96.7377 161.917 94.1876 163.486C91.2231 165.535 91.3825 167.649 93.8689 170.243C95.1758 171.684 96.8334 172.741 98.6503 173.382C100.467 174.022 102.444 174.214 104.356 173.926C106.938 173.766 109.552 173.766 112.134 173.926L112.644 175.079C111.592 176.296 110.795 177.865 109.552 178.473C106.556 180.011 102.986 180.907 99.7979 182.413C96.6421 183.758 93.582 185.391 90.6812 187.248C89.7249 187.793 88.9918 188.689 88.6411 189.778C88.2905 190.835 88.3861 191.988 88.8643 193.013C89.4062 193.717 90.0756 194.294 90.8406 194.71C91.6057 195.126 92.4663 195.382 93.3589 195.447C96.7377 195.735 100.149 195.511 103.464 194.774C106.556 194.102 109.743 194.23 112.772 195.126C113.568 197.464 112.803 198.937 110.668 199.546C106.843 200.763 102.986 201.787 99.0647 202.588C94.9208 203.229 91.0638 205.022 87.8761 207.776C86.3142 209.217 85.1348 210.85 86.3142 213.092C87.4936 215.334 88.5455 217.768 91.6375 217.768C95.6539 217.672 99.6385 217.287 103.623 216.615C106.109 216.102 107.703 216.295 108.978 218.889C107.48 220.714 105.727 222.315 103.814 223.692C100.945 225.069 97.9809 226.19 94.9208 227.087C92.817 227.727 90.9044 228.816 89.2468 230.225C87.5892 231.666 86.2823 233.428 85.3579 235.445C84.1147 238.167 84.6885 239.641 87.653 240.217C90.4262 240.729 93.2314 240.857 96.0365 240.601C98.8416 240.345 101.519 239 104.324 238.776C110.253 238.296 113.473 239.32 113.122 246.27C112.803 250.273 111.879 254.212 110.381 257.959C109.456 259.912 107.863 261.449 105.886 262.314C103.591 263.371 101.073 263.851 98.5228 263.691C96.0046 263.531 93.5501 262.73 91.4144 261.385C89.8206 260.425 88.3543 259.272 86.7604 258.343C85.1666 257.254 83.3497 256.518 81.469 256.229C79.5564 255.941 77.6119 256.101 75.795 256.678C72.4161 257.767 69.0372 258.343 65.6902 259.272C64.7658 259.656 63.7138 259.72 62.7257 259.432C61.7375 259.144 60.8768 258.567 60.3031 257.734C58.7093 255.557 57.2111 253.315 55.8404 250.977C54.7885 249.248 53.9597 247.391 53.354 245.469C51.2821 238.488 47.0106 235.894 39.5197 236.054C29.5105 236.406 29.5742 235.445 25.7491 225.902C21.9239 216.359 15.8674 209.057 4.64694 208.256C3.56315 208.32 2.47935 208 1.61869 207.36C0.726154 206.719 0.0886269 205.79 -0.198261 204.734C-1.44144 200.09 -3.09901 195.671 -4.5972 191.187C-6.28665 186.223 -7.75296 184.878 -13.0126 185.135C-16.9971 185.455 -20.9498 185.967 -24.8706 186.736C-27.7394 187.216 -30.6721 187.825 -34.4653 188.529C-33.1903 185.295 -32.4571 182.861 -31.3096 180.715C-30.2258 178.922 -29.6201 176.872 -29.5564 174.791C-29.5245 172.677 -30.0345 170.627 -31.0227 168.77C-33.9234 163.934 -35.9317 158.618 -36.9198 153.046C-36.9836 152.245 -37.0792 151.445 -37.1748 150.644C-37.3661 150.452 -37.5574 150.26 -37.7805 150.068C-37.908 149.972 -38.0036 149.875 -38.0993 149.843C-38.8643 149.715 -39.6293 149.939 -40.5856 150.708C-40.7131 150.804 -40.8406 150.9 -41 150.996C-40.2031 156.376 -38.5455 161.628 -35.9954 166.496C-33.0947 171.876 -31.8834 176.712 -35.581 182.028C-36.3142 183.181 -36.7604 184.462 -36.9198 185.807C-37.3342 187.665 -37.3342 189.586 -37.3342 192.276C-32.6165 191.411 -28.5682 190.483 -24.7749 189.906C-21.0135 189.33 -17.1884 189.074 -13.3632 188.593C-10.4306 188.209 -9.12364 189.906 -8.29486 192.404C-7.08356 196.087 -5.8085 199.738 -4.56532 203.421C-4.0553 204.958 -3.44965 206.431 -3.22652 207.104C-6.63729 209.249 -9.95243 211.619 -13.0763 214.181C-13.6501 214.853 -14.0964 215.654 -14.2876 216.519C-14.4789 217.383 -14.4789 218.28 -14.2557 219.145C-11.8969 224.013 -7.72108 227.791 -2.65274 229.649C-1.98334 229.969 -1.25018 230.097 -0.517025 230.033C0.216129 229.969 0.917408 229.713 1.52306 229.297C2.12871 228.88 2.60686 228.304 2.89375 227.631C3.18063 226.959 3.30814 226.222 3.21251 225.486C3.21251 222.635 2.9575 219.785 2.44748 216.999C2.06496 215.206 1.07679 213.572 2.06496 211.811C12.106 211.747 17.9394 217.415 21.8283 225.774C23.6771 229.713 25.1116 233.844 26.801 238.103C32.3794 238.648 37.9896 239.32 43.6636 239.737C44.9068 239.705 46.15 240.089 47.17 240.825C48.1901 241.562 48.9232 242.619 49.3057 243.836C50.4852 247.166 51.8558 250.273 53.2584 253.667C56.6373 261.706 61.8331 264.107 70.121 261.706C70.631 261.577 71.1092 261.225 71.5554 261.225C77.2613 259.848 82.6803 258.471 87.8442 263.435C89.5656 264.94 91.6375 265.997 93.837 266.605C96.0365 267.182 98.3634 267.278 100.595 266.829C105.057 266.189 110.094 265.645 112.23 261.033C114.939 256.133 116.214 250.561 115.895 244.989C115.162 238.808 112.134 235.445 105.376 236.79C102.444 237.367 99.511 238.167 96.5784 238.808C93.7732 239.769 90.7131 239.769 87.908 238.808C87.6211 237.783 87.6849 236.662 88.1311 235.669C88.5774 234.677 89.3106 233.876 90.2668 233.396C92.4663 231.891 94.8252 230.578 97.2796 229.489C103.655 227.375 109.17 223.244 112.995 217.704C112.07 216.487 110.795 215.558 109.361 215.046C107.926 214.501 106.364 214.405 104.866 214.693C101.009 215.046 97.2159 215.558 93.3589 215.942C92.4344 216.102 91.4781 215.942 90.6494 215.494C89.8206 215.046 89.1831 214.309 88.8324 213.412C87.8443 211.235 89.4699 209.89 91.2231 209.057C93.0082 208.16 94.8889 207.392 96.8015 206.751C101.296 205.342 105.823 204.157 110.285 202.652C111.847 202.14 113.282 201.243 114.493 200.122C115.13 199.674 115.64 199.065 115.927 198.329C116.214 197.592 116.31 196.824 116.15 196.055C116.023 195.286 115.64 194.582 115.099 194.005C114.557 193.429 113.887 193.045 113.122 192.853C110.445 191.796 107.512 191.668 104.771 192.5C101.551 193.269 98.2359 193.653 94.9208 193.685C94.3152 193.589 93.7095 193.365 93.1995 193.045C92.6894 192.724 92.2432 192.244 91.8925 191.732C91.6375 191.315 92.6894 189.778 93.4545 189.01C94.3151 188.177 95.3033 187.536 96.3871 187.088C100.69 185.231 105.057 183.501 109.361 181.644C110.795 181.228 112.102 180.427 113.122 179.338C114.11 177.865 114.557 176.104 114.397 174.342C114.047 172.389 112.166 171.812 110.062 171.812C107.384 172.004 104.707 171.812 101.997 171.812C100.499 171.876 99.0329 171.556 97.7259 170.852C96.419 170.147 95.3033 169.09 94.5383 167.809C96.8334 164.639 97.2159 164.126 99.9573 163.518C102.252 163.134 104.611 162.909 106.938 162.845C111.369 162.525 112.644 161.564 113.154 158.458C113.664 155.352 112.102 153.142 108.309 151.957C106.237 151.349 104.069 150.996 101.902 150.868C98.5866 150.644 95.6858 148.979 95.9408 146.897C96.3234 143.791 99.256 143.823 101.328 143.278C104.42 142.542 107.544 142.061 110.7 141.837C111.688 141.837 112.612 141.485 113.345 140.812C114.078 140.172 114.525 139.243 114.652 138.283C113.887 136.297 112.708 134.504 111.178 132.998C109.648 131.493 107.831 130.372 105.822 129.636C103.814 128.835 101.997 127.682 100.404 126.241C99.7979 125.761 99.3516 125.12 99.0966 124.416C98.8416 123.679 98.7778 122.911 98.9372 122.142C99.0966 121.373 99.4472 120.701 99.9573 120.125C100.467 119.548 101.137 119.132 101.87 118.94C103.081 118.395 104.42 118.139 105.759 118.235C108.245 118.523 110.7 119.036 113.122 119.676C118.764 121.181 121.633 119.068 121.442 113.271C121.187 111.446 121.091 109.588 121.187 107.731C121.569 105.393 122.239 103.119 123.195 100.974C123.45 100.589 123.801 100.269 124.247 100.045C124.661 99.8209 125.14 99.7248 125.586 99.7568C126.319 99.8849 127.084 101.006 127.339 101.87C127.658 102.959 127.785 104.112 127.69 105.265C127.467 108.436 126.957 111.83 126.765 114.808C126.606 117.787 125.554 121.309 128.55 123.263C131.547 125.216 133.969 122.11 136.392 120.381C137.699 119.068 139.293 118.107 141.078 117.563C142.831 117.05 144.712 116.954 146.529 117.338C146.178 118.779 146.274 120.381 145.509 121.245C143.405 123.743 141.014 126.017 138.432 128.003C136.583 129.123 134.958 130.565 133.682 132.326C132.407 134.055 131.483 136.041 130.973 138.154C130.399 141.677 131.483 143.406 134.862 143.695C137.348 143.727 139.835 143.599 142.321 143.246C144.52 143.086 146.847 142.766 148.824 142.83C150.8 142.894 151.501 144.303 150.577 145.968C149.939 147.121 148.983 148.082 147.804 148.723C145.7 149.747 143.341 150.196 141.269 151.252C138.687 152.373 136.296 153.911 134.161 155.768C133.427 156.505 132.822 157.401 132.471 158.362C132.089 159.355 131.929 160.38 131.993 161.436C132.344 162.685 133.045 163.774 134.033 164.575C135.021 165.407 136.233 165.888 137.508 165.984L144.489 167.009C145.445 167.009 146.401 167.361 147.134 167.969C147.867 168.578 148.377 169.443 148.569 170.403C147.963 170.852 147.326 171.236 146.656 171.556C143.915 172.709 141.142 173.766 138.305 174.63C135.818 175.303 133.109 175.944 132.854 178.89C132.599 181.836 134.862 182.925 137.189 183.661C140.408 184.686 143.596 185.519 146.784 186.512C148.632 187.152 150.736 187.376 151.82 189.906L149.429 190.899C145.349 192.404 140.791 193.685 137.189 195.415C133.587 197.144 133.587 200.25 136.966 202.172C139.388 203.293 141.875 204.285 144.425 205.118L152.203 208.288C149.908 210.754 147.007 212.612 143.819 213.701C140.6 214.757 137.571 216.327 134.862 218.344C134.033 218.889 133.396 219.657 133.045 220.586C132.694 221.515 132.599 222.507 132.822 223.468C133.045 224.429 133.555 225.294 134.288 225.966C135.021 226.639 135.914 227.055 136.902 227.183C140.918 228.496 144.967 229.457 149.015 230.578C150.545 231.026 152.011 231.602 154.593 232.435C153.446 233.043 152.266 233.524 151.023 233.876C146.72 234.453 142.385 235.029 138.081 235.413C136.902 235.349 135.723 235.573 134.639 235.99C133.555 236.438 132.567 237.111 131.738 237.975C130.941 238.84 130.304 239.865 129.921 240.986C129.539 242.106 129.411 243.291 129.507 244.476C129.666 248.159 130.272 251.81 131.26 255.333C134.033 265.068 137.858 264.876 145.413 262.698C146.337 262.346 147.23 261.866 147.995 261.257C153.733 257.126 159.024 252.45 163.806 247.262C165.559 245.341 167.79 243.932 170.245 243.163C172.731 242.395 175.345 242.299 177.863 242.907C180.796 243.58 183.792 244.028 186.788 244.252C189.753 244.508 192.654 243.58 194.949 241.658C197.212 239.769 198.678 237.047 198.965 234.068C199.348 232.083 199.985 230.129 200.272 228.144C200.782 225.486 201.037 222.828 201.005 220.106C200.782 215.814 198.041 214.117 194.024 215.59C191.538 216.487 189.115 217.64 186.852 218.985C185.067 220.074 183.027 220.714 180.955 220.778C178.883 220.842 176.811 220.362 174.962 219.401C175.44 214.373 178.947 212.452 182.836 210.978C185.29 210.338 187.585 209.217 189.562 207.648C191.538 206.079 193.196 204.125 194.407 201.883C192.972 200.346 191.156 199.225 189.179 198.649C187.171 198.041 185.035 198.008 183.027 198.521C179.712 199.225 176.269 198.745 173.241 197.208C174.197 194.069 176.588 192.981 178.979 191.764C183.059 189.778 186.98 187.504 190.741 185.007C192.622 183.693 195.236 182.156 194.853 179.114C194.662 177.257 190.901 175.527 187.522 175.719C183.505 175.976 179.521 176.424 175.536 177.096C173.209 177.769 170.691 177.609 168.46 176.616C170.117 175.015 171.902 173.542 173.783 172.261C177.736 170.083 181.911 168.29 185.928 166.24C188.51 165.055 190.996 163.614 193.323 161.981C194.056 161.436 194.662 160.7 195.044 159.867C195.427 159.034 195.554 158.106 195.491 157.177C195.395 156.248 195.076 155.384 194.534 154.647C193.993 153.911 193.291 153.302 192.431 152.918C189.657 151.797 186.852 150.868 183.951 150.1C180.573 149.011 176.62 149.075 173.847 145.264C175.345 144.431 176.907 143.759 178.532 143.246C182.103 142.478 185.737 141.933 189.402 141.357C191.092 141.197 192.686 140.684 194.152 139.82C195.618 138.955 196.861 137.802 197.786 136.393C198.296 135.817 198.615 135.112 198.774 134.376C198.933 133.639 198.87 132.838 198.615 132.134C198.36 131.429 197.913 130.789 197.34 130.276C196.766 129.796 196.064 129.444 195.299 129.316C192.431 128.387 189.562 127.778 186.661 126.754C183.76 125.697 180.636 124.768 179.68 120.861C182.9 119.644 186.342 119.068 189.785 119.132C192.08 119.196 194.343 118.844 196.543 118.139C200.687 116.474 201.26 113.752 198.678 110.165C197.371 108.083 195.299 106.578 192.909 105.97C189.594 104.849 186.406 103.376 183.378 101.646C182.9 101.454 182.485 101.166 182.135 100.814C181.784 100.461 181.497 100.013 181.338 99.5327C181.178 99.0523 181.083 98.5399 181.114 98.0275C181.146 97.5151 181.306 97.0347 181.529 96.5864C185.768 96.074 190.231 95.4335 194.694 95.0492C196.16 95.1773 197.626 94.8891 198.933 94.1845C200.24 93.48 201.324 92.4872 202.089 91.2062C198.678 83.072 189.402 79.4532 185.705 70.9026C186.565 70.6464 187.458 70.5183 188.382 70.5503C190.486 71.1268 192.494 71.8633 194.534 72.6319C199.316 74.2652 201.483 72.4718 200.973 67.476C200.623 63.2807 200.623 59.0855 200.973 54.8903C201.005 53.5452 201.483 52.2322 202.344 51.1754C203.205 50.1186 204.384 49.382 205.691 49.0938C207.253 50.9512 208.401 53.0969 209.038 55.4667C209.676 57.8045 209.771 60.2704 209.357 62.6402C209.006 63.8572 209.07 65.1382 209.548 66.3231C210.026 67.476 210.887 68.4687 211.971 69.0772C214.33 70.3582 215.509 68.3086 217.071 66.9636C218.633 65.6185 220.227 64.3376 222.426 65.6506C224.626 66.9636 224.785 68.6929 224.211 71.2228C222.554 76.667 220.004 81.823 216.657 86.4666C215.987 87.3953 215.605 88.5162 215.509 89.6691C215.445 90.822 215.7 91.9748 216.274 92.9996C217.135 93.0957 218.027 93.0957 218.92 92.9996C221.279 92.263 223.414 91.2062 225.678 90.5658C227.941 89.9253 229.184 90.7579 228.77 92.9356C228.26 95.1773 227.399 97.355 226.219 99.3405C224.626 102.095 222.617 104.561 221.024 107.283C218.569 111.478 220.546 114.872 225.518 114.872C228.005 114.712 230.459 114.168 232.818 113.239C233.774 112.759 234.794 112.471 235.878 112.407C236.93 112.343 238.014 112.535 239.002 112.919C240.436 117.402 240.436 117.915 237.089 120.189C235.559 121.181 233.902 121.982 232.18 122.558C230.65 123.007 229.248 123.775 228.005 124.768C226.761 125.793 225.741 127.042 225.008 128.451C223.574 131.493 223.574 132.934 226.921 133.671C229.885 134.087 232.882 134.215 235.846 134.087C237.631 133.991 239.448 134.151 241.201 134.568C242.413 135.016 243.975 136.329 244.038 137.514C244.102 138.699 242.731 140.3 241.584 140.909C237.631 143.054 233.232 145.04 229.439 146.833C225.678 148.626 221.629 150.068 220.004 154.327C220.577 156.889 222.107 159.099 224.275 160.54C226.443 161.981 229.088 162.525 231.67 162.077C234.348 161.949 236.93 161.276 239.576 160.86C241.52 160.444 243.496 160.219 245.473 160.187C245.919 160.059 246.397 160.091 246.812 160.315C247.226 160.54 247.513 160.924 247.672 161.372C247.832 161.821 247.768 162.301 247.545 162.717C247.322 163.134 246.939 163.422 246.493 163.582C245.186 164.639 243.72 165.471 242.158 166.016C236.324 168.033 230.395 169.763 224.594 171.908C219.844 173.67 219.43 174.727 219.43 180.651C220.641 181.388 221.98 181.932 223.383 182.22C228.291 182.412 233.392 182.22 238.428 182.22C239.895 182.06 241.393 182.06 242.891 182.22C245.664 182.829 246.27 184.846 244.325 186.992C243.528 187.825 242.54 188.497 241.456 188.913C238.97 189.938 236.388 190.707 233.902 191.7C229.503 193.237 225.199 195.062 221.024 197.176C216.529 199.674 216.912 202.876 221.406 205.406C225.008 207.296 229.216 207.776 233.137 206.719C235.272 206.271 237.376 205.694 239.161 207.584C237.599 210.274 237.568 210.21 235.559 210.978C231.128 212.42 226.793 214.117 222.554 216.07C220.195 217.255 218.282 219.177 217.167 221.579C215.796 225.197 219.844 231.09 223.733 232.211C231.638 234.485 238.97 232.147 246.142 229.104C248.979 227.984 251.434 226.062 253.251 223.564C255.036 221.066 256.088 218.12 256.279 215.078C256.598 213.028 257.044 211.011 257.586 209.025C258.67 208.609 259.817 208.256 260.965 208C262.463 207.616 263.961 207.616 265.491 207.616C266.83 207.744 268.169 207.36 269.253 206.559C270.336 205.758 271.07 204.574 271.325 203.261C271.675 202.204 271.707 201.019 271.994 199.866C272.217 198.425 272.759 197.08 273.556 195.895C274.353 194.71 275.437 193.717 276.68 192.981C277.923 192.244 279.326 191.828 280.76 191.732C282.194 191.636 283.629 191.828 284.968 192.372C292.49 194.678 299.886 197.368 307.249 200.058C308.556 200.442 309.704 201.211 310.564 202.236C311.425 203.293 311.967 204.574 312.094 205.919C312.859 209.377 313.848 212.74 315.027 216.07H326.502L327.172 228.112C325.769 228.368 324.781 228.368 323.793 228.368H313.688C308.429 228.56 306.899 230.834 309.385 235.349C310.915 238.103 313.083 240.473 314.836 243.067C316.302 245.341 318.31 247.23 320.637 248.575C322.996 249.92 325.61 250.657 328.319 250.753C331.762 244.893 330.232 238.424 330.806 232.435C343.397 232.659 343.652 234.292 347.031 242.843L350.41 251.714C353.502 251.233 356.434 250.849 359.367 250.337C360.642 249.985 362.013 250.017 363.256 250.433C364.531 250.849 365.615 251.65 366.444 252.707C368.452 255.333 371.034 257.414 374.03 258.791C377.027 260.168 380.278 260.809 383.561 260.617C385.665 260.489 387.769 260.841 389.713 261.674C391.658 262.474 393.379 263.723 394.782 265.292C396.567 267.054 398.607 268.559 400.806 269.68C401.954 270.32 403.325 270.544 404.631 270.32C407.15 269.904 409.509 268.815 411.421 267.15C413.366 265.484 414.8 263.339 415.597 260.905C416.999 255.941 419.167 251.266 418.275 245.757C418.211 244.604 417.892 243.484 417.35 242.491C416.808 241.466 416.075 240.601 415.151 239.897C413.844 239 412.377 238.392 410.815 238.103C409.254 237.815 407.66 237.847 406.13 238.167C399.882 239.256 393.538 239.993 387.227 240.409C382.541 240.633 381.904 239.673 380.915 234.1L390.574 231.859C396.981 230.546 403.101 227.984 408.52 224.269C409.923 223.468 411.007 222.155 411.485 220.618C411.963 219.049 411.836 217.383 411.102 215.91H405.811C400.296 215.622 394.622 215.27 388.948 214.789C387.801 214.597 386.749 214.085 385.888 213.316C385.346 212.964 384.932 212.484 384.677 211.907C384.422 211.331 384.358 210.69 384.486 210.05C384.613 209.441 384.932 208.865 385.378 208.417C385.824 207.968 386.398 207.68 387.036 207.584C388.47 207.136 389.936 206.815 391.467 206.655C399.946 205.662 405.97 200.346 411.708 194.582C412.441 194.005 412.951 193.173 413.142 192.244C413.334 191.315 413.142 190.355 412.696 189.554C412.218 188.753 411.485 188.113 410.624 187.761C409.764 187.408 408.807 187.344 407.883 187.6C407.086 187.729 406.289 188.273 405.492 188.273C402.4 188.881 399.244 189.33 396.089 189.554C394.909 189.586 393.666 188.305 392.455 187.633C393.028 186.512 393.793 185.487 394.686 184.622C397.587 182.477 400.647 180.875 403.675 179.114C408.744 176.392 412.696 171.94 414.8 166.56C415.278 165.311 415.756 163.198 415.055 162.493C414.386 161.789 412.377 161.789 411.007 161.789C405.173 162.269 399.34 163.166 393.507 163.358C388.63 163.358 387.641 161.596 389.331 156.601C396.79 155.64 404.09 153.59 410.943 150.516C412.76 149.747 414.386 148.562 415.693 147.089C416.999 145.616 417.956 143.855 418.53 141.933C417.733 140.588 416.553 139.531 415.151 138.827C413.748 138.122 412.218 137.834 410.656 137.994C406.321 137.738 402.081 136.745 398.065 135.048C398.83 134.279 399.691 133.575 400.615 132.998C402.91 131.974 405.365 131.301 407.564 130.116C415.788 125.729 421.685 119.612 421.94 109.044C416.075 107.251 409.827 111.51 403.101 108.403C409.859 104.048 417.637 101.454 419.964 93.3839L411.389 89.2848C413.206 87.6515 414.226 86.5306 415.438 85.698C420.442 82.1753 424.012 76.9553 425.542 70.9987C426.021 69.8138 426.18 68.5328 426.021 67.2838C425.861 66.0349 425.415 64.8179 424.682 63.7931C422.673 65.8427 420.187 67.3799 417.446 68.2446C414.704 69.1412 411.804 69.3334 408.967 68.853C409.254 68.0844 409.636 67.3479 410.114 66.6754C413.047 63.6971 416.171 60.8789 418.944 57.7405C422.833 54.1857 425.351 49.4141 426.084 44.194C426.244 40.5753 425.032 39.8707 421.653 40.5753C419.199 41.0556 416.681 41.504 414.194 41.9203L413.621 40.8955C414.673 39.4864 415.788 38.0773 416.776 36.6042C420.442 31.224 424.49 26.036 427.614 20.3677C429.878 15.564 431.822 10.6002 433.448 5.54026C435.456 15.9803 439.982 25.8119 446.613 34.1063L442.373 38.5897C440.811 39.9348 439.791 41.7602 439.504 43.8097C439.185 45.8273 439.632 47.9089 440.684 49.6382C442.628 53.5773 446.039 56.6196 450.183 58.0607C452.127 58.7653 454.04 59.5659 456.941 60.6547C453.179 62.8644 449.099 64.4977 444.828 65.4904C440.237 66.9315 439.217 68.2766 439.504 73.0803C439.504 74.4253 439.855 75.7704 440.588 76.9233C441.289 78.0761 442.341 78.9728 443.552 79.5493L455.984 85.7941C454.072 89.5089 453.243 90.0534 449.226 90.4697C446.708 90.5978 444.222 90.918 441.767 91.4304C438.42 92.2951 437.783 93.6081 438.102 96.9707C438.58 99.2124 439.727 101.262 441.385 102.831C443.042 104.4 445.178 105.393 447.441 105.681C451.362 106.546 455.283 107.315 459.204 108.211C460.351 108.564 461.467 108.98 462.583 109.46V110.581C458.917 111.254 455.219 111.862 451.553 112.567C448.43 112.951 445.338 113.656 442.341 114.616C441.098 115.033 439.982 115.769 439.122 116.794C438.293 117.819 437.751 119.036 437.56 120.349C437.368 121.662 437.56 123.007 438.134 124.192C438.675 125.409 439.568 126.401 440.652 127.138C442.66 128.195 444.955 128.579 447.186 128.227C452.574 128.067 457.961 128.515 464.527 128.515C462.965 130.116 462.519 131.013 461.722 131.397C455.825 134.215 449.991 137.162 443.967 139.531C441.767 140.396 439.409 141.037 439.409 143.406C439.536 144.367 439.887 145.296 440.429 146.129C440.939 146.961 441.64 147.666 442.469 148.21C448.334 152.373 454.996 155.256 462.073 156.665C464.049 156.953 466.121 156.793 468.065 157.177C469.022 157.337 470.488 158.266 470.488 159.002C470.488 159.547 470.361 160.091 470.105 160.572C469.85 161.052 469.532 161.5 469.085 161.821C467.97 162.589 466.695 163.07 465.388 163.23C462.009 163.742 458.63 163.902 455.283 164.447C450.629 164.831 446.198 166.528 442.501 169.346C443.011 171.876 444.222 174.214 446.039 176.072C447.824 177.929 450.119 179.242 452.637 179.818C457.801 181.356 462.232 184.814 467.906 184.366C468.416 184.366 468.926 184.558 469.277 184.91C469.85 185.423 470.616 186.127 470.616 186.672C470.456 187.6 469.978 188.433 469.245 189.042C468.48 189.426 467.651 189.586 466.822 189.554L448.461 191.347C443.202 191.86 439.09 193.781 437.878 199.706C438.835 201.659 440.237 203.357 441.959 204.702C443.68 206.015 445.688 206.943 447.792 207.36C453.052 208.16 458.375 208.705 463.698 208.961C466.025 209.313 468.32 209.313 470.456 209.313C471.189 211.715 470.679 213.156 468.607 213.54C464.336 214.277 460.001 214.725 455.729 215.526C450.757 216.327 445.879 217.447 441.066 218.921C440.11 219.177 439.249 219.689 438.58 220.394C437.91 221.098 437.464 221.995 437.273 222.956C437.082 223.916 437.177 224.909 437.528 225.838C437.879 226.767 438.516 227.535 439.281 228.112C440.588 229.361 442.118 230.385 443.776 231.122C448.94 233.204 454.582 233.652 460.033 232.467C463.73 231.378 467.651 231.378 471.317 232.467C469.723 235.67 469.787 235.894 466.758 237.015C461.594 238.84 456.335 240.601 451.075 242.235C448.398 243.099 445.656 243.708 442.883 244.092C438.102 244.668 434.723 247.07 434.5 251.842C434.531 256.389 434.946 260.905 435.775 265.388C435.838 265.933 436.572 266.445 437.113 266.798C438.484 268.014 440.078 268.943 441.831 269.52C443.584 270.096 445.401 270.32 447.218 270.192C454.486 269.071 461.626 267.374 468.639 265.132C477.915 261.674 480.816 263.595 485.119 269.359C488.498 273.971 490.698 274.195 495.224 270.801C497.774 268.879 500.197 266.765 502.396 264.46C503.639 263.179 505.169 262.218 506.859 261.706C508.548 261.193 510.365 261.129 512.087 261.545C517.538 262.538 522.861 264.043 528.28 265.228C529.204 265.324 530.097 265.773 530.702 266.477C531.34 267.182 531.659 268.111 531.627 269.039C532.105 273.523 532.743 277.91 533.412 283.066C534.432 283.226 535.452 283.322 536.472 283.386C540.138 283.13 543.804 283.13 547.469 283.386C559.168 285.084 568.858 289.855 573.799 301.64C575.489 305.643 577.242 306.38 581.386 305.419C587.793 304.202 594.391 304.491 600.671 306.252C606.154 307.821 611.318 310.287 616.004 313.521C617.757 314.61 618.235 313.714 619 312.112C606.154 303.274 592.606 298.214 577.401 301.961L577.146 301.768ZM-0.453274 226.703C-1.50519 226.607 -2.90775 226.927 -3.57716 226.35C-6.15914 224.333 -8.54987 222.059 -10.7175 219.593C-12.8532 217.287 -12.3113 215.526 -9.47428 213.893C-7.27481 212.836 -5.04347 211.939 -2.7165 211.171V211.267C0.31176 220.106 0.439266 221.002 -0.421394 226.671L-0.453274 226.703ZM326.056 247.999C318.502 245.277 314.836 238.84 310.564 232.947L311.234 231.795H326.885C327.969 234.389 328.447 237.207 328.288 239.993C328.128 242.811 327.363 245.533 326.024 247.999H326.056Z" fill="#736658"/>
</svg>
