<svg width="576" height="341" viewBox="0 0 576 341" fill="none" xmlns="http://www.w3.org/2000/svg">
<path d="M660.755 152.376C660.795 152.049 660.386 151.682 660.55 151.968C660.55 151.968 660.509 151.886 660.468 151.846C660.345 151.886 660.263 151.968 660.141 152.009C659.363 152.335 658.504 152.498 657.644 152.498C645.08 154.17 632.515 156.086 619.992 157.676C617.618 157.676 615.285 158.288 613.198 159.389C611.111 160.49 609.31 162.08 608 164.037C604.604 169.501 600.757 174.72 597.523 180.225C597.032 181.244 596.214 182.1 595.191 182.671C594.208 183.242 593.022 183.528 591.876 183.446C584.141 183.731 576.405 184.465 568.711 184.832C567.238 184.914 565.806 185.362 564.578 186.219C563.35 187.075 562.409 188.217 561.795 189.562C558.07 195.801 554.101 201.795 549.763 207.748C548.657 209.256 547.143 210.48 545.424 211.254C538.467 214.068 531.427 216.759 524.347 219.206C522.096 220.184 519.682 220.673 517.226 220.551C514.771 220.429 512.397 219.736 510.269 218.512C510.023 215.373 509.45 211.988 509.45 208.604C509.205 205.587 510.023 202.569 511.701 200.082C513.379 197.554 515.876 195.678 518.74 194.741C521.646 193.64 524.593 192.865 527.417 191.846C534.129 189.481 540.8 187.157 547.43 184.547C549.23 183.854 550.827 182.753 552.095 181.326C553.037 180.429 553.732 179.287 554.101 178.023C554.469 176.759 554.428 175.454 554.101 174.19C553.732 172.926 553.037 171.784 552.095 170.928C551.154 170.031 549.967 169.419 548.657 169.175C546.366 168.563 543.992 168.278 541.659 168.359C536.953 168.4 532.205 169.175 527.58 168.808C525.657 168.93 523.692 168.645 521.892 167.992C520.05 167.34 518.413 166.321 516.981 165.016C518.74 160.49 523.078 160.204 526.557 159.063C533.105 156.902 539.899 155.556 546.488 153.599C550.008 152.62 553.364 151.193 556.433 149.277C557.129 148.543 557.661 147.686 558.03 146.749C558.398 145.811 558.562 144.791 558.521 143.813C558.562 143.283 558.521 142.712 558.357 142.223C558.193 141.693 557.907 141.244 557.539 140.836C557.17 140.429 556.72 140.102 556.229 139.898C555.738 139.695 555.206 139.572 554.633 139.572C552.586 139.368 550.376 138.634 548.289 138.634C542.6 138.634 536.789 138.838 530.977 139.124C528.808 139.287 526.639 139.001 524.593 138.267C522.547 137.534 520.664 136.351 519.15 134.842C520.173 134.149 521.237 133.619 522.342 133.171C529.381 131.458 536.502 129.868 543.583 128.115C545.915 127.707 548.166 127.014 550.335 126.117C551.195 125.872 551.972 125.383 552.586 124.689C553.2 124.037 553.61 123.222 553.814 122.325C554.019 121.427 553.937 120.53 553.651 119.674C553.364 118.818 552.873 118.043 552.177 117.472C550.458 115.597 548.248 114.251 545.752 113.639C540.309 112.579 534.661 112.049 529.136 111.478C526.189 111.193 523.119 111.56 520.828 108.339C521.81 107.523 522.874 106.83 523.979 106.218C528.563 104.384 533.474 102.956 537.771 100.795C540.963 99.246 543.91 97.1665 546.447 94.6792C546.979 93.8229 547.307 92.8443 547.43 91.8249C547.552 90.8056 547.43 89.7862 547.102 88.8484C546.611 87.8698 544.196 86.8504 542.764 86.8504C536.789 86.932 530.773 87.5028 524.757 87.7475C522.383 87.829 519.764 88.8076 517.021 86.565C523.242 80.408 529.177 74.5772 535.07 68.6648C536.953 66.9115 538.59 64.9951 540.022 62.834C540.636 61.7331 540.963 60.4691 540.963 59.2051C540.963 57.9411 540.595 56.677 539.899 55.6169C539.244 54.516 538.303 53.6597 537.157 53.0481C536.011 52.4364 534.783 52.151 533.474 52.2326C530.486 52.5588 527.58 53.3743 524.797 54.5567C521.728 55.78 518.863 57.4925 514.771 59.572C515.425 57.5741 516.203 55.6577 517.144 53.782C521.032 47.625 525.125 41.5903 528.972 35.3926C530.568 32.8645 531.96 30.1734 533.024 27.3599C533.556 25.9328 533.597 24.3834 533.105 22.9155C532.614 21.4476 531.673 20.2243 530.404 19.368C527.54 17.574 525.493 19.4496 523.652 21.2029C521.81 22.9562 520.009 24.8726 518.086 26.5444C517.308 27.4415 516.285 28.1346 515.18 28.6239C514.075 29.0725 512.888 29.2763 511.66 29.2356V23.9756C512.069 17.3293 510.964 10.683 508.468 4.526C507.813 2.97655 506.749 1.67176 505.358 0.733942C504.58 0.285419 503.72 0.0407748 502.82 0C501.92 0 501.06 0.203864 500.283 0.652387C499.505 1.10091 498.85 1.71253 498.4 2.48726C497.95 3.26198 497.704 4.11825 497.704 5.0153C496.886 9.33743 496.517 14.2712 495.985 17.9409C495.412 21.6107 494.88 25.6881 494.225 30.2141C491.729 29.4802 489.192 28.9094 486.654 28.4608C483.053 27.8492 479.41 27.6454 475.768 27.89C474.622 27.9308 473.476 28.2977 472.535 28.9501C471.593 29.6025 470.816 30.4996 470.366 31.5597C469.915 32.6199 469.752 33.8023 469.956 34.944C470.161 36.0857 470.652 37.1459 471.43 38.0022C472.535 39.5924 473.762 41.101 475.072 42.5282C478.633 46.5241 482.275 50.4793 485.754 54.516C487.186 56.1877 488.455 57.9818 486.449 60.5099C482.521 60.306 478.182 59.939 473.844 59.939C469.342 59.939 464.881 60.4691 460.502 61.4477C459.234 61.6108 458.088 62.1816 457.146 62.9971C456.205 63.8534 455.509 64.9136 455.223 66.1368C454.936 67.36 454.936 68.6241 455.346 69.8473C455.755 71.0298 456.491 72.0899 457.515 72.8646C459.888 74.6995 462.385 76.2897 465.045 77.6353C469.997 80.9381 475.072 84.1185 479.697 87.9105C482.889 90.4794 481.948 93.1705 478.019 94.2714C476.955 94.4753 475.891 94.5976 474.826 94.5976C471.184 95.0462 467.501 95.2093 463.94 95.9024C460.952 96.1879 458.088 97.2888 455.714 99.1236C453.34 100.958 451.499 103.446 450.475 106.259C454.241 112.335 460.257 113.925 466.396 115.27C468.401 115.393 470.365 115.923 472.125 116.82C473.885 117.758 475.44 119.063 476.668 120.653C472.739 125.016 472.248 125.179 467.378 125.79C461.157 126.32 454.977 127.177 448.879 128.482C443.804 129.746 440.98 133.334 441.553 136.351C442.577 140.836 446.505 142.304 450.23 143.242C455.223 144.547 460.38 145.077 465.413 146.055C470.079 146.667 474.54 148.135 478.674 150.378C476.177 151.438 473.64 152.335 471.02 153.069C463.203 154.455 455.223 155.271 447.488 156.902C443.968 157.717 440.612 159.185 437.584 161.224C436.765 161.672 436.069 162.325 435.578 163.099C435.087 163.874 434.801 164.771 434.719 165.709C434.678 166.647 434.842 167.585 435.251 168.4C435.66 169.256 436.274 169.95 437.011 170.52C438.361 172.07 439.998 173.334 441.84 174.231C443.682 175.128 445.687 175.617 447.733 175.699H461.935C465.864 175.617 469.67 176.84 472.821 179.205C471.962 180.469 470.693 181.407 469.26 181.937C462.385 184.384 455.591 186.79 448.552 188.706C442.863 190.215 437.297 191.438 433.859 196.576C433.859 197.799 434.309 198.981 435.087 199.878C435.865 200.816 436.97 201.428 438.156 201.632C442.536 202.61 446.997 203.303 451.458 203.752C458.333 204.037 465.25 203.752 472.166 203.752C474.458 203.874 476.75 204.119 479.001 204.486C478.346 209.746 477.65 214.313 477.241 218.635C477.159 219.899 476.668 221.122 475.85 222.06C475.031 223.038 473.885 223.691 472.657 223.976C459.847 228.951 446.997 233.884 434.473 239.593C431.076 241.224 427.27 241.876 423.505 241.469C419.74 241.102 416.179 239.674 413.151 237.391C408.608 234.496 404.106 231.52 399.399 228.991C396.535 227.116 393.26 225.933 389.864 225.485C376.481 225.444 374.434 226.586 365.799 236.943C364.899 237.88 364.08 238.9 363.384 239.96C363.057 240.653 362.566 241.224 361.993 241.713C361.42 242.203 360.724 242.57 360.028 242.773C359.292 242.977 358.555 243.059 357.777 242.977C357 242.896 356.304 242.651 355.608 242.284C351.147 240.735 346.564 239.267 342.225 237.595C338.706 236.046 334.818 235.515 331.012 236.127C323.195 237.554 315.214 237.921 307.315 239.104C300.317 240.082 293.359 241.672 286.361 242.773C284.519 243.018 282.841 243.915 281.614 245.261C280.386 246.647 279.69 248.4 279.69 250.235C278.994 254.557 278.258 258.594 277.48 263.161C271.914 263.405 266.594 263.895 261.314 263.895C259.432 263.528 257.467 263.895 255.871 264.996C254.275 266.056 253.129 267.687 252.761 269.603C251.737 272.621 250.551 275.638 249.65 278.696C249.159 280.449 248.218 282.04 246.908 283.304C245.599 284.568 243.961 285.424 242.202 285.872C232.338 288.89 222.557 292.111 212.776 295.373C210.525 296.107 208.806 295.536 208.069 293.375C205.286 286.362 204.099 278.859 204.631 271.357C204.631 270.256 205 269.236 205.654 268.339C206.309 267.483 207.21 266.831 208.274 266.504C210.32 265.852 212.285 265.077 214.372 264.547C221.411 262.753 228.573 261.041 235.572 259.124C237.863 258.512 239.992 257.452 241.833 256.025C242.734 255.495 243.429 254.68 243.839 253.742C244.248 252.804 244.412 251.744 244.207 250.725C244.043 249.705 243.552 248.767 242.816 247.993C242.079 247.259 241.138 246.729 240.114 246.525C237.29 245.668 234.385 245.179 231.438 245.098C224.603 244.771 217.728 244.934 210.893 244.364C208.233 244.201 205.041 244.241 203.936 240.449C206.637 238.044 209.911 236.413 213.471 235.719C223.13 233.884 232.666 231.275 242.365 229.562C246.376 228.869 249.978 226.708 252.433 223.487C252.761 219.042 249.609 217.208 246.335 216.229C241.383 214.802 236.349 213.742 231.233 213.089C225.504 212.315 219.692 212.355 213.922 211.581C209.542 211.581 205.327 210.031 201.971 207.259C202.953 206.525 203.567 205.628 204.304 205.628C211.139 203.833 218.096 202.447 224.808 200.204C229.678 198.533 234.303 196.331 238.641 193.599C242.12 191.479 241.506 188.665 237.782 186.912C236.595 186.423 235.367 186.056 234.098 185.893C227.345 184.588 220.552 183.568 213.881 182.06C209.952 181.081 206.105 179.776 202.421 178.105C201.153 177.534 200.375 175.821 199.434 174.639C203.199 170.684 208.315 168.319 213.758 167.952C219.815 166.647 225.954 165.627 231.929 164.037C233.934 163.629 235.776 162.773 237.413 161.55C239.05 160.327 240.36 158.777 241.301 156.942C239.746 154.822 237.741 153.11 235.449 151.886C233.157 150.663 230.579 149.97 227.959 149.888C220.511 148.624 213.062 147.483 205.654 146.096C203.281 145.362 200.948 144.424 198.738 143.283C200.58 141.856 202.544 140.592 204.672 139.613C208.601 138.431 212.939 137.778 217.277 136.84C220.879 136.188 224.44 135.332 227.918 134.312C232.707 132.681 233.28 128.93 229.31 125.709C227.796 124.526 226.036 123.67 224.153 123.262C216.868 121.631 209.747 120.123 202.503 118.94C200.334 118.451 198.288 117.513 196.487 116.168C194.686 114.822 193.213 113.109 192.149 111.193C195.546 108.339 199.679 106.504 204.058 105.851C208.274 105.403 212.448 104.302 216.336 102.63C220.347 100.836 220.347 97.615 216.582 95.3724C212.857 93.2113 209.01 91.2949 205.081 89.5823C202.626 88.8484 200.375 87.462 198.656 85.5456C196.937 83.6292 195.791 81.2642 195.382 78.7362C194.85 74.9441 194.113 71.1521 193.131 67.4416C191.862 62.0185 190.266 56.7178 188.384 51.4986C188.097 50.52 187.524 49.6637 186.706 48.9706C185.928 48.3182 184.987 47.8697 183.964 47.7066C182.94 47.5435 181.917 47.7066 180.976 48.1143C180.035 48.5221 179.216 49.2152 178.643 50.0715C177.088 51.7433 175.983 53.8228 175.492 56.0654C174.551 61.5292 173.896 67.0746 173.527 72.62C173.65 74.2102 173.282 75.8004 172.463 77.1868C171.645 78.5731 170.417 79.6333 168.944 80.2857C162.518 83.303 156.297 86.6873 150.158 90.194C146.639 92.1919 142.833 94.3938 144.715 99.8984C152.082 103.854 160.022 99.0013 167.961 100.795C163.705 106.667 157.812 111.193 150.977 113.721C147.621 115.107 144.47 116.983 141.646 119.226C139.968 121.142 139.108 123.548 139.149 126.076C139.108 129.012 142.341 129.664 144.511 129.664C147.948 129.746 151.345 129.379 154.701 128.645C160.063 127.625 165.301 126.198 170.99 124.812C170.54 132.274 165.71 133.701 160.636 135.903C155.561 138.104 150.281 140.143 145.165 142.427C140.704 144.465 136.939 147.768 134.361 151.927C134.852 153.191 135.712 154.292 136.817 155.067C137.962 155.841 139.313 156.249 140.664 156.208C146.189 156.453 151.795 156.453 157.321 156.453C161.29 156.371 165.465 154.863 168.862 158.736C168.289 160.898 167.143 162.895 165.547 164.486C163.951 166.076 161.986 167.218 159.776 167.829C152.9 170.316 146.148 173.089 139.477 176.107C135.548 177.901 135.343 180.796 138.617 183.568C139.763 184.547 141.114 185.24 142.587 185.566C147.007 186.341 151.591 187.034 155.929 187.401C157.566 187.36 159.203 187.646 160.676 188.298C162.191 188.951 163.5 189.929 164.564 191.152C164.237 192.009 163.787 192.865 163.296 193.64C159.531 198.084 154.497 201.265 148.89 202.773C143.815 204.404 138.945 206.606 134.361 209.338C130.637 211.581 130.473 217.167 133.706 218.39C138.904 220.266 144.142 223.12 149.913 221.53C154.21 220.959 158.589 221.326 162.682 222.712C162.354 224.465 161.577 226.096 160.39 227.401C159.203 228.706 157.648 229.644 155.929 230.133C152.287 231.438 148.767 233.028 145.37 234.863C140.336 237.758 135.548 241.02 131.046 244.649C127.526 247.585 128.263 250.521 132.233 252.845C135.507 254.517 139.272 255.006 142.874 254.19C148.399 253.416 153.965 252.722 159.531 252.437C161.904 252.6 164.278 253.089 166.529 253.823C164.196 257.248 160.717 259.777 156.707 260.918C149.422 262.916 142.915 267.116 138.044 272.906C137.144 274.089 135.998 275.108 134.729 275.883C132.437 277.31 130.678 279.43 131.783 281.632C132.437 282.57 133.256 283.344 134.238 283.915C135.22 284.486 136.284 284.894 137.389 285.016C143.569 285.791 149.831 285.505 155.888 284.119C160.104 283.426 164.36 282.937 168.657 282.692C171.808 282.325 173.364 284.078 173.896 287.014C174.796 292.274 175.696 297.575 176.679 302.753C177.62 307.932 176.842 309.277 171.645 310.378C165.751 311.683 159.817 312.825 153.924 314.007C151.673 314.211 149.545 315.067 147.826 316.535C146.107 318.003 144.879 319.919 144.306 322.121C143.651 324.608 142.792 327.014 141.809 329.42C141.441 330.766 140.745 332.03 139.763 333.049C138.781 334.068 137.553 334.802 136.203 335.21C132.028 336.637 127.567 336.963 123.229 336.148C122.247 333.294 121.387 330.643 120.364 328.034C117.54 320.98 115.944 320.042 108.332 320.001C100.72 319.96 100.801 320.042 97.5682 312.58C94.335 305.118 90.1196 302.916 81.7297 303.976C77.5552 304.67 73.3398 304.67 69.2881 304.67C67.0781 296.229 67.3237 294.884 75.0587 294.068C82.7529 293.253 90.488 292.519 98.1412 291.499C100.883 291.092 103.584 290.235 106.081 288.971C107.554 288.033 108.618 286.647 109.191 285.016C109.764 283.385 109.723 281.632 109.191 280.001C108.905 278.533 108.045 277.187 106.858 276.29C105.672 275.352 104.157 274.904 102.643 275.026C97.0771 274.986 91.4702 274.374 85.9042 274.088C84.4308 274.211 82.9166 273.966 81.5661 273.355C80.2155 272.743 78.9877 271.846 78.0873 270.663C80.502 266.953 80.8294 266.831 85.1266 265.974C89.9968 265.363 94.8261 264.302 99.5327 262.875C100.883 262.305 102.07 261.448 103.093 260.388C104.075 259.328 104.853 258.064 105.344 256.678C106.204 253.456 103.093 251.418 100.228 250.113C98.6732 249.338 97.0771 248.727 95.44 248.237C91.5111 247.136 87.5004 246.362 83.6124 245.138C81.4842 244.241 79.4379 243.222 77.4734 241.999C79.9699 238.614 83.5304 236.209 87.6231 235.148C91.9203 234.455 95.7675 232.131 98.4277 228.747C101.252 224.262 100.228 221.081 95.1944 219.369C91.552 218.105 87.7459 217.371 84.0625 216.229C81.7297 215.495 79.5197 214.476 76.8595 213.375C78.824 209.95 81.8525 207.299 85.5359 205.791C89.7922 204.282 93.9667 202.529 98.0184 200.531C98.9188 200.082 99.7373 199.43 100.392 198.655C101.047 197.88 101.497 196.942 101.743 195.964C101.62 194.945 101.292 193.966 100.76 193.11C100.228 192.253 99.4917 191.519 98.5913 190.989C96.013 189.97 93.3119 189.236 90.5698 188.869L81.3205 186.504C82.5073 183.201 84.881 180.429 88.0323 178.798C90.1196 177.738 92.1659 176.514 94.0894 175.128C95.0307 174.476 95.7674 173.578 96.2586 172.559C96.7087 171.499 96.8725 170.357 96.7088 169.216C96.5451 168.074 96.0539 167.014 95.3172 166.157C94.5806 165.301 93.5984 164.649 92.4934 164.323C91.7158 163.996 90.8153 163.996 89.9968 163.711C85.6586 162.406 81.8935 159.797 79.1923 156.208C76.4912 152.62 74.9769 148.257 74.9359 143.772C74.895 140.999 74.5676 138.227 73.9947 135.495C73.79 133.66 73.0125 131.947 71.8256 130.561C70.5978 129.175 69.0017 128.196 67.2009 127.748C62.7809 126.81 60.2434 129.705 58.0743 132.559C56.7647 134.231 56.1099 136.351 56.2736 138.512C57.1331 143.12 54.923 147.442 54.4728 151.764C54.1864 154.537 53.1223 157.187 51.3625 159.389C49.6026 161.591 47.2698 163.222 44.6096 164.119C40.7216 165.79 36.4653 166.606 32.4545 167.952C29.6306 168.849 26.4384 169.419 26.2337 173.742C32.9866 180.755 42.8498 179.532 52.2219 181.611C51.2397 183.364 50.9122 184.832 50.0528 185.322C47.6381 186.708 45.0598 187.768 42.3996 188.502C37.6112 189.766 32.6182 190.296 27.9117 191.642C24.1465 192.702 20.0129 193.925 19.2353 198.655C19.7265 199.307 19.2762 199.43 20.2175 199.96C21.1588 200.49 22.1411 200.938 23.1233 201.387C30.6128 204.853 38.6753 204.363 46.5331 204.363C49.0706 204.404 50.4621 204.853 50.8713 207.218C50.2574 208.482 49.357 209.542 48.252 210.357C47.147 211.173 45.8374 211.744 44.4868 211.948C38.4297 213.375 32.4954 215.373 26.5611 217.289C24.3511 217.982 21.8955 218.798 21.4044 221.611C21.5681 223.201 22.0592 224.751 22.8777 226.137C23.6963 227.524 24.8013 228.706 26.1518 229.603C27.1341 230.052 28.1572 230.419 29.1804 230.704C33.3958 232.335 37.9796 232.784 42.4405 232.09C43.832 232.009 45.2235 232.131 46.5741 232.498C46.4922 234.333 45.7555 236.046 44.4868 237.391C43.2181 238.737 41.5402 239.552 39.6985 239.756C34.9101 240.979 29.9989 241.836 25.2106 243.018C23.328 243.222 21.5272 243.915 19.972 245.016C18.4577 246.158 17.2708 247.666 16.5342 249.42C19.0307 253.171 22.8778 255.862 27.2569 256.882C31.5951 257.452 35.9332 258.186 40.2305 258.879V260.307C33.4367 263.813 26.9295 267.157 20.4631 270.867C15.9612 273.355 11.7049 276.25 7.69411 279.471C6.87558 280.042 6.22077 280.776 5.81151 281.673C5.40225 282.57 5.1976 283.548 5.27945 284.527C5.3613 285.505 5.68872 286.443 6.26169 287.259C6.83466 288.074 7.57134 288.727 8.47172 289.134C11.8277 291.499 15.9203 292.6 20.0129 292.233C26.6839 291.581 33.3549 291.01 40.0259 291.01C41.5401 290.969 43.9138 291.744 44.364 292.763C44.6505 293.62 44.7733 294.517 44.6915 295.454C44.6096 296.352 44.2822 297.208 43.832 297.983C41.7039 300.633 39.1664 302.957 36.3425 304.873C32.7819 307.279 28.8121 309.073 25.0878 311.194C23.1233 312.009 21.3226 313.232 19.8902 314.782C18.4577 316.372 17.3937 318.248 16.7798 320.286C16.3296 322.284 15.3473 324.119 13.9149 325.587C12.4825 327.055 10.6817 328.074 8.67635 328.564C5.60688 329.828 2.70113 331.499 0 333.497L0.532011 334.761C1.84165 334.517 3.11039 334.191 4.33817 333.742C6.8756 332.723 8.88096 331.296 11.2138 330.276C13.9967 329.135 16.2886 327.096 17.6801 324.445C19.6446 320.898 22.2639 317.758 25.3743 315.19C28.6484 312.58 33.0275 311.316 36.629 308.992C40.3533 306.504 43.9138 303.691 47.188 300.633C50.2983 297.738 48.4567 294.109 47.5154 290.969C46.615 287.83 43.9139 287.055 40.8035 287.259C34.1325 287.748 27.4206 287.707 20.8314 288.686C18.7442 289.053 16.616 288.849 14.6516 288.074C12.6871 287.3 10.9682 286.036 9.65859 284.364C10.1497 282.774 10.9682 281.306 12.1142 280.082C13.2601 278.859 14.6516 277.921 16.2068 277.35C25.0059 272.784 33.9688 268.176 42.6042 263.854C44.6096 262.875 46.5331 261.774 49.8891 259.98C47.6791 258.349 45.3053 257.004 42.727 255.984C38.7981 255.169 34.5008 255.047 30.6128 254.557C26.7248 254.068 22.8368 253.66 21.4044 248.237C24.1055 247.299 26.602 246.239 29.1804 245.546C33.1093 244.527 37.1201 243.711 41.0899 242.773C43.1362 242.447 45.0189 241.509 46.4922 240.082C47.9656 238.655 48.9887 236.82 49.3571 234.822C50.4621 230.296 49.93 228.828 45.3054 228.828C42.9316 228.951 40.5989 229.236 38.2661 229.603C35.5649 230.052 32.8228 229.603 30.4491 228.217C28.0754 226.871 26.2337 224.792 25.2515 222.264C27.7071 219.858 30.8993 218.349 34.2962 217.942C38.839 216.596 43.6274 215.536 47.9656 214.109C53.1632 212.478 54.8821 208.89 53.6134 203.059C44.0776 199.634 33.0684 204.404 22.8368 197.636C24.8831 196.168 27.1341 194.945 29.4669 194.007C33.1912 193.11 37.2019 193.191 40.8853 192.172C45.2235 191.112 49.398 189.44 53.286 187.238C57.8288 184.465 57.0921 179.939 51.9764 178.268C48.866 177.493 45.6737 177.085 42.4814 177.004C40.3533 177.126 38.2251 176.8 36.2197 176.066C34.2144 175.332 32.3726 174.19 30.8584 172.681C33.0275 171.784 34.5008 171.05 36.0151 170.561C39.1664 169.95 42.2768 169.052 45.2644 167.87C53.0814 163.833 59.9569 158.818 59.6705 148.543C59.5886 145.403 60.4481 142.223 60.4481 139.001C60.3253 137.207 60.8573 135.413 61.9214 133.945C62.9855 132.477 64.4997 131.417 66.2596 130.928C67.692 131.54 68.9198 132.518 69.7383 133.823C70.5978 135.128 71.007 136.637 70.9661 138.186C71.1298 140.755 71.4572 143.324 71.4572 145.892C71.3754 147.931 71.7028 149.929 72.4395 151.805C73.1762 153.68 74.3221 155.393 75.7954 156.779C76.9823 157.717 77.8417 159.022 78.21 160.49C78.8239 163.629 81.1977 164.445 83.5714 165.424C86.6818 166.647 89.7922 167.707 92.9026 168.889C92.0022 173.905 88.3188 175.128 85.0857 176.596C83.5305 177.33 82.139 178.349 80.9522 179.572C79.8062 180.836 78.9059 182.304 78.292 183.895C77.1051 186.749 78.0054 188.543 80.7066 189.399C84.3899 190.582 88.1142 191.601 91.8795 192.416C94.4578 192.947 97.0361 192.457 98.796 195.678C97.65 196.616 96.4632 197.391 95.1536 198.084C92.0022 199.43 88.7691 200.612 85.4541 201.632C81.0749 202.936 77.3506 205.831 74.9359 209.705C72.5213 213.049 73.0943 215.128 76.8595 216.8C79.4788 217.738 82.139 218.512 84.881 219.124C87.9505 219.858 91.02 220.755 93.9666 221.856C97.118 223.242 97.4863 225.566 94.7852 227.564C92.125 229.399 89.342 230.989 86.4362 232.294C83.6123 233.273 80.8294 234.455 78.1692 235.882C77.2279 236.535 76.4503 237.391 75.8364 238.37C75.2225 239.348 74.8132 240.408 74.6495 241.55C74.4039 243.018 77.0232 244.975 78.7012 245.872C81.607 247.259 84.5946 248.441 87.705 249.338C90.7745 250.276 93.9667 250.847 96.9543 252.029C98.8778 253.008 100.72 254.19 102.397 255.577C101.538 257.126 100.269 258.431 98.7551 259.41C97.2408 260.347 95.5219 260.918 93.7211 261.04C90.7335 261.571 87.7049 261.897 84.7582 262.468C82.7119 262.672 80.7475 263.324 78.9467 264.343C77.1869 265.363 75.6317 266.79 74.4448 268.462C72.6441 271.316 73.0124 273.395 76.2865 274.415C80.7475 275.801 85.3313 276.78 89.9559 277.391C93.9667 277.962 98.1412 277.514 102.111 278.207C103.052 278.329 103.953 278.778 104.607 279.471C105.262 280.164 105.712 281.02 105.835 281.958C105.958 282.896 105.753 283.874 105.262 284.69C104.771 285.505 104.035 286.158 103.134 286.484C100.065 287.463 96.9543 288.115 93.7211 288.4C85.2085 289.664 76.8595 290.725 68.2241 292.152C67.4465 292.356 66.7507 292.763 66.1777 293.334C65.6048 293.905 65.1955 294.598 64.95 295.332C63.9268 299.94 64.6226 304.751 66.9144 308.91L80.9522 307.728C87.8278 307.198 92.8616 306.79 95.3991 315.842C95.8902 318.248 97.3226 320.368 99.4099 321.754C101.497 323.1 103.994 323.63 106.449 323.141H108.414C110.214 322.774 112.097 323.141 113.652 324.119C115.207 325.139 116.312 326.688 116.722 328.482C117.868 332.356 119.464 336.678 121.06 341C124.211 340.755 127.363 340.144 130.555 340.144C140.091 339.654 144.306 336.963 146.557 327.83C146.925 324.975 148.317 322.325 150.445 320.409C152.573 318.452 155.356 317.351 158.262 317.228C159.326 317.106 160.39 316.943 161.413 316.698C165.997 315.72 170.171 315.026 175.205 313.599C180.28 312.172 181.508 310.256 180.935 305.24C180.239 299.41 179.462 293.701 178.398 287.993C178.234 285.832 177.252 283.793 175.656 282.366C174.059 280.898 171.931 280.123 169.721 280.205C164.605 280.286 159.531 281.224 154.415 281.754C149.258 282.284 144.142 282.855 138.986 283.1C137.594 283.181 136.203 281.917 134.197 281.02C141.646 273.395 147.826 266.341 157.566 263.772C162.764 262.427 166.488 258.472 171.44 255.454C169.762 253.334 167.593 251.703 165.096 250.725C162.6 249.746 159.858 249.42 157.198 249.827C150.609 250.806 143.897 251.214 137.226 251.173C135.752 251.214 134.32 249.746 132.888 248.971C133.665 247.585 134.115 245.668 135.302 244.934C141.359 240.898 147.744 237.31 154.333 234.292C159.49 232.417 163.746 228.747 166.365 223.935C165.792 222.345 164.769 221 163.378 220.062C161.986 219.124 160.349 218.635 158.671 218.716C154.824 218.757 150.977 218.39 147.13 218.39C144.92 218.635 142.669 218.39 140.582 217.615C138.494 216.881 136.612 215.658 135.016 214.109C136.939 209.705 140.541 208.889 144.347 207.381C148.153 205.872 152.041 204.649 155.97 203.385C160.431 201.672 164.196 198.492 166.652 194.414C168.78 191.316 168.453 189.154 165.26 187.401C162.395 186.056 159.326 185.118 156.216 184.628C150.936 183.528 145.165 184.18 139.559 179.899C141.728 178.512 143.979 177.207 146.311 176.066C151.673 174.027 157.198 171.988 162.559 169.746C165.056 169.012 167.307 167.544 169.025 165.587C170.744 163.629 171.849 161.183 172.259 158.614C168.616 152.539 162.968 152.416 156.707 153.477C150.854 154.7 144.756 153.925 139.395 151.234C141.605 148.38 144.429 146.096 147.703 144.547C152.696 142.549 158.303 140.836 162.682 138.716C167.061 136.596 171.89 134.475 173.568 129.338C174.1 127.381 173.937 125.301 173.077 123.425C171.767 121.02 169.23 121.183 166.775 121.958C162.068 123.425 157.28 124.853 152.532 126.035C150.69 126.565 148.726 126.728 146.802 126.524C145.534 126.361 143.733 125.22 143.487 124.241C143.446 123.507 143.569 122.814 143.856 122.161C144.142 121.509 144.592 120.938 145.124 120.449C147.089 119.185 149.176 118.084 151.345 117.187C158.589 113.395 166.242 110.214 170.99 103.079C171.849 101.978 172.75 99.776 172.218 98.7567C171.686 98.145 171.031 97.6557 170.253 97.2888C169.517 96.9626 168.698 96.7995 167.88 96.7995C164.032 96.8403 160.185 97.5334 156.338 97.7781C153.76 97.9412 150.895 99.2052 147.907 96.3102C149.79 94.7607 151.755 93.3336 153.842 91.988C158.794 89.4192 163.746 86.8096 168.862 84.6078C171.44 83.7923 173.691 82.1205 175.246 79.9187C176.801 77.7168 177.62 75.0665 177.538 72.3753C177.906 66.83 178.643 61.2846 179.789 55.8208C180.117 53.9859 180.649 51.4986 183.472 51.4986C186.296 51.4986 187.033 53.7412 187.524 55.8208C188.793 59.8983 189.734 64.098 190.266 68.3386C191.126 81.2642 196.119 90.6425 209.624 94.1899C212.121 95.1685 214.495 96.3917 216.705 97.9004V99.4906C214.781 100.51 212.776 101.366 210.688 102.019C207.496 102.345 204.345 102.793 201.193 103.446C197.797 104.669 194.604 106.382 191.699 108.502C191.167 108.828 190.757 109.277 190.471 109.807C190.184 110.337 190.021 110.948 190.021 111.56C190.021 112.172 190.184 112.783 190.471 113.313C190.757 113.843 191.207 114.292 191.699 114.618C194.318 117.146 197.346 119.144 200.702 120.53C207.66 122.651 214.945 123.711 222.107 125.301C224.931 126.076 228.164 126.035 230.006 129.623C229.023 130.439 228.205 131.58 227.1 131.866C223.621 132.885 220.061 133.619 216.5 134.435C211.834 135.291 207.251 136.351 202.708 137.656C201.644 138.023 200.661 138.634 199.843 139.45C199.024 140.265 198.451 141.203 198.042 142.263C197.919 143.691 198.329 145.077 199.229 146.178C200.129 147.279 201.357 148.013 202.79 148.257C205.286 148.828 207.742 149.807 210.279 150.174C216.5 151.071 223.089 151.846 229.514 152.498C231.233 152.579 232.87 153.028 234.385 153.843C235.899 154.659 237.168 155.801 238.191 157.187C230.865 162.732 222.393 163.426 214.331 165.464C209.502 166.402 204.795 167.829 200.293 169.786C199.311 170.153 198.411 170.806 197.797 171.621C197.183 172.478 196.814 173.497 196.773 174.557C196.733 175.617 197.019 176.677 197.551 177.574C198.124 178.471 198.943 179.205 199.884 179.613C203.485 181.897 207.496 183.568 211.671 184.547C218.137 186.056 224.808 186.749 231.356 187.89C233.321 188.339 235.244 188.91 237.168 189.603L237.372 190.989C235.04 192.702 232.461 194.17 229.801 195.311C221.616 197.799 213.635 201.917 205 201.917C203.608 201.958 202.258 202.529 201.193 203.426C200.129 204.364 199.434 205.628 199.188 207.014C199.188 209.787 201.153 211.051 203.526 211.866C204.713 212.396 205.941 212.763 207.21 213.089C214.044 214.068 220.838 214.883 227.673 215.821C232.789 216.514 237.986 216.881 242.979 217.942C245.271 218.716 247.399 219.817 249.405 221.163C249.036 222.386 248.3 223.446 247.358 224.262C246.417 225.077 245.189 225.566 243.921 225.689C233.198 227.972 222.557 230.419 211.957 233.11C208.888 233.966 205.982 235.271 203.281 237.024C202.585 237.35 202.012 237.84 201.644 238.492C201.234 239.144 201.03 239.838 201.03 240.612C201.03 241.387 201.234 242.08 201.644 242.733C202.053 243.385 202.626 243.874 203.281 244.201C204.59 245.057 206.064 245.628 207.619 245.832C213.39 246.402 219.119 247.096 224.931 247.096C230.21 246.647 235.572 247.299 240.605 248.971C240.892 249.46 241.097 249.991 241.178 250.521C241.26 251.091 241.178 251.622 240.974 252.152C240.769 252.682 240.442 253.13 240.033 253.538C239.623 253.905 239.132 254.19 238.6 254.353C235.653 255.658 232.625 256.759 229.514 257.575C223.457 259.246 217.359 260.429 211.302 261.897C203.24 263.895 199.884 268.625 201.439 276.535C202.667 282.814 204.59 289.012 206.146 295.21C206.146 295.821 206.35 296.392 206.637 296.922C206.923 297.452 207.292 297.942 207.783 298.309C208.274 298.676 208.806 298.961 209.379 299.124C209.952 299.287 210.566 299.287 211.18 299.206C213.922 299.083 216.623 298.635 219.283 297.901C228.246 294.924 237.086 291.662 246.049 288.604C247.276 288.237 248.422 287.626 249.405 286.81C250.387 285.954 251.124 284.935 251.656 283.752C253.906 278.492 256.239 273.273 258.572 267.972L277.234 267.034L272.896 291.499C275.352 291.092 277.767 290.358 280.099 289.379C288.203 284.201 296.224 278.9 304.123 273.518C305.883 272.335 307.479 270.867 308.789 269.195C310.18 267.442 310.016 265.281 307.684 264.506C305.064 263.65 302.322 263.161 299.539 263.038H282.514C282.35 260.184 282.35 257.289 282.514 254.435C283.373 246.81 284.233 245.995 291.763 244.771H292.418C306.006 242.937 319.593 241.02 333.263 239.348C335.554 239.104 337.887 239.348 340.097 240.041C345.868 241.795 351.475 243.915 357.204 245.872C357.941 246.239 358.719 246.484 359.537 246.525C360.356 246.606 361.174 246.525 361.911 246.239C362.689 245.995 363.384 245.587 363.998 245.057C364.612 244.527 365.103 243.874 365.472 243.14C366.167 242.039 366.986 241.061 367.927 240.205C370.956 237.269 373.493 232.824 377.135 231.601C384.379 229.114 392.115 227.564 399.522 232.376C405.988 236.453 412.373 240.041 418.962 243.67C421.049 244.934 423.423 245.668 425.879 245.791C428.334 245.913 430.749 245.424 432.959 244.364C445.687 238.614 458.947 233.436 471.921 227.931C474.99 226.708 477.896 225.403 480.597 224.18L483.053 202.61C478.796 200.368 473.967 199.43 469.138 199.96C462.058 200.164 454.936 200.164 447.856 200.164C444.05 200.082 440.367 198.655 437.502 196.127C441.021 194.618 444.664 193.354 448.388 192.416C456.205 190.989 463.695 188.257 470.611 184.343C472.33 183.446 473.885 182.264 475.195 180.836C477.609 178.268 477.364 176.188 474.049 174.883C470.243 173.415 466.314 172.396 462.262 171.866C458.456 171.336 454.486 171.907 450.598 171.662C448.224 171.784 445.81 171.295 443.682 170.276C441.512 169.256 439.63 167.707 438.238 165.79C439.057 164.16 440.285 162.773 441.799 161.795C443.313 160.775 445.073 160.204 446.874 160.082C455.305 158.777 463.858 157.839 472.207 156.127C474.745 155.841 477.159 154.904 479.206 153.395C481.252 151.886 482.889 149.848 483.871 147.523C477.364 144.873 470.529 143.079 463.572 142.182C457.269 141.733 451.089 139.939 445.523 136.963C445.441 132.681 448.306 131.662 450.966 131.05C454.936 130.153 459.029 129.827 463.04 129.256C466.273 129.012 469.424 128.522 472.576 127.707C476.177 126.606 480.188 125.383 480.515 120.938C480.802 116.494 476.218 114.7 472.821 113.232C468.974 111.886 465.004 110.826 460.993 110.051C459.602 109.807 458.292 109.236 457.187 108.38C456.082 107.523 455.182 106.422 454.609 105.158C455.632 103.65 457.024 102.345 458.579 101.407C460.175 100.428 461.935 99.8168 463.776 99.6129C468.196 98.8382 472.821 98.4305 477.159 97.7373C485.304 96.351 487.227 91.3764 482.07 85.1786C480.843 83.67 479.369 82.3652 477.732 81.305C473.353 78.5731 468.688 76.1266 464.349 73.5986C462.835 72.9054 461.403 72.0899 460.011 71.1521C459.479 70.8667 459.029 70.4589 458.702 69.9288C458.374 69.3988 458.21 68.8279 458.21 68.2163C458.21 67.6047 458.374 67.0338 458.702 66.5038C459.029 65.9737 459.479 65.5659 460.011 65.2805C461.444 64.3835 463.04 63.7718 464.718 63.5272C470.488 62.467 476.382 62.7525 482.03 64.3019C483.585 64.7505 485.222 64.6689 486.736 64.1388C488.25 63.6087 489.56 62.5894 490.419 61.2438C491.115 59.8982 491.361 58.3896 491.156 56.8809C490.91 55.3722 490.215 54.0267 489.151 52.9665C485.099 48.2774 481.047 43.7514 476.709 39.1031C475.154 37.2682 473.026 35.3926 474.376 32.9461C475.727 30.4996 478.674 30.4996 481.252 30.4996C482.521 30.7442 483.748 31.1112 484.935 31.5189C487.227 32.0898 489.519 32.5383 491.852 32.8237C497.009 33.313 498.359 31.6413 498.809 26.9522C499.3 22.2631 499.423 17.574 499.792 12.8441C500.037 9.74519 500.569 6.6463 501.142 2.32417C503.066 4.24059 504.457 5.05608 504.907 6.23855C506.053 9.01124 506.79 11.9063 507.199 14.8421C507.731 20.1836 507.527 25.5658 508.018 30.9073C508.345 35.1479 511.21 35.8819 514.075 33.9654C516.94 32.0898 519.272 29.4394 522.096 27.4823C524.224 26.0144 525.575 22.9562 528.89 23.5271C529.218 27.8084 527.867 32.0083 525.166 35.3518C520.582 42.3651 516.244 49.4599 511.906 56.6363C511.005 58.675 510.35 60.7953 509.941 62.9564C511.374 63.4864 512.929 63.6495 514.402 63.4456C515.916 63.2418 517.349 62.6709 518.577 61.7739C522.383 59.6944 526.353 57.8187 530.404 56.2285C534.17 55.0053 534.661 55.6576 536.789 60.9991C531.591 66.2999 526.189 71.7637 520.828 77.3091C518.495 79.5517 516.367 81.9574 514.443 84.567C513.911 85.3418 513.584 86.198 513.461 87.095C513.338 87.9921 513.379 88.9299 513.665 89.7862C514.32 91.0094 516.858 91.4172 518.659 91.8249C519.641 92.0288 520.746 91.2949 521.81 91.2949C529.218 90.4794 536.707 90.4794 544.115 91.2949C542.314 93.4152 541.414 94.9646 540.145 95.617C534.947 98.1043 529.586 100.347 524.306 102.712C521.687 103.69 519.191 104.914 516.817 106.341C514.034 108.053 514.116 110.989 517.226 112.375C520.746 113.884 524.47 114.904 528.276 115.474C533.106 116.249 538.139 116.208 543.01 117.065C545.261 117.799 547.43 118.859 549.394 120.163C548.698 124.241 545.875 124.812 543.501 125.342C539.122 126.32 534.538 126.647 530.2 127.625C526.23 128.482 522.342 129.623 518.536 131.091C516.776 131.703 515.303 132.885 514.361 134.475C513.42 136.066 513.011 137.9 513.297 139.735C519.518 141.489 525.289 144.751 532.533 143.283C538.262 142.59 544.074 142.426 549.844 142.793C551.85 142.753 553.732 143.12 554.182 146.219C550.99 150.541 545.67 151.071 540.8 152.498C533.801 154.537 526.68 156.29 519.764 158.533C517.554 159.348 515.548 160.694 513.952 162.406C510.842 165.709 511.292 168.889 515.63 170.398C519.477 171.703 523.488 172.437 527.54 172.641C533.105 172.967 538.753 172.641 544.401 172.641C550.049 172.641 549.312 173.375 550.049 176.066C550.335 177.248 550.213 178.471 549.599 179.532C549.026 180.592 548.044 181.367 546.898 181.774C544.074 183.201 541.209 184.465 538.221 185.566C530.527 188.298 522.669 190.622 515.016 193.354C512.806 193.925 510.801 195.189 509.368 196.983C507.936 198.777 507.076 200.938 506.954 203.222C506.708 208.726 506.34 214.313 506.34 219.817C506.299 220.551 506.995 221.978 507.445 221.978C510.883 222.508 513.502 225.566 517.513 224.302C525.698 221.774 534.129 219.98 542.232 217.248C546.652 216.025 550.499 213.375 553.2 209.664C556.925 203.915 560.894 198.41 564.619 192.661C565.846 190.826 566.829 189.032 569.366 189.032C575.628 188.706 582.217 188.135 588.642 187.809C590.034 187.931 591.425 188.217 592.776 188.665L583.813 204.853C585.205 205.546 585.982 206.198 586.637 206.198C592.571 205.383 598.587 204.608 604.44 203.263C605.299 202.936 606.077 202.366 606.65 201.672C607.223 200.979 607.632 200.123 607.796 199.226C607.632 194.414 606.732 189.603 606.118 184.873L599.488 183.324C602.721 176.881 606.65 170.806 611.275 165.26C613.444 163.262 616.186 161.917 619.092 161.428C627.277 159.797 635.585 158.736 643.934 158.206C649.05 157.717 654.083 156.82 659.076 155.556C659.69 154.863 660.877 153.64 661 152.906L660.755 152.376ZM305.719 267.564C297.534 276.535 287.425 283.548 276.089 287.993L280.099 267.564H305.678H305.719ZM603.13 186.504V186.626C603.662 190.052 604.072 192.131 604.194 194.129C605.013 198.614 604.522 199.307 600.224 200.123C596.746 200.775 593.185 201.142 589.666 201.632L588.806 200.327C591.221 196.127 593.881 192.131 596.787 188.257C597.933 186.912 600.839 187.034 603.171 186.504H603.13Z" fill="#736658"/>
</svg>
