<svg width="1920" height="296" viewBox="0 0 1920 296" fill="none" xmlns="http://www.w3.org/2000/svg">
<path d="M1481.51 234.967C1481.45 230.263 1480.76 229.682 1475.91 228.245C1470.5 226.797 1465.4 224.288 1460.96 220.893C1457.08 217.676 1452.89 214.92 1448.42 212.624C1436.82 207.01 1427.23 198.803 1417.26 191.156C1403.44 180.626 1389.63 169.496 1375.81 158.899C1369.77 154.336 1362.99 151.591 1355.21 154.929C1354.38 155.211 1353.54 155.394 1352.68 155.509C1343.71 157.02 1335.45 156.612 1330.27 147.499C1329.98 147.059 1329.62 146.651 1329.2 146.309C1319.79 137.672 1310.95 128.415 1302.72 118.636C1300.29 116.15 1297.65 113.827 1294.87 111.734C1287.2 105.436 1279.29 105.735 1271.12 110.765C1266.24 113.764 1261.16 116.591 1254.95 119.962C1254.02 118.475 1253.22 116.891 1252.16 115.501C1245.51 106.256 1238.09 97.6286 1229.99 89.6537C1224.37 84.0989 1217.86 79.5593 1210.72 76.2404C1208.49 75.026 1206.01 74.3068 1203.5 74.0535C1200.98 73.8002 1198.42 74.0796 1195.98 74.8285C1182.16 79.8726 1169.45 87.508 1158.51 97.3821C1152.76 102.596 1146.71 107.605 1140.63 112.579C1137.92 114.856 1134.64 116.321 1131.14 116.78C1127.65 117.24 1124.11 116.665 1120.92 115.164C1119.24 114.461 1117.5 113.424 1115.76 112.587C1111.44 109.861 1106.38 108.52 1101.3 108.747C1094.48 109.57 1088.07 112.569 1083.03 117.232C1075.92 123.718 1069.42 130.851 1063.72 138.601C1060.96 141.911 1057.97 144.983 1054.76 147.817C1045.1 139.575 1035.49 132.336 1023.72 128.552C1023.35 127.344 1023.1 126.538 1022.85 125.666C1020.23 116.006 1013.27 111.09 1004.12 108.629C996.458 106.766 988.531 106.365 980.704 107.534C975.178 108.218 975.578 108.159 972.692 103.329C970.01 98.2703 966.015 94.0505 961.131 91.0793C956.247 88.1081 950.668 86.5563 944.958 86.5358C935.731 86.4076 935.393 86.7006 932.053 78.1926C930.706 74.3623 928.187 71.0409 924.883 68.7033C921.545 66.3651 917.587 65.1476 913.535 65.1954L895.98 64.8247C894.419 61.6902 892.921 58.7238 891.524 55.6929C890.318 53.0661 888.608 50.6955 886.424 48.7818C884.24 46.8681 881.714 45.4141 878.977 44.5559C876.505 43.7033 874.138 42.5528 871.702 41.6009C869.395 40.7518 867.299 39.4069 865.542 37.7023C863.786 35.9644 862.436 33.8682 861.588 31.5825C860.773 29.2642 859.825 27.0098 858.709 24.8185C856.858 21.2777 854.704 17.9306 852.248 14.7772C851.21 13.5881 849.936 12.6274 848.488 11.9965C847.041 11.3323 845.522 10.9667 843.929 10.9331C842.336 10.8994 840.802 11.2005 839.329 11.8031C837.855 12.4056 836.541 13.3116 835.455 14.4226C825.472 24.9503 815.194 35.2384 805.829 46.3461C798.82 54.3688 791.257 61.9128 783.241 68.8803C774.104 77.0581 764.709 84.897 755.346 92.7365C751.73 95.7616 747.854 98.4812 744.11 101.27C734.225 108.698 724.305 116.226 714.355 123.586C709.601 127.021 704.881 130.423 699.828 133.851C694.809 137.28 688.138 137.14 683.12 140.535L682.091 140.514L671.763 142.196C670.595 142.472 669.335 142.412 668.214 142.021C667.06 141.63 666.046 140.942 665.268 140.025C659.192 133.727 652.948 127.559 646.668 121.523C637.752 112.931 627.457 108.311 614.777 111.345L609.706 112.505C599.929 114.8 590.948 114.01 583.611 106.151C581.823 104.346 579.768 102.569 577.882 100.728C571.182 94.0832 564.382 87.5031 557.785 80.7606C552.912 75.6553 546.665 75.9235 540.313 76.423C539.311 76.702 538.402 77.2831 537.787 78.1372C530.987 85.664 524.155 93.1901 517.486 100.82C511.769 107.402 506.28 114.223 500.464 120.77C495.127 126.66 489.37 132.008 484.361 138.072C483.407 139.252 482.158 140.193 480.751 140.797C479.345 141.368 477.812 141.602 476.289 141.437C465.998 141.353 455.702 141.502 445.41 141.485C442.958 141.266 440.524 141.749 438.342 142.903C436.159 144.058 434.363 145.787 433.123 147.929C425.786 160.48 418.252 172.927 410.981 185.48C409.373 189.314 406.517 192.489 402.888 194.513C398.064 196.546 393.149 198.209 388.106 199.57C383.932 200.716 379.543 201.024 375.339 202.002C373.504 202.43 371.856 203.396 370.565 204.803C367.876 207.914 365.706 211.637 363.048 214.882C356.336 222.978 348.225 229.743 339.053 234.852C334.723 237.095 330.52 239.574 326.479 242.29C324.763 243.355 323.337 244.825 322.37 246.606C321.473 248.221 320.97 250.011 320.898 251.844C321.031 251.847 321.196 251.917 321.361 251.954C321.878 251.031 322.561 250.145 323.375 249.328C324.596 248.12 326.142 247.219 327.588 246.349C327.79 246.22 327.992 246.091 328.194 245.962C329.926 244.131 331.983 242.64 334.328 241.656C336.742 240.506 339.005 238.72 341.456 237.404C353.911 230.897 364.28 221.011 371.376 208.855C371.963 207.8 372.811 206.918 373.789 206.238C374.799 205.559 375.903 205.149 377.102 204.974C385.043 203.141 393.419 202.684 400.774 198.737C404.321 197.411 407.52 195.278 410.134 192.565C415.993 183.985 420.903 174.717 426.337 165.794C429.608 160.294 433.069 155.164 436.468 149.867C437.534 148.155 439.056 146.787 440.868 145.891C442.68 144.996 444.713 144.638 446.701 144.847C453.537 144.991 460.587 144.473 467.593 144.421C470.515 144.416 473.426 144.911 477.238 145.225C475.861 147.531 474.833 149.043 473.969 150.659C471.386 155.073 468.562 159.849 466.648 164.011C464.734 168.172 466.74 170.683 471.32 170.779C472.517 170.671 473.684 170.462 474.852 170.187C482.383 168.879 488.257 164.267 494.223 160.024C500.892 155.563 506.721 149.95 511.472 143.48C511.196 142.407 510.518 141.492 509.635 140.874C508.752 140.255 507.663 139.931 506.565 140.042C504.143 139.957 501.675 140.472 499.252 140.421L487.158 140.866C488.088 139.251 489.15 137.706 490.31 136.23C502.242 124.643 512.48 111.486 523.433 99.0777C527.954 94.0707 532.383 88.7616 536.939 83.6887C537.862 82.4075 539.047 81.332 540.425 80.5607C541.802 79.7894 543.307 79.2876 544.871 79.1205C546.435 78.9535 548.025 79.1204 549.509 79.6187C550.992 80.1169 552.37 80.913 553.542 82.005C557.496 84.9899 561.172 88.5692 564.815 92.1812C571.355 98.489 577.657 105.059 584.266 111.268C586.575 113.584 589.36 115.344 592.424 116.442C595.489 117.541 598.766 117.977 601.993 117.678C605.984 117.362 609.952 116.579 613.761 115.426C618.576 113.827 623.727 113.602 628.682 114.774C633.604 115.945 638.133 118.475 641.709 122.052C646.664 126.426 651.617 130.832 656.401 135.402C658.582 137.482 660.388 139.989 662.558 142.569C661.889 142.822 661.22 143.074 660.519 143.226C650.997 144.459 641.424 144.991 631.833 144.821C625.194 144.748 618.595 145.943 612.37 148.279C610.866 148.747 609.519 149.619 608.432 150.797C607.345 151.975 606.584 153.393 606.22 154.919C605.59 158.041 608.746 159.508 610.969 161.156C611.525 161.568 612.15 161.848 612.739 162.26C616.476 164.507 620.661 165.996 624.964 166.62C630.948 167.847 637.431 168.985 642.916 170.268C648.4 171.551 653.85 172.867 659.468 174.152C658.106 177.292 655.516 177.337 653.453 177.56C642.541 178.564 631.602 179.333 620.689 180.404C612.87 181.206 605.051 181.974 597.322 183.212C594.788 183.725 592.472 184.91 590.511 186.603C586.893 189.695 587.536 192.243 592.195 193.342C595.964 194.088 599.737 194.635 603.583 194.916C610.705 195.667 617.893 196.452 624.888 196.967C628.899 197.252 632.923 196.97 636.971 197.055C649.524 196.92 661.753 196.445 674.098 196.706C678.839 197.039 683.504 197.805 688.094 199.002C689.247 199.427 690.261 200.148 691.038 201.099C693.933 203.894 693.92 206.095 690.518 208.391C688.195 209.943 685.647 211.09 682.944 211.766C677.538 213.019 672.613 213.549 666.574 214.956C660.536 216.329 654.63 217.705 649.872 222.907C650.576 224.156 650.97 225.932 652.084 226.655C654.532 228.641 657.357 230.068 660.393 230.933C670.677 232.918 681.075 234.204 691.521 234.825C705.359 235.117 719.112 233.207 732.346 229.117C738.856 227.454 744.551 223.472 748.354 217.883C749.692 215.844 750.801 213.633 749.184 211.598C746.989 208.65 744.455 205.995 741.582 203.7C734.03 198.138 726.037 193 718.589 187.24C707.514 178.702 696.677 169.869 685.944 160.871C681.05 156.799 676.702 152.005 671.496 146.96C673.903 146.21 675.308 145.673 676.745 145.27C681.087 144.027 685.368 142.55 689.77 141.643C699.177 139.54 706.011 133.515 713.696 128.041C721.349 122.567 728.423 116.18 736.204 110.875C745.976 104.111 755.36 96.8054 764.355 89.0582C767.297 86.5524 770.302 84.148 773.177 81.6408C784.525 72.5759 795.225 62.6969 805.144 52.0678C811.509 44.6652 818.07 37.4002 824.664 30.1692C828.912 25.5566 833.257 21.0461 837.796 16.7731C838.711 15.892 839.821 15.2151 841.025 14.807C842.229 14.3989 843.494 14.2255 844.754 14.3188C846.013 14.4121 847.234 14.8047 848.349 15.4286C849.465 16.0524 850.444 16.8735 851.186 17.8896C854.297 21.4904 856.531 25.773 857.729 30.3672C858.162 31.877 858.762 33.3237 859.496 34.7066C862.639 41.5429 868.817 44.5748 875.312 46.7463C879.334 48.0985 882.936 50.4424 885.791 53.6042C888.646 56.766 890.657 60.5769 891.599 64.7322C879.152 67.7042 866.909 62.5766 854.644 63.2181C852.577 66.7762 849.754 69.9515 850.89 74.3443C853.895 86.1134 859.364 96.0003 870.828 101.845C878.318 105.638 886.156 108.672 894.243 110.877C901.047 112.555 907.424 115.624 912.944 119.91C911.551 121.448 909.864 122.679 907.987 123.54C906.109 124.401 904.074 124.891 902.014 124.948C890.627 126.475 879.323 128.804 868.267 131.906C865.596 132.65 863.082 133.764 860.759 135.282C857.224 137.575 857.152 139.408 860.867 141.187C866.286 143.97 871.983 146.191 877.825 147.849C889.481 150.896 901.248 153.346 913.129 155.197C925.575 156.961 938.146 157.56 950.708 158.559C957.139 159.062 963.609 159.232 970.038 159.801C972.621 160.122 975.163 160.81 977.567 161.761C978.714 162.452 979.759 163.308 980.668 164.294C974.695 167.269 968.152 168.932 961.506 169.225C948.91 169.793 936.355 170.028 923.79 170.763C919.269 171.035 914.802 171.874 910.489 173.284C909.356 173.493 908.315 174.038 907.501 174.855C906.687 175.671 906.134 176.694 905.91 177.856C905.687 178.985 905.795 180.155 906.237 181.231C906.679 182.308 907.458 183.191 908.407 183.845C910.713 186.262 913.563 188.089 916.728 189.123C926.544 191.265 936.127 195.002 946.463 194.52L954.328 194.686C968.232 195.047 982.156 194.44 995.966 192.931C997.336 192.526 998.765 192.49 1000.15 192.786C1001.54 193.082 1002.82 193.709 1003.9 194.633C1001.22 195.843 999.133 197.033 997.021 198.022C991.623 200.51 985.531 201.281 980.735 205.115C976.513 208.528 976.491 211.162 981.077 214.06C985.342 216.518 990.124 218.053 995.028 218.49C1002.65 219.251 1010.37 218.547 1017.72 216.401C1022.32 215.531 1026.89 214.361 1031.34 212.921C1037.23 210.677 1042.8 207.693 1048.5 205.112C1058.06 200.679 1066.59 194.256 1073.47 186.264C1074.86 184.792 1075.86 183.012 1076.43 181.057C1077 179.101 1077.11 177.069 1076.79 175.062C1075.93 170.008 1073.48 165.354 1069.73 161.873C1065.79 158.155 1062.12 154.209 1057.87 149.85C1060.71 147.375 1063.36 144.663 1065.74 141.745C1071.15 134.023 1077.38 126.884 1084.29 120.46C1087.64 117.429 1091.6 115.112 1095.88 113.668C1097.19 113.162 1098.65 112.993 1099.89 112.419C1101 111.875 1102.17 111.6 1103.4 111.559C1104.59 111.518 1105.82 111.743 1106.94 112.201C1111.32 113.927 1115.7 115.687 1120.15 117.049C1123.93 118.696 1128 119.582 1132.15 119.603C1138.01 118.66 1143.51 116.074 1148.04 112.168C1154.97 106.378 1161.7 100.384 1168.53 94.5255C1176.69 87.3608 1186.13 81.8575 1196.34 78.2377C1199.85 77.0446 1203.6 76.9571 1207.17 77.9662C1212.54 79.5472 1217.57 82.1878 1221.88 85.7471C1231.51 93.3209 1239.95 102.303 1246.98 112.357C1248.23 114.384 1250.09 116.124 1251.67 117.992C1252.51 119.11 1253.39 120.062 1254.72 121.591C1246.71 126.525 1239.53 131.576 1231.81 135.515C1225.64 138.719 1220.42 143.445 1216.65 149.301C1219.72 151.8 1220.04 152.174 1222.77 151.632C1227.51 150.664 1232.25 149.497 1236.89 148.195C1239.54 147.05 1242.53 146.913 1245.27 147.838C1243.33 153.099 1238.85 156.173 1235.46 159.436C1232.1 162.701 1228.61 165.928 1225.45 169.363C1224.26 171.039 1223.26 172.852 1222.45 174.769C1224.25 175.875 1226.3 176.518 1228.42 176.663C1230.54 176.808 1232.64 176.485 1234.62 175.693C1240.67 173.62 1246.47 170.774 1252.34 168.097C1253.32 167.551 1254.42 167.307 1255.51 167.364C1256.61 167.42 1257.69 167.81 1258.58 168.462C1257.68 170.177 1256.91 171.995 1255.98 173.676C1255.01 175.357 1253.88 176.901 1252.75 178.477C1251.87 179.426 1251.38 180.716 1251.38 182.017C1251.39 183.318 1251.93 184.596 1252.84 185.516C1254.07 186.909 1255.44 188.105 1256.98 189.138C1260.1 190.638 1263.54 191.345 1267.03 191.185C1278.73 192.166 1290 196.039 1299.82 202.449C1301.99 203.862 1304.46 204.782 1307.01 205.136C1308.36 205.431 1309.79 205.328 1311.1 204.822C1312.4 204.316 1313.52 203.439 1314.3 202.288C1315.09 201.138 1315.55 199.78 1315.55 198.379C1315.58 196.979 1315.18 195.603 1314.44 194.421C1312.31 190.007 1309.8 185.785 1306.93 181.823C1300.64 173.219 1294.08 164.81 1287.52 156.434C1279.68 145.496 1271.13 135.078 1261.95 125.246C1261.04 124.126 1260.23 122.942 1259.56 121.66C1263.57 118.943 1267.74 116.497 1272.04 114.287C1284.91 108.555 1286.92 107.397 1298.76 117.819C1303.34 122.318 1307.73 127.046 1311.84 132.002C1314.82 135.167 1317.53 137.591 1320.93 141.399C1324.37 145.206 1327.82 148.814 1331.23 152.388C1332.91 154.658 1335.13 156.439 1337.69 157.56C1340.26 158.682 1343.07 159.141 1345.87 158.833C1350.16 158.224 1354.52 157.782 1358.73 156.77C1361.57 155.797 1364.65 155.962 1367.38 157.187C1371.92 159.45 1376.24 162.076 1380.37 164.998C1390.2 172.576 1399.72 180.581 1409.49 188.291C1415.79 193.126 1422.17 197.963 1428.61 202.801C1432.69 205.822 1436.92 208.579 1441.21 211.271C1447.53 215.173 1454.93 217.297 1460.53 222.518C1464.77 225.909 1469.7 228.381 1474.95 229.693C1479.2 231.116 1479.63 231.392 1479.81 235.331C1480.33 235.742 1480.89 236.188 1481.38 236.632C1481.39 236.132 1481.37 235.631 1481.34 235.13L1481.51 234.967ZM504.427 142.198C505.653 142.324 506.808 142.648 507.927 143.139C500.212 154.715 478.645 168.233 469.175 166.999C471.498 159.211 475.631 152.128 481.266 146.277C482.822 144.943 484.765 144.117 486.827 143.96C492.655 143.116 498.541 142.64 504.427 142.198ZM697.102 174.914C700.044 177.11 702.814 179.57 705.722 181.766C713.601 187.568 721.55 193.205 729.395 199.074C734.395 202.848 739.427 206.689 744.086 210.89C747.507 213.963 747.215 215.225 744.414 218.934C740.213 224.481 733.896 226.482 727.753 228.087C715.705 231.034 703.359 232.374 690.98 232.112C680.69 231.995 670.455 230.879 660.405 228.799C657.329 228.234 654.46 227.339 653.472 223.783C656.545 221.347 660.23 219.824 664.089 219.439C669.5 217.919 675.086 217.537 680.525 216.251C684.489 215.634 688.302 214.281 691.732 212.252C698.475 207.392 697.872 202.91 692.715 198.699C690.272 196.48 687.078 195.212 683.758 195.209C678.712 195.202 673.681 194.462 668.669 194.356C661.633 194.241 654.62 194.593 647.585 194.445C640.549 194.296 630.82 194.324 623.026 193.926C615.199 193.527 607.419 192.496 599.599 191.764L591.25 190.921L591.382 190.923C591.842 189.599 592.696 188.45 593.81 187.606C594.956 186.797 596.326 186.359 597.721 186.355C606.904 185.415 616.115 184.776 625.297 183.903C635.377 182.948 645.487 182.128 655.51 180.772C658.348 179.998 660.968 178.586 663.166 176.665C663.569 176.44 663.875 176.113 664.083 175.717C664.29 175.321 664.4 174.857 664.409 174.423C664.419 173.957 664.262 173.52 664.037 173.148C663.813 172.777 663.455 172.436 663.061 172.227C661.524 171.128 659.781 170.324 657.897 169.917C645.462 167.62 633.038 166.357 620.999 162.568C616.406 161.537 612.24 159.148 609.026 155.712C609.285 154.45 609.939 153.33 610.887 152.483C611.834 151.636 613.008 151.094 614.272 150.954C620.076 149.709 625.971 148.8 631.892 148.291C642.198 147.675 652.722 147.697 663.289 147.287C664.752 147.151 666.208 147.415 667.523 148.01C668.839 148.604 670.014 149.53 670.886 150.682C678.732 159.652 687.492 167.741 697.037 174.846L697.102 174.914ZM1026.43 133.779C1035.93 137.014 1044.51 142.464 1051.46 149.748C1047.3 153.329 1042.14 155.521 1036.69 155.972C1035.1 155.939 1033.55 155.439 1032.24 154.444C1030.96 153.484 1030.03 152.097 1029.6 150.554C1027.81 145.413 1025.37 140.259 1026.43 133.779ZM981.232 110.847C990.235 110.603 999.247 109.893 1008.01 113.28C1011.08 114.211 1013.79 116.036 1015.8 118.547C1017.8 121.057 1019 124.117 1019.26 127.324L1019.4 127.327C1008.76 128.169 998.06 126.81 987.974 123.328C985.504 122.376 983.279 120.828 981.494 118.856C979.71 116.884 978.399 114.522 977.689 111.939C978.829 111.429 979.998 111.087 981.231 110.88L981.232 110.847ZM971.298 108.002C958.055 112.525 943.772 108.121 938.656 90.9716C953.794 89.457 964.952 94.0615 971.298 108.002ZM901.251 68.3377C908.158 68.2834 915.116 67.3632 921.789 70.5389C924.555 71.6312 926.802 73.7129 928.141 76.3425C929.54 79.2734 930.902 82.3704 932.587 85.9077C930.886 86.2719 929.188 86.5029 927.46 86.5664C924.543 86.3714 921.602 85.6757 918.715 85.6147C908.468 85.0315 903.268 78.1517 898.501 69.6469C899.776 68.9735 900.521 68.2889 901.317 68.3391L901.251 68.3377ZM1058.08 153.79C1062.65 157.788 1066.94 162.114 1070.96 166.668C1073.03 169.313 1074.02 172.635 1073.78 175.999C1073.51 179.361 1072.02 182.498 1069.58 184.781C1061.3 193.043 1051.57 199.675 1040.85 204.384C1030.08 209.326 1018.69 212.82 1007.03 214.708C1000.19 216.365 993.051 216.214 986.286 214.27C984.048 213.323 981.846 212.242 979.747 211.031C981.715 207.437 985.025 204.772 988.967 203.622C992.08 202.454 995.412 201.89 998.46 200.621C1000.84 199.604 1003.03 198.183 1004.89 196.421C1005.4 196.032 1005.77 195.506 1005.98 194.943C1006.2 194.348 1006.24 193.715 1006.09 193.078C1005.94 192.475 1005.62 191.901 1005.16 191.491C1004.7 191.048 1004.11 190.769 1003.52 190.656C1001.41 189.878 999.127 189.463 996.869 189.515C985.536 190.009 974.216 191.504 962.9 191.265C952.476 191.179 941.858 192.455 931.656 189.739C924.987 187.964 917.749 187.978 911.903 183.385C910.141 181.914 908.243 180.607 909.153 178.358C909.536 177.532 910.116 176.811 910.792 176.225C911.469 175.639 912.275 175.189 913.144 174.907C917.684 173.736 922.346 173.101 927.03 172.966C942.03 173.316 957.022 172.466 971.907 170.379C976.067 169.9 980.021 168.182 983.167 165.414C982.926 164.242 982.384 163.196 981.573 162.279C980.795 161.395 979.814 160.708 978.693 160.317C974.442 158.793 970.05 157.7 965.547 157.071C956.232 156.408 946.847 155.876 937.512 154.545C931.818 153.758 926.006 153.869 920.311 153.115C910.81 151.813 901.308 150.512 891.92 148.58C883.556 146.869 875.41 144.296 867.158 141.987C865.147 141.311 863.172 140.502 861.266 139.562C861.756 138.371 862.542 137.321 863.522 136.508C864.535 135.696 865.709 135.153 866.975 134.913C875.659 132.495 884.536 130.348 893.313 128.199C898.453 126.94 903.851 126.021 909.06 124.597C911.438 123.613 913.723 122.361 915.846 120.871C912.115 116.724 907.436 113.49 902.233 111.446C894.923 108.557 887.506 106.033 880.163 103.143C876.936 101.874 873.816 100.274 870.729 98.6749C861.234 93.9055 856.832 85.4084 854.217 75.6151C853.972 74.6094 853.829 73.5392 853.851 72.5058C853.916 67.8383 855.609 66.2733 860.281 66.7388C867.702 67.4958 875.117 68.5195 882.607 69.1779C885.193 69.3659 887.819 69.1879 890.387 68.6752C890.856 68.485 891.322 68.4281 891.819 68.4386C892.317 68.4491 892.779 68.5923 893.206 68.8014C893.633 69.0105 894.025 69.319 894.349 69.6926C894.674 70.0663 894.897 70.5046 895.02 70.9741C897.08 75.6198 900.147 79.7532 903.994 83.0694C908.226 87.0607 913.823 89.3132 919.665 89.3699C923.944 89.5603 928.256 89.7514 932.494 90.3078C933.748 90.7012 934.825 91.5576 935.498 92.7058C937.944 96.3925 939.952 100.337 942.3 103.921C944.1 106.727 946.777 108.885 949.94 110.019C955.298 112.567 961.322 113.461 967.218 112.552C969.348 112.296 971.508 112.209 973.664 112.321C975.048 114.384 976.568 116.317 977.718 118.443C978.962 120.87 980.743 122.976 982.934 124.556C985.125 126.17 987.658 127.257 990.305 127.713C998.14 129.312 1005.89 131.677 1014.04 131.082C1014.74 131.03 1015.43 131.045 1016.13 131.126C1021.83 131.547 1022.28 132.39 1023.36 137.949C1024.21 142.936 1025.64 147.802 1027.67 152.414C1030.52 158.644 1035.64 160.186 1042 157.785C1044.27 156.933 1046.79 155.786 1048.76 154.96C1050.74 154.168 1052.59 152.84 1054.81 151.553C1055.96 152.211 1057.04 152.967 1058.05 153.822L1058.08 153.79ZM1267.32 134.964C1272.98 141.887 1277.85 148.759 1283.64 156.218C1289.42 163.678 1295.48 170.942 1301.06 178.564C1304.71 183.476 1307.68 188.742 1311.09 193.883C1311.81 194.765 1312.25 195.875 1312.29 197.01C1312.33 198.145 1312.04 199.306 1311.39 200.259C1310.61 201.21 1309.53 201.887 1308.33 202.195C1307.13 202.504 1305.87 202.377 1304.72 201.886C1302.7 201.343 1300.8 200.436 1299.06 199.265C1290.64 193.951 1281.36 190.187 1271.61 188.113C1270.45 187.889 1269.29 187.764 1268.09 187.806L1261.29 187.662C1260.09 187.837 1258.84 187.61 1257.75 187.12C1256.63 186.597 1255.72 185.744 1255.11 184.697C1254.64 183.453 1254.54 182.117 1254.76 180.821C1255.02 179.526 1255.61 178.338 1256.53 177.357C1258.17 174.923 1259.56 172.285 1260.61 169.539C1260.92 168.979 1261.07 168.348 1261.05 167.714C1261.03 167.08 1260.84 166.442 1260.49 165.901C1260.14 165.36 1259.65 164.95 1259.09 164.671C1258.53 164.392 1257.87 164.278 1257.24 164.332C1254.85 164.181 1252.45 164.531 1250.17 165.383C1244.85 167.339 1239.59 169.829 1234.23 171.85C1232.13 172.506 1229.99 172.961 1227.86 173.316L1226.9 171.762L1227.03 171.765C1228.3 169.857 1229.7 168.052 1231.2 166.316C1234.28 163.48 1237.24 161.475 1240.73 158.114C1244.26 154.753 1247.82 151.293 1247.67 145.787C1244.21 142.78 1240.67 143.805 1237.17 144.532C1234.27 145.138 1231.49 146.18 1228.62 146.953C1226.68 147.479 1224.68 147.87 1222.21 148.418C1222.56 146.224 1223.5 144.177 1224.93 142.539C1226.36 140.869 1228.27 139.642 1230.38 139.019C1237.69 135.739 1244.61 131.683 1251.05 126.916C1252.57 125.815 1254.31 125.018 1256.43 123.795C1260.1 127.574 1263.91 131.023 1267.32 135.064L1267.32 134.964Z" fill="#736658"/>
<path d="M323.617 253.967C323.55 249.263 322.865 248.682 318.015 247.245C312.601 245.797 307.507 243.288 303.064 239.893C299.181 236.676 294.989 233.92 290.522 231.624C278.92 226.01 269.333 217.803 259.368 210.156C245.546 199.626 231.737 188.496 217.916 177.899C211.87 173.336 205.089 170.591 197.315 173.929C196.479 174.211 195.646 174.394 194.78 174.509C185.817 176.02 177.558 175.612 172.372 166.499C172.083 166.059 171.726 165.651 171.302 165.309C161.889 156.672 153.053 147.415 144.827 137.636C142.389 135.15 139.749 132.827 136.971 130.734C129.302 124.436 121.393 124.735 113.219 129.765C108.342 132.764 103.268 135.591 97.055 138.962C96.1236 137.475 95.327 135.891 94.2607 134.501C87.6164 125.256 80.1955 116.629 72.0968 108.654C66.4702 103.099 59.9589 98.5593 52.8243 95.2404C50.5923 94.026 48.1174 93.3068 45.5994 93.0535C43.0815 92.8002 40.519 93.0796 38.0794 93.8285C24.2608 98.8726 11.5494 106.508 0.616763 116.382C-5.13762 121.596 -11.1864 126.605 -17.2677 131.579C-19.9719 133.856 -23.2566 135.321 -26.7525 135.78C-30.2483 136.24 -33.7888 135.665 -36.9776 134.164C-38.656 133.461 -40.3938 132.424 -42.1358 131.587C-46.4609 128.861 -51.5124 127.52 -56.597 127.747C-63.4206 128.57 -69.8255 131.569 -74.871 136.232C-81.9803 142.718 -88.4723 149.851 -94.1806 157.601C-96.9399 160.911 -99.9265 163.983 -103.14 166.817C-112.794 158.575 -122.402 151.336 -134.175 147.552C-134.548 146.344 -134.797 145.538 -135.044 144.666C-137.662 135.006 -144.63 130.09 -153.775 127.629C-161.439 125.766 -169.365 125.365 -177.192 126.534C-182.718 127.218 -182.319 127.159 -185.205 122.329C-187.887 117.27 -191.881 113.051 -196.766 110.079C-201.65 107.108 -207.228 105.556 -212.938 105.536C-222.166 105.408 -222.504 105.701 -225.844 97.1926C-227.19 93.3623 -229.71 90.0409 -233.014 87.7033C-236.351 85.3651 -240.31 84.1476 -244.361 84.1954L-261.917 83.8247C-263.478 80.6902 -264.975 77.7238 -266.372 74.6929C-267.579 72.0661 -269.288 69.6955 -271.472 67.7818C-273.656 65.8681 -276.182 64.4141 -278.92 63.5559C-281.392 62.7033 -283.758 61.5528 -286.195 60.6009C-288.501 59.7518 -290.597 58.4069 -292.354 56.7023C-294.111 54.9644 -295.461 52.8682 -296.309 50.5825C-297.123 48.2642 -298.072 46.0098 -299.187 43.8185C-301.038 40.2777 -303.192 36.9306 -305.649 33.7772C-306.686 32.5881 -307.961 31.6274 -309.408 30.9965C-310.855 30.3323 -312.375 29.9667 -313.968 29.9331C-315.561 29.8994 -317.094 30.2005 -318.568 30.8031C-320.041 31.4056 -321.355 32.3116 -322.441 33.4226C-332.425 43.9503 -342.702 54.2384 -352.067 65.3461C-359.076 73.3688 -366.639 80.9128 -374.655 87.8803C-383.792 96.0581 -393.188 103.897 -402.55 111.736C-406.167 114.762 -410.042 117.481 -413.787 120.27C-423.671 127.698 -433.592 135.226 -443.541 142.586C-448.295 146.021 -453.015 149.423 -458.068 152.851C-463.087 156.28 -469.758 156.14 -474.777 159.535L-475.806 159.514L-486.134 161.196C-487.301 161.472 -488.562 161.412 -489.682 161.021C-490.836 160.63 -491.851 159.942 -492.628 159.025C-498.704 152.727 -504.948 146.559 -511.229 140.523C-520.145 131.931 -530.439 127.311 -543.12 130.345L-548.191 131.505C-557.967 133.8 -566.948 133.01 -574.286 125.151C-576.074 123.346 -578.128 121.569 -580.015 119.728C-586.714 113.083 -593.514 106.503 -600.112 99.7606C-604.984 94.6552 -611.232 94.9235 -617.584 95.423C-618.586 95.702 -619.494 96.2831 -620.11 97.1372C-626.909 104.664 -633.742 112.19 -640.41 119.82C-646.127 126.402 -651.617 133.223 -657.432 139.77C-662.769 145.66 -668.526 151.008 -673.535 157.072C-674.49 158.252 -675.738 159.193 -677.145 159.797C-678.552 160.368 -680.084 160.602 -681.608 160.437C-691.898 160.353 -702.194 160.502 -712.486 160.485C-714.938 160.266 -717.372 160.749 -719.555 161.903C-721.737 163.058 -723.534 164.787 -724.774 166.929C-732.111 179.48 -739.645 191.927 -746.916 204.48C-748.524 208.314 -751.38 211.489 -755.008 213.513C-759.832 215.546 -764.748 217.209 -769.79 218.57C-773.964 219.716 -778.354 220.024 -782.558 221.002C-784.393 221.43 -786.04 222.396 -787.331 223.803C-790.02 226.914 -792.19 230.637 -794.849 233.882C-801.56 241.978 -809.671 248.743 -818.843 253.852C-823.174 256.095 -827.376 258.574 -831.418 261.29C-833.134 262.355 -834.559 263.825 -835.526 265.606C-836.424 267.221 -836.926 269.011 -836.998 270.844C-836.865 270.847 -836.701 270.917 -836.536 270.954C-836.018 270.031 -835.335 269.145 -834.521 268.328C-833.301 267.12 -831.754 266.219 -830.308 265.349C-830.106 265.22 -829.904 265.091 -829.702 264.962C-827.97 263.131 -825.914 261.64 -823.569 260.656C-821.154 259.506 -818.892 257.72 -816.44 256.404C-803.985 249.897 -793.617 240.011 -786.521 227.855C-785.934 226.8 -785.085 225.918 -784.108 225.238C-783.098 224.559 -781.993 224.149 -780.794 223.974C-772.854 222.141 -764.477 221.684 -757.123 217.737C-753.575 216.411 -750.376 214.278 -747.762 211.565C-741.904 202.985 -736.993 193.717 -731.559 184.794C-728.289 179.294 -724.827 174.164 -721.428 168.867C-720.363 167.155 -718.84 165.787 -717.028 164.891C-715.216 163.996 -713.184 163.638 -711.196 163.847C-704.359 163.991 -697.31 163.473 -690.303 163.421C-687.381 163.416 -684.47 163.911 -680.659 164.225C-682.035 166.531 -683.063 168.043 -683.927 169.659C-686.511 174.073 -689.334 178.849 -691.248 183.011C-693.162 187.172 -691.157 189.683 -686.577 189.779C-685.379 189.671 -684.213 189.462 -683.045 189.187C-675.514 187.879 -669.639 183.267 -663.673 179.024C-657.005 174.563 -651.176 168.95 -646.424 162.48C-646.7 161.407 -647.378 160.492 -648.262 159.874C-649.145 159.255 -650.234 158.931 -651.332 159.042C-653.754 158.957 -656.221 159.472 -658.644 159.421L-670.739 159.866C-669.808 158.251 -668.746 156.706 -667.586 155.23C-655.655 143.643 -645.416 130.486 -634.464 118.078C-629.942 113.071 -625.514 107.762 -620.958 102.689C-620.034 101.408 -618.849 100.332 -617.472 99.5607C-616.094 98.7894 -614.59 98.2876 -613.026 98.1205C-611.462 97.9535 -609.871 98.1204 -608.388 98.6187C-606.904 99.1169 -605.527 99.913 -604.355 101.005C-600.4 103.99 -596.724 107.569 -593.082 111.181C-586.541 117.489 -580.239 124.059 -573.63 130.268C-571.322 132.584 -568.537 134.344 -565.472 135.442C-562.408 136.541 -559.13 136.977 -555.903 136.678C-551.912 136.362 -547.945 135.579 -544.136 134.426C-539.321 132.827 -534.17 132.602 -529.214 133.774C-524.292 134.945 -519.764 137.475 -516.187 141.052C-511.233 145.426 -506.279 149.832 -501.495 154.402C-499.315 156.482 -497.508 158.988 -495.338 161.569C-496.008 161.822 -496.677 162.074 -497.377 162.226C-506.899 163.459 -516.472 163.991 -526.064 163.821C-532.703 163.748 -539.302 164.943 -545.527 167.279C-547.031 167.747 -548.377 168.619 -549.464 169.797C-550.552 170.975 -551.312 172.393 -551.676 173.919C-552.307 177.041 -549.15 178.508 -546.927 180.156C-546.372 180.568 -545.747 180.848 -545.158 181.26C-541.42 183.507 -537.235 184.996 -532.932 185.62C-526.949 186.847 -520.465 187.985 -514.981 189.268C-509.496 190.551 -504.046 191.867 -498.429 193.152C-499.79 196.292 -502.381 196.337 -504.444 196.56C-515.355 197.564 -526.295 198.333 -537.207 199.404C-545.027 200.206 -552.845 200.974 -560.574 202.212C-563.108 202.725 -565.424 203.91 -567.386 205.603C-571.004 208.695 -570.36 211.243 -565.702 212.342C-561.933 213.088 -558.159 213.635 -554.314 213.916C-547.191 214.667 -540.003 215.452 -533.009 215.967C-528.997 216.252 -524.974 215.97 -520.925 216.055C-508.372 215.92 -496.144 215.445 -483.799 215.706C-479.058 216.039 -474.393 216.805 -469.803 218.002C-468.65 218.427 -467.636 219.148 -466.859 220.099C-463.963 222.894 -463.976 225.095 -467.378 227.391C-469.702 228.943 -472.249 230.09 -474.953 230.766C-480.358 232.019 -485.283 232.549 -491.322 233.956C-497.361 235.329 -503.266 236.705 -508.024 241.907C-507.32 243.156 -506.926 244.932 -505.813 245.655C-503.365 247.641 -500.539 249.068 -497.503 249.933C-487.219 251.918 -476.821 253.204 -466.376 253.825C-452.537 254.117 -438.785 252.207 -425.55 248.117C-419.041 246.454 -413.346 242.472 -409.542 236.883C-408.204 234.844 -407.095 232.633 -408.712 230.598C-410.908 227.65 -413.442 224.995 -416.315 222.7C-423.867 217.138 -431.86 212 -439.308 206.24C-450.383 197.702 -461.219 188.869 -471.952 179.871C-476.847 175.799 -481.194 171.005 -486.4 165.96C-483.994 165.21 -482.588 164.673 -481.152 164.27C-476.809 163.027 -472.528 161.55 -468.127 160.643C-458.719 158.54 -451.886 152.515 -444.2 147.041C-436.548 141.567 -429.474 135.18 -421.692 129.875C-411.921 123.111 -402.536 115.805 -393.541 108.058C-390.6 105.552 -387.594 103.148 -384.719 100.641C-373.372 91.5759 -362.672 81.6969 -352.752 71.0678C-346.387 63.6652 -339.826 56.4002 -333.232 49.1692C-328.985 44.5566 -324.64 40.0461 -320.1 35.7731C-319.185 34.892 -318.075 34.2151 -316.872 33.807C-315.668 33.3989 -314.402 33.2255 -313.143 33.3188C-311.883 33.4121 -310.663 33.8047 -309.547 34.4286C-308.431 35.0524 -307.453 35.8735 -306.711 36.8896C-303.599 40.4904 -301.366 44.773 -300.168 49.3672C-299.735 50.877 -299.135 52.3237 -298.4 53.7066C-295.258 60.5429 -289.08 63.5748 -282.585 65.7463C-278.563 67.0985 -274.96 69.4424 -272.105 72.6042C-269.25 75.766 -267.239 79.5769 -266.298 83.7322C-278.745 86.7042 -290.987 81.5766 -303.252 82.2181C-305.319 85.7762 -308.142 88.9515 -307.006 93.3443C-304.001 105.113 -298.533 115 -287.069 120.845C-279.579 124.638 -271.741 127.672 -263.653 129.877C-256.849 131.555 -250.473 134.624 -244.952 138.91C-246.346 140.448 -248.032 141.679 -249.91 142.54C-251.787 143.401 -253.823 143.891 -255.882 143.948C-267.269 145.475 -278.574 147.804 -289.629 150.906C-292.301 151.65 -294.815 152.764 -297.138 154.282C-300.672 156.575 -300.744 158.408 -297.03 160.187C-291.61 162.97 -285.913 165.191 -280.072 166.849C-268.416 169.896 -256.648 172.346 -244.768 174.197C-232.321 175.961 -219.751 176.56 -207.188 177.559C-200.758 178.062 -194.287 178.232 -187.858 178.801C-185.275 179.122 -182.733 179.81 -180.33 180.761C-179.182 181.452 -178.138 182.308 -177.229 183.294C-183.202 186.269 -189.744 187.932 -196.391 188.225C-208.986 188.793 -221.541 189.028 -234.107 189.763C-238.628 190.035 -243.095 190.874 -247.407 192.284C-248.541 192.493 -249.581 193.038 -250.396 193.855C-251.21 194.671 -251.762 195.694 -251.986 196.856C-252.209 197.985 -252.101 199.155 -251.659 200.231C-251.217 201.308 -250.439 202.191 -249.49 202.845C-247.183 205.262 -244.334 207.089 -241.168 208.123C-231.352 210.265 -221.77 214.002 -211.434 213.52L-203.569 213.686C-189.665 214.047 -175.741 213.44 -161.93 211.931C-160.56 211.526 -159.132 211.49 -157.744 211.786C-156.356 212.082 -155.074 212.709 -153.998 213.633C-156.679 214.843 -158.763 216.033 -160.876 217.022C-166.274 219.51 -172.366 220.281 -177.161 224.115C-181.384 227.528 -181.406 230.162 -176.819 233.06C-172.555 235.518 -167.773 237.053 -162.868 237.49C-155.248 238.251 -147.53 237.547 -140.181 235.401C-135.581 234.531 -131.007 233.361 -126.561 231.921C-120.67 229.677 -115.096 226.693 -109.397 224.112C-99.841 219.679 -91.3054 213.256 -84.4299 205.264C-83.0376 203.792 -82.0371 202.012 -81.4646 200.057C-80.8921 198.101 -80.7828 196.069 -81.1056 194.062C-81.9617 189.008 -84.42 184.354 -88.1646 180.873C-92.1035 177.155 -95.7719 173.209 -100.029 168.85C-97.1881 166.375 -94.5411 163.663 -92.1554 160.745C-86.7464 153.023 -80.5199 145.884 -73.6111 139.46C-70.2602 136.429 -66.2934 134.112 -62.0131 132.668C-60.7076 132.162 -59.2431 131.993 -58.0026 131.419C-56.8955 130.875 -55.7276 130.6 -54.4982 130.559C-53.3022 130.518 -52.0784 130.743 -50.9592 131.201C-46.5799 132.927 -42.2013 134.687 -37.7478 136.049C-33.9645 137.696 -29.8994 138.582 -25.7496 138.603C-19.8862 137.66 -14.3866 135.074 -9.85517 131.168C-2.92657 125.378 3.80714 119.384 10.6376 113.526C18.7904 106.361 28.2362 100.857 38.4391 97.2377C41.9504 96.0446 45.7041 95.9571 49.2686 96.9662C54.647 98.5471 59.6711 101.188 63.9785 104.747C73.613 112.321 82.0556 121.303 89.0812 131.357C90.3333 133.384 92.189 135.124 93.7765 136.992C94.6161 138.11 95.4924 139.062 96.8214 140.591C88.8153 145.525 81.6367 150.576 73.9172 154.515C67.7404 157.719 62.5276 162.445 58.7517 168.301C61.8199 170.8 62.144 171.174 64.878 170.632C69.6131 169.664 74.3523 168.497 78.9949 167.195C81.642 166.05 84.6329 165.913 87.3692 166.838C85.4319 172.099 80.9512 175.173 77.5621 178.436C74.2063 181.701 70.7183 184.928 67.5581 188.363C66.3606 190.039 65.3595 191.852 64.5554 193.769C66.3581 194.875 68.4031 195.518 70.5249 195.663C72.6467 195.808 74.7452 195.485 76.7209 194.693C82.7741 192.62 88.5781 189.774 94.4449 187.097C95.4193 186.551 96.5201 186.307 97.6145 186.364C98.709 186.42 99.7963 186.81 100.679 187.462C99.7795 189.177 99.0107 190.995 98.0787 192.676C97.1136 194.357 95.9854 195.901 94.8565 197.477C93.9732 198.426 93.4812 199.716 93.4869 201.017C93.4926 202.318 94.03 203.596 94.9402 204.516C96.1725 205.909 97.5416 207.105 99.0803 208.138C102.203 209.638 105.641 210.345 109.13 210.185C120.83 211.166 132.103 215.039 141.928 221.449C144.089 222.862 146.56 223.782 149.109 224.136C150.464 224.431 151.894 224.328 153.2 223.822C154.505 223.316 155.619 222.439 156.407 221.288C157.195 220.138 157.655 218.78 157.652 217.379C157.681 215.979 157.279 214.603 156.54 213.421C154.409 209.007 151.908 204.785 149.037 200.823C142.744 192.219 136.182 183.81 129.619 175.434C121.782 164.496 113.237 154.078 104.049 144.246C103.143 143.126 102.338 141.942 101.667 140.66C105.676 137.943 109.844 135.497 114.141 133.287C127.011 127.555 129.028 126.397 140.86 136.819C145.446 141.318 149.829 146.046 153.941 151.002C156.928 154.167 159.633 156.591 163.038 160.399C166.477 164.206 169.921 167.814 173.331 171.388C175.01 173.658 177.23 175.439 179.796 176.56C182.362 177.681 185.174 178.141 187.97 177.833C192.266 177.224 196.624 176.782 200.829 175.77C203.672 174.797 206.756 174.962 209.486 176.187C214.02 178.45 218.347 181.076 222.469 183.998C232.302 191.576 241.828 199.581 251.593 207.291C257.898 212.126 264.27 216.963 270.709 221.801C274.795 224.822 279.02 227.579 283.313 230.271C289.638 234.173 297.031 236.297 302.631 241.518C306.875 244.909 311.803 247.381 317.055 248.693C321.308 250.116 321.733 250.392 321.916 254.331C322.439 254.742 322.994 255.188 323.482 255.632C323.493 255.132 323.47 254.631 323.448 254.13L323.617 253.967ZM-653.469 161.198C-652.243 161.324 -651.088 161.648 -649.97 162.139C-657.684 173.715 -679.252 187.233 -688.721 185.999C-686.399 178.211 -682.265 171.128 -676.63 165.277C-675.075 163.943 -673.132 163.117 -671.07 162.96C-665.242 162.116 -659.355 161.64 -653.469 161.198ZM-460.795 193.914C-457.853 196.11 -455.083 198.57 -452.174 200.766C-444.295 206.568 -436.346 212.205 -428.502 218.074C-423.502 221.848 -418.47 225.689 -413.811 229.89C-410.389 232.963 -410.682 234.225 -413.482 237.934C-417.683 243.481 -424.001 245.482 -430.144 247.087C-442.192 250.034 -454.538 251.374 -466.916 251.112C-477.206 250.995 -487.442 249.879 -497.491 247.799C-500.567 247.234 -503.437 246.339 -504.424 242.783C-501.351 240.347 -497.667 238.824 -493.807 238.439C-488.397 236.919 -482.811 236.537 -477.372 235.251C-473.408 234.634 -469.594 233.281 -466.165 231.252C-459.422 226.392 -460.024 221.91 -465.181 217.699C-467.625 215.48 -470.818 214.212 -474.138 214.209C-479.185 214.202 -484.216 213.462 -489.227 213.356C-496.263 213.241 -503.276 213.593 -510.312 213.445C-517.348 213.296 -527.076 213.324 -534.87 212.926C-542.697 212.527 -550.478 211.496 -558.298 210.764L-566.647 209.921L-566.514 209.923C-566.054 208.599 -565.2 207.45 -564.087 206.606C-562.941 205.797 -561.57 205.359 -560.176 205.355C-550.992 204.415 -541.782 203.776 -532.6 202.903C-522.52 201.948 -512.409 201.128 -502.387 199.772C-499.548 198.998 -496.929 197.586 -494.73 195.665C-494.327 195.44 -494.021 195.113 -493.814 194.717C-493.606 194.321 -493.497 193.857 -493.488 193.423C-493.478 192.957 -493.635 192.52 -493.859 192.148C-494.084 191.777 -494.442 191.436 -494.836 191.227C-496.373 190.128 -498.116 189.324 -500 188.917C-512.435 186.62 -524.859 185.357 -536.897 181.568C-541.49 180.537 -545.657 178.148 -548.871 174.712C-548.612 173.45 -547.957 172.33 -547.01 171.483C-546.062 170.636 -544.889 170.094 -543.624 169.954C-537.821 168.709 -531.925 167.8 -526.004 167.291C-515.699 166.675 -505.175 166.697 -494.608 166.287C-493.144 166.151 -491.689 166.415 -490.373 167.01C-489.058 167.604 -487.882 168.53 -487.01 169.682C-479.165 178.652 -470.404 186.741 -460.86 193.846L-460.795 193.914ZM-131.464 152.779C-121.97 156.014 -113.386 161.464 -106.435 168.748C-110.594 172.329 -115.754 174.521 -121.208 174.972C-122.801 174.939 -124.351 174.439 -125.658 173.444C-126.933 172.484 -127.866 171.097 -128.299 169.554C-130.082 164.413 -132.53 159.259 -131.464 152.779ZM-176.665 129.847C-167.662 129.603 -158.649 128.893 -149.889 132.28C-146.821 133.211 -144.104 135.036 -142.098 137.547C-140.093 140.057 -138.896 143.117 -138.632 146.324L-138.499 146.327C-149.141 147.169 -159.837 145.81 -169.923 142.328C-172.393 141.376 -174.618 139.828 -176.402 137.856C-178.187 135.884 -179.498 133.522 -180.207 130.939C-179.067 130.429 -177.898 130.087 -176.665 129.88L-176.665 129.847ZM-186.598 127.002C-199.841 131.525 -214.125 127.121 -219.241 109.972C-204.102 108.457 -192.944 113.061 -186.598 127.002ZM-256.646 87.3377C-249.739 87.2834 -242.78 86.3632 -236.107 89.5389C-233.341 90.6312 -231.094 92.7129 -229.756 95.3425C-228.357 98.2734 -226.994 101.37 -225.309 104.908C-227.01 105.272 -228.708 105.503 -230.436 105.566C-233.354 105.371 -236.294 104.676 -239.181 104.615C-249.428 104.031 -254.628 97.1517 -259.396 88.6469C-258.12 87.9735 -257.375 87.2889 -256.579 87.3391L-256.646 87.3377ZM-99.8136 172.79C-95.2499 176.788 -90.9587 181.114 -86.9378 185.668C-84.8688 188.313 -83.8765 191.635 -84.1135 194.999C-84.3837 198.361 -85.8777 201.498 -88.3164 203.781C-96.5921 212.043 -106.327 218.675 -117.051 223.384C-127.813 228.326 -139.209 231.82 -150.869 233.708C-157.71 235.365 -164.846 235.214 -171.611 233.27C-173.848 232.323 -176.05 231.242 -178.149 230.031C-176.181 226.437 -172.871 223.772 -168.929 222.622C-165.817 221.454 -162.485 220.89 -159.436 219.621C-157.058 218.604 -154.869 217.183 -153.006 215.421C-152.5 215.032 -152.124 214.506 -151.913 213.943C-151.701 213.348 -151.654 212.715 -151.807 212.078C-151.96 211.475 -152.28 210.901 -152.736 210.491C-153.192 210.048 -153.783 209.769 -154.379 209.656C-156.487 208.878 -158.769 208.463 -161.028 208.515C-172.36 209.009 -183.68 210.504 -194.997 210.265C-205.42 210.179 -216.039 211.455 -226.24 208.739C-232.91 206.964 -240.148 206.978 -245.994 202.385C-247.756 200.914 -249.654 199.607 -248.743 197.358C-248.36 196.532 -247.781 195.811 -247.104 195.225C-246.428 194.639 -245.622 194.189 -244.752 193.907C-240.212 192.736 -235.551 192.101 -230.866 191.966C-215.867 192.316 -200.875 191.466 -185.99 189.379C-181.83 188.9 -177.875 187.182 -174.729 184.414C-174.97 183.242 -175.512 182.196 -176.323 181.279C-177.101 180.395 -178.083 179.708 -179.203 179.317C-183.454 177.793 -187.847 176.7 -192.349 176.071C-201.665 175.408 -211.049 174.876 -220.384 173.545C-226.078 172.758 -231.891 172.869 -237.586 172.115C-247.087 170.813 -256.588 169.512 -265.977 167.58C-274.34 165.869 -282.487 163.296 -290.738 160.987C-292.749 160.311 -294.724 159.502 -296.63 158.562C-296.14 157.371 -295.355 156.321 -294.374 155.508C-293.361 154.696 -292.188 154.153 -290.921 153.913C-282.238 151.495 -273.361 149.348 -264.583 147.199C-259.444 145.94 -254.046 145.021 -248.836 143.597C-246.458 142.613 -244.174 141.361 -242.051 139.871C-245.781 135.724 -250.461 132.49 -255.664 130.446C-262.973 127.557 -270.39 125.033 -277.733 122.143C-280.96 120.874 -284.081 119.274 -287.168 117.675C-296.662 112.905 -301.065 104.408 -303.68 94.6151C-303.924 93.6094 -304.068 92.5392 -304.046 91.5058C-303.98 86.8383 -302.287 85.2733 -297.616 85.7388C-290.195 86.4958 -282.779 87.5195 -275.289 88.1779C-272.704 88.3659 -270.077 88.1879 -267.51 87.6752C-267.041 87.485 -266.575 87.4281 -266.077 87.4386C-265.579 87.4491 -265.117 87.5923 -264.69 87.8014C-264.263 88.0105 -263.871 88.319 -263.547 88.6926C-263.223 89.0663 -263 89.5046 -262.877 89.9741C-260.817 94.6198 -257.75 98.7532 -253.902 102.069C-249.67 106.061 -244.074 108.313 -238.231 108.37C-233.952 108.56 -229.64 108.751 -225.402 109.308C-224.149 109.701 -223.071 110.558 -222.398 111.706C-219.953 115.392 -217.945 119.337 -215.597 122.921C-213.796 125.727 -211.12 127.885 -207.956 129.019C-202.598 131.567 -196.574 132.461 -190.678 131.552C-188.548 131.296 -186.388 131.209 -184.233 131.321C-182.848 133.384 -181.329 135.317 -180.178 137.443C-178.935 139.87 -177.153 141.976 -174.962 143.556C-172.772 145.17 -170.238 146.257 -167.592 146.713C-159.757 148.312 -152.004 150.677 -143.857 150.082C-143.159 150.03 -142.462 150.045 -141.767 150.126C-136.065 150.547 -135.618 151.39 -134.54 156.949C-133.682 161.936 -132.258 166.802 -130.23 171.414C-127.374 177.644 -122.26 179.186 -115.901 176.785C-113.625 175.933 -111.111 174.786 -109.135 173.96C-107.159 173.168 -105.305 171.84 -103.087 170.553C-101.938 171.211 -100.859 171.967 -99.8475 172.822L-99.8136 172.79ZM109.421 153.964C115.085 160.887 119.954 167.759 125.739 175.218C131.525 182.678 137.58 189.942 143.163 197.564C146.811 202.476 149.787 207.742 153.198 212.883C153.91 213.765 154.351 214.875 154.394 216.01C154.436 217.145 154.146 218.306 153.495 219.259C152.711 220.21 151.635 220.887 150.433 221.195C149.231 221.504 147.972 221.377 146.82 220.886C144.807 220.343 142.9 219.436 141.165 218.265C132.745 212.951 123.461 209.187 113.711 207.113C112.553 206.889 111.394 206.764 110.198 206.806L103.395 206.662C102.196 206.837 100.939 206.61 99.8534 206.12C98.7356 205.597 97.824 204.744 97.2152 203.697C96.7435 202.453 96.6389 201.117 96.8654 199.821C97.1252 198.526 97.7147 197.338 98.6319 196.357C100.277 193.923 101.661 191.285 102.715 188.539C103.025 187.979 103.172 187.348 103.152 186.714C103.132 186.08 102.946 185.442 102.592 184.901C102.239 184.36 101.749 183.95 101.191 183.671C100.632 183.392 99.9706 183.278 99.3386 183.332C96.9513 183.181 94.5533 183.531 92.2776 184.383C86.9573 186.339 81.6921 188.829 76.3372 190.85C74.2316 191.506 72.0971 191.961 69.9647 192.316L69.0015 190.762L69.1343 190.765C70.403 188.857 71.8024 187.052 73.2999 185.316C76.3812 182.48 79.3452 180.475 82.8359 177.114C86.3599 173.753 89.9191 170.293 89.7698 164.787C86.314 161.78 82.7728 162.805 79.2714 163.532C76.3701 164.138 73.5924 165.18 70.7207 165.953C68.7839 166.479 66.7836 166.87 64.3151 167.418C64.6602 165.224 65.5999 163.177 67.0289 161.539C68.4586 159.869 70.3771 158.642 72.482 158.019C79.7891 154.739 86.7143 150.683 93.1565 145.916C94.6738 144.815 96.4171 144.018 98.5346 142.795C102.207 146.574 106.018 150.023 109.419 154.064L109.421 153.964Z" fill="#736658"/>
<path d="M2512.69 224.698C2512.63 220.504 2512.02 219.986 2507.7 218.705C2502.87 217.414 2498.33 215.178 2494.37 212.151C2490.9 209.283 2487.17 206.825 2483.19 204.779C2472.84 199.774 2464.29 192.458 2455.41 185.64C2443.09 176.253 2430.78 166.33 2418.46 156.883C2413.07 152.815 2407.02 150.368 2400.09 153.344C2399.35 153.595 2398.6 153.758 2397.83 153.861C2389.84 155.208 2382.48 154.845 2377.85 146.72C2377.6 146.328 2377.28 145.964 2376.9 145.659C2368.51 137.96 2360.63 129.706 2353.3 120.989C2351.12 118.773 2348.77 116.701 2346.29 114.835C2339.46 109.22 2332.41 109.488 2325.12 113.972C2320.77 116.645 2316.25 119.166 2310.71 122.171C2309.88 120.845 2309.17 119.433 2308.22 118.194C2302.29 109.952 2295.68 102.26 2288.46 95.1509C2283.44 90.1988 2277.64 86.1517 2271.28 83.1929C2269.29 82.1103 2267.08 81.4691 2264.84 81.2433C2262.59 81.0175 2260.31 81.2666 2258.13 81.9342C2245.81 86.431 2234.48 93.238 2224.73 102.041C2219.6 106.689 2214.21 111.154 2208.79 115.588C2206.38 117.619 2203.45 118.925 2200.33 119.334C2197.22 119.744 2194.06 119.232 2191.22 117.893C2189.72 117.267 2188.17 116.342 2186.62 115.596C2182.76 113.166 2178.26 111.971 2173.73 112.172C2167.65 112.906 2161.94 115.58 2157.44 119.737C2151.1 125.519 2145.31 131.878 2140.22 138.788C2137.76 141.738 2135.1 144.477 2132.24 147.003C2123.63 139.656 2115.06 133.202 2104.57 129.829C2104.23 128.751 2104.01 128.033 2103.79 127.256C2101.46 118.644 2095.25 114.261 2087.09 112.067C2080.26 110.407 2073.2 110.049 2066.22 111.091C2061.29 111.701 2061.65 111.649 2059.07 107.343C2056.68 102.833 2053.12 99.0707 2048.77 96.4219C2044.41 93.773 2039.44 92.3896 2034.35 92.3713C2026.12 92.257 2025.82 92.5182 2022.85 84.9333C2021.64 81.5186 2019.4 78.5575 2016.45 76.4736C2013.48 74.3891 2009.95 73.3037 2006.34 73.3463L1990.69 73.0158C1989.29 70.2214 1987.96 67.5769 1986.71 64.8748C1985.64 62.5331 1984.11 60.4197 1982.17 58.7136C1980.22 57.0076 1977.97 55.7113 1975.53 54.9462C1973.32 54.1861 1971.21 53.1605 1969.04 52.3118C1966.99 51.5549 1965.12 50.3559 1963.55 48.8362C1961.99 47.2869 1960.78 45.4181 1960.03 43.3805C1959.3 41.3137 1958.45 39.3038 1957.46 37.3503C1955.81 34.1937 1953.89 31.2097 1951.7 28.3985C1950.77 27.3384 1949.64 26.4819 1948.35 25.9195C1947.06 25.3274 1945.7 25.0014 1944.28 24.9714C1942.86 24.9415 1941.5 25.2099 1940.18 25.747C1938.87 26.2842 1937.7 27.0919 1936.73 28.0823C1927.83 37.4678 1918.67 46.6397 1910.32 56.5422C1904.07 63.6944 1897.33 70.4199 1890.18 76.6314C1882.03 83.9219 1873.66 90.9103 1865.31 97.8992C1862.09 100.596 1858.63 103.021 1855.29 105.507C1846.48 112.129 1837.64 118.84 1828.77 125.402C1824.53 128.464 1820.32 131.497 1815.82 134.553C1811.34 137.61 1805.4 137.485 1800.92 140.512L1800 140.492L1790.8 141.993C1789.76 142.238 1788.63 142.185 1787.63 141.837C1786.6 141.488 1785.7 140.874 1785.01 140.057C1779.59 134.442 1774.02 128.943 1768.42 123.563C1760.48 115.902 1751.3 111.784 1739.99 114.489L1735.47 115.523C1726.76 117.569 1718.75 116.865 1712.21 109.859C1710.61 108.249 1708.78 106.665 1707.1 105.024C1701.13 99.0998 1695.07 93.2337 1689.19 87.2227C1684.84 82.6713 1679.27 82.9104 1673.61 83.3557C1672.72 83.6045 1671.91 84.1225 1671.36 84.8839C1665.3 91.5941 1659.2 98.3036 1653.26 105.105C1648.16 110.974 1643.27 117.054 1638.08 122.891C1633.33 128.142 1628.19 132.91 1623.73 138.316C1622.88 139.368 1621.76 140.207 1620.51 140.745C1619.26 141.254 1617.89 141.463 1616.53 141.315C1607.36 141.241 1598.18 141.374 1589 141.358C1586.82 141.164 1584.65 141.593 1582.7 142.623C1580.76 143.652 1579.15 145.194 1578.05 147.103C1571.51 158.292 1564.79 169.389 1558.31 180.58C1556.88 183.998 1554.33 186.828 1551.09 188.633C1546.79 190.445 1542.41 191.928 1537.92 193.142C1534.2 194.163 1530.28 194.437 1526.53 195.309C1524.9 195.691 1523.43 196.552 1522.28 197.806C1519.88 200.58 1517.95 203.899 1515.58 206.792C1509.59 214.009 1502.36 220.041 1494.19 224.595C1490.33 226.595 1486.58 228.805 1482.98 231.226C1481.45 232.175 1480.18 233.486 1479.31 235.074C1478.51 236.514 1478.06 238.11 1478 239.743C1478.12 239.746 1478.27 239.808 1478.41 239.841C1478.87 239.019 1479.48 238.229 1480.21 237.501C1481.3 236.424 1482.68 235.62 1483.96 234.845C1484.14 234.73 1484.32 234.615 1484.5 234.499C1486.05 232.867 1487.88 231.538 1489.97 230.661C1492.13 229.636 1494.14 228.043 1496.33 226.87C1507.43 221.069 1516.68 212.256 1523 201.419C1523.52 200.479 1524.28 199.692 1525.15 199.086C1526.05 198.48 1527.04 198.115 1528.11 197.959C1535.19 196.325 1542.65 195.917 1549.21 192.399C1552.37 191.217 1555.22 189.315 1557.55 186.896C1562.78 179.247 1567.16 170.985 1572 163.03C1574.92 158.127 1578 153.554 1581.03 148.831C1581.98 147.305 1583.34 146.085 1584.95 145.287C1586.57 144.488 1588.38 144.17 1590.15 144.356C1596.25 144.485 1602.53 144.023 1608.78 143.976C1611.38 143.972 1613.98 144.413 1617.38 144.693C1616.15 146.748 1615.23 148.096 1614.46 149.537C1612.16 153.472 1609.64 157.73 1607.94 161.44C1606.23 165.15 1608.02 167.388 1612.1 167.474C1613.17 167.378 1614.21 167.192 1615.25 166.946C1621.96 165.78 1627.2 161.669 1632.52 157.886C1638.46 153.909 1643.66 148.905 1647.9 143.137C1647.65 142.181 1647.05 141.365 1646.26 140.813C1645.47 140.262 1644.5 139.974 1643.52 140.072C1641.36 139.996 1639.16 140.455 1637 140.41L1626.22 140.806C1627.05 139.367 1628 137.99 1629.03 136.674C1639.67 126.344 1648.8 114.614 1658.56 103.552C1662.59 99.0887 1666.54 94.3556 1670.6 89.8331C1671.42 88.6909 1672.48 87.7321 1673.71 87.0445C1674.94 86.3569 1676.28 85.9095 1677.67 85.7606C1679.07 85.6116 1680.48 85.7605 1681.81 86.2047C1683.13 86.6488 1684.36 87.3586 1685.4 88.332C1688.93 90.9931 1692.21 94.1841 1695.45 97.4042C1701.28 103.028 1706.9 108.884 1712.79 114.42C1714.85 116.485 1717.33 118.054 1720.07 119.033C1722.8 120.012 1725.72 120.401 1728.6 120.135C1732.15 119.853 1735.69 119.155 1739.09 118.127C1743.38 116.701 1747.97 116.501 1752.39 117.545C1756.78 118.589 1760.82 120.845 1764 124.034C1768.42 127.933 1772.84 131.862 1777.1 135.936C1779.05 137.79 1780.66 140.024 1782.59 142.325C1781.99 142.55 1781.4 142.775 1780.77 142.911C1772.28 144.01 1763.75 144.484 1755.2 144.333C1749.28 144.267 1743.4 145.332 1737.85 147.415C1736.51 147.833 1735.31 148.61 1734.34 149.66C1733.37 150.71 1732.69 151.974 1732.37 153.335C1731.8 156.118 1734.62 157.426 1736.6 158.895C1737.09 159.262 1737.65 159.512 1738.18 159.88C1741.51 161.883 1745.24 163.21 1749.08 163.767C1754.41 164.861 1760.19 165.875 1765.08 167.018C1769.97 168.162 1774.83 169.335 1779.84 170.481C1778.62 173.28 1776.31 173.321 1774.47 173.52C1764.75 174.414 1754.99 175.1 1745.26 176.054C1738.29 176.769 1731.32 177.455 1724.43 178.558C1722.17 179.016 1720.11 180.072 1718.36 181.581C1715.14 184.338 1715.71 186.609 1719.86 187.589C1723.22 188.254 1726.59 188.742 1730.01 188.992C1736.36 189.662 1742.77 190.362 1749.01 190.821C1752.58 191.075 1756.17 190.823 1759.78 190.899C1770.97 190.779 1781.87 190.355 1792.88 190.588C1797.1 190.885 1801.26 191.567 1805.36 192.635C1806.38 193.013 1807.29 193.657 1807.98 194.504C1810.56 196.996 1810.55 198.959 1807.52 201.005C1805.45 202.389 1803.17 203.411 1800.76 204.014C1795.95 205.131 1791.55 205.604 1786.17 206.858C1780.79 208.082 1775.52 209.309 1771.28 213.946C1771.91 215.059 1772.26 216.643 1773.25 217.288C1775.44 219.058 1777.95 220.331 1780.66 221.101C1789.83 222.871 1799.1 224.018 1808.41 224.571C1820.75 224.832 1833.01 223.129 1844.81 219.483C1850.61 218 1855.69 214.45 1859.08 209.468C1860.27 207.649 1861.26 205.678 1859.82 203.864C1857.86 201.236 1855.6 198.869 1853.04 196.823C1846.31 191.865 1839.18 187.284 1832.54 182.149C1822.67 174.538 1813.01 166.663 1803.44 158.642C1799.08 155.011 1795.2 150.737 1790.56 146.239C1792.7 145.571 1793.96 145.092 1795.24 144.733C1799.11 143.625 1802.93 142.308 1806.85 141.499C1815.24 139.625 1821.33 134.253 1828.18 129.373C1835 124.493 1841.31 118.799 1848.25 114.069C1856.96 108.04 1865.32 101.527 1873.34 94.62C1875.96 92.3861 1878.64 90.2426 1881.21 88.0074C1891.32 79.926 1900.86 71.1189 1909.71 61.6431C1915.38 55.0437 1921.23 48.5669 1927.11 42.1204C1930.89 38.0083 1934.77 33.9872 1938.82 30.1779C1939.63 29.3924 1940.62 28.7889 1941.69 28.4251C1942.77 28.0612 1943.89 27.9067 1945.02 27.9898C1946.14 28.073 1947.23 28.423 1948.22 28.9792C1949.22 29.5354 1950.09 30.2673 1950.75 31.1732C1953.53 34.3833 1955.52 38.2012 1956.59 42.2969C1956.97 43.643 1957.51 44.9327 1958.16 46.1655C1960.96 52.2601 1966.47 54.9631 1972.26 56.8989C1975.85 58.1044 1979.06 60.194 1981.6 63.0127C1984.15 65.8315 1985.94 69.229 1986.78 72.9334C1975.68 75.5829 1964.77 71.0117 1953.84 71.5835C1951.99 74.7556 1949.48 77.5864 1950.49 81.5025C1953.17 91.9947 1958.04 100.809 1968.26 106.02C1974.94 109.401 1981.93 112.106 1989.14 114.072C1995.2 115.567 2000.89 118.304 2005.81 122.124C2004.57 123.495 2003.06 124.593 2001.39 125.361C1999.72 126.128 1997.9 126.565 1996.07 126.616C1985.91 127.977 1975.84 130.054 1965.98 132.819C1963.6 133.482 1961.36 134.475 1959.29 135.829C1956.14 137.873 1956.07 139.507 1959.38 141.093C1964.21 143.574 1969.29 145.554 1974.5 147.032C1984.89 149.749 1995.38 151.932 2005.97 153.583C2017.07 155.155 2028.28 155.689 2039.48 156.58C2045.21 157.028 2050.98 157.18 2056.71 157.687C2059.01 157.974 2061.28 158.586 2063.42 159.434C2064.44 160.051 2065.37 160.813 2066.19 161.693C2060.86 164.345 2055.03 165.828 2049.1 166.089C2037.87 166.595 2026.68 166.805 2015.48 167.46C2011.45 167.702 2007.47 168.45 2003.62 169.707C2002.61 169.894 2001.68 170.38 2000.96 171.108C2000.23 171.836 1999.74 172.747 1999.54 173.783C1999.34 174.79 1999.44 175.833 1999.83 176.792C2000.22 177.752 2000.92 178.54 2001.76 179.122C2003.82 181.277 2006.36 182.906 2009.18 183.828C2017.93 185.737 2026.48 189.069 2035.69 188.639L2042.7 188.787C2055.1 189.109 2067.51 188.568 2079.82 187.223C2081.05 186.862 2082.32 186.829 2083.56 187.093C2084.79 187.357 2085.94 187.917 2086.9 188.74C2084.51 189.819 2082.65 190.88 2080.76 191.762C2075.95 193.979 2070.52 194.667 2066.25 198.085C2062.48 201.127 2062.46 203.476 2066.55 206.059C2070.35 208.251 2074.62 209.619 2078.99 210.009C2085.78 210.687 2092.66 210.06 2099.21 208.147C2103.31 207.371 2107.39 206.327 2111.36 205.043C2116.61 203.043 2121.58 200.383 2126.66 198.082C2135.18 194.13 2142.79 188.404 2148.92 181.279C2150.16 179.967 2151.05 178.38 2151.56 176.637C2152.07 174.894 2152.17 173.082 2151.88 171.292C2151.12 166.787 2148.92 162.637 2145.59 159.534C2142.07 156.219 2138.8 152.702 2135.01 148.816C2137.54 146.61 2139.9 144.192 2142.03 141.591C2146.85 134.706 2152.4 128.342 2158.56 122.615C2161.55 119.913 2165.08 117.847 2168.9 116.56C2170.06 116.109 2171.37 115.958 2172.48 115.446C2173.46 114.961 2174.5 114.716 2175.6 114.679C2176.67 114.642 2177.76 114.844 2178.75 115.251C2182.66 116.791 2186.56 118.36 2190.53 119.573C2193.91 121.042 2197.53 121.832 2201.23 121.851C2206.46 121.01 2211.36 118.705 2215.4 115.223C2221.58 110.061 2227.58 104.717 2233.67 99.4941C2240.94 93.1068 2249.36 88.2006 2258.45 84.9736C2261.58 83.9099 2264.93 83.8319 2268.11 84.7315C2272.9 86.1409 2277.38 88.4951 2281.22 91.6682C2289.81 98.4202 2297.34 106.428 2303.6 115.391C2304.72 117.198 2306.37 118.749 2307.79 120.414C2308.54 121.411 2309.32 122.26 2310.5 123.623C2303.36 128.021 2296.96 132.524 2290.08 136.036C2284.58 138.893 2279.93 143.106 2276.56 148.327C2279.3 150.555 2279.59 150.888 2282.02 150.404C2286.24 149.542 2290.47 148.501 2294.61 147.34C2296.97 146.32 2299.64 146.198 2302.07 147.022C2300.35 151.713 2296.35 154.453 2293.33 157.362C2290.34 160.272 2287.23 163.15 2284.41 166.212C2283.35 167.706 2282.45 169.322 2281.74 171.032C2283.34 172.017 2285.17 172.591 2287.06 172.72C2288.95 172.849 2290.82 172.561 2292.58 171.855C2297.98 170.007 2303.15 167.47 2308.38 165.083C2309.25 164.596 2310.23 164.379 2311.21 164.429C2312.18 164.48 2313.15 164.827 2313.94 165.409C2313.14 166.938 2312.45 168.558 2311.62 170.057C2310.76 171.555 2309.76 172.931 2308.75 174.337C2307.96 175.183 2307.52 176.333 2307.53 177.493C2307.53 178.652 2308.01 179.792 2308.82 180.612C2309.92 181.854 2311.14 182.921 2312.51 183.842C2315.3 185.179 2318.36 185.808 2321.47 185.666C2331.9 186.54 2341.95 189.993 2350.71 195.708C2352.64 196.968 2354.84 197.787 2357.12 198.103C2358.32 198.366 2359.6 198.274 2360.76 197.823C2361.93 197.372 2362.92 196.59 2363.62 195.565C2364.32 194.539 2364.73 193.329 2364.73 192.08C2364.76 190.832 2364.4 189.605 2363.74 188.551C2361.84 184.616 2359.61 180.852 2357.05 177.32C2351.44 169.649 2345.59 162.153 2339.74 154.685C2332.75 144.935 2325.14 135.646 2316.94 126.881C2316.14 125.883 2315.42 124.827 2314.82 123.685C2318.39 121.263 2322.11 119.082 2325.94 117.111C2337.42 112.002 2339.21 110.969 2349.76 120.26C2353.85 124.271 2357.76 128.486 2361.42 132.904C2364.09 135.726 2366.5 137.887 2369.53 141.281C2372.6 144.676 2375.67 147.892 2378.71 151.078C2380.21 153.102 2382.19 154.69 2384.47 155.689C2386.76 156.689 2389.27 157.099 2391.76 156.824C2395.59 156.281 2399.48 155.887 2403.22 154.985C2405.76 154.117 2408.51 154.265 2410.94 155.357C2414.98 157.374 2418.84 159.715 2422.52 162.32C2431.28 169.076 2439.77 176.212 2448.48 183.086C2454.1 187.396 2459.78 191.709 2465.52 196.022C2469.16 198.715 2472.93 201.173 2476.76 203.573C2482.4 207.052 2488.99 208.945 2493.98 213.599C2497.76 216.623 2502.16 218.826 2506.84 219.996C2510.63 221.265 2511.01 221.511 2511.17 225.022C2511.64 225.389 2512.13 225.786 2512.57 226.182C2512.58 225.736 2512.56 225.29 2512.54 224.843L2512.69 224.698ZM1641.62 141.994C1642.71 142.106 1643.74 142.395 1644.74 142.833C1637.86 153.153 1618.63 165.204 1610.19 164.104C1612.26 157.161 1615.95 150.847 1620.97 145.631C1622.36 144.441 1624.09 143.705 1625.93 143.565C1631.12 142.813 1636.37 142.388 1641.62 141.994ZM1813.39 171.16C1816.01 173.118 1818.48 175.311 1821.07 177.269C1828.1 182.442 1835.18 187.467 1842.18 192.699C1846.63 196.064 1851.12 199.488 1855.27 203.233C1858.32 205.973 1858.06 207.097 1855.57 210.404C1851.82 215.35 1846.19 217.134 1840.71 218.564C1829.97 221.191 1818.96 222.386 1807.93 222.153C1798.76 222.048 1789.63 221.053 1780.67 219.199C1777.93 218.695 1775.37 217.898 1774.49 214.728C1777.23 212.556 1780.51 211.198 1783.96 210.854C1788.78 209.499 1793.76 209.158 1798.61 208.012C1802.14 207.462 1805.54 206.256 1808.6 204.447C1814.61 200.115 1814.07 196.119 1809.48 192.365C1807.3 190.387 1804.45 189.256 1801.49 189.253C1796.99 189.247 1792.51 188.588 1788.04 188.493C1781.77 188.391 1775.51 188.705 1769.24 188.572C1762.97 188.44 1754.3 188.465 1747.35 188.11C1740.37 187.754 1733.43 186.835 1726.46 186.182L1719.02 185.43L1719.14 185.433C1719.55 184.252 1720.31 183.228 1721.3 182.476C1722.32 181.754 1723.54 181.364 1724.79 181.36C1732.98 180.522 1741.19 179.952 1749.37 179.174C1758.36 178.323 1767.37 177.592 1776.31 176.383C1778.84 175.693 1781.17 174.434 1783.13 172.722C1783.49 172.521 1783.76 172.229 1783.95 171.877C1784.13 171.524 1784.23 171.11 1784.24 170.723C1784.25 170.307 1784.11 169.918 1783.91 169.586C1783.71 169.255 1783.39 168.951 1783.04 168.765C1781.67 167.785 1780.11 167.068 1778.44 166.706C1767.35 164.658 1756.27 163.532 1745.54 160.154C1741.45 159.235 1737.73 157.105 1734.87 154.042C1735.1 152.917 1735.68 151.918 1736.53 151.163C1737.37 150.408 1738.42 149.925 1739.54 149.8C1744.72 148.69 1749.97 147.88 1755.25 147.426C1764.44 146.877 1773.82 146.897 1783.24 146.531C1784.55 146.41 1785.84 146.645 1787.02 147.175C1788.19 147.705 1789.24 148.53 1790.02 149.558C1797.01 157.554 1804.82 164.766 1813.33 171.1L1813.39 171.16ZM2106.98 134.488C2115.45 137.372 2123.1 142.232 2129.3 148.725C2125.59 151.917 2120.99 153.871 2116.13 154.274C2114.71 154.244 2113.33 153.799 2112.16 152.912C2111.02 152.055 2110.19 150.819 2109.81 149.443C2108.22 144.861 2106.03 140.266 2106.98 134.488ZM2066.69 114.044C2074.71 113.827 2082.75 113.194 2090.56 116.213C2093.29 117.044 2095.72 118.671 2097.5 120.909C2099.29 123.147 2100.36 125.875 2100.59 128.734L2100.71 128.737C2091.23 129.488 2081.69 128.275 2072.7 125.172C2070.5 124.323 2068.51 122.943 2066.92 121.185C2065.33 119.427 2064.16 117.321 2063.53 115.018C2064.55 114.564 2065.59 114.259 2066.69 114.074L2066.69 114.044ZM2057.83 111.509C2046.03 115.541 2033.29 111.615 2028.73 96.3258C2042.23 94.9756 2052.18 99.0804 2057.83 111.509ZM1995.39 76.1476C2001.54 76.0993 2007.75 75.2789 2013.7 78.1101C2016.16 79.0838 2018.16 80.9397 2019.36 83.284C2020.6 85.8969 2021.82 88.6578 2023.32 91.8113C2021.81 92.1361 2020.29 92.3419 2018.75 92.3986C2016.15 92.2247 2013.53 91.6045 2010.95 91.5501C2001.82 91.0302 1997.18 84.8969 1992.93 77.3148C1994.07 76.7145 1994.73 76.1042 1995.44 76.1489L1995.39 76.1476ZM2135.2 152.328C2139.27 155.893 2143.1 159.749 2146.68 163.809C2148.52 166.167 2149.41 169.129 2149.2 172.127C2148.96 175.125 2147.62 177.921 2145.45 179.957C2138.07 187.323 2129.39 193.235 2119.83 197.433C2110.24 201.839 2100.08 204.954 2089.68 206.637C2083.59 208.114 2077.22 207.98 2071.19 206.247C2069.2 205.402 2067.24 204.439 2065.36 203.359C2067.12 200.155 2070.07 197.779 2073.58 196.753C2076.36 195.712 2079.33 195.21 2082.05 194.078C2084.17 193.171 2086.12 191.904 2087.78 190.334C2088.23 189.987 2088.57 189.518 2088.75 189.017C2088.94 188.485 2088.98 187.921 2088.85 187.354C2088.71 186.816 2088.43 186.304 2088.02 185.939C2087.61 185.544 2087.09 185.295 2086.56 185.194C2084.68 184.501 2082.64 184.131 2080.63 184.177C2070.53 184.618 2060.43 185.951 2050.35 185.738C2041.05 185.661 2031.59 186.799 2022.49 184.377C2016.55 182.794 2010.09 182.807 2004.88 178.713C2003.31 177.401 2001.62 176.235 2002.43 174.231C2002.77 173.495 2003.29 172.852 2003.89 172.329C2004.49 171.807 2005.21 171.406 2005.99 171.155C2010.04 170.11 2014.19 169.544 2018.37 169.424C2031.74 169.736 2045.1 168.978 2058.37 167.117C2062.08 166.69 2065.61 165.159 2068.41 162.691C2068.2 161.646 2067.72 160.714 2066.99 159.896C2066.3 159.109 2065.42 158.495 2064.42 158.147C2060.64 156.789 2056.72 155.814 2052.71 155.254C2044.4 154.662 2036.03 154.188 2027.71 153.002C2022.64 152.3 2017.45 152.398 2012.38 151.726C2003.91 150.566 1995.44 149.406 1987.07 147.684C1979.61 146.158 1972.35 143.864 1964.99 141.806C1963.2 141.204 1961.44 140.483 1959.74 139.644C1960.18 138.583 1960.88 137.646 1961.75 136.921C1962.65 136.197 1963.7 135.714 1964.83 135.5C1972.57 133.344 1980.48 131.43 1988.31 129.514C1992.89 128.392 1997.7 127.572 2002.35 126.302C2004.47 125.426 2006.5 124.309 2008.4 122.981C2005.07 119.284 2000.9 116.401 1996.26 114.579C1989.74 112.003 1983.13 109.753 1976.59 107.176C1973.71 106.045 1970.93 104.619 1968.17 103.193C1959.71 98.9413 1955.79 91.3662 1953.45 82.6355C1953.24 81.7389 1953.11 80.7848 1953.13 79.8636C1953.19 75.7025 1954.7 74.3072 1958.86 74.7222C1965.48 75.3971 1972.09 76.3097 1978.76 76.8967C1981.07 77.0643 1983.41 76.9056 1985.7 76.4485C1986.12 76.279 1986.53 76.2283 1986.98 76.2377C1987.42 76.247 1987.83 76.3747 1988.21 76.5611C1988.59 76.7475 1988.94 77.0225 1989.23 77.3556C1989.52 77.6888 1989.72 78.0795 1989.83 78.498C1991.67 82.6397 1994.4 86.3246 1997.83 89.281C2001.6 92.8392 2006.59 94.8474 2011.8 94.8979C2015.62 95.0677 2019.46 95.238 2023.24 95.7341C2024.36 96.0847 2025.32 96.8483 2025.92 97.8718C2028.1 101.159 2029.89 104.675 2031.98 107.871C2033.59 110.372 2035.97 112.296 2038.79 113.307C2043.57 115.578 2048.94 116.375 2054.19 115.564C2056.09 115.337 2058.02 115.259 2059.94 115.359C2061.18 117.198 2062.53 118.922 2063.56 120.816C2064.66 122.98 2066.25 124.857 2068.21 126.266C2070.16 127.705 2072.42 128.674 2074.78 129.081C2081.76 130.507 2088.67 132.615 2095.94 132.084C2096.56 132.038 2097.18 132.051 2097.8 132.124C2102.88 132.499 2103.28 133.25 2104.24 138.206C2105.01 142.652 2106.28 146.99 2108.08 151.101C2110.63 156.655 2115.19 158.03 2120.86 155.89C2122.89 155.13 2125.13 154.107 2126.89 153.372C2128.65 152.666 2130.31 151.481 2132.28 150.334C2133.31 150.921 2134.27 151.595 2135.17 152.357L2135.2 152.328ZM2321.73 135.545C2326.78 141.717 2331.12 147.844 2336.28 154.493C2341.44 161.143 2346.84 167.62 2351.81 174.414C2355.07 178.794 2357.72 183.488 2360.76 188.071C2361.4 188.858 2361.79 189.847 2361.83 190.859C2361.86 191.871 2361.61 192.906 2361.03 193.756C2360.33 194.603 2359.37 195.207 2358.3 195.482C2357.22 195.757 2356.1 195.644 2355.08 195.206C2353.28 194.722 2351.58 193.913 2350.03 192.869C2342.53 188.132 2334.25 184.776 2325.56 182.928C2324.53 182.728 2323.49 182.617 2322.43 182.654L2316.36 182.525C2315.29 182.681 2314.17 182.479 2313.2 182.043C2312.21 181.576 2311.39 180.815 2310.85 179.882C2310.43 178.773 2310.34 177.582 2310.54 176.427C2310.77 175.272 2311.3 174.213 2312.12 173.338C2313.58 171.169 2314.82 168.816 2315.76 166.369C2316.03 165.869 2316.16 165.307 2316.14 164.742C2316.13 164.176 2315.96 163.608 2315.65 163.126C2315.33 162.643 2314.89 162.277 2314.4 162.029C2313.9 161.781 2313.31 161.679 2312.75 161.726C2310.62 161.592 2308.48 161.904 2306.45 162.664C2301.71 164.407 2297.01 166.627 2292.24 168.429C2290.36 169.014 2288.46 169.419 2286.56 169.736L2285.7 168.35L2285.82 168.353C2286.95 166.652 2288.2 165.043 2289.53 163.496C2292.28 160.967 2294.92 159.18 2298.03 156.183C2301.17 153.187 2304.35 150.103 2304.21 145.194C2301.13 142.513 2297.98 143.427 2294.86 144.075C2292.27 144.615 2289.79 145.544 2287.23 146.233C2285.51 146.702 2283.72 147.051 2281.52 147.539C2281.83 145.584 2282.67 143.758 2283.94 142.298C2285.22 140.809 2286.93 139.715 2288.8 139.16C2295.32 136.236 2301.49 132.62 2307.23 128.371C2308.59 127.388 2310.14 126.678 2312.03 125.588C2315.3 128.957 2318.7 132.032 2321.73 135.634L2321.73 135.545Z" fill="#736658"/>
</svg>
